<svg width="24" height="24" viewBox="0 0 24 24" fill="none" xmlns="http://www.w3.org/2000/svg">
<path d="M21 3.25C22.5188 3.25 23.75 4.48122 23.75 6V18C23.75 19.5188 22.5188 20.75 21 20.75H15C14.5858 20.75 14.25 20.4142 14.25 20C14.25 19.5858 14.5858 19.25 15 19.25H21C21.6904 19.25 22.25 18.6904 22.25 18V6C22.25 5.30964 21.6904 4.75 21 4.75H3C2.35279 4.75 1.82047 5.24187 1.75645 5.87219L1.75 6C1.75 6.41421 1.41421 6.75 1 6.75C0.585786 6.75 0.25 6.41421 0.25 6C0.25 4.48122 1.48122 3.25 3 3.25H21ZM1 9.25C6.93706 9.25 11.75 14.0629 11.75 20C11.75 20.4142 11.4142 20.75 11 20.75C10.5858 20.75 10.25 20.4142 10.25 20C10.25 14.8914 6.10863 10.75 1 10.75C0.585786 10.75 0.25 10.4142 0.25 10C0.25 9.58579 0.585786 9.25 1 9.25ZM1 13.25C4.72792 13.25 7.75 16.2721 7.75 20C7.75 20.4142 7.41421 20.75 7 20.75C6.58579 20.75 6.25 20.4142 6.25 20C6.25 17.1005 3.89949 14.75 1 14.75C0.585786 14.75 0.25 14.4142 0.25 14C0.25 13.5858 0.585786 13.25 1 13.25ZM1 17.25C2.51878 17.25 3.75 18.4812 3.75 20C3.75 20.4142 3.41421 20.75 3 20.75C2.58579 20.75 2.25 20.4142 2.25 20L2.24355 19.8722C2.17953 19.2419 1.64721 18.75 1 18.75L0.898229 18.7432C0.532154 18.6935 0.25 18.3797 0.25 18C0.25 17.5858 0.585786 17.25 1 17.25Z" fill="#191A1A"/>
</svg>
