<svg width="24" height="24" viewBox="0 0 24 24" fill="none" xmlns="http://www.w3.org/2000/svg">
<path fill-rule="evenodd" clip-rule="evenodd" d="M22.75 11.75C22.75 5.81079 17.9392 1 12 1C6.06079 1 1.25 5.81079 1.25 11.75C1.25 17.6892 6.06079 22.5 12 22.5C17.9392 22.5 22.75 17.6892 22.75 11.75ZM2.75 11.75C2.75 6.63921 6.88921 2.5 12 2.5C17.1108 2.5 21.25 6.63921 21.25 11.75C21.25 16.8608 17.1108 21 12 21C6.88921 21 2.75 16.8608 2.75 11.75ZM12.75 6C12.75 5.58579 12.4142 5.25 12 5.25C11.5858 5.25 11.25 5.58579 11.25 6V11.7427C11.25 12.1464 11.445 12.5252 11.7735 12.7599L15.0641 15.1103C15.4011 15.3511 15.8695 15.273 16.1103 14.9359C16.3511 14.5989 16.273 14.1305 15.9359 13.8897L12.75 11.614V6Z" fill="#191A1A"/>
</svg>
