<svg width="24" height="24" viewBox="0 0 24 24" fill="none" xmlns="http://www.w3.org/2000/svg">
<path fill-rule="evenodd" clip-rule="evenodd" d="M12.8924 2.46311C7.62532 1.34355 2.4479 4.7058 1.32834 9.97291C0.208786 15.24 3.57104 20.4174 8.83814 21.537C13.0712 22.4368 17.3533 20.4389 19.4081 16.7042C19.6078 16.3413 19.4755 15.8852 19.1126 15.6855C18.7497 15.4858 18.2936 15.6182 18.0939 15.9811C16.3557 19.1404 12.7318 20.8311 9.15001 20.0698C4.69323 19.1224 1.84825 14.7416 2.79556 10.2848C3.74288 5.82799 8.12377 2.98301 12.5806 3.93033L12.8604 3.99488C15.7323 4.70952 17.9689 6.89311 18.7866 9.68808L18.8463 9.90905L16.6525 8.8876C16.3084 8.72713 15.9048 8.85023 15.705 9.16102L15.6558 9.25036C15.4954 9.59449 15.6185 9.99812 15.9292 10.1978L16.0186 10.2471L19.8637 12.0401C20.2079 12.2005 20.6115 12.0774 20.8112 11.7667L20.8604 11.6773L22.6534 7.83217C22.8285 7.45677 22.6661 7.01053 22.2907 6.83548C21.9466 6.67501 21.5429 6.79811 21.3432 7.1089L21.294 7.19824L20.2658 9.40597C19.3045 5.93018 16.4926 3.22835 12.8924 2.46311ZM11.972 8.85303C13.421 8.85303 14.321 10.059 14.321 11.985C14.321 13.911 13.421 15.117 11.972 15.117C10.523 15.117 9.614 13.911 9.614 11.985C9.614 10.059 10.523 8.85303 11.972 8.85303ZM11.972 13.929C12.728 13.929 13.052 13.092 13.052 11.985C13.052 10.977 12.728 10.041 11.972 10.041C11.18 10.041 10.874 10.977 10.874 11.985C10.874 13.092 11.18 13.929 11.972 13.929ZM8.18686 8.97003H9.02386V15H7.74586V10.797C7.40386 10.977 6.89086 11.112 6.35986 11.112V9.88803C7.12486 9.88803 8.00686 9.52803 8.18686 8.97003Z" fill="#191A1A"/>
</svg>
