<svg width="24" height="24" viewBox="0 0 24 24" fill="none" xmlns="http://www.w3.org/2000/svg">
<path d="M8 15.25C8.41421 15.25 8.75 15.5858 8.75 16V20C8.75 20.4142 8.41421 20.75 8 20.75C7.58579 20.75 7.25 20.4142 7.25 20V16.75H4C3.58579 16.75 3.25 16.4142 3.25 16C3.25 15.5858 3.58579 15.25 4 15.25H8ZM20 15.25C20.4142 15.25 20.75 15.5858 20.75 16C20.75 16.4142 20.4142 16.75 20 16.75H16.75V20C16.75 20.4142 16.4142 20.75 16 20.75C15.5858 20.75 15.25 20.4142 15.25 20V16C15.25 15.5858 15.5858 15.25 16 15.25H20ZM16 3.25C16.4142 3.25 16.75 3.58579 16.75 4V7.25H20C20.4142 7.25 20.75 7.58579 20.75 8C20.75 8.41421 20.4142 8.75 20 8.75H16C15.5858 8.75 15.25 8.41421 15.25 8V4C15.25 3.58579 15.5858 3.25 16 3.25ZM8 3.25C8.41421 3.25 8.75 3.58579 8.75 4V8C8.75 8.41421 8.41421 8.75 8 8.75H4C3.58579 8.75 3.25 8.41421 3.25 8C3.25 7.58579 3.58579 7.25 4 7.25H7.25V4C7.25 3.58579 7.58579 3.25 8 3.25Z" fill="#191A1A"/>
</svg>
