<svg width="24" height="24" viewBox="0 0 24 24" fill="none" xmlns="http://www.w3.org/2000/svg">
<path d="M4 15.25C4.41421 15.25 4.75 15.5858 4.75 16V19.25H8C8.41421 19.25 8.75 19.5858 8.75 20C8.75 20.4142 8.41421 20.75 8 20.75H4C3.58579 20.75 3.25 20.4142 3.25 20V16C3.25 15.5858 3.58579 15.25 4 15.25ZM20 15.25C20.4142 15.25 20.75 15.5858 20.75 16V20C20.75 20.4142 20.4142 20.75 20 20.75H16C15.5858 20.75 15.25 20.4142 15.25 20C15.25 19.5858 15.5858 19.25 16 19.25H19.25V16C19.25 15.5858 19.5858 15.25 20 15.25ZM20 3.25C20.4142 3.25 20.75 3.58579 20.75 4V8C20.75 8.41421 20.4142 8.75 20 8.75C19.5858 8.75 19.25 8.41421 19.25 8V4.75H16C15.5858 4.75 15.25 4.41421 15.25 4C15.25 3.58579 15.5858 3.25 16 3.25H20ZM8 3.25C8.41421 3.25 8.75 3.58579 8.75 4C8.75 4.41421 8.41421 4.75 8 4.75H4.75V8C4.75 8.41421 4.41421 8.75 4 8.75C3.58579 8.75 3.25 8.41421 3.25 8V4C3.25 3.58579 3.58579 3.25 4 3.25H8Z" fill="#191A1A"/>
</svg>
