<svg width="24" height="24" viewBox="0 0 24 24" fill="none" xmlns="http://www.w3.org/2000/svg">
<path d="M9 3.25C9.9665 3.25 10.75 4.0335 10.75 5V19C10.75 19.9665 9.9665 20.75 9 20.75H6C5.0335 20.75 4.25 19.9665 4.25 19V5C4.25 4.0335 5.0335 3.25 6 3.25H9ZM18 3.25C18.9665 3.25 19.75 4.0335 19.75 5V19C19.75 19.9665 18.9665 20.75 18 20.75H15C14.0335 20.75 13.25 19.9665 13.25 19V5C13.25 4.0335 14.0335 3.25 15 3.25H18ZM9 4.75H6C5.86193 4.75 5.75 4.86193 5.75 5V19C5.75 19.1381 5.86193 19.25 6 19.25H9C9.13807 19.25 9.25 19.1381 9.25 19V5C9.25 4.86193 9.13807 4.75 9 4.75ZM18 4.75H15C14.8619 4.75 14.75 4.86193 14.75 5V19C14.75 19.1381 14.8619 19.25 15 19.25H18C18.1381 19.25 18.25 19.1381 18.25 19V5C18.25 4.86193 18.1381 4.75 18 4.75Z" fill="#191A1A"/>
</svg>
