<svg width="24" height="24" viewBox="0 0 24 24" fill="none" xmlns="http://www.w3.org/2000/svg">
<path fill-rule="evenodd" clip-rule="evenodd" d="M12 20.25C12 19.8358 11.6642 19.5 11.25 19.5H2.75L2.64823 19.5068C2.28215 19.5565 2 19.8703 2 20.25C2 20.6642 2.33579 21 2.75 21H11.25L11.3518 20.9932C11.7178 20.9435 12 20.6297 12 20.25ZM12 14.5833C12 14.1691 11.6642 13.8333 11.25 13.8333H2.75L2.64823 13.8402C2.28215 13.8898 2 14.2036 2 14.5833C2 14.9975 2.33579 15.3333 2.75 15.3333H11.25L11.3518 15.3265C11.7178 15.2768 12 14.963 12 14.5833ZM22 8.91667C22 8.50245 21.6642 8.16667 21.25 8.16667H2.75L2.64823 8.17351C2.28215 8.22318 2 8.53697 2 8.91667C2 9.33088 2.33579 9.66667 2.75 9.66667H21.25L21.3518 9.65982C21.7178 9.61016 22 9.29636 22 8.91667ZM22 3.25C22 2.83579 21.6642 2.5 21.25 2.5H2.75L2.64823 2.50685C2.28215 2.55651 2 2.8703 2 3.25C2 3.66421 2.33579 4 2.75 4H21.25L21.3518 3.99315C21.7178 3.94349 22 3.6297 22 3.25ZM18.25 13.75C18.6642 13.75 19 14.0858 19 14.5V16.75H21.25C21.6297 16.75 21.9435 17.0322 21.9932 17.3982L22 17.5C22 17.9142 21.6642 18.25 21.25 18.25H19V20.5C19 20.8797 18.7178 21.1935 18.3518 21.2432L18.25 21.25C17.8358 21.25 17.5 20.9142 17.5 20.5V18.25H15.25C14.8703 18.25 14.5565 17.9678 14.5068 17.6018L14.5 17.5C14.5 17.0858 14.8358 16.75 15.25 16.75H17.5V14.5C17.5 14.1203 17.7822 13.8065 18.1482 13.7568L18.25 13.75Z" fill="#191A1A"/>
</svg>
