<svg width="24" height="24" viewBox="0 0 24 24" fill="none" xmlns="http://www.w3.org/2000/svg">
<path d="M5.29167 4.70636V19.2936C5.29167 20.5363 6.29903 21.5436 7.54167 21.5436C7.96337 21.5436 8.37657 21.4251 8.73417 21.2016L20.404 13.908C21.4577 13.2494 21.7781 11.8612 21.1195 10.8075C20.9384 10.5178 20.6937 10.2731 20.404 10.092L8.73417 2.79836C7.68041 2.13976 6.29227 2.4601 5.63368 3.51386C5.44211 3.82037 5.32767 4.16774 5.29889 4.52629L5.29167 4.70636ZM6.79167 4.70636C6.79167 4.56579 6.83117 4.42806 6.90567 4.30886C7.12521 3.9576 7.58792 3.85082 7.93917 4.07036L19.609 11.364C19.7056 11.4243 19.7871 11.5059 19.8475 11.6025C20.067 11.9537 19.9602 12.4165 19.609 12.636L7.93917 19.9296C7.81997 20.0041 7.68224 20.0436 7.54167 20.0436C7.12746 20.0436 6.79167 19.7078 6.79167 19.2936V4.70636Z" fill="#191A1A"/>
</svg>
