<svg width="24" height="24" viewBox="0 0 24 24" fill="none" xmlns="http://www.w3.org/2000/svg">
<path fill-rule="evenodd" clip-rule="evenodd" d="M12 20.25C12 19.8358 11.6642 19.5 11.25 19.5H2.75L2.64823 19.5068C2.28215 19.5565 2 19.8703 2 20.25C2 20.6642 2.33579 21 2.75 21H11.25L11.3518 20.9932C11.7178 20.9435 12 20.6297 12 20.25ZM12 14.5833C12 14.1691 11.6642 13.8333 11.25 13.8333H2.75L2.64823 13.8402C2.28215 13.8898 2 14.2036 2 14.5833C2 14.9975 2.33579 15.3333 2.75 15.3333H11.25L11.3518 15.3265C11.7178 15.2768 12 14.963 12 14.5833ZM22 8.91667C22 8.50245 21.6642 8.16667 21.25 8.16667H2.75L2.64823 8.17351C2.28215 8.22318 2 8.53697 2 8.91667C2 9.33088 2.33579 9.66667 2.75 9.66667H21.25L21.3518 9.65982C21.7178 9.61016 22 9.29636 22 8.91667ZM22 3.25C22 2.83579 21.6642 2.5 21.25 2.5H2.75L2.64823 2.50685C2.28215 2.55651 2 2.8703 2 3.25C2 3.66421 2.33579 4 2.75 4H21.25L21.3518 3.99315C21.7178 3.94349 22 3.6297 22 3.25ZM16 20.1749V14.8253L16.0027 14.7592C16.0134 14.6277 16.0558 14.5003 16.1269 14.3879C16.3713 14.0015 16.8864 13.884 17.2774 14.1255L21.6075 16.8003C21.715 16.8667 21.8058 16.9565 21.873 17.0627C22.1174 17.4492 21.9985 17.9582 21.6075 18.1998L17.2774 20.8746C17.1447 20.9565 16.9913 21 16.8349 21C16.3738 21 16 20.6306 16 20.1749Z" fill="#191A1A"/>
</svg>
