<svg width="24" height="24" viewBox="0 0 24 24" fill="none" xmlns="http://www.w3.org/2000/svg">
<path fill-rule="evenodd" clip-rule="evenodd" d="M15.1616 21.537C20.4287 20.4174 23.791 15.24 22.6714 9.97291C21.5519 4.7058 16.3745 1.34355 11.1073 2.46311C7.50717 3.22835 4.69531 5.93018 3.73396 9.40597L2.70579 7.19824L2.65657 7.1089C2.45685 6.79811 2.05322 6.67501 1.70909 6.83548C1.33369 7.01053 1.17127 7.45677 1.34633 7.83217L3.13934 11.6773L3.18856 11.7667C3.38828 12.0774 3.79192 12.2005 4.13604 12.0401L7.98118 10.2471L8.07052 10.1978C8.38131 9.99812 8.50441 9.59449 8.34394 9.25036L8.29473 9.16102C8.09501 8.85023 7.69137 8.72713 7.34725 8.8876L5.15188 9.90905L5.21319 9.68808C6.05721 6.80295 8.41321 4.56928 11.4192 3.93033C15.876 2.98301 20.2569 5.82799 21.2042 10.2848C22.1515 14.7416 19.3065 19.1224 14.8498 20.0698C11.2679 20.8311 7.6441 19.1404 5.90586 15.9811C5.70618 15.6182 5.25012 15.4858 4.88721 15.6855C4.5243 15.8852 4.39197 16.3413 4.59164 16.7042C6.6465 20.4389 10.9286 22.4368 15.1616 21.537ZM14.972 8.85303C16.421 8.85303 17.321 10.059 17.321 11.985C17.321 13.911 16.421 15.117 14.972 15.117C13.523 15.117 12.614 13.911 12.614 11.985C12.614 10.059 13.523 8.85303 14.972 8.85303ZM14.972 13.929C15.728 13.929 16.052 13.092 16.052 11.985C16.052 10.977 15.728 10.041 14.972 10.041C14.18 10.041 13.874 10.977 13.874 11.985C13.874 13.092 14.18 13.929 14.972 13.929ZM11.1869 8.97003H12.0239V15H10.7459V10.797C10.4039 10.977 9.89086 11.112 9.35986 11.112V9.88803C10.1249 9.88803 11.0069 9.52803 11.1869 8.97003Z" fill="#191A1A"/>
</svg>
