<svg width="24" height="24" viewBox="0 0 24 24" fill="none" xmlns="http://www.w3.org/2000/svg">
<path d="M10.1073 2.46311C15.3745 1.34355 20.5519 4.7058 21.6714 9.97291C22.791 15.24 19.4287 20.4174 14.1616 21.537C9.92857 22.4368 5.6465 20.4389 3.59164 16.7042C3.39197 16.3413 3.5243 15.8852 3.88721 15.6855C4.25012 15.4858 4.70618 15.6182 4.90586 15.9811C6.6441 19.1404 10.2679 20.8311 13.8498 20.0698C18.3065 19.1224 21.1515 14.7416 20.2042 10.2848C19.2569 5.82799 14.876 2.98301 10.4192 3.93033C7.31928 4.58924 4.91059 6.94411 4.13852 9.96044L4.15188 9.91005L6.34725 8.8876C6.69137 8.72713 7.09501 8.85023 7.29473 9.16102L7.34394 9.25036C7.519 9.62577 7.35658 10.072 6.98118 10.2471L3.13604 12.0401C2.76063 12.2151 2.3144 12.0527 2.13934 11.6773L0.346327 7.83217C0.171273 7.45677 0.333689 7.01053 0.709094 6.83548C1.0845 6.66042 1.53073 6.82284 1.70579 7.19824L2.73396 9.40597C3.69531 5.93018 6.50717 3.22835 10.1073 2.46311ZM11.05 8.2103C11.3065 8.2103 11.5567 8.28918 11.7668 8.43626L15.3949 10.9759C15.9605 11.3718 16.098 12.1512 15.7021 12.7168C15.6185 12.8363 15.5145 12.9403 15.3949 13.024L11.7668 15.5637C11.2013 15.9596 10.4219 15.822 10.026 15.2565C9.87888 15.0464 9.8 14.7961 9.8 14.5396V9.4603C9.8 8.76994 10.3596 8.2103 11.05 8.2103ZM11.3 9.94046V14.0595L14.2422 12L11.3 9.94046Z" fill="#191A1A"/>
</svg>
