<svg width="24" height="24" viewBox="0 0 24 24" fill="none" xmlns="http://www.w3.org/2000/svg">
<path d="M19.4366 4.91443C18.8847 4.12102 17.794 3.92527 17.0006 4.47721L8.25175 10.5634C8.08122 10.682 7.93317 10.8301 7.81453 11.0006C7.2626 11.794 7.45835 12.8846 8.25175 13.4366L17.0006 19.5227L17.1517 19.6168C17.4104 19.7602 17.7022 19.8362 18 19.8362C18.9665 19.8362 19.75 19.0526 19.75 18.0862V5.91379C19.75 5.55648 19.6406 5.20774 19.4366 4.91443ZM5 4.24997C4.58579 4.24997 4.25 4.58576 4.25 4.99997V19C4.25 19.4142 4.58579 19.75 5 19.75C5.41421 19.75 5.75 19.4142 5.75 19V4.99997C5.75 4.58576 5.41421 4.24997 5 4.24997ZM17.8572 5.70856C17.9706 5.62972 18.1264 5.65768 18.2052 5.77102C18.2344 5.81293 18.25 5.86275 18.25 5.91379V18.0862C18.25 18.2242 18.1381 18.3362 18 18.3362C17.949 18.3362 17.8991 18.3205 17.8572 18.2914L9.10835 12.2052C8.99501 12.1263 8.96704 11.9705 9.04589 11.8572C9.06284 11.8328 9.08399 11.8117 9.10835 11.7947L17.8572 5.70856Z" fill="#191A1A"/>
</svg>
