<svg width="24" height="24" viewBox="0 0 24 24" fill="none" xmlns="http://www.w3.org/2000/svg">
<path d="M4.56342 4.91443C5.11535 4.12102 6.20596 3.92527 6.99936 4.47721L15.7482 10.5634C15.9188 10.682 16.0668 10.8301 16.1855 11.0006C16.7374 11.794 16.5417 12.8846 15.7482 13.4366L6.99936 19.5227L6.8483 19.6168C6.58956 19.7602 6.29775 19.8362 6 19.8362C5.0335 19.8362 4.25 19.0526 4.25 18.0862V5.91379C4.25 5.55648 4.35937 5.20774 4.56342 4.91443ZM19 4.24997C19.4142 4.24997 19.75 4.58576 19.75 4.99997V19C19.75 19.4142 19.4142 19.75 19 19.75C18.5858 19.75 18.25 19.4142 18.25 19V4.99997C18.25 4.58576 18.5858 4.24997 19 4.24997ZM6.14277 5.70856C6.02942 5.62972 5.87362 5.65768 5.79477 5.77102C5.76562 5.81293 5.75 5.86275 5.75 5.91379V18.0862C5.75 18.2242 5.86193 18.3362 6 18.3362C6.05104 18.3362 6.10086 18.3205 6.14277 18.2914L14.8917 12.2052C15.005 12.1263 15.033 11.9705 14.9541 11.8572C14.9372 11.8328 14.916 11.8117 14.8917 11.7947L6.14277 5.70856Z" fill="#191A1A"/>
</svg>
