<svg width="24" height="24" viewBox="0 0 24 24" fill="none" xmlns="http://www.w3.org/2000/svg">
<path d="M21 2.75C22.5188 2.75 23.75 3.98122 23.75 5.5V18.5C23.75 20.0188 22.5188 21.25 21 21.25H3C1.48122 21.25 0.25 20.0188 0.25 18.5V5.5C0.25 3.98122 1.48122 2.75 3 2.75H21ZM21 4.25H3C2.30964 4.25 1.75 4.80964 1.75 5.5V18.5C1.75 19.1904 2.30964 19.75 3 19.75H21C21.6904 19.75 22.25 19.1904 22.25 18.5V5.5C22.25 4.80964 21.6904 4.25 21 4.25ZM19 15.75C19.4142 15.75 19.75 16.0858 19.75 16.5C19.75 16.9142 19.4142 17.25 19 17.25H15C14.5858 17.25 14.25 16.9142 14.25 16.5C14.25 16.0858 14.5858 15.75 15 15.75H19ZM12 15.75C12.4142 15.75 12.75 16.0858 12.75 16.5C12.75 16.9142 12.4142 17.25 12 17.25H5C4.58579 17.25 4.25 16.9142 4.25 16.5C4.25 16.0858 4.58579 15.75 5 15.75H12ZM19 11.75C19.4142 11.75 19.75 12.0858 19.75 12.5C19.75 12.9142 19.4142 13.25 19 13.25H10C9.58579 13.25 9.25 12.9142 9.25 12.5C9.25 12.0858 9.58579 11.75 10 11.75H19ZM7 11.75C7.41421 11.75 7.75 12.0858 7.75 12.5C7.75 12.9142 7.41421 13.25 7 13.25H5C4.58579 13.25 4.25 12.9142 4.25 12.5C4.25 12.0858 4.58579 11.75 5 11.75H7Z" fill="#191A1A"/>
</svg>
