<svg width="24" height="24" viewBox="0 0 24 24" fill="none" xmlns="http://www.w3.org/2000/svg">
<path fill-rule="evenodd" clip-rule="evenodd" d="M1.75 13.917C1.75 8.30725 6.33371 3.75 12 3.75C17.6663 3.75 22.25 8.30725 22.25 13.917C22.25 14.8951 22.111 15.8398 21.8519 16.7333C21.7551 17.0669 21.6416 17.3936 21.5122 17.7123C21.3564 18.0961 21.5412 18.5335 21.925 18.6893C22.3088 18.8451 22.7462 18.6603 22.902 18.2765C23.0507 17.9102 23.1813 17.5347 23.2925 17.151C23.5906 16.1232 23.75 15.038 23.75 13.917C23.75 7.46813 18.484 2.25 12 2.25C5.51602 2.25 0.25 7.46813 0.25 13.917C0.25 15.038 0.409444 16.1232 0.707492 17.151C0.819357 17.5368 0.950712 17.9143 1.10042 18.2825C1.25644 18.6662 1.69397 18.8508 2.07768 18.6948C2.46138 18.5387 2.64596 18.1012 2.48994 17.7175C2.35969 17.3972 2.24543 17.0688 2.14814 16.7333C1.88904 15.8398 1.75 14.8951 1.75 13.917ZM12 7C12.4142 7 12.75 6.66421 12.75 6.25C12.75 5.83579 12.4142 5.5 12 5.5C11.5858 5.5 11.25 5.83579 11.25 6.25C11.25 6.66421 11.5858 7 12 7ZM20.5 14C20.5 14.4142 20.1642 14.75 19.75 14.75C19.3358 14.75 19 14.4142 19 14C19 13.5858 19.3358 13.25 19.75 13.25C20.1642 13.25 20.5 13.5858 20.5 14ZM4.25 14.75C4.66421 14.75 5 14.4142 5 14C5 13.5858 4.66421 13.25 4.25 13.25C3.83579 13.25 3.5 13.5858 3.5 14C3.5 14.4142 3.83579 14.75 4.25 14.75ZM7 8.5C7 8.91421 6.66421 9.25 6.25 9.25C5.83579 9.25 5.5 8.91421 5.5 8.5C5.5 8.08579 5.83579 7.75 6.25 7.75C6.66421 7.75 7 8.08579 7 8.5ZM12.8257 16.3138C12.4933 16.7549 11.8663 16.843 11.4253 16.5107C10.9842 16.1783 10.8961 15.5513 11.2285 15.1102C11.5376 14.7 13.1457 13.067 14.8819 11.5986C15.2565 11.2818 15.623 10.9849 15.9698 10.7191C15.8002 11.0935 15.6077 11.4917 15.3994 11.9021C14.3898 13.8908 13.1658 15.8626 12.8257 16.3138ZM17.8466 9.55333C17.8466 9.55333 17.8334 9.55784 17.8109 9.56121C17.836 9.55407 17.8466 9.55333 17.8466 9.55333ZM16.6809 8.63068C16.6809 8.63068 16.6823 8.63964 16.6814 8.66161C16.6799 8.64234 16.6809 8.63068 16.6809 8.63068ZM14.0237 17.2166C13.1927 18.3192 11.6252 18.5395 10.5225 17.7086C9.41986 16.8777 9.19956 15.3102 10.0305 14.2075C10.8614 13.1048 16.8973 7.31842 18 8.14935C19.1026 8.98028 14.8546 16.1139 14.0237 17.2166Z" fill="#191A1A"/>
</svg>
