<svg width="24" height="24" viewBox="0 0 24 24" fill="none" xmlns="http://www.w3.org/2000/svg">
<path d="M10.5963 16.125L15.6535 20.7799C16.1614 21.2474 16.9522 21.2147 17.4197 20.7067C17.6321 20.476 17.75 20.1738 17.75 19.8602V4.13977C17.75 3.44941 17.1904 2.88977 16.5 2.88977C16.1864 2.88977 15.8842 3.00767 15.6535 3.22007L10.5963 7.87498H7C6.0335 7.87498 5.25 8.65848 5.25 9.62498V14.375C5.25 15.3415 6.0335 16.125 7 16.125H10.5963ZM16.25 4.70967V19.2903L11.3968 14.8232C11.2584 14.6957 11.0771 14.625 10.8889 14.625H7C6.86193 14.625 6.75 14.513 6.75 14.375V9.62498C6.75 9.48691 6.86193 9.37498 7 9.37498H10.8889C11.0771 9.37498 11.2584 9.30424 11.3968 9.1768L16.25 4.70967Z" fill="#191A1A"/>
</svg>
