<svg width="24" height="24" viewBox="0 0 24 24" fill="none" xmlns="http://www.w3.org/2000/svg">
<path d="M12.5 2.88977C13.1904 2.88977 13.75 3.44941 13.75 4.13977V19.8602C13.75 20.1738 13.6321 20.476 13.4197 20.7067C12.9522 21.2147 12.1614 21.2474 11.6535 20.7799L6.59626 16.125H3C2.0335 16.125 1.25 15.3415 1.25 14.375V9.62498C1.25 8.65848 2.0335 7.87498 3 7.87498H6.59626L11.6535 3.22007C11.8842 3.00767 12.1864 2.88977 12.5 2.88977ZM18.248 3.69135C18.5409 3.39845 19.0157 3.39845 19.3086 3.69135C23.8975 8.28024 23.8975 15.7201 19.3086 20.309C19.0157 20.6019 18.5409 20.6019 18.248 20.309C17.9551 20.0161 17.9551 19.5412 18.248 19.2483C22.2511 15.2452 22.2511 8.75511 18.248 4.75201C17.9551 4.45911 17.9551 3.98424 18.248 3.69135ZM12.25 4.70967L7.39682 9.1768C7.25836 9.30424 7.07706 9.37498 6.88889 9.37498H3C2.86193 9.37498 2.75 9.48691 2.75 9.62498V14.375C2.75 14.513 2.86193 14.625 3 14.625H6.88889C7.07706 14.625 7.25836 14.6957 7.39682 14.8232L12.25 19.2903V4.70967ZM15.127 5.81236C15.4199 5.51952 15.8948 5.51959 16.1876 5.81253C19.6044 9.23041 19.6044 14.7691 16.1876 18.187C15.8948 18.48 15.4199 18.48 15.127 18.1872C14.834 17.8943 14.8339 17.4195 15.1268 17.1265C17.958 14.2944 17.958 9.70515 15.1268 6.87302C14.8339 6.58008 14.834 6.10521 15.127 5.81236Z" fill="#191A1A"/>
</svg>
