<svg width="24" height="24" viewBox="0 0 24 24" fill="none" xmlns="http://www.w3.org/2000/svg">
<path d="M14.5 2.88977C15.1904 2.88977 15.75 3.44941 15.75 4.13977V19.8602C15.75 20.1738 15.6321 20.476 15.4197 20.7067C14.9522 21.2147 14.1614 21.2474 13.6535 20.7799L8.59626 16.125H5C4.0335 16.125 3.25 15.3415 3.25 14.375V9.62498C3.25 8.65848 4.0335 7.87498 5 7.87498H8.59626L13.6535 3.22007C13.8842 3.00767 14.1864 2.88977 14.5 2.88977ZM14.25 4.70967L9.39682 9.1768C9.25836 9.30424 9.07706 9.37498 8.88889 9.37498H5C4.86193 9.37498 4.75 9.48691 4.75 9.62498V14.375C4.75 14.513 4.86193 14.625 5 14.625H8.88889C9.07706 14.625 9.25836 14.6957 9.39682 14.8232L14.25 19.2903V4.70967ZM17.127 5.81236C17.4199 5.51952 17.8948 5.51959 18.1876 5.81253C21.6044 9.23041 21.6044 14.7691 18.1876 18.187C17.8948 18.48 17.4199 18.48 17.127 18.1872C16.834 17.8943 16.8339 17.4195 17.1268 17.1265C19.958 14.2944 19.958 9.70515 17.1268 6.87302C16.8339 6.58008 16.834 6.10521 17.127 5.81236Z" fill="#191A1A"/>
</svg>
