<svg width="24" height="24" viewBox="0 0 24 24" fill="none" xmlns="http://www.w3.org/2000/svg">
<path d="M12.5 2.88977C13.1904 2.88977 13.75 3.44941 13.75 4.13977V19.8602C13.75 20.1738 13.6321 20.476 13.4197 20.7067C12.9522 21.2147 12.1614 21.2474 11.6535 20.7799L6.59626 16.125H3C2.0335 16.125 1.25 15.3415 1.25 14.375V9.62498C1.25 8.65848 2.0335 7.87498 3 7.87498H6.59626L11.6535 3.22007C11.8842 3.00767 12.1864 2.88977 12.5 2.88977ZM12.25 4.70967L7.39682 9.1768C7.25836 9.30424 7.07706 9.37498 6.88889 9.37498H3C2.86193 9.37498 2.75 9.48691 2.75 9.62498V14.375C2.75 14.513 2.86193 14.625 3 14.625H6.88889C7.07706 14.625 7.25836 14.6957 7.39682 14.8232L12.25 19.2903V4.70967ZM15.1517 8.28767C15.4445 7.99477 15.9194 7.99477 16.2123 8.28767L18.864 10.9388L21.5156 8.28767C21.7819 8.0214 22.1985 7.9972 22.4922 8.21505L22.5763 8.28767C22.8692 8.58056 22.8692 9.05543 22.5763 9.34833L19.925 11.9998L22.5763 14.6516C22.8425 14.9179 22.8667 15.3346 22.6489 15.6282L22.5763 15.7123C22.2834 16.0052 21.8085 16.0052 21.5156 15.7123L18.864 13.0608L16.2123 15.7123C15.946 15.9786 15.5294 16.0028 15.2358 15.7849L15.1517 15.7123C14.8588 15.4194 14.8588 14.9445 15.1517 14.6516L17.803 11.9998L15.1517 9.34833C14.8854 9.08206 14.8612 8.6654 15.079 8.37179L15.1517 8.28767Z" fill="#191A1A"/>
</svg>
