<svg width="24" height="24" viewBox="0 0 24 24" fill="none" xmlns="http://www.w3.org/2000/svg">
<path d="M4.46967 13.5303C4.17678 13.2374 4.17678 12.7626 4.46967 12.4697C4.76256 12.1768 5.23744 12.1768 5.53033 12.4697L11.25 18.191V4C11.25 3.6203 11.5322 3.30651 11.8982 3.25685L12 3.25C12.4142 3.25 12.75 3.58579 12.75 4L12.75 18.189L18.4697 12.4697C18.7359 12.2034 19.1526 12.1792 19.4462 12.3971L19.5303 12.4697C19.8232 12.7626 19.8232 13.2374 19.5303 13.5303L12.5303 20.5303C12.2374 20.8232 11.7626 20.8232 11.4697 20.5303L4.46967 13.5303Z" fill="#191A1A"/>
</svg>
