<svg width="24" height="24" viewBox="0 0 24 24" fill="none" xmlns="http://www.w3.org/2000/svg">
<path d="M19.5303 10.4697C19.8232 10.7626 19.8232 11.2374 19.5303 11.5303C19.2374 11.8232 18.7626 11.8232 18.4697 11.5303L12.75 5.809V20C12.75 20.3797 12.4678 20.6935 12.1018 20.7432L12 20.75C11.5858 20.75 11.25 20.4142 11.25 20L11.25 5.811L5.53033 11.5303C5.26406 11.7966 4.8474 11.8208 4.55379 11.6029L4.46967 11.5303C4.17678 11.2374 4.17678 10.7626 4.46967 10.4697L11.4697 3.46967C11.7626 3.17678 12.2374 3.17678 12.5303 3.46967L19.5303 10.4697Z" fill="#191A1A"/>
</svg>
