<svg width="24" height="24" viewBox="0 0 24 24" fill="none" xmlns="http://www.w3.org/2000/svg">
<path d="M10.4697 4.46967C10.7626 4.17678 11.2374 4.17678 11.5303 4.46967C11.8232 4.76256 11.8232 5.23744 11.5303 5.53033L5.809 11.25H20C20.3797 11.25 20.6935 11.5322 20.7432 11.8982L20.75 12C20.75 12.4142 20.4142 12.75 20 12.75H5.811L11.5303 18.4697C11.7966 18.7359 11.8208 19.1526 11.6029 19.4462L11.5303 19.5303C11.2374 19.8232 10.7626 19.8232 10.4697 19.5303L3.46967 12.5303C3.17678 12.2374 3.17678 11.7626 3.46967 11.4697L10.4697 4.46967Z" fill="#191A1A"/>
</svg>
