<svg width="24" height="24" viewBox="0 0 24 24" fill="none" xmlns="http://www.w3.org/2000/svg">
<path fill-rule="evenodd" clip-rule="evenodd" d="M16.5303 19.4697C16.8232 19.7626 16.8232 20.2374 16.5303 20.5303C16.2374 20.8232 15.7626 20.8232 15.4697 20.5303L12 17.0607L8.53033 20.5303C8.23744 20.8232 7.76256 20.8232 7.46967 20.5303C7.17678 20.2374 7.17678 19.7626 7.46967 19.4697L11.4697 15.4697C11.7626 15.1768 12.2374 15.1768 12.5303 15.4697L16.5303 19.4697ZM16.5303 4.53033L12.5303 8.53033C12.2374 8.82322 11.7626 8.82322 11.4697 8.53033L7.46967 4.53033C7.17678 4.23744 7.17678 3.76256 7.46967 3.46967C7.76256 3.17678 8.23744 3.17678 8.53033 3.46967L12 6.93934L15.4697 3.46967C15.7626 3.17678 16.2374 3.17678 16.5303 3.46967C16.8232 3.76256 16.8232 4.23744 16.5303 4.53033Z" fill="#191A1A"/>
</svg>
