<svg width="24" height="24" viewBox="0 0 24 24" fill="none" xmlns="http://www.w3.org/2000/svg">
<path d="M12 1.25C17.9342 1.25 22.75 6.06579 22.75 12C22.75 17.9342 17.9342 22.75 12 22.75C6.06579 22.75 1.25 17.9342 1.25 12C1.25 6.06579 6.06579 1.25 12 1.25ZM14.3313 17.7179H9.65586C8.36573 17.7179 7.19488 18.3982 6.54571 19.4687C8.07546 20.5891 9.96106 21.25 12 21.25C14.035 21.25 15.9172 20.5917 17.4451 19.4766C16.7967 18.4008 15.6239 17.7179 14.3313 17.7179ZM12 2.75C6.89421 2.75 2.75 6.89421 2.75 12C2.75 14.5223 3.76135 16.8099 5.40037 18.4792C6.33812 17.0893 7.92061 16.2179 9.65586 16.2179H14.3313C16.0695 16.2179 17.6544 17.0922 18.5927 18.4852C20.2358 16.8163 21.25 14.5258 21.25 12C21.25 6.89421 17.1058 2.75 12 2.75ZM12 7C14.2087 7 16 8.79127 16 11C16 13.2087 14.2087 15 12 15C9.79127 15 8 13.2087 8 11C8 8.79127 9.79127 7 12 7ZM12 8.5C10.6197 8.5 9.5 9.6197 9.5 11C9.5 12.3803 10.6197 13.5 12 13.5C13.3803 13.5 14.5 12.3803 14.5 11C14.5 9.6197 13.3803 8.5 12 8.5Z" fill="#191A1A"/>
</svg>
