<svg width="24" height="24" viewBox="0 0 24 24" fill="none" xmlns="http://www.w3.org/2000/svg">
<path d="M12 3.00001C17.3867 3.00001 21.75 7.3633 21.75 12.75C21.75 18.1367 17.3867 22.5 12 22.5C6.6133 22.5 2.25001 18.1367 2.25001 12.75C2.25001 7.3633 6.6133 3.00001 12 3.00001ZM12 4.50001C7.44172 4.50001 3.75001 8.19172 3.75001 12.75C3.75001 17.3083 7.44172 21 12 21C16.5583 21 20.25 17.3083 20.25 12.75C20.25 8.19172 16.5583 4.50001 12 4.50001ZM12.1344 8.50001C12.5486 8.50001 12.8844 8.8358 12.8844 9.25001V12.8987L15.6145 15.1738C15.9327 15.439 15.9757 15.9119 15.7106 16.2301C15.4454 16.5484 14.9725 16.5913 14.6543 16.3262L11.6543 13.8262C11.4833 13.6837 11.3844 13.4726 11.3844 13.25V9.25001C11.3844 8.8358 11.7202 8.50001 12.1344 8.50001ZM17.4356 1.75613C17.7083 1.4444 18.1822 1.41282 18.4939 1.68558L22.4939 5.18558C22.8056 5.45834 22.8372 5.93216 22.5644 6.24389C22.2917 6.55562 21.8179 6.5872 21.5061 6.31444L17.5061 2.81444C17.1944 2.54168 17.1628 2.06786 17.4356 1.75613ZM6.56444 1.75613C6.8372 2.06786 6.80562 2.54168 6.49389 2.81444L2.49389 6.31444C2.18216 6.5872 1.70834 6.55562 1.43558 6.24389C1.16282 5.93216 1.1944 5.45834 1.50613 5.18558L5.50613 1.68558C5.81786 1.41282 6.29168 1.4444 6.56444 1.75613Z" fill="#191A1A"/>
</svg>
