<svg width="24" height="24" viewBox="0 0 24 24" fill="none" xmlns="http://www.w3.org/2000/svg">
<path d="M12 3.00001C17.3867 3.00001 21.75 7.3633 21.75 12.75C21.75 18.1367 17.3867 22.5 12 22.5C6.6133 22.5 2.25001 18.1367 2.25001 12.75C2.25001 7.3633 6.6133 3.00001 12 3.00001ZM12 4.50001C7.44172 4.50001 3.75001 8.19172 3.75001 12.75C3.75001 17.3083 7.44172 21 12 21C16.5583 21 20.25 17.3083 20.25 12.75C20.25 8.19172 16.5583 4.50001 12 4.50001ZM12 9C12.4142 9 12.75 9.33579 12.75 9.75L12.75 12H15C15.3797 12 15.6935 12.2822 15.7432 12.6482L15.75 12.75C15.75 13.1642 15.4142 13.5 15 13.5H12.75L12.75 15.75C12.75 16.1297 12.4679 16.4435 12.1018 16.4932L12 16.5C11.5858 16.5 11.25 16.1642 11.25 15.75L11.25 13.5H9.00001C8.62031 13.5 8.30652 13.2178 8.25686 12.8518L8.25001 12.75C8.25001 12.3358 8.5858 12 9.00001 12H11.25L11.25 9.75C11.25 9.3703 11.5322 9.05651 11.8982 9.00685L12 9ZM18.4051 1.61872L18.4939 1.68558L22.4939 5.18558C22.8056 5.45834 22.8372 5.93216 22.5644 6.24389C22.3165 6.52728 21.9023 6.57915 21.5949 6.3813L21.5061 6.31444L17.5061 2.81444C17.1944 2.54168 17.1628 2.06786 17.4356 1.75613C17.6835 1.47274 18.0977 1.42087 18.4051 1.61872ZM6.56444 1.75613C6.8372 2.06786 6.80562 2.54168 6.49389 2.81444L2.49389 6.31444C2.18216 6.5872 1.70834 6.55562 1.43558 6.24389C1.16282 5.93216 1.1944 5.45834 1.50613 5.18558L5.50613 1.68558C5.81786 1.41282 6.29168 1.4444 6.56444 1.75613Z" fill="#191A1A"/>
</svg>
