<svg width="24" height="24" viewBox="0 0 24 24" fill="none" xmlns="http://www.w3.org/2000/svg">
<path d="M17 0C17.4142 0 17.75 0.335786 17.75 0.75V2H20C21.5188 2 22.75 3.23122 22.75 4.75V19.75C22.75 21.2688 21.5188 22.5 20 22.5H4C2.48122 22.5 1.25 21.2688 1.25 19.75V4.75C1.25 3.23122 2.48122 2 4 2H6.25V0.75C6.25 0.370304 6.53215 0.056509 6.89823 0.00684662L7 0C7.41421 0 7.75 0.335786 7.75 0.75V2H16.25V0.75C16.25 0.370304 16.5322 0.056509 16.8982 0.00684662L17 0ZM16.25 3.5H7.75V4.75C7.75 5.1297 7.46785 5.44349 7.10177 5.49315L7 5.5C6.58579 5.5 6.25 5.16421 6.25 4.75V3.5H4C3.30964 3.5 2.75 4.05964 2.75 4.75V19.75C2.75 20.4404 3.30964 21 4 21H20C20.6904 21 21.25 20.4404 21.25 19.75V4.75C21.25 4.05964 20.6904 3.5 20 3.5H17.75V4.75C17.75 5.1297 17.4678 5.44349 17.1018 5.49315L17 5.5C16.5858 5.5 16.25 5.16421 16.25 4.75V3.5ZM12 15.5C12.5523 15.5 13 15.9477 13 16.5C13 17.0523 12.5523 17.5 12 17.5C11.4477 17.5 11 17.0523 11 16.5C11 15.9477 11.4477 15.5 12 15.5ZM7 15.5C7.55228 15.5 8 15.9477 8 16.5C8 17.0523 7.55228 17.5 7 17.5C6.44772 17.5 6 17.0523 6 16.5C6 15.9477 6.44772 15.5 7 15.5ZM17 11.5C17.5523 11.5 18 11.9477 18 12.5C18 13.0523 17.5523 13.5 17 13.5C16.4477 13.5 16 13.0523 16 12.5C16 11.9477 16.4477 11.5 17 11.5ZM12 11.5C12.5523 11.5 13 11.9477 13 12.5C13 13.0523 12.5523 13.5 12 13.5C11.4477 13.5 11 13.0523 11 12.5C11 11.9477 11.4477 11.5 12 11.5ZM7 11.5C7.55228 11.5 8 11.9477 8 12.5C8 13.0523 7.55228 13.5 7 13.5C6.44772 13.5 6 13.0523 6 12.5C6 11.9477 6.44772 11.5 7 11.5ZM17 7.5C17.5523 7.5 18 7.94772 18 8.5C18 9.05229 17.5523 9.5 17 9.5C16.4477 9.5 16 9.05229 16 8.5C16 7.94772 16.4477 7.5 17 7.5ZM12 7.5C12.5523 7.5 13 7.94772 13 8.5C13 9.05229 12.5523 9.5 12 9.5C11.4477 9.5 11 9.05229 11 8.5C11 7.94772 11.4477 7.5 12 7.5ZM7 7.5C7.55228 7.5 8 7.94772 8 8.5C8 9.05229 7.55228 9.5 7 9.5C6.44772 9.5 6 9.05229 6 8.5C6 7.94772 6.44772 7.5 7 7.5Z" fill="#191A1A"/>
</svg>
