<svg width="24" height="24" viewBox="0 0 24 24" fill="none" xmlns="http://www.w3.org/2000/svg">
<path d="M17 0C17.4142 0 17.75 0.335786 17.75 0.75V2H20C21.5188 2 22.75 3.23122 22.75 4.75V19.75C22.75 21.2688 21.5188 22.5 20 22.5H4C2.48122 22.5 1.25 21.2688 1.25 19.75V4.75C1.25 3.23122 2.48122 2 4 2H6.25V0.75C6.25 0.370304 6.53215 0.056509 6.89823 0.00684662L7 0C7.41421 0 7.75 0.335786 7.75 0.75V2H16.25V0.75C16.25 0.370304 16.5322 0.056509 16.8982 0.00684662L17 0ZM16.25 3.5H7.75V4.75C7.75 5.1297 7.46785 5.44349 7.10177 5.49315L7 5.5C6.58579 5.5 6.25 5.16421 6.25 4.75V3.5H4C3.30964 3.5 2.75 4.05964 2.75 4.75V19.75C2.75 20.4404 3.30964 21 4 21H20C20.6904 21 21.25 20.4404 21.25 19.75V4.75C21.25 4.05964 20.6904 3.5 20 3.5H17.75V4.75C17.75 5.1297 17.4678 5.44349 17.1018 5.49315L17 5.5C16.5858 5.5 16.25 5.16421 16.25 4.75V3.5ZM16.444 7.49669C16.7219 7.1896 17.1962 7.16599 17.5033 7.44396C17.8104 7.72193 17.834 8.19622 17.556 8.50331L10.6854 16.0938L10.5975 16.1817C10.0857 16.6449 9.29517 16.6056 8.83189 16.0938L6.44396 13.4557C6.16599 13.1486 6.1896 12.6743 6.49669 12.3963C6.80378 12.1184 7.27807 12.142 7.55604 12.4491L9.75862 14.8824L16.444 7.49669Z" fill="#191A1A"/>
</svg>
