<svg width="24" height="24" viewBox="0 0 24 24" fill="none" xmlns="http://www.w3.org/2000/svg">
<path d="M17 0C17.4142 0 17.75 0.335786 17.75 0.75V2H20C21.5188 2 22.75 3.23122 22.75 4.75V19.75C22.75 21.2688 21.5188 22.5 20 22.5H4C2.48122 22.5 1.25 21.2688 1.25 19.75V4.75C1.25 3.23122 2.48122 2 4 2H6.25V0.75C6.25 0.370304 6.53215 0.056509 6.89823 0.00684662L7 0C7.41421 0 7.75 0.335786 7.75 0.75V2H16.25V0.75C16.25 0.370304 16.5322 0.056509 16.8982 0.00684662L17 0ZM16.25 3.5H7.75V4.75C7.75 5.1297 7.46785 5.44349 7.10177 5.49315L7 5.5C6.58579 5.5 6.25 5.16421 6.25 4.75V3.5H4C3.30964 3.5 2.75 4.05964 2.75 4.75V19.75C2.75 20.4404 3.30964 21 4 21H20C20.6904 21 21.25 20.4404 21.25 19.75V4.75C21.25 4.05964 20.6904 3.5 20 3.5H17.75V4.75C17.75 5.1297 17.4678 5.44349 17.1018 5.49315L17 5.5C16.5858 5.5 16.25 5.16421 16.25 4.75V3.5ZM12 8.5C12.4142 8.5 12.75 8.83579 12.75 9.25V11.5H15C15.3797 11.5 15.6935 11.7822 15.7432 12.1482L15.75 12.25C15.75 12.6642 15.4142 13 15 13H12.75V15.25C12.75 15.6297 12.4678 15.9435 12.1018 15.9932L12 16C11.5858 16 11.25 15.6642 11.25 15.25V13H9C8.6203 13 8.30651 12.7178 8.25685 12.3518L8.25 12.25C8.25 11.8358 8.58579 11.5 9 11.5H11.25V9.25C11.25 8.8703 11.5322 8.55651 11.8982 8.50685L12 8.5Z" fill="#191A1A"/>
</svg>
