<svg width="24" height="24" viewBox="0 0 24 24" fill="none" xmlns="http://www.w3.org/2000/svg">
<path d="M12 1.25C17.9392 1.25 22.75 6.06079 22.75 12C22.75 17.9392 17.9392 22.75 12 22.75C6.06079 22.75 1.25 17.9392 1.25 12C1.25 6.06079 6.06079 1.25 12 1.25ZM12 2.75C6.88921 2.75 2.75 6.88921 2.75 12C2.75 17.1108 6.88921 21.25 12 21.25C17.1108 21.25 21.25 17.1108 21.25 12C21.25 6.88921 17.1108 2.75 12 2.75ZM8.46447 8.81802C8.75736 8.52513 9.23223 8.52513 9.52513 8.81802L11.823 11.116L14.1213 8.81802C14.3876 8.55175 14.8043 8.52755 15.0979 8.7454L15.182 8.81802C15.4749 9.11091 15.4749 9.58579 15.182 9.87868L12.883 12.176L15.182 14.4749C15.4482 14.7411 15.4725 15.1578 15.2546 15.4514L15.182 15.5355C14.8891 15.8284 14.4142 15.8284 14.1213 15.5355L11.823 13.237L9.52513 15.5355C9.25886 15.8018 8.8422 15.826 8.54858 15.6082L8.46447 15.5355C8.17157 15.2426 8.17157 14.7678 8.46447 14.4749L10.762 12.176L8.46447 9.87868C8.1982 9.61241 8.17399 9.19575 8.39185 8.90214L8.46447 8.81802Z" fill="#191A1A"/>
</svg>
