<svg width="24" height="24" viewBox="0 0 24 24" fill="none" xmlns="http://www.w3.org/2000/svg">
<path fill-rule="evenodd" clip-rule="evenodd" d="M20.5 4.82051C20.5 4.09121 19.9088 3.5 19.1795 3.5H4.82051C4.09121 3.5 3.5 4.09121 3.5 4.82051V19.1795C3.5 19.9088 4.09121 20.5 4.82051 20.5H19.1795C19.9088 20.5 20.5 19.9088 20.5 19.1795V4.82051ZM22 4.82051C22 3.26279 20.7372 2 19.1795 2H4.82051C3.26279 2 2 3.26279 2 4.82051V19.1795C2 20.7372 3.26279 22 4.82051 22H19.1795C20.7372 22 22 20.7372 22 19.1795V4.82051Z" fill="#191A1A"/>
</svg>
