<svg width="24" height="24" viewBox="0 0 24 24" fill="none" xmlns="http://www.w3.org/2000/svg">
<path d="M12 1.25C17.9392 1.25 22.75 6.06079 22.75 12C22.75 17.9392 17.9392 22.75 12 22.75C6.06079 22.75 1.25 17.9392 1.25 12C1.25 6.06079 6.06079 1.25 12 1.25ZM12 2.75C6.88921 2.75 2.75 6.88921 2.75 12C2.75 17.1108 6.88921 21.25 12 21.25C17.1108 21.25 21.25 17.1108 21.25 12C21.25 6.88921 17.1108 2.75 12 2.75ZM12 7.25C12.4142 7.25 12.75 7.58579 12.75 8V11.25H16C16.3797 11.25 16.6935 11.5322 16.7432 11.8982L16.75 12C16.75 12.4142 16.4142 12.75 16 12.75H12.75V16C12.75 16.3797 12.4678 16.6935 12.1018 16.7432L12 16.75C11.5858 16.75 11.25 16.4142 11.25 16V12.75H8C7.6203 12.75 7.30651 12.4678 7.25685 12.1018L7.25 12C7.25 11.5858 7.58579 11.25 8 11.25H11.25V8C11.25 7.6203 11.5322 7.30651 11.8982 7.25685L12 7.25Z" fill="#191A1A"/>
</svg>
