<svg width="24" height="24" viewBox="0 0 24 24" fill="none" xmlns="http://www.w3.org/2000/svg">
<path d="M12 1.25C17.9392 1.25 22.75 6.06079 22.75 12C22.75 17.9392 17.9392 22.75 12 22.75C6.06079 22.75 1.25 17.9392 1.25 12C1.25 6.06079 6.06079 1.25 12 1.25ZM12 2.75C6.88921 2.75 2.75 6.88921 2.75 12C2.75 17.1108 6.88921 21.25 12 21.25C17.1108 21.25 21.25 17.1108 21.25 12C21.25 6.88921 17.1108 2.75 12 2.75ZM16.444 7.49669C16.7219 7.1896 17.1962 7.16599 17.5033 7.44396C17.8104 7.72193 17.834 8.19622 17.556 8.50331L10.6854 16.0938L10.5975 16.1817C10.0857 16.6449 9.29517 16.6056 8.83189 16.0938L6.44396 13.4557C6.16599 13.1486 6.1896 12.6743 6.49669 12.3963C6.80378 12.1184 7.27807 12.142 7.55604 12.4491L9.75862 14.8824L16.444 7.49669Z" fill="#191A1A"/>
</svg>
