<svg width="24" height="24" viewBox="0 0 24 24" fill="none" xmlns="http://www.w3.org/2000/svg">
<path d="M5 1.75C5.41421 1.75 5.75 2.08579 5.75 2.5C5.75 2.91421 5.41421 3.25 5 3.25H4C3.30128 3.25 2.75 3.77372 2.75 4.4V19.6C2.75 20.2263 3.30128 20.75 4 20.75H20C20.6987 20.75 21.25 20.2263 21.25 19.6V4.4C21.25 3.77372 20.6987 3.25 20 3.25H19C18.5858 3.25 18.25 2.91421 18.25 2.5C18.25 2.08579 18.5858 1.75 19 1.75H20C21.5104 1.75 22.75 2.9276 22.75 4.4V19.6C22.75 21.0724 21.5104 22.25 20 22.25H4C2.48958 22.25 1.25 21.0724 1.25 19.6V4.4C1.25 2.9276 2.48958 1.75 4 1.75H5ZM16 15.75C16.4142 15.75 16.75 16.0858 16.75 16.5C16.75 16.9142 16.4142 17.25 16 17.25H8C7.58579 17.25 7.25 16.9142 7.25 16.5C7.25 16.0858 7.58579 15.75 8 15.75H16ZM12 1.75467C12.4142 1.75467 12.75 2.09046 12.75 2.50467V10.689L14.9697 8.46967C15.2359 8.2034 15.6526 8.1792 15.9462 8.39705L16.0303 8.46967C16.3232 8.76256 16.3232 9.23744 16.0303 9.53033L12.8839 12.6768C12.3957 13.1649 11.6043 13.1649 11.1161 12.6768L7.96967 9.53033C7.67678 9.23744 7.67678 8.76256 7.96967 8.46967C8.26256 8.17678 8.73744 8.17678 9.03033 8.46967L11.25 10.689V2.50467C11.25 2.12497 11.5322 1.81118 11.8982 1.76152L12 1.75467Z" fill="#191A1A"/>
</svg>
