<svg width="24" height="24" viewBox="0 0 24 24" fill="none" xmlns="http://www.w3.org/2000/svg">
<path d="M16.1312 1.93934C16.7169 1.35355 17.6667 1.35355 18.2525 1.93934L22.0607 5.74752C22.6464 6.33331 22.6464 7.28306 22.0607 7.86884L7.86884 22.0607C7.58754 22.342 7.20601 22.5 6.80819 22.5H3C2.17157 22.5 1.5 21.8284 1.5 21V17.1918C1.5 16.794 1.65804 16.4125 1.93934 16.1312L16.1312 1.93934ZM13.065 7.126L3 17.1918V21H6.80819L16.874 10.935L13.065 7.126ZM17.1918 3L14.126 6.065L17.935 9.874L21 6.80819L17.1918 3Z" fill="#191A1A"/>
</svg>
