<svg width="24" height="24" viewBox="0 0 24 24" fill="none" xmlns="http://www.w3.org/2000/svg">
<path fill-rule="evenodd" clip-rule="evenodd" d="M8.49898 0.854803C8.81838 0.715066 9.18162 0.715066 9.50102 0.854803L17.001 4.13605C17.456 4.33511 17.75 4.78463 17.75 5.28125V9.7041H21.5C22.7426 9.7041 23.75 10.7115 23.75 11.9541V20.4541C23.75 21.6967 22.7426 22.7041 21.5 22.7041H16.25V22.704H12.25V22.7041H5.75V22.704H3C1.48122 22.704 0.25 21.4728 0.25 19.954V5.28125C0.25 4.78462 0.543994 4.33511 0.998976 4.13605L8.49898 0.854803ZM16.25 21.204V17.9541V14.4541V9.7041V5.44475L9 2.27288L1.75 5.44475V19.954C1.75 20.6444 2.30964 21.204 3 21.204H5.75V17.4541C5.75 15.6592 7.20507 14.2041 9 14.2041C10.7949 14.2041 12.25 15.6592 12.25 17.4541V21.204H16.25ZM17.75 21.2041H21.5C21.9142 21.2041 22.25 20.8683 22.25 20.4541V11.9541C22.25 11.5399 21.9142 11.2041 21.5 11.2041H17.75V13.7041H19.25C19.6642 13.7041 20 14.0399 20 14.4541C20 14.8683 19.6642 15.2041 19.25 15.2041H17.75V17.2041H19.25C19.6642 17.2041 20 17.5399 20 17.9541C20 18.3683 19.6642 18.7041 19.25 18.7041H17.75V21.2041ZM7.25 17.4541V21.204H10.75V17.4541C10.75 16.4876 9.9665 15.7041 9 15.7041C8.0335 15.7041 7.25 16.4876 7.25 17.4541ZM6.25 10.4541C6.25 10.0399 6.58579 9.7041 7 9.7041H11C11.4142 9.7041 11.75 10.0399 11.75 10.4541C11.75 10.8683 11.4142 11.2041 11 11.2041H7C6.58579 11.2041 6.25 10.8683 6.25 10.4541ZM7 6.4541C6.58579 6.4541 6.25 6.78989 6.25 7.2041C6.25 7.61832 6.58579 7.9541 7 7.9541H11C11.4142 7.9541 11.75 7.61832 11.75 7.2041C11.75 6.78989 11.4142 6.4541 11 6.4541H7Z" fill="#191A1A"/>
</svg>
