<svg width="24" height="24" viewBox="0 0 24 24" fill="none" xmlns="http://www.w3.org/2000/svg">
<path d="M12 1.25C17.9392 1.25 22.75 6.06079 22.75 12C22.75 17.9392 17.9392 22.75 12 22.75C6.06079 22.75 1.25 17.9392 1.25 12C1.25 6.06079 6.06079 1.25 12 1.25ZM12 2.75C6.88921 2.75 2.75 6.88921 2.75 12C2.75 17.1108 6.88921 21.25 12 21.25C17.1108 21.25 21.25 17.1108 21.25 12C21.25 6.88921 17.1108 2.75 12 2.75ZM12 15C12.5523 15 13 15.4477 13 16C13 16.5523 12.5523 17 12 17C11.4477 17 11 16.5523 11 16C11 15.4477 11.4477 15 12 15ZM12.0006 7.25C12.4148 7.25 12.7506 7.58579 12.7506 8V13C12.7506 13.4142 12.4148 13.75 12.0006 13.75C11.5864 13.75 11.2506 13.4142 11.2506 13V8C11.2506 7.58579 11.5864 7.25 12.0006 7.25Z" fill="#191A1A"/>
</svg>
