<svg width="24" height="24" viewBox="0 0 24 24" fill="none" xmlns="http://www.w3.org/2000/svg">
<path d="M16 15.75C17.2589 15.75 18.3203 16.596 18.6466 17.7504L21 17.75C21.4142 17.75 21.75 18.0858 21.75 18.5C21.75 18.9142 21.4142 19.25 21 19.25L18.6463 19.2506C18.3197 20.4045 17.2586 21.25 16 21.25C14.7414 21.25 13.6803 20.4045 13.3537 19.2506L3 19.25C2.58579 19.25 2.25 18.9142 2.25 18.5C2.25 18.0858 2.58579 17.75 3 17.75L13.3534 17.7504C13.6797 16.596 14.7411 15.75 16 15.75ZM16 17.25C15.3096 17.25 14.75 17.8096 14.75 18.5C14.75 19.1904 15.3096 19.75 16 19.75C16.6904 19.75 17.25 19.1904 17.25 18.5C17.25 17.8096 16.6904 17.25 16 17.25ZM8 9.25C9.25894 9.25 10.3203 10.096 10.6466 11.2504L21 11.25C21.4142 11.25 21.75 11.5858 21.75 12C21.75 12.4142 21.4142 12.75 21 12.75L10.6463 12.7506C10.3197 13.9045 9.25858 14.75 8 14.75C6.74142 14.75 5.68032 13.9045 5.35367 12.7506L3 12.75C2.58579 12.75 2.25 12.4142 2.25 12C2.25 11.5858 2.58579 11.25 3 11.25L5.35339 11.2504C5.67971 10.096 6.74106 9.25 8 9.25ZM8 10.75C7.30964 10.75 6.75 11.3096 6.75 12C6.75 12.6904 7.30964 13.25 8 13.25C8.69036 13.25 9.25 12.6904 9.25 12C9.25 11.3096 8.69036 10.75 8 10.75ZM16 2.75C17.2589 2.75 18.3203 3.59596 18.6466 4.75044L21 4.75C21.4142 4.75 21.75 5.08579 21.75 5.5C21.75 5.91421 21.4142 6.25 21 6.25L18.6463 6.25055C18.3197 7.40452 17.2586 8.25 16 8.25C14.7414 8.25 13.6803 7.40452 13.3537 6.25055L3 6.25C2.58579 6.25 2.25 5.91421 2.25 5.5C2.25 5.08579 2.58579 4.75 3 4.75L13.3534 4.75044C13.6797 3.59596 14.7411 2.75 16 2.75ZM16 4.25C15.3096 4.25 14.75 4.80964 14.75 5.5C14.75 6.19036 15.3096 6.75 16 6.75C16.6904 6.75 17.25 6.19036 17.25 5.5C17.25 4.80964 16.6904 4.25 16 4.25Z" fill="#191A1A"/>
</svg>
