<svg width="24" height="24" viewBox="0 0 24 24" fill="none" xmlns="http://www.w3.org/2000/svg">
<path d="M12.3241 4.875L10.8423 3.30061C10.5116 2.94924 10.0505 2.75 9.56793 2.75H4C2.47594 2.75 1.26 4.05091 1.26 5.625L1.25 18.3744C1.25 19.9481 2.47528 21.25 4 21.25H20C21.5247 21.25 22.75 19.9481 22.75 18.375V7.75C22.75 6.17686 21.5247 4.875 20 4.875H12.3241ZM9.56793 4.25C9.63686 4.25 9.70273 4.27846 9.74998 4.32866L11.3058 5.98171C11.542 6.23269 11.8714 6.375 12.216 6.375H20C20.6753 6.375 21.25 6.98564 21.25 7.75V18.375C21.25 19.1394 20.6753 19.75 20 19.75H4C3.32472 19.75 2.75 19.1394 2.75 18.375L2.76 5.62559C2.76 4.85754 3.32786 4.25 4 4.25H9.56793Z" fill="#191A1A"/>
</svg>
