<svg width="24" height="24" viewBox="0 0 24 24" fill="none" xmlns="http://www.w3.org/2000/svg">
<path d="M9.56793 2.75C10.0505 2.75 10.5116 2.94924 10.8423 3.30061L12.3241 4.875H20C21.5247 4.875 22.75 6.17686 22.75 7.75V18.375C22.75 19.9481 21.5247 21.25 20 21.25H4C2.47528 21.25 1.25 19.9481 1.25 18.3744L1.26 5.625C1.26 4.05091 2.47594 2.75 4 2.75H9.56793ZM9.56793 4.25H4C3.32786 4.25 2.76 4.85754 2.76 5.62559L2.75 18.375C2.75 19.1394 3.32472 19.75 4 19.75H20C20.6753 19.75 21.25 19.1394 21.25 18.375V7.75C21.25 6.98564 20.6753 6.375 20 6.375H12.216C11.8714 6.375 11.542 6.23269 11.3058 5.98171L9.74998 4.32866C9.70273 4.27846 9.63686 4.25 9.56793 4.25ZM15 12.25C15.4142 12.25 15.75 12.5858 15.75 13C15.75 13.4142 15.4142 13.75 15 13.75H9C8.58579 13.75 8.25 13.4142 8.25 13C8.25 12.5858 8.58579 12.25 9 12.25H15Z" fill="#191A1A"/>
</svg>
