<svg width="24" height="24" viewBox="0 0 24 24" fill="none" xmlns="http://www.w3.org/2000/svg">
<path fill-rule="evenodd" clip-rule="evenodd" d="M9.25 1.25C9.66421 1.25 10 1.58579 10 2V4.25H13.7491H13.7492H17.25C17.6642 4.25 18 4.58579 18 5C18 5.41421 17.6642 5.75 17.25 5.75H14.3569C13.9685 7.26447 12.9319 9.46435 10.2038 12.648C11.0908 13.5923 12.1006 14.5449 13.2105 15.4081C13.5374 15.6624 13.5963 16.1336 13.342 16.4606C13.0877 16.7875 12.6165 16.8464 12.2896 16.5921C11.1535 15.7085 10.1185 14.7391 9.20436 13.7744C7.78845 15.3192 6.00136 17.0727 3.74623 19.0625C3.43563 19.3365 2.96168 19.3069 2.68763 18.9963C2.41358 18.6857 2.4432 18.2118 2.75379 17.9377C5.03547 15.9245 6.81129 14.1739 8.19385 12.6565C6.66963 10.8895 5.5933 9.26238 5.09439 8.36435C4.89323 8.00226 5.02369 7.54566 5.38578 7.3445C5.74786 7.14334 6.20447 7.2738 6.40563 7.63588C6.84817 8.43247 7.81865 9.90264 9.1948 11.5193C11.4737 8.83207 12.4079 6.97843 12.7968 5.75H1.25C0.835786 5.75 0.5 5.41421 0.5 5C0.5 4.58579 0.835786 4.25 1.25 4.25H8.5V2C8.5 1.58579 8.83579 1.25 9.25 1.25ZM19.1865 10.3608C18.8621 9.49563 17.6383 9.49562 17.3139 10.3608L13.048 21.7366C12.9025 22.1244 13.099 22.5567 13.4869 22.7022C13.8747 22.8476 14.307 22.6511 14.4524 22.2633L15.77 18.7499H20.7305L22.048 22.2633C22.1934 22.6511 22.6257 22.8476 23.0135 22.7022C23.4014 22.5567 23.5979 22.1244 23.4524 21.7366L19.1865 10.3608ZM20.168 17.2499H16.3325L18.2502 12.1359L20.168 17.2499Z" fill="#191A1A"/>
</svg>
