<svg width="24" height="24" viewBox="0 0 24 24" fill="none" xmlns="http://www.w3.org/2000/svg">
<path fill-rule="evenodd" clip-rule="evenodd" d="M17.9139 8.1C18.4289 8.1 18.8756 8.45136 18.9908 8.93443L19.0114 9.04815L19.2059 10.4131L19.3398 10.4823L19.4721 10.5567L19.6027 10.6347L19.7366 10.7214L21.0214 10.2064C21.0789 10.1833 21.138 10.1658 21.1978 10.1535L21.288 10.1388L21.4239 10.1307C21.7779 10.1307 22.1128 10.2954 22.32 10.5759L22.3914 10.6864L23.7457 13.0297C23.985 13.4685 23.9084 14.0108 23.5557 14.3597L23.4618 14.4427L22.3776 15.2897L22.3847 15.4197L22.388 15.6L22.3872 15.6903L22.3847 15.7803L22.3776 15.9093L23.4646 16.7595C23.822 17.0416 23.959 17.5032 23.8392 17.934L23.7956 18.0621L23.7363 18.1871L22.396 20.5057C22.1977 20.8581 21.825 21.0693 21.4306 21.0693C21.3369 21.0693 21.2443 21.0578 21.1354 21.0286L21.0204 20.9932L19.7335 20.4766L19.5881 20.5714L19.3272 20.7228L19.2069 20.7838L19.0132 22.138C18.9546 22.6072 18.6052 22.9711 18.163 23.072L18.0403 23.0929L17.9139 23.1H15.2242C14.7092 23.1 14.2625 22.7486 14.1473 22.2656L14.1267 22.1519L13.931 20.7859L13.7983 20.7177L13.666 20.6433L13.5354 20.5653L13.4004 20.4776L12.1167 20.9936C12.0592 21.0167 12.0001 21.0342 11.9402 21.0465L11.8501 21.0612L11.7142 21.0693C11.3602 21.0693 11.0253 20.9046 10.8181 20.6241L10.7466 20.5136L9.3924 18.1703C9.15306 17.7315 9.22966 17.1892 9.58237 16.8403L9.67628 16.7573L10.7604 15.9093L10.7561 15.8395L10.7501 15.6L10.7516 15.481L10.7561 15.3605L10.7604 15.2907L9.67346 14.4405C9.30764 14.1517 9.16494 13.6704 9.30016 13.2407L9.34397 13.125L9.40181 13.0129L10.7421 10.6943C10.9403 10.3419 11.3131 10.1307 11.7075 10.1307C11.8012 10.1307 11.8938 10.1422 12.0027 10.1714L12.1177 10.2068L13.4035 10.7224L13.55 10.6286L13.8109 10.4772L13.93 10.4152L14.1249 9.06204C14.1835 8.59281 14.5329 8.22886 14.9751 8.12799L15.0978 8.10711L15.2242 8.1H17.9139ZM17.53 9.65172H15.6069L15.4072 11.0503C15.3793 11.2448 15.2794 11.4183 15.1318 11.5396L15.0378 11.6059L14.9334 11.6581C14.6099 11.7907 14.2915 11.9775 13.9684 12.2198C13.7824 12.3593 13.5456 12.4069 13.3233 12.354L13.2137 12.3191L11.9004 11.79L10.9362 13.4576L12.0509 14.3299C12.2045 14.4499 12.3049 14.6213 12.3374 14.808L12.3486 14.9217L12.3429 15.0373C12.3155 15.2563 12.3018 15.4358 12.3018 15.6L12.3044 15.7264L12.3121 15.8608L12.3429 16.1627C12.3719 16.3948 12.2946 16.6253 12.1366 16.7922L12.0509 16.8701L10.9362 17.7414L11.8993 19.4079L13.2137 18.8809C13.3957 18.8078 13.5955 18.8073 13.7742 18.874L13.8785 18.922L13.9759 18.9859C14.2789 19.219 14.5961 19.4037 14.9334 19.5419C15.1561 19.6332 15.322 19.8216 15.3861 20.0497L15.4072 20.1497L15.6069 21.5483H17.53L17.7309 20.1497C17.7587 19.9552 17.8587 19.7817 18.0063 19.6604L18.1003 19.5941L18.2046 19.5419C18.5282 19.4093 18.8466 19.2225 19.1697 18.9802C19.3557 18.8407 19.5924 18.7931 19.8147 18.846L19.9244 18.8809L21.2366 19.409L22.2007 17.7414L21.0871 16.8701C20.9336 16.7501 20.8332 16.5787 20.8007 16.392L20.7894 16.2783L20.7952 16.1627C20.8231 15.9392 20.8363 15.7684 20.8363 15.6L20.8338 15.4725L20.8262 15.3393L20.7952 15.0373C20.7662 14.8052 20.8435 14.5747 21.0015 14.4078L21.0871 14.3299L22.2007 13.4576L21.2376 11.791L19.9244 12.3191C19.7424 12.3922 19.5426 12.3927 19.3639 12.326L19.2596 12.278L19.1622 12.2141C18.8592 11.981 18.5419 11.7963 18.2046 11.6581C17.982 11.5668 17.8161 11.3784 17.752 11.1503L17.7309 11.0503L17.53 9.65172ZM6.75 19.5C7.16421 19.5 7.5 19.8358 7.5 20.25C7.5 20.6297 7.21785 20.9435 6.85177 20.9932L6.75 21H2.75C2.33579 21 2 20.6642 2 20.25C2 19.8703 2.28215 19.5565 2.64823 19.5068L2.75 19.5H6.75ZM16.569 12.9103C18.0551 12.9103 19.2587 14.114 19.2587 15.6C19.2587 17.086 18.0551 18.2897 16.569 18.2897C15.083 18.2897 13.8794 17.086 13.8794 15.6C13.8794 14.114 15.083 12.9103 16.569 12.9103ZM16.569 14.4621C15.94 14.4621 15.4311 14.971 15.4311 15.6C15.4311 16.229 15.94 16.7379 16.569 16.7379C17.1981 16.7379 17.707 16.229 17.707 15.6C17.707 14.971 17.1981 14.4621 16.569 14.4621ZM6.75 13.8333C7.16421 13.8333 7.5 14.1691 7.5 14.5833C7.5 14.963 7.21785 15.2768 6.85177 15.3265L6.75 15.3333H2.75C2.33579 15.3333 2 14.9975 2 14.5833C2 14.2036 2.28215 13.8898 2.64823 13.8402L2.75 13.8333H6.75ZM6.75 8.16667C7.16421 8.16667 7.5 8.50245 7.5 8.91667C7.5 9.29636 7.21785 9.61016 6.85177 9.65982L6.75 9.66667H2.75C2.33579 9.66667 2 9.33088 2 8.91667C2 8.53697 2.28215 8.22318 2.64823 8.17351L2.75 8.16667H6.75ZM21.25 2.5C21.6642 2.5 22 2.83579 22 3.25C22 3.6297 21.7178 3.94349 21.3518 3.99315L21.25 4H2.75C2.33579 4 2 3.66421 2 3.25C2 2.8703 2.28215 2.55651 2.64823 2.50685L2.75 2.5H21.25Z" fill="#191A1A"/>
</svg>
