<svg width="24" height="24" viewBox="0 0 24 24" fill="none" xmlns="http://www.w3.org/2000/svg">
<path d="M12 1.25C16.8325 1.25 20.75 5.16751 20.75 10C20.75 12.8932 18.5087 16.8059 14.0619 21.8447L13.9445 21.9696L13.8197 22.087C12.6809 23.0919 10.9431 22.9835 9.93812 21.8447C5.49126 16.8059 3.25 12.8932 3.25 10C3.25 5.16751 7.16751 1.25 12 1.25ZM12 2.75C7.99594 2.75 4.75 5.99594 4.75 10C4.75 12.2932 6.63328 15.6986 10.4303 20.1254L11.0628 20.8522C11.5196 21.3698 12.3095 21.4191 12.8271 20.9623L12.9372 20.8522C17.1576 16.07 19.25 12.4171 19.25 10C19.25 5.99594 16.0041 2.75 12 2.75ZM12 6C14.2087 6 16 7.79127 16 10C16 12.2087 14.2087 14 12 14C9.79127 14 8 12.2087 8 10C8 7.79127 9.79127 6 12 6ZM12 7.5C10.6197 7.5 9.5 8.6197 9.5 10C9.5 11.3803 10.6197 12.5 12 12.5C13.3803 12.5 14.5 11.3803 14.5 10C14.5 8.6197 13.3803 7.5 12 7.5Z" fill="#191A1A"/>
</svg>
