<svg width="24" height="24" viewBox="0 0 24 24" fill="none" xmlns="http://www.w3.org/2000/svg">
<path d="M6 1.25C4.48122 1.25 3.25 2.48122 3.25 4V5.5C3.25 5.91421 3.58579 6.25 4 6.25C4.41421 6.25 4.75 5.91421 4.75 5.5V4C4.75 3.30964 5.30964 2.75 6 2.75H18C18.6904 2.75 19.25 3.30964 19.25 4V20C19.25 20.6904 18.6904 21.25 18 21.25H6C5.30964 21.25 4.75 20.6904 4.75 20V18.5C4.75 18.0858 4.41421 17.75 4 17.75C3.58579 17.75 3.25 18.0858 3.25 18.5V20C3.25 21.5188 4.48122 22.75 6 22.75H18C19.5188 22.75 20.75 21.5188 20.75 20V4C20.75 2.48122 19.5188 1.25 18 1.25H6ZM11.6339 7.86612C11.341 7.57322 10.8661 7.57322 10.5732 7.86612C10.2803 8.15901 10.2803 8.63388 10.5732 8.92678L12.899 11.252L4.00233 11.2523C3.62264 11.2523 3.30884 11.5345 3.25918 11.9006L3.25233 12.0023C3.25233 12.4165 3.58812 12.7523 4.00233 12.7523L12.687 12.752L10.5732 14.8661C10.307 15.1324 10.2828 15.549 10.5006 15.8427L10.5732 15.9268C10.8661 16.2197 11.341 16.2197 11.6339 15.9268L14.7803 12.7803C15.2685 12.2922 15.2685 11.5007 14.7803 11.0126L11.6339 7.86612Z" fill="#191A1A"/>
</svg>
