<svg width="24" height="24" viewBox="0 0 24 24" fill="none" xmlns="http://www.w3.org/2000/svg">
<path d="M20 3.25C21.5188 3.25 22.75 4.48122 22.75 6V18C22.75 19.5188 21.5188 20.75 20 20.75H4C2.48122 20.75 1.25 19.5188 1.25 18V6C1.25 4.48122 2.48122 3.25 4 3.25H20ZM2.75 6.072V18C2.75 18.6904 3.30964 19.25 4 19.25H20C20.6904 19.25 21.25 18.6904 21.25 18V6.164L13.1514 12.644C12.5548 13.1213 11.7239 13.1531 11.0962 12.7395L10.9649 12.644L2.75 6.072ZM20 4.75H4C3.85518 4.75 3.7161 4.77463 3.58674 4.81993L11.902 11.4727C11.9933 11.5458 12.123 11.5458 12.2143 11.4727L20.4917 4.85042C20.3408 4.78578 20.1746 4.75 20 4.75Z" fill="#191A1A"/>
</svg>
