<svg width="24" height="24" viewBox="0 0 24 24" fill="none" xmlns="http://www.w3.org/2000/svg">
<path d="M12 16C13.5188 16 14.75 17.2312 14.75 18.75C14.75 20.2688 13.5188 21.5 12 21.5C10.4812 21.5 9.25 20.2688 9.25 18.75C9.25 17.2312 10.4812 16 12 16ZM12 17.5C11.3096 17.5 10.75 18.0596 10.75 18.75C10.75 19.4404 11.3096 20 12 20C12.6904 20 13.25 19.4404 13.25 18.75C13.25 18.0596 12.6904 17.5 12 17.5ZM12 9.25C13.5188 9.25 14.75 10.4812 14.75 12C14.75 13.5188 13.5188 14.75 12 14.75C10.4812 14.75 9.25 13.5188 9.25 12C9.25 10.4812 10.4812 9.25 12 9.25ZM12 10.75C11.3096 10.75 10.75 11.3096 10.75 12C10.75 12.6904 11.3096 13.25 12 13.25C12.6904 13.25 13.25 12.6904 13.25 12C13.25 11.3096 12.6904 10.75 12 10.75ZM12 2.5C13.5188 2.5 14.75 3.73122 14.75 5.25C14.75 6.76878 13.5188 8 12 8C10.4812 8 9.25 6.76878 9.25 5.25C9.25 3.73122 10.4812 2.5 12 2.5ZM12 4C11.3096 4 10.75 4.55964 10.75 5.25C10.75 5.94036 11.3096 6.5 12 6.5C12.6904 6.5 13.25 5.94036 13.25 5.25C13.25 4.55964 12.6904 4 12 4Z" fill="#191A1A"/>
</svg>
