<svg width="24" height="24" viewBox="0 0 24 24" fill="none" xmlns="http://www.w3.org/2000/svg">
<path d="M21.7294 20.1411L21.8675 19.9911C23.0495 18.7718 23.0453 17.0714 21.8482 15.8799L19.3635 13.4066C18.809 12.8236 18.0889 12.4985 17.3054 12.4985C16.5488 12.4985 15.8366 12.82 15.2472 13.4066L14.2011 14.448L13.8647 14.2655C12.6816 13.5256 11.5223 12.4724 10.4081 11.1092C10.0209 10.6274 9.73662 10.216 9.52266 9.82426L10.5716 8.78601C11.1658 8.19447 11.5092 7.46091 11.5092 6.70868C11.5092 5.94783 11.1816 5.23856 10.5716 4.63135L9.09353 3.13008L8.99292 3.01677C8.79232 2.79812 8.59118 2.59159 8.38968 2.39634L8.08717 2.11184C7.54142 1.56761 6.82769 1.25 6.0765 1.25C5.33267 1.25 4.62624 1.56071 4.03291 2.12022L2.46543 3.6801C1.76237 4.37992 1.35466 5.23586 1.26792 6.2144C1.17851 7.43688 1.40675 8.52169 1.8815 9.86063C2.63252 11.9041 3.77571 13.8086 5.45249 15.8213C7.49448 18.2458 9.93927 20.1481 12.7496 21.5097C14.2314 22.23 15.5585 22.6605 16.9967 22.7486L17.3293 22.75C18.4853 22.75 19.5081 22.341 20.2991 21.5594L20.4625 21.3901C20.7067 21.1032 20.9355 20.8703 21.2274 20.604C21.38 20.4883 21.5484 20.3323 21.7294 20.1411ZM13.6435 15.8442L13.9583 16.0089C14.2527 16.1848 14.6289 16.1385 14.872 15.8966L16.3055 14.4697C16.625 14.1516 16.9642 13.9985 17.3054 13.9985C17.6675 13.9985 17.9988 14.1481 18.2912 14.4552L20.79 16.943C21.3661 17.5164 21.4021 18.2248 20.8924 18.8341L20.7597 18.9796C20.5782 19.1829 20.4224 19.3332 20.2627 19.4569C19.9425 19.7463 19.6987 19.9884 19.484 20.231L19.3804 20.3507C18.8303 20.9556 18.1495 21.25 17.3293 21.25H17.0426C15.8815 21.1775 14.7262 20.8027 13.4045 20.1602C10.7829 18.8901 8.50618 17.1185 6.60236 14.8581C5.03305 12.9744 3.97795 11.2166 3.29234 9.35125C2.88409 8.19972 2.6931 7.29195 2.76299 6.33527C2.8173 5.72366 3.06855 5.19619 3.52363 4.74321L5.07657 3.19743C5.38974 2.90248 5.73642 2.75 6.0765 2.75C6.41551 2.75 6.75468 2.90093 7.05255 3.19743C7.34678 3.46685 7.61806 3.73689 7.86615 4.00628L7.94251 4.09423L8.21395 4.37708L8.29367 4.45661L9.50821 5.68929C9.85389 6.03343 10.0092 6.36965 10.0092 6.70868C10.0092 7.03588 9.83964 7.39812 9.51335 7.72291L8.55052 8.67727C8.38389 8.8398 8.24827 8.96894 8.0985 9.10808C7.86703 9.32312 7.79515 9.66016 7.91874 9.95093C8.20671 10.6284 8.6182 11.2765 9.24283 12.0537C10.4606 13.5436 11.7416 14.7073 13.1344 15.5738L13.3834 15.711C13.4816 15.7657 13.5601 15.8066 13.6435 15.8442Z" fill="#191A1A"/>
</svg>
