<svg width="24" height="24" viewBox="0 0 24 24" fill="none" xmlns="http://www.w3.org/2000/svg">
<path d="M13.027 2.46311C16.6269 3.22828 19.4385 5.92966 20.4002 9.40497L21.4286 7.19824C21.6037 6.82284 22.0499 6.66042 22.4253 6.83548C22.8007 7.01053 22.9631 7.45677 22.7881 7.83217L20.995 11.6773C20.82 12.0527 20.3738 12.2151 19.9984 12.0401L16.1532 10.2471C15.7778 10.072 15.6154 9.62577 15.7904 9.25036C15.9655 8.87496 16.4117 8.71254 16.7871 8.8876L18.9819 9.91005L18.9212 9.68808C18.0772 6.80295 15.7212 4.56928 12.7152 3.93033C8.25839 2.98301 3.8775 5.82799 2.93019 10.2848C1.98287 14.7416 4.82785 19.1224 9.28463 20.0698C12.8665 20.8311 16.4903 19.1404 18.2285 15.9811C18.4282 15.6182 18.8843 15.4858 19.2472 15.6855C19.6101 15.8852 19.7424 16.3413 19.5427 16.7042C17.4879 20.4389 13.2058 22.4368 8.97276 21.537C3.70566 20.4174 0.343406 15.24 1.46296 9.97291C2.58252 4.7058 7.75994 1.34355 13.027 2.46311Z" fill="#191A1A"/>
</svg>
