<svg width="24" height="24" viewBox="0 0 24 24" fill="none" xmlns="http://www.w3.org/2000/svg">
<path d="M4.75 21.5C4.75 21.9142 4.41421 22.25 4 22.25C3.58579 22.25 3.25 21.9142 3.25 21.5V3.66667C3.25 2.61079 4.11079 1.75 5.16667 1.75H13.5433C14.4588 1.75 15.2482 2.39746 15.4221 3.28625L15.5815 4.08333H20.3333C21.3892 4.08333 22.25 4.94412 22.25 6V15.3333C22.25 16.3892 21.3892 17.25 20.3333 17.25H14.29C13.3704 17.25 12.5828 16.6097 12.4112 15.7138L12.2518 14.9167L4.75 14.916V21.5ZM4.75 13.4167H12.4568C13.0526 13.4167 13.5656 13.8372 13.6825 14.4215L13.8833 15.4256C13.9197 15.6157 14.0849 15.75 14.29 15.75H20.3333C20.5608 15.75 20.75 15.5608 20.75 15.3333V6C20.75 5.77255 20.5608 5.58333 20.3333 5.58333H15.3766C14.7807 5.58333 14.2677 5.16276 14.1508 4.57848L13.9506 3.57734C13.9141 3.39068 13.7426 3.25 13.5433 3.25H5.16667C4.93921 3.25 4.75 3.43921 4.75 3.66667V13.4167Z" fill="#191A1A"/>
</svg>
