<svg width="24" height="24" viewBox="0 0 24 24" fill="none" xmlns="http://www.w3.org/2000/svg">
<path d="M12 1.25C17.9392 1.25 22.75 6.06079 22.75 12C22.75 17.9392 17.9392 22.75 12 22.75C6.06079 22.75 1.25 17.9392 1.25 12C1.25 6.06079 6.06079 1.25 12 1.25ZM12 2.75C6.88921 2.75 2.75 6.88921 2.75 12C2.75 17.1108 6.88921 21.25 12 21.25C17.1108 21.25 21.25 17.1108 21.25 12C21.25 6.88921 17.1108 2.75 12 2.75ZM12.1344 7.25C12.5486 7.25 12.8844 7.58579 12.8844 8V11.6487L15.6145 13.9238C15.9327 14.189 15.9757 14.6619 15.7106 14.9801C15.4454 15.2983 14.9725 15.3413 14.6543 15.0762L11.6543 12.5762C11.4833 12.4337 11.3844 12.2226 11.3844 12V8C11.3844 7.58579 11.7202 7.25 12.1344 7.25Z" fill="#191A1A"/>
</svg>
