<svg width="24" height="24" viewBox="0 0 24 24" fill="none" xmlns="http://www.w3.org/2000/svg">
<path fill-rule="evenodd" clip-rule="evenodd" d="M11.1351 1.23821C11.6736 0.920596 12.3264 0.920596 12.8649 1.23821L23.3372 7.41562C24.2209 7.93692 24.2209 9.29723 23.3372 9.81854L20.2655 11.6305V17.2493C20.2655 17.9356 19.9236 18.5697 19.3686 18.9126L13.4079 22.5962C12.5366 23.1346 11.4634 23.1346 10.5921 22.5962L4.63136 18.9126C4.07641 18.5697 3.7345 17.9356 3.7345 17.2493V11.6305L0.662815 9.81854C-0.220941 9.29723 -0.220936 7.93692 0.662816 7.41562L11.1351 1.23821ZM5.27118 12.5369V17.2493C5.27118 17.3474 5.32003 17.438 5.39931 17.487L11.36 21.1705C11.7561 21.4152 12.2439 21.4152 12.64 21.1705L18.6007 17.487C18.68 17.438 18.7288 17.3474 18.7288 17.2493V12.5369L12.8649 15.9959C12.3264 16.3136 11.6736 16.3136 11.1351 15.9959L5.27118 12.5369ZM12.1236 2.67997C12.0466 2.63459 11.9534 2.63459 11.8764 2.67997L1.81148 8.61708L11.8764 14.5542C11.9534 14.5996 12.0466 14.5996 12.1236 14.5542L22.1885 8.61708L12.1236 2.67997Z" fill="#191A1A"/>
</svg>
