<svg width="24" height="24" viewBox="0 0 24 24" fill="none" xmlns="http://www.w3.org/2000/svg">
<path d="M12 3.25C14.3904 3.25 16.5792 4.1092 18.2747 5.53575L19.0303 4.78033C19.3232 4.48744 19.7981 4.48744 20.091 4.78033C20.3839 5.07322 20.3839 5.5481 20.091 5.84099L19.3452 6.58655C20.8429 8.30053 21.75 10.5439 21.75 13C21.75 18.3867 17.3867 22.75 12 22.75C6.61329 22.75 2.25 18.3867 2.25 13C2.25 7.61329 6.61329 3.25 12 3.25ZM12 4.75C7.44171 4.75 3.75 8.44171 3.75 13C3.75 17.5583 7.44171 21.25 12 21.25C16.5583 21.25 20.25 17.5583 20.25 13C20.25 8.44171 16.5583 4.75 12 4.75ZM12.1344 8.75C12.5486 8.75 12.8844 9.08579 12.8844 9.5V13.1487L15.6145 15.4238C15.9327 15.689 15.9757 16.1619 15.7106 16.4801C15.4454 16.7983 14.9725 16.8413 14.6543 16.5762L11.6543 14.0762C11.4833 13.9337 11.3844 13.7226 11.3844 13.5V9.5C11.3844 9.08579 11.7202 8.75 12.1344 8.75ZM14 1C14.4142 1 14.75 1.33579 14.75 1.75C14.75 2.16421 14.4142 2.5 14 2.5H10C9.58579 2.5 9.25 2.16421 9.25 1.75C9.25 1.33579 9.58579 1 10 1H14Z" fill="#191A1A"/>
</svg>
