<svg width="24" height="24" viewBox="0 0 24 24" fill="none" xmlns="http://www.w3.org/2000/svg">
<path d="M5 1.75C5.41421 1.75 5.75 2.08579 5.75 2.5C5.75 2.91421 5.41421 3.25 5 3.25H4C3.30128 3.25 2.75 3.77372 2.75 4.4V19.6C2.75 20.2263 3.30128 20.75 4 20.75H20C20.6987 20.75 21.25 20.2263 21.25 19.6V4.4C21.25 3.77372 20.6987 3.25 20 3.25H19C18.5858 3.25 18.25 2.91421 18.25 2.5C18.25 2.08579 18.5858 1.75 19 1.75H20C21.5104 1.75 22.75 2.9276 22.75 4.4V19.6C22.75 21.0724 21.5104 22.25 20 22.25H4C2.48958 22.25 1.25 21.0724 1.25 19.6V4.4C1.25 2.9276 2.48958 1.75 4 1.75H5ZM16 15.75C16.4142 15.75 16.75 16.0858 16.75 16.5C16.75 16.9142 16.4142 17.25 16 17.25H8C7.58579 17.25 7.25 16.9142 7.25 16.5C7.25 16.0858 7.58579 15.75 8 15.75H16ZM12.8839 2.11612L16.0303 5.26256C16.3232 5.55546 16.3232 6.03033 16.0303 6.32322C15.7374 6.61612 15.2626 6.61612 14.9697 6.32322L12.75 4.103V12.5C12.75 12.9142 12.4142 13.25 12 13.25C11.5858 13.25 11.25 12.9142 11.25 12.5V4.103L9.03033 6.32322C8.73744 6.61612 8.26256 6.61612 7.96967 6.32322C7.67678 6.03033 7.67678 5.55546 7.96967 5.26256L11.1161 2.11612C11.6043 1.62796 12.3957 1.62796 12.8839 2.11612Z" fill="#191A1A"/>
</svg>
