<svg width="24" height="24" viewBox="0 0 24 24" fill="none" xmlns="http://www.w3.org/2000/svg">
<path fill-rule="evenodd" clip-rule="evenodd" d="M19.4412 1.05512C21.399 0.7032 23.0008 2.06343 23 4.36395V19.778C23 21.8602 21.4005 23.313 19.4459 22.9421L3.39523 19.8927C2.07817 19.6428 1 18.3759 1 16.7768V7.0322C1 5.4719 2.07975 4.17652 3.39918 3.93927L19.4412 1.05512ZM21.5 19.778C21.5 21.0434 20.6385 21.6414 19.7259 21.4685L3.67485 18.419C3.11986 18.3137 2.5 17.7118 2.5 16.7768V7.0322C2.5 6.12878 3.12577 5.51251 3.66464 5.4156L19.7066 2.53145C20.2661 2.43089 20.6759 2.5804 20.9487 2.82718C21.2288 3.08064 21.5003 3.56449 21.5 4.36395V19.778ZM17.7533 6.69397C17.4462 6.416 16.9719 6.4396 16.694 6.7467L10.0086 14.1324L7.80604 11.6991C7.52807 11.392 7.05379 11.3684 6.7467 11.6463C6.4396 11.9243 6.416 12.3986 6.69397 12.7057L9.0819 15.3438C9.54518 15.8556 10.3357 15.895 10.8475 15.4317L10.9354 15.3438L17.806 7.75332C18.084 7.44622 18.0604 6.97194 17.7533 6.69397Z" fill="#191A1A"/>
</svg>
