<svg width="24" height="24" viewBox="0 0 24 24" fill="none" xmlns="http://www.w3.org/2000/svg">
<path d="M12 3.25C16.4033 3.25 20.4069 5.67832 22.684 9.57933C22.8166 9.80637 22.9634 10.0901 23.1257 10.4323L23.328 10.871C23.6508 11.5892 23.6503 12.4112 23.3267 13.129C23.2157 13.375 23.1109 13.5983 23.0119 13.7994L22.8215 14.1718L22.646 14.4854C20.3614 18.3499 16.3777 20.75 12 20.75C7.62827 20.75 3.64927 18.3565 1.36296 14.5005C1.16454 14.1659 0.936363 13.7111 0.674631 13.1312C0.35003 12.412 0.349991 11.588 0.674524 10.8688C0.934981 10.2916 1.16205 9.83869 1.35949 9.50531C3.64514 5.64606 7.62596 3.25 12 3.25ZM12 4.75C8.17002 4.75 4.67232 6.85527 2.65012 10.2697C2.53247 10.4683 2.39475 10.7327 2.23835 11.0611L2.04178 11.4858C1.89426 11.8127 1.89428 12.1872 2.04182 12.5141C2.28261 13.0476 2.48767 13.4563 2.65321 13.7355C4.67597 17.147 8.17205 19.25 12 19.25C15.8332 19.25 19.3335 17.1412 21.3548 13.7221C21.5184 13.4453 21.7211 13.0404 21.9593 12.5124C22.1064 12.1861 22.1066 11.8125 21.9598 11.486C21.7348 10.9855 21.5433 10.6005 21.3886 10.3355C19.3737 6.88381 15.8556 4.75 12 4.75ZM12 8C14.2087 8 16 9.79127 16 12C16 14.2087 14.2087 16 12 16C9.79127 16 8 14.2087 8 12C8 9.79127 9.79127 8 12 8ZM12 9.5C10.6197 9.5 9.5 10.6197 9.5 12C9.5 13.3803 10.6197 14.5 12 14.5C13.3803 14.5 14.5 13.3803 14.5 12C14.5 10.6197 13.3803 9.5 12 9.5Z" fill="#191A1A"/>
</svg>
