<svg width="24" height="24" viewBox="0 0 24 24" fill="none" xmlns="http://www.w3.org/2000/svg">
<path fill-rule="evenodd" clip-rule="evenodd" d="M19.3727 5.55648L22.4807 3.25C22.7629 2.94684 23.2375 2.92989 23.5406 3.21215C23.8438 3.4944 23.8608 3.96897 23.5785 4.27213L1.63409 20.6183L1.48047 20.75C1.48047 20.75 1.48047 20.75 1.25967 20.9174C0.940399 21.1595 0.516973 21.2104 0.22079 20.9358L0.219596 20.9347C-0.0835642 20.6524 -0.062649 20.1204 0.219604 19.8172L0.719218 19.3997L3.69998 17.1876C2.79548 16.3438 1.99972 15.3574 1.34343 14.2505C1.14501 13.9159 0.916832 13.4611 0.6551 12.8812C0.330499 12.162 0.33046 11.338 0.654993 10.6188C0.915449 10.0416 1.14252 9.58869 1.33996 9.25531C3.62561 5.39606 7.60642 3 11.9805 3C14.7015 3 17.27 3.92733 19.3727 5.55648ZM4.92739 16.2767C4.04212 15.4903 3.26592 14.5518 2.63368 13.4855C2.46814 13.2063 2.26308 12.7976 2.02229 12.2641C1.87475 11.9372 1.87473 11.5627 2.02224 11.2358L2.21882 10.8111C2.37522 10.4827 2.51294 10.2183 2.63059 10.0197C4.65279 6.60527 8.15049 4.5 11.9805 4.5C14.2142 4.5 16.3346 5.21616 18.115 6.48984L14.8212 8.93425C14.0963 8.20299 13.0912 7.75 11.9805 7.75C9.77174 7.75 7.98047 9.54127 7.98047 11.75C7.98047 12.4391 8.15483 13.0876 8.46184 13.6537L4.92739 16.2767ZM9.68641 12.7449L13.5968 9.84296C13.1609 9.47313 12.5966 9.25 11.9805 9.25C10.6002 9.25 9.48047 10.3697 9.48047 11.75C9.48047 12.1035 9.55393 12.44 9.68641 12.7449Z" fill="#191A1A"/>
<path d="M20.1216 8.33096L21.3271 7.43304C21.8204 8.01726 22.2686 8.65103 22.6645 9.32933C22.797 9.55637 22.9438 9.84015 23.1061 10.1823L23.3084 10.621C23.6313 11.3392 23.6308 12.1612 23.3071 12.879C23.1962 13.125 23.0914 13.3483 22.9923 13.5494L22.8019 13.9218L22.6265 14.2354C20.3419 18.0999 16.3582 20.5 11.9805 20.5C9.82996 20.5 7.77447 19.9208 5.96876 18.8733L7.29491 17.8855C8.73331 18.6071 10.3259 19 11.9805 19C15.8137 19 19.3139 16.8912 21.3352 13.4721C21.4989 13.1953 21.7016 12.7904 21.9397 12.2624C22.0868 11.9361 22.0871 11.5625 21.9403 11.236C21.7153 10.7355 21.5237 10.3505 21.3691 10.0855C21.001 9.45504 20.5828 8.86853 20.1216 8.33096Z" fill="#191A1A"/>
</svg>
