<svg width="24" height="24" viewBox="0 0 24 24" fill="none" xmlns="http://www.w3.org/2000/svg">
<path fill-rule="evenodd" clip-rule="evenodd" d="M19.4257 10.3794C19.4257 5.47543 15.4129 1.5 10.4628 1.5C5.5128 1.5 1.5 5.47543 1.5 10.3794C1.5 15.2833 5.5128 19.2588 10.4628 19.2588C11.8895 19.2588 13.2384 18.9285 14.4357 18.341L17.6698 21.5752C18.8264 22.7318 20.6403 22.8458 21.7269 21.7592C22.8135 20.6727 22.6994 18.8588 21.5428 17.7022L18.3819 14.5417C19.0482 13.3002 19.4257 11.8835 19.4257 10.3794ZM15.755 17.5464C16.4305 17.0561 17.0341 16.4742 17.5472 15.8194L20.4865 18.7584C21.0943 19.3662 21.1495 20.2437 20.6804 20.7128C20.2114 21.1819 19.3338 21.1267 18.7261 20.5189L15.755 17.5464ZM2.99381 10.3794C2.99381 6.29276 6.33781 2.9799 10.4628 2.9799C14.5879 2.9799 17.9319 6.29276 17.9319 10.3794C17.9319 14.466 14.5879 17.7789 10.4628 17.7789C6.33781 17.7789 2.99381 14.466 2.99381 10.3794ZM7.16667 9.75C6.79848 9.75 6.5 10.0485 6.5 10.4167C6.5 10.7849 6.79848 11.0833 7.16667 11.0833H13.8333C14.2015 11.0833 14.5 10.7849 14.5 10.4167C14.5 10.0485 14.2015 9.75 13.8333 9.75H7.16667Z" fill="#191A1A"/>
</svg>
