<svg width="24" height="24" viewBox="0 0 24 24" fill="none" xmlns="http://www.w3.org/2000/svg">
<path d="M21 9.25C22.5188 9.25 23.75 10.4812 23.75 12V20C23.75 21.5188 22.5188 22.75 21 22.75H3C1.48122 22.75 0.25 21.5188 0.25 20V12C0.25 10.4812 1.48122 9.25 3 9.25H21ZM21 10.75H3C2.30964 10.75 1.75 11.3096 1.75 12V20C1.75 20.6904 2.30964 21.25 3 21.25H21C21.6904 21.25 22.25 20.6904 22.25 20V12C22.25 11.3096 21.6904 10.75 21 10.75ZM19 5.25C19.4142 5.25 19.75 5.58579 19.75 6C19.75 6.41421 19.4142 6.75 19 6.75H5C4.58579 6.75 4.25 6.41421 4.25 6C4.25 5.58579 4.58579 5.25 5 5.25H19ZM16 1.25C16.4142 1.25 16.75 1.58579 16.75 2C16.75 2.41421 16.4142 2.75 16 2.75H8C7.58579 2.75 7.25 2.41421 7.25 2C7.25 1.58579 7.58579 1.25 8 1.25H16Z" fill="#191A1A"/>
</svg>
