<svg width="24" height="24" viewBox="0 0 24 24" fill="none" xmlns="http://www.w3.org/2000/svg">
<path d="M18.8 1.75C20.1728 1.75 21.25 2.95389 21.25 4.4V11.5C21.25 11.9142 20.9142 12.25 20.5 12.25C20.0858 12.25 19.75 11.9142 19.75 11.5V4.4C19.75 3.74743 19.3049 3.25 18.8 3.25H5.2C4.69507 3.25 4.25 3.74743 4.25 4.4V19.6C4.25 20.2526 4.69507 20.75 5.2 20.75H12C12.4142 20.75 12.75 21.0858 12.75 21.5C12.75 21.9142 12.4142 22.25 12 22.25H5.2C3.82716 22.25 2.75 21.0461 2.75 19.6V4.4C2.75 2.95389 3.82716 1.75 5.2 1.75H18.8ZM22.7011 13.4889C22.9833 13.1858 23.4579 13.1688 23.7611 13.4511C24.0642 13.7333 24.0812 14.2079 23.7989 14.5111L17.6476 21.118L17.5845 21.1811C17.0793 21.6515 16.2883 21.6233 15.8179 21.118L13.7011 18.8444C13.4188 18.5412 13.4358 18.0667 13.7389 17.7844C14.0421 17.5022 14.5167 17.5191 14.7989 17.8223L16.7328 19.8994L22.7011 13.4889ZM8.25 10.5C8.802 10.5 9.25 10.947 9.25 11.5C9.25 12.053 8.802 12.5 8.25 12.5C7.698 12.5 7.25 12.053 7.25 11.5C7.25 10.947 7.698 10.5 8.25 10.5ZM16 10.75C16.4142 10.75 16.75 11.0858 16.75 11.5C16.75 11.9142 16.4142 12.25 16 12.25H12C11.5858 12.25 11.25 11.9142 11.25 11.5C11.25 11.0858 11.5858 10.75 12 10.75H16ZM8.25 6.5C8.802 6.5 9.25 6.947 9.25 7.5C9.25 8.053 8.802 8.5 8.25 8.5C7.698 8.5 7.25 8.053 7.25 7.5C7.25 6.947 7.698 6.5 8.25 6.5ZM16 6.75C16.4142 6.75 16.75 7.08579 16.75 7.5C16.75 7.91421 16.4142 8.25 16 8.25H12C11.5858 8.25 11.25 7.91421 11.25 7.5C11.25 7.08579 11.5858 6.75 12 6.75H16Z" fill="#191A1A"/>
</svg>
