<svg width="24" height="24" viewBox="0 0 24 24" fill="none" xmlns="http://www.w3.org/2000/svg">
<path d="M18.75 12.75C21.6495 12.75 24 15.1005 24 18C24 20.8995 21.6495 23.25 18.75 23.25C15.8505 23.25 13.5 20.8995 13.5 18C13.5 15.1005 15.8505 12.75 18.75 12.75ZM9 13.25C9.9665 13.25 10.75 14.0335 10.75 15V21C10.75 21.9665 9.9665 22.75 9 22.75H3C2.0335 22.75 1.25 21.9665 1.25 21V15C1.25 14.0335 2.0335 13.25 3 13.25H9ZM18.75 14.25C16.6789 14.25 15 15.9289 15 18C15 20.071 16.6789 21.75 18.75 21.75C20.8211 21.75 22.5 20.071 22.5 18C22.5 15.9289 20.8211 14.25 18.75 14.25ZM9 14.75H3C2.86193 14.75 2.75 14.8619 2.75 15V21C2.75 21.138 2.86193 21.25 3 21.25H9C9.13807 21.25 9.25 21.138 9.25 21V15C9.25 14.8619 9.13807 14.75 9 14.75ZM12.6071 0.936828C12.7703 1.02752 12.9106 1.15332 13.0182 1.30449L13.0927 1.42247L17.2429 8.89291C17.5782 9.49639 17.3608 10.2574 16.7573 10.5927C16.5716 10.6958 16.3627 10.75 16.1502 10.75H7.84976C7.1594 10.75 6.59976 10.1903 6.59976 9.49996C6.59976 9.28753 6.6539 9.07861 6.75706 8.89291L10.9073 1.42247C11.2426 0.818991 12.0036 0.601562 12.6071 0.936828ZM12 2.54431L8.27464 9.24996H15.7254L12 2.54431Z" fill="#191A1A"/>
</svg>
