<svg width="24" height="24" viewBox="0 0 24 24" fill="none" xmlns="http://www.w3.org/2000/svg">
<path d="M11.8 1.75C12.2142 1.75 12.55 2.08579 12.55 2.5C12.55 2.91421 12.2142 3.25 11.8 3.25H5.2C4.69507 3.25 4.25 3.74743 4.25 4.4V19.6C4.25 20.2526 4.69507 20.75 5.2 20.75H18.8C19.3049 20.75 19.75 20.2526 19.75 19.6V13.75C19.75 13.3358 20.0858 13 20.5 13C20.9142 13 21.25 13.3358 21.25 13.75V19.6C21.25 21.0461 20.1728 22.25 18.8 22.25H5.2C3.82716 22.25 2.75 21.0461 2.75 19.6V4.4C2.75 2.95389 3.82716 1.75 5.2 1.75H11.8ZM17.0902 2.41352C17.6759 1.82773 18.6257 1.82773 19.2115 2.41352L21.5865 4.78852C22.1723 5.37431 22.1723 6.32405 21.5865 6.90984L12.7357 15.7607C12.4544 16.042 12.0728 16.2 11.675 16.2H9.3C8.47157 16.2 7.8 15.5284 7.8 14.7V12.325C7.8 11.9272 7.95804 11.5456 8.23934 11.2643L17.0902 2.41352ZM15.128 6.497L9.3 12.325V14.7H11.675L17.503 8.872L15.128 6.497ZM18.1508 3.47418L16.189 5.436L18.564 7.811L20.5258 5.84918L18.1508 3.47418Z" fill="#191A1A"/>
</svg>
