<svg width="24" height="24" viewBox="0 0 24 24" fill="none" xmlns="http://www.w3.org/2000/svg">
<path d="M23.1 6.25C23.5142 6.25 23.85 6.58579 23.85 7V21.975C23.85 22.6712 23.2988 23.25 22.6 23.25C22.3439 23.25 22.0946 23.1698 21.8856 23.0213L18.2244 20.4211H6.85001C6.43579 20.4211 6.10001 20.0854 6.10001 19.6711C6.10001 19.2569 6.43579 18.9211 6.85001 18.9211H18.4636C18.6193 18.9211 18.771 18.9696 18.8979 19.0597L22.35 21.5114V7C22.35 6.58579 22.6858 6.25 23.1 6.25ZM17.35 1.25C18.8688 1.25 20.1 2.48122 20.1 4V13.7528C20.1 15.2716 18.8688 16.5028 17.35 16.5028H6.12671L2.69296 18.8427C2.41759 19.0303 2.09207 19.1307 1.75883 19.1307C0.842689 19.1307 0.100006 18.388 0.100006 17.4719V4C0.100006 2.48122 1.33122 1.25 2.85001 1.25H17.35ZM17.35 2.75H2.85001C2.15965 2.75 1.60001 3.30964 1.60001 4V17.4719C1.60001 17.5596 1.67112 17.6307 1.75883 17.6307C1.79074 17.6307 1.82191 17.6211 1.84827 17.6031L5.47312 15.133C5.59762 15.0482 5.74479 15.0028 5.89546 15.0028H17.35C18.0404 15.0028 18.6 14.4431 18.6 13.7528V4C18.6 3.30964 18.0404 2.75 17.35 2.75ZM10.35 10.25C10.7642 10.25 11.1 10.5858 11.1 11C11.1 11.4142 10.7642 11.75 10.35 11.75H6.35001C5.93579 11.75 5.60001 11.4142 5.60001 11C5.60001 10.5858 5.93579 10.25 6.35001 10.25H10.35ZM13.85 6.25C14.2642 6.25 14.6 6.58579 14.6 7C14.6 7.41421 14.2642 7.75 13.85 7.75H6.35001C5.93579 7.75 5.60001 7.41421 5.60001 7C5.60001 6.58579 5.93579 6.25 6.35001 6.25H13.85Z" fill="#191A1A"/>
</svg>
