<svg width="24" height="24" viewBox="0 0 24 24" fill="none" xmlns="http://www.w3.org/2000/svg">
<path fill-rule="evenodd" clip-rule="evenodd" d="M6.57577 3.925C4.80553 3.925 3.37047 5.30732 3.37047 7.0125C3.37047 8.71768 4.80553 10.1 6.57577 10.1C8.346 10.1 9.78106 8.71768 9.78106 7.0125C9.78106 5.30732 8.346 3.925 6.57577 3.925ZM1.8911 7.0125C1.8911 4.52031 3.9885 2.5 6.57577 2.5C9.16303 2.5 11.2604 4.52031 11.2604 7.0125C11.2604 9.50468 9.16303 11.525 6.57577 11.525C3.9885 11.525 1.8911 9.50468 1.8911 7.0125ZM4.86136 13.425C2.55074 13.425 0.585206 15.0478 0.231817 17.2473L0.0324963 18.4879C-0.22188 20.0712 1.04953 21.5 2.71276 21.5H10.9315C11.3128 21.5 11.6736 21.4249 12.0001 21.29C12.3266 21.4249 12.6874 21.5 13.0687 21.5H21.2874C22.9507 21.5 24.2221 20.0712 23.9677 18.4879L23.7684 17.2473C23.415 15.0478 21.4495 13.425 19.1388 13.425H15.2173C13.9816 13.425 12.8446 13.8891 12.0001 14.6574C11.1556 13.8891 10.0186 13.425 8.78286 13.425H4.86136ZM12.9076 15.7967C13.1549 16.2387 13.3288 16.7269 13.4124 17.2473L13.6117 18.4879C13.7031 19.0565 13.5976 19.6052 13.3479 20.075H21.2874C22.0434 20.075 22.6214 19.4255 22.5057 18.7059L22.3064 17.4653C22.0646 15.9603 20.7198 14.85 19.1388 14.85H15.2173C14.3177 14.85 13.4945 15.2095 12.9076 15.7967ZM1.69378 17.4653C1.93557 15.9603 3.28041 14.85 4.86136 14.85H8.78286C10.3638 14.85 11.7087 15.9603 11.9504 17.4653L12.1498 18.7059C12.2654 19.4255 11.6875 20.075 10.9315 20.075H2.71276C1.95675 20.075 1.37883 19.4255 1.49446 18.7059L1.69378 17.4653ZM14.4657 7.96248C14.4657 6.78198 15.4592 5.82498 16.6847 5.82498C17.9103 5.82498 18.9038 6.78198 18.9038 7.96248C18.9038 9.14299 17.9103 10.1 16.6847 10.1C15.4592 10.1 14.4657 9.14299 14.4657 7.96248ZM16.6847 4.39998C14.6422 4.39998 12.9863 5.99497 12.9863 7.96248C12.9863 9.93 14.6422 11.525 16.6847 11.525C18.7273 11.525 20.3832 9.93 20.3832 7.96248C20.3832 5.99497 18.7273 4.39998 16.6847 4.39998Z" fill="#191A1A"/>
</svg>
