<svg width="24" height="24" viewBox="0 0 24 24" fill="none" xmlns="http://www.w3.org/2000/svg">
<path d="M12 1C17.9392 1 22.75 5.81079 22.75 11.75C22.75 17.6892 17.9392 22.5 12 22.5C6.06079 22.5 1.25 17.6892 1.25 11.75C1.25 5.81079 6.06079 1 12 1ZM12 2.5C6.88921 2.5 2.75 6.63921 2.75 11.75C2.75 16.8608 6.88921 21 12 21C17.1108 21 21.25 16.8608 21.25 11.75C21.25 6.63921 17.1108 2.5 12 2.5ZM12 15.75C12.5523 15.75 13 16.1977 13 16.75C13 17.3023 12.5523 17.75 12 17.75C11.4477 17.75 11 17.3023 11 16.75C11 16.1977 11.4477 15.75 12 15.75ZM12 6C14.0711 6 15.75 7.67893 15.75 9.75C15.75 11.0186 14.8543 12.0905 13.198 12.995C12.9218 13.1458 12.75 13.4353 12.75 13.75L12.7432 13.8518C12.6935 14.2178 12.3797 14.5 12 14.5C11.5858 14.5 11.25 14.1642 11.25 13.75C11.25 12.8867 11.7214 12.0922 12.4791 11.6785C13.7047 11.0092 14.25 10.3566 14.25 9.75C14.25 8.50736 13.2426 7.5 12 7.5C10.7574 7.5 9.75 8.50736 9.75 9.75C9.75 10.1642 9.41421 10.5 9 10.5C8.58579 10.5 8.25 10.1642 8.25 9.75C8.25 7.67893 9.92893 6 12 6Z" fill="#191A1A"/>
</svg>
