<svg width="24" height="24" viewBox="0 0 24 24" fill="none" xmlns="http://www.w3.org/2000/svg">
<path d="M5.5 22.375C3.98122 22.375 2.75 21.1438 2.75 19.625L2.74997 10.244L1.4642 11.2571C1.16843 11.4902 0.751818 11.4652 0.4859 11.2142L0.410917 11.1322C0.154547 10.8069 0.21046 10.3353 0.535802 10.0789L11.5358 1.41095C11.5419 1.40613 11.5481 1.40143 11.5543 1.39684C11.568 1.38649 11.5819 1.37692 11.5961 1.36786C11.613 1.35722 11.6301 1.3472 11.6474 1.33793C11.6614 1.33039 11.6761 1.32321 11.6909 1.31652C11.7077 1.30889 11.7244 1.30205 11.7413 1.29584C11.7607 1.28885 11.7804 1.28254 11.8003 1.27705C11.8134 1.27329 11.8268 1.27 11.8402 1.26708C11.8622 1.26247 11.8839 1.25875 11.9057 1.25598C11.9172 1.25441 11.9293 1.25319 11.9413 1.25225C11.9614 1.25076 11.9811 1.24999 12.0008 1.25C12.0196 1.25002 12.039 1.25079 12.0583 1.25229C12.0707 1.25319 12.0828 1.25441 12.0948 1.25593C12.1161 1.25875 12.1378 1.26247 12.1594 1.26713C12.1732 1.27 12.1866 1.27329 12.1999 1.27697C12.2196 1.28254 12.2393 1.28885 12.2588 1.29599C12.2756 1.30205 12.2923 1.30889 12.3088 1.31638C12.3239 1.32321 12.3386 1.33039 12.353 1.33807C12.3699 1.3472 12.387 1.35722 12.4039 1.36798C12.4181 1.37692 12.432 1.38649 12.4457 1.39657C12.4519 1.40143 12.4581 1.40613 12.4642 1.41095L23.4642 10.0789C23.7895 10.3353 23.8455 10.8069 23.5891 11.1322C23.3327 11.4576 22.8611 11.5135 22.5358 11.2571L21.25 10.244L21.25 19.625C21.25 21.0876 20.1083 22.2834 18.6675 22.37L18.5 22.375H5.5ZM12 2.955L4.24997 9.062L4.25 19.625C4.25 20.2722 4.74188 20.8046 5.3722 20.8686L5.5 20.875L8.74997 20.875L8.75 16.875C8.75 15.0801 10.2051 13.625 12 13.625C13.7949 13.625 15.25 15.0801 15.25 16.875L15.25 20.875L18.5 20.875C19.1472 20.875 19.6795 20.3832 19.7435 19.7528L19.75 19.625L19.75 9.062L12 2.955ZM12 15.125C11.0335 15.125 10.25 15.9085 10.25 16.875L10.25 20.875H13.75L13.75 16.875C13.75 15.9085 12.9665 15.125 12 15.125Z" fill="#191A1A"/>
</svg>
