<svg width="24" height="24" viewBox="0 0 24 24" fill="none" xmlns="http://www.w3.org/2000/svg">
<path d="M2.09998 5.75C2.51419 5.75 2.84998 6.08579 2.84998 6.5V20C2.84998 20.9665 3.63348 21.75 4.59998 21.75H17.1C17.5142 21.75 17.85 22.0858 17.85 22.5C17.85 22.9142 17.5142 23.25 17.1 23.25H4.59998C2.80505 23.25 1.34998 21.7949 1.34998 20V6.5C1.34998 6.08579 1.68576 5.75 2.09998 5.75ZM19.85 1C21.3688 1 22.6 2.23122 22.6 3.75V16.75C22.6 18.2688 21.3688 19.5 19.85 19.5H7.84998C6.33119 19.5 5.09998 18.2688 5.09998 16.75V3.75C5.09998 2.23122 6.33119 1 7.84998 1H19.85ZM12.1056 2.49984L7.84998 2.5C7.15962 2.5 6.59998 3.05964 6.59998 3.75V16.75C6.59998 17.4404 7.15962 18 7.84998 18H19.85C20.5403 18 21.1 17.4404 21.1 16.75V3.75C21.1 3.05964 20.5403 2.5 19.85 2.5H18.596L18.6 2.58333V8.68866C18.6 8.9357 18.5085 9.174 18.3433 9.35762C17.9738 9.76813 17.3415 9.80141 16.931 9.43195L15.35 8.00902L13.7692 9.43168C13.5855 9.59707 13.347 9.68852 13.0997 9.68839C12.5475 9.68809 12.1 9.24014 12.1003 8.68785L12.1035 2.58333C12.1035 2.55537 12.1042 2.52753 12.1056 2.49984ZM17.1357 2.5H13.5643C13.595 2.5 13.603 2.50505 13.6045 2.52415L13.6009 7.56517L14.8483 6.44253C15.1335 6.18582 15.5665 6.18582 15.8517 6.44253L17.1 7.56598V2.58333C17.1 2.51576 17.0865 2.5 17.1357 2.5Z" fill="#191A1A"/>
</svg>
