<svg width="24" height="24" viewBox="0 0 24 24" fill="none" xmlns="http://www.w3.org/2000/svg">
<path d="M3.51407 3.47474C3.80693 3.18182 4.2818 3.18176 4.57473 3.47462C4.86766 3.76748 4.86771 4.24235 4.57485 4.53528C0.475049 8.63604 0.475049 15.2846 4.57485 19.3853C4.86771 19.6782 4.86766 20.1531 4.57473 20.446C4.2818 20.7388 3.80693 20.7388 3.51407 20.4458C-1.17136 15.7593 -1.17136 8.16126 3.51407 3.47474ZM19.3444 3.46967C19.6373 3.17678 20.1122 3.17678 20.4051 3.46967C25.0916 8.1562 25.0916 15.7544 20.4051 20.4409C20.1122 20.7338 19.6373 20.7338 19.3444 20.4409C19.0515 20.148 19.0515 19.6731 19.3444 19.3802C23.4452 15.2795 23.4452 8.63107 19.3444 4.53033C19.0515 4.23744 19.0515 3.76256 19.3444 3.46967ZM6.65573 5.80905C6.95372 5.52134 7.42852 5.52967 7.71623 5.82765C8.00394 6.12564 7.99561 6.60044 7.69762 6.88815C4.76746 9.71728 4.76746 14.2929 7.69762 17.122C7.99561 17.4098 8.00394 17.8846 7.71623 18.1825C7.42852 18.4805 6.95372 18.4889 6.65573 18.2012C3.11476 14.7823 3.11476 9.22792 6.65573 5.80905ZM16.2023 5.82177C16.4901 5.52383 16.9649 5.51557 17.2628 5.80333C20.8037 9.22319 20.8037 14.7764 17.2628 18.1963C16.9649 18.484 16.4901 18.4758 16.2023 18.1778C15.9146 17.8799 15.9228 17.4051 16.2208 17.1173C19.1511 14.2872 19.1511 9.71241 16.2208 6.88227C15.9228 6.59451 15.9146 6.11971 16.2023 5.82177ZM12 8C14.2087 8 16 9.79127 16 12C16 14.2087 14.2087 16 12 16C9.79127 16 8 14.2087 8 12C8 9.79127 9.79127 8 12 8ZM12 9.5C10.6197 9.5 9.5 10.6197 9.5 12C9.5 13.3803 10.6197 14.5 12 14.5C13.3803 14.5 14.5 13.3803 14.5 12C14.5 10.6197 13.3803 9.5 12 9.5Z" fill="#191A1A"/>
</svg>
