<svg width="24" height="24" viewBox="0 0 24 24" fill="none" xmlns="http://www.w3.org/2000/svg">
<path d="M14.5858 1.75C15.0499 1.75 15.495 1.93437 15.8232 2.26256L20.7374 7.17678C21.0656 7.50497 21.25 7.95008 21.25 8.41421V19.5C21.25 21.0188 20.0188 22.25 18.5 22.25H5.5C3.98122 22.25 2.75 21.0188 2.75 19.5V4.5C2.75 2.98122 3.98122 1.75 5.5 1.75H14.5858ZM13.5 3.25H5.5C4.80964 3.25 4.25 3.80964 4.25 4.5V19.5C4.25 20.1904 4.80964 20.75 5.5 20.75H18.5C19.1904 20.75 19.75 20.1904 19.75 19.5V9.25H14.75C14.1028 9.25 13.5705 8.75813 13.5065 8.12781L13.5 8V3.25ZM12 15.75C12.4142 15.75 12.75 16.0858 12.75 16.5C12.75 16.9142 12.4142 17.25 12 17.25H8C7.58579 17.25 7.25 16.9142 7.25 16.5C7.25 16.0858 7.58579 15.75 8 15.75H12ZM16 11.75C16.4142 11.75 16.75 12.0858 16.75 12.5C16.75 12.9142 16.4142 13.25 16 13.25H8C7.58579 13.25 7.25 12.9142 7.25 12.5C7.25 12.0858 7.58579 11.75 8 11.75H16ZM19.189 7.75L15 3.561V7.75H19.189Z" fill="#191A1A"/>
</svg>
