<svg width="24" height="24" viewBox="0 0 24 24" fill="none" xmlns="http://www.w3.org/2000/svg">
<path d="M9 13.25C9.9665 13.25 10.75 14.0335 10.75 15V20C10.75 20.9665 9.9665 21.75 9 21.75H4C3.0335 21.75 2.25 20.9665 2.25 20V15C2.25 14.0335 3.0335 13.25 4 13.25H9ZM20 13.25C20.9665 13.25 21.75 14.0335 21.75 15V20C21.75 20.9665 20.9665 21.75 20 21.75H15C14.0335 21.75 13.25 20.9665 13.25 20V15C13.25 14.0335 14.0335 13.25 15 13.25H20ZM9 14.75H4C3.86193 14.75 3.75 14.8619 3.75 15V20C3.75 20.1381 3.86193 20.25 4 20.25H9C9.13807 20.25 9.25 20.1381 9.25 20V15C9.25 14.8619 9.13807 14.75 9 14.75ZM20 14.75H15C14.8619 14.75 14.75 14.8619 14.75 15V20C14.75 20.1381 14.8619 20.25 15 20.25H20C20.1381 20.25 20.25 20.1381 20.25 20V15C20.25 14.8619 20.1381 14.75 20 14.75ZM9 2.25C9.9665 2.25 10.75 3.0335 10.75 4V9C10.75 9.9665 9.9665 10.75 9 10.75H4C3.0335 10.75 2.25 9.9665 2.25 9V4C2.25 3.0335 3.0335 2.25 4 2.25H9ZM20 2.25C20.9665 2.25 21.75 3.0335 21.75 4V9C21.75 9.9665 20.9665 10.75 20 10.75H15C14.0335 10.75 13.25 9.9665 13.25 9V4C13.25 3.0335 14.0335 2.25 15 2.25H20ZM9 3.75H4C3.86193 3.75 3.75 3.86193 3.75 4V9C3.75 9.13807 3.86193 9.25 4 9.25H9C9.13807 9.25 9.25 9.13807 9.25 9V4C9.25 3.86193 9.13807 3.75 9 3.75ZM20 3.75H15C14.8619 3.75 14.75 3.86193 14.75 4V9C14.75 9.13807 14.8619 9.25 15 9.25H20C20.1381 9.25 20.25 9.13807 20.25 9V4C20.25 3.86193 20.1381 3.75 20 3.75Z" fill="#191A1A"/>
</svg>
