<svg width="24" height="24" viewBox="0 0 24 24" fill="none" xmlns="http://www.w3.org/2000/svg">
<path d="M12 3C16.1981 3 19.6556 6.29823 19.8534 10.4917L20 13.6L20.5014 14.1348C21.4375 15.1334 21.8123 16.534 21.5 17.8667C21.2071 19.1164 20.0924 20 18.8088 20L15.7168 20.0007C15.4721 21.835 13.9013 23.25 12 23.25C10.0987 23.25 8.52788 21.835 8.28312 20.0007L5.19112 20C3.90755 20 2.79288 19.1164 2.49998 17.8667C2.18763 16.534 2.56242 15.1334 3.49859 14.1348L3.99998 13.6L4.1466 10.4917C4.3444 6.29823 7.80188 3 12 3ZM14.1941 20.0007H9.8059C10.0335 21.0024 10.9295 21.75 12 21.75C13.0705 21.75 13.9664 21.0024 14.1941 20.0007ZM12 4.5C8.60283 4.5 5.805 7.16897 5.64493 10.5623L5.49831 13.6707C5.4815 14.027 5.33826 14.3657 5.09428 14.6259L4.5929 15.1607C3.99995 15.7932 3.76257 16.6803 3.9604 17.5244C4.09435 18.0959 4.60412 18.5 5.19112 18.5H18.8088C19.3958 18.5 19.9056 18.0959 20.0396 17.5244C20.2374 16.6803 20 15.7932 19.4071 15.1607L18.9057 14.6259C18.6617 14.3657 18.5185 14.027 18.5016 13.6707L18.355 10.5623C18.195 7.16897 15.3971 4.5 12 4.5ZM14 0.75C14.4142 0.75 14.75 1.08579 14.75 1.5C14.75 1.91421 14.4142 2.25 14 2.25H9.99998C9.58576 2.25 9.24998 1.91421 9.24998 1.5C9.24998 1.08579 9.58576 0.75 9.99998 0.75H14Z" fill="#191A1A"/>
</svg>
