<svg width="24" height="24" viewBox="0 0 24 24" fill="none" xmlns="http://www.w3.org/2000/svg">
<path d="M10.4628 1.5C15.4129 1.5 19.4257 5.47543 19.4257 10.3794C19.4257 11.8835 19.0482 13.3002 18.3819 14.5417L21.5428 17.7022C22.6994 18.8588 22.8135 20.6727 21.7269 21.7592C20.6403 22.8458 18.8264 22.7318 17.6698 21.5752L14.4357 18.341C13.2384 18.9285 11.8895 19.2588 10.4628 19.2588C5.5128 19.2588 1.5 15.2833 1.5 10.3794C1.5 5.47543 5.5128 1.5 10.4628 1.5ZM17.5472 15.8194C17.0341 16.4742 16.4305 17.0561 15.755 17.5464L18.7261 20.5189C19.3338 21.1267 20.2114 21.1819 20.6804 20.7128C21.1495 20.2437 21.0943 19.3662 20.4865 18.7584L17.5472 15.8194ZM10.4628 2.9799C6.33781 2.9799 2.99381 6.29276 2.99381 10.3794C2.99381 14.466 6.33781 17.7789 10.4628 17.7789C14.5879 17.7789 17.9319 14.466 17.9319 10.3794C17.9319 6.29276 14.5879 2.9799 10.4628 2.9799Z" fill="#191A1A"/>
</svg>
