<svg width="24" height="24" viewBox="0 0 24 24" fill="none" xmlns="http://www.w3.org/2000/svg">
<path d="M20.5 18.25C21.1904 18.25 21.75 18.8096 21.75 19.5V21.5C21.75 22.1903 21.1904 22.75 20.5 22.75H3.5C2.80964 22.75 2.25 22.1903 2.25 21.5V19.5C2.25 18.8096 2.80964 18.25 3.5 18.25H20.5ZM20.25 19.75H3.75V21.25H20.25V19.75ZM9.5 10.25C9.91421 10.25 10.25 10.5858 10.25 11V16C10.25 16.4142 9.91421 16.75 9.5 16.75C9.08579 16.75 8.75 16.4142 8.75 16V11C8.75 10.5858 9.08579 10.25 9.5 10.25ZM14.5 10.25C14.9142 10.25 15.25 10.5858 15.25 11V16C15.25 16.4142 14.9142 16.75 14.5 16.75C14.0858 16.75 13.75 16.4142 13.75 16V11C13.75 10.5858 14.0858 10.25 14.5 10.25ZM4.5 10.25C4.91421 10.25 5.25 10.5858 5.25 11V16C5.25 16.4142 4.91421 16.75 4.5 16.75C4.08579 16.75 3.75 16.4142 3.75 16V11C3.75 10.5858 4.08579 10.25 4.5 10.25ZM19.5 10.25C19.9142 10.25 20.25 10.5858 20.25 11V16C20.25 16.4142 19.9142 16.75 19.5 16.75C19.0858 16.75 18.75 16.4142 18.75 16V11C18.75 10.5858 19.0858 10.25 19.5 10.25ZM12.4061 0.859748L21.1561 4.74864C21.5173 4.90914 21.75 5.26726 21.75 5.66245V7.74998C21.75 8.30226 21.3023 8.74998 20.75 8.74998H3.25C2.69772 8.74998 2.25 8.30226 2.25 7.74998V5.66245C2.25 5.31117 2.43389 4.98918 2.72838 4.80924L2.84386 4.74864L11.5939 0.859748C11.8524 0.74483 12.1476 0.74483 12.4061 0.859748ZM12 2.32072L3.75 5.98738V7.24998H20.25V5.98738L12 2.32072Z" fill="#191A1A"/>
</svg>
