<svg width="24" height="24" viewBox="0 0 24 24" fill="none" xmlns="http://www.w3.org/2000/svg">
<path d="M14 1.25C14.6236 1.25 15.1567 1.70691 15.2324 2.31354L15.5535 4.55284C15.9387 4.7366 16.3091 4.95213 16.6662 5.19915L18.7715 4.35364C18.9137 4.29674 19.0675 4.27 19.22 4.27C19.6695 4.27 20.0898 4.50425 20.3093 4.89467L22.3184 8.37086C22.6111 8.90748 22.4857 9.57897 22.002 9.96081L20.2204 11.354C20.2401 11.579 20.25 11.7871 20.25 12C20.25 12.2129 20.2401 12.421 20.2204 12.646L22.0047 14.0413C22.4857 14.421 22.6111 15.0925 22.3093 15.6453L20.3137 19.0977C20.0915 19.4927 19.6727 19.73 19.23 19.73C19.0883 19.73 18.9483 19.7067 18.7705 19.646L16.6626 18.7994C16.2988 19.0491 15.9305 19.2648 15.5536 19.4462L15.2342 21.673C15.1567 22.2931 14.6236 22.75 14 22.75H10C9.37637 22.75 8.8433 22.2931 8.7676 21.6865L8.44649 19.4472C8.06128 19.2634 7.69087 19.0479 7.33386 18.8009L5.22855 19.6464C5.08628 19.7033 4.93255 19.73 4.78 19.73C4.3305 19.73 3.91023 19.4957 3.69068 19.1053L1.68158 15.6291C1.38888 15.0925 1.51432 14.421 1.998 14.0392L3.77988 12.6458C3.76016 12.4196 3.75 12.2083 3.75 12C3.75 11.7917 3.76016 11.5804 3.77988 11.3542L1.99527 9.95866C1.50948 9.57514 1.37404 8.89044 1.69068 8.35467L3.68632 4.9023C3.90851 4.5073 4.32728 4.27 4.77 4.27C4.91173 4.27 5.0517 4.29333 5.22951 4.35403L7.33738 5.20056C7.70125 4.95095 8.06948 4.73516 8.44637 4.5538L8.7658 2.32697C8.8433 1.70691 9.37637 1.25 10 1.25H14ZM13.7798 2.75H10.2204L9.87241 5.17646C9.83467 5.43963 9.66043 5.66316 9.41442 5.76398C8.89949 5.97502 8.39665 6.27001 7.89 6.65C7.68031 6.80727 7.40373 6.84366 7.1605 6.74597L4.88269 5.82983L3.09818 8.91696L5.03201 10.4292C5.23977 10.5917 5.34693 10.8513 5.31421 11.113C5.27159 11.4541 5.25 11.7368 5.25 12C5.25 12.2632 5.27159 12.5459 5.31421 12.887C5.34693 13.1487 5.23977 13.4083 5.03201 13.5708L3.09818 15.083L4.882 18.1691L7.1605 17.254C7.40676 17.1551 7.68694 17.1937 7.89729 17.3555C8.37588 17.7237 8.87888 18.0165 9.41442 18.236C9.66043 18.3368 9.83467 18.5604 9.87241 18.8235L10.2202 21.25H13.7797L14.1276 18.8235C14.1653 18.5604 14.3396 18.3368 14.5856 18.236C15.1005 18.025 15.6034 17.73 16.11 17.35C16.3197 17.1927 16.5963 17.1563 16.8395 17.254L19.1173 18.1702L20.902 15.0832L18.968 13.5708C18.7602 13.4083 18.6531 13.1487 18.6858 12.887C18.7293 12.5393 18.75 12.2696 18.75 12C18.75 11.7304 18.7293 11.4607 18.6858 11.113C18.6531 10.8513 18.7602 10.5917 18.968 10.4292L20.902 8.91698L19.118 5.83091L16.8395 6.74597C16.5933 6.84487 16.3131 6.80627 16.1027 6.64447C15.6241 6.27632 15.1211 5.98346 14.5856 5.76398C14.3396 5.66316 14.1653 5.43963 14.1276 5.17646L13.7798 2.75ZM12 8C14.21 8 16 9.79 16 12C16 14.21 14.21 16 12 16C9.79 16 8 14.21 8 12C8 9.79 9.79 8 12 8ZM12 9.5C10.6184 9.5 9.5 10.6184 9.5 12C9.5 13.3816 10.6184 14.5 12 14.5C13.3816 14.5 14.5 13.3816 14.5 12C14.5 10.6184 13.3816 9.5 12 9.5Z" fill="#191A1A"/>
</svg>
