<svg width="24" height="24" viewBox="0 0 24 24" fill="none" xmlns="http://www.w3.org/2000/svg">
<path d="M12 0.25C14.6234 0.25 16.75 2.37665 16.75 5L16.7494 6.25H20.3835C21.6262 6.25 22.6335 7.25736 22.6335 8.5C22.6335 8.55912 22.6312 8.61821 22.6265 8.67715L21.7152 20.2165C21.6022 21.6469 20.4085 22.75 18.9737 22.75H5.02626C3.59143 22.75 2.39775 21.6469 2.28479 20.2165L1.37349 8.67714C1.27566 7.43835 2.20059 6.35481 3.43937 6.25698L3.52787 6.25175L7.24939 6.251L7.25001 5C7.25001 2.37665 9.37666 0.25 12 0.25ZM20.3835 7.75L3.58696 7.75058L3.55746 7.75233C3.14453 7.78494 2.83623 8.14612 2.86884 8.55905L3.78013 20.0984C3.83148 20.7486 4.37406 21.25 5.02626 21.25H18.9737C19.6259 21.25 20.1685 20.7486 20.2198 20.0984L21.1312 8.55905L21.1335 8.5C21.1335 8.08579 20.7977 7.75 20.3835 7.75ZM16 9.25C16.4142 9.25 16.75 9.58579 16.75 10V11C16.75 13.6234 14.6234 15.75 12 15.75C9.37666 15.75 7.25001 13.6234 7.25001 11V10C7.25001 9.58579 7.5858 9.25 8.00001 9.25C8.41423 9.25 8.75001 9.58579 8.75001 10V11C8.75001 12.7949 10.2051 14.25 12 14.25C13.7949 14.25 15.25 12.7949 15.25 11V10C15.25 9.58579 15.5858 9.25 16 9.25ZM12 1.75C10.2051 1.75 8.75001 3.20507 8.75001 5V6.25H15.25V5C15.25 3.20507 13.7949 1.75 12 1.75Z" fill="#191A1A"/>
</svg>
