<svg width="24" height="24" viewBox="0 0 24 24" fill="none" xmlns="http://www.w3.org/2000/svg">
<path d="M20 1.25C21.5188 1.25 22.75 2.48122 22.75 4V20C22.75 21.5188 21.5188 22.75 20 22.75H4C2.48122 22.75 1.25 21.5188 1.25 20V4C1.25 2.48122 2.48122 1.25 4 1.25H20ZM20 2.75H4C3.30964 2.75 2.75 3.30964 2.75 4V20C2.75 20.6904 3.30964 21.25 4 21.25H20C20.6904 21.25 21.25 20.6904 21.25 20V4C21.25 3.30964 20.6904 2.75 20 2.75ZM16.5 8.25C16.9142 8.25 17.25 8.58579 17.25 9V17C17.25 17.4142 16.9142 17.75 16.5 17.75C16.0858 17.75 15.75 17.4142 15.75 17V9C15.75 8.58579 16.0858 8.25 16.5 8.25ZM7.5 11.25C7.91421 11.25 8.25 11.5858 8.25 12V17C8.25 17.4142 7.91421 17.75 7.5 17.75C7.08579 17.75 6.75 17.4142 6.75 17V12C6.75 11.5858 7.08579 11.25 7.5 11.25ZM12 6.25C12.4142 6.25 12.75 6.58579 12.75 7V17C12.75 17.4142 12.4142 17.75 12 17.75C11.5858 17.75 11.25 17.4142 11.25 17V7C11.25 6.58579 11.5858 6.25 12 6.25Z" fill="#191A1A"/>
</svg>
