<svg width="24" height="24" viewBox="0 0 24 24" fill="none" xmlns="http://www.w3.org/2000/svg">
<path fill-rule="evenodd" clip-rule="evenodd" d="M17.75 0.75C17.75 0.335786 17.4142 0 17 0L16.8982 0.00684662C16.5322 0.056509 16.25 0.370304 16.25 0.75V2H7.75V0.75C7.75 0.335786 7.41421 0 7 0L6.89823 0.00684662C6.53215 0.056509 6.25 0.370304 6.25 0.75V2H4C2.48122 2 1.25 3.23122 1.25 4.75V19.75C1.25 21.2688 2.48122 22.5 4 22.5H20C21.5188 22.5 22.75 21.2688 22.75 19.75V4.75C22.75 3.23122 21.5188 2 20 2H17.75V0.75ZM7.75 3.5H16.25V4.75C16.25 5.16421 16.5858 5.5 17 5.5L17.1018 5.49315C17.4678 5.44349 17.75 5.1297 17.75 4.75V3.5H20C20.6904 3.5 21.25 4.05964 21.25 4.75V19.75C21.25 20.4404 20.6904 21 20 21H4C3.30964 21 2.75 20.4404 2.75 19.75V4.75C2.75 4.05964 3.30964 3.5 4 3.5H6.25V4.75C6.25 5.16421 6.58579 5.5 7 5.5L7.10177 5.49315C7.46785 5.44349 7.75 5.1297 7.75 4.75V3.5ZM14.772 14.04C14.772 15.54 13.512 16.656 11.82 16.656C10.644 16.656 9.696 16.176 9.084 15.264L10.152 14.196C10.764 14.904 11.1 15.132 11.844 15.132C12.516 15.132 13.032 14.868 13.032 14.16C13.032 13.62 12.648 13.092 11.46 13.092C11.196 13.092 10.836 13.116 10.644 13.14V11.82C11.064 11.856 11.1 11.856 11.376 11.856C12.192 11.856 12.732 11.412 12.732 10.716C12.732 10.188 12.276 9.82802 11.616 9.82802C11.052 9.82802 10.488 10.164 10.032 10.764L9 9.70802C9.852 8.71202 10.632 8.30402 11.76 8.30402C13.284 8.30402 14.34 9.18002 14.34 10.428C14.34 11.256 14.004 11.88 13.392 12.252C14.256 12.612 14.772 13.248 14.772 14.04Z" fill="#191A1A"/>
</svg>
