<svg width="24" height="24" viewBox="0 0 24 24" fill="none" xmlns="http://www.w3.org/2000/svg">
<path d="M14.5858 1.75C15.0499 1.75 15.495 1.93437 15.8232 2.26256L20.7374 7.17678C21.0656 7.50497 21.25 7.95008 21.25 8.41421V12C21.25 12.4142 20.9142 12.75 20.5 12.75C20.0858 12.75 19.75 12.4142 19.75 12V9.25H14.75C14.1028 9.25 13.5705 8.75813 13.5065 8.12781L13.5 8V3.25H5.5C4.85279 3.25 4.32047 3.74187 4.25645 4.37219L4.25 4.5V19.5C4.25 20.1904 4.80964 20.75 5.5 20.75H12C12.4142 20.75 12.75 21.0858 12.75 21.5C12.75 21.9142 12.4142 22.25 12 22.25H5.5C3.98122 22.25 2.75 21.0188 2.75 19.5V4.5C2.75 2.98122 3.98122 1.75 5.5 1.75H14.5858ZM22.7011 13.4889C22.9833 13.1858 23.4579 13.1688 23.7611 13.4511C24.0642 13.7333 24.0812 14.2079 23.7989 14.5111L17.6476 21.118L17.5845 21.1811C17.0793 21.6515 16.2883 21.6233 15.8179 21.118L13.7011 18.8444C13.4188 18.5412 13.4358 18.0667 13.7389 17.7844C14.0421 17.5022 14.5167 17.5191 14.7989 17.8223L16.7328 19.8994L22.7011 13.4889ZM12 15.75C12.4142 15.75 12.75 16.0858 12.75 16.5C12.75 16.9142 12.4142 17.25 12 17.25H8C7.58579 17.25 7.25 16.9142 7.25 16.5C7.25 16.0858 7.58579 15.75 8 15.75H12ZM16 11.75C16.4142 11.75 16.75 12.0858 16.75 12.5C16.75 12.9142 16.4142 13.25 16 13.25H8C7.58579 13.25 7.25 12.9142 7.25 12.5C7.25 12.0858 7.58579 11.75 8 11.75H16ZM15 3.561V7.75H19.189L15 3.561Z" fill="#191A1A"/>
</svg>
