<svg width="24" height="24" viewBox="0 0 24 24" fill="none" xmlns="http://www.w3.org/2000/svg">
<path d="M21 2.75C22.5188 2.75 23.75 3.98122 23.75 5.5V18.5C23.75 20.0188 22.5188 21.25 21 21.25H2.75L2.75019 21.2388C1.34848 21.1126 0.25 19.9346 0.25 18.5V5.5C0.25 3.98122 1.48122 2.75 3 2.75H21ZM10.3654 17.75H6.13462C5.08881 17.75 4.25 18.5761 4.25 19.5833V19.75H12.25V19.5833C12.25 18.5761 11.4112 17.75 10.3654 17.75ZM21 4.25H3C2.30964 4.25 1.75 4.80964 1.75 5.5V18.5C1.75 19.1048 2.17947 19.6092 2.75005 19.725L2.75 19.5833C2.75 17.7425 4.26546 16.25 6.13462 16.25H10.3654C12.2345 16.25 13.75 17.7425 13.75 19.5833V19.75H21C21.6904 19.75 22.25 19.1904 22.25 18.5V5.5C22.25 4.80964 21.6904 4.25 21 4.25ZM8 7.5C9.933 7.5 11.5 9.067 11.5 11C11.5 12.933 9.933 14.5 8 14.5C6.067 14.5 4.5 12.933 4.5 11C4.5 9.067 6.067 7.5 8 7.5ZM17 12.25C17.4142 12.25 17.75 12.5858 17.75 13C17.75 13.4142 17.4142 13.75 17 13.75H14C13.5858 13.75 13.25 13.4142 13.25 13C13.25 12.5858 13.5858 12.25 14 12.25H17ZM8 9C6.89543 9 6 9.89543 6 11C6 12.1046 6.89543 13 8 13C9.10457 13 10 12.1046 10 11C10 9.89543 9.10457 9 8 9ZM19 8.25C19.4142 8.25 19.75 8.58579 19.75 9C19.75 9.41421 19.4142 9.75 19 9.75H14C13.5858 9.75 13.25 9.41421 13.25 9C13.25 8.58579 13.5858 8.25 14 8.25H19Z" fill="#191A1A"/>
</svg>
