<svg width="24" height="24" viewBox="0 0 24 24" fill="none" xmlns="http://www.w3.org/2000/svg">
<path d="M14.5858 1.75C15.0499 1.75 15.495 1.93437 15.8232 2.26256L20.7374 7.17678C21.0656 7.50497 21.25 7.95008 21.25 8.41421V19.5C21.25 21.0188 20.0188 22.25 18.5 22.25H5.5C3.98122 22.25 2.75 21.0188 2.75 19.5V4.5C2.75 2.98122 3.98122 1.75 5.5 1.75H14.5858ZM13.5 3.25H5.5C4.80964 3.25 4.25 3.80964 4.25 4.5V19.5C4.25 20.1904 4.80964 20.75 5.5 20.75H18.5C19.1904 20.75 19.75 20.1904 19.75 19.5V9.25H14.75C14.1028 9.25 13.5705 8.75813 13.5065 8.12781L13.5 8V3.25ZM19.189 7.75L15 3.561V7.75H19.189Z" fill="#191A1A"/>
<path d="M9.92488 18.13C11.5349 18.13 12.5349 16.79 12.5349 14.65C12.5349 12.51 11.5349 11.17 9.92488 11.17C8.31488 11.17 7.30488 12.51 7.30488 14.65C7.30488 16.79 8.31488 18.13 9.92488 18.13ZM9.92488 16.81C9.04488 16.81 8.70488 15.88 8.70488 14.65C8.70488 13.53 9.04488 12.49 9.92488 12.49C10.7649 12.49 11.1249 13.53 11.1249 14.65C11.1249 15.88 10.7649 16.81 9.92488 16.81Z" fill="#191A1A"/>
<path d="M16.195 11.3H15.265C15.065 11.92 14.085 12.32 13.235 12.32V13.68C13.825 13.68 14.395 13.53 14.775 13.33V18H16.195V11.3Z" fill="#191A1A"/>
</svg>
