<svg width="24" height="24" viewBox="0 0 24 24" fill="none" xmlns="http://www.w3.org/2000/svg">
<path d="M12 0.25C14.6234 0.25 16.75 2.37665 16.75 5L16.7498 6.25H20.3941C21.585 6.25 22.5598 7.17516 22.639 8.34595L22.6441 8.5L22.6383 8.66242L22.3823 12.1985C22.3714 12.3496 22.3484 12.497 22.3144 12.64L21.7152 20.2165C21.6022 21.6469 20.4085 22.75 18.9737 22.75H5.02625C3.59143 22.75 2.39774 21.6469 2.28478 20.2165L1.68454 12.6354C1.65108 12.4938 1.62847 12.3479 1.61766 12.1985L1.36173 8.66242C1.27576 7.47466 2.12814 6.43564 3.29016 6.27217L3.44344 6.25587L3.47276 6.254L3.52786 6.25175L3.57276 6.251L3.60586 6.25H7.24976L7.25 5C7.25 2.37665 9.37665 0.25 12 0.25ZM19.6395 14.75H12.8558V16C12.8558 16.3797 12.5736 16.6935 12.2075 16.7432L12.1058 16.75C11.6915 16.75 11.3558 16.4142 11.3558 16V14.75H4.36048C4.00147 14.75 3.65764 14.681 3.34208 14.5551L3.78013 20.0984C3.83147 20.7486 4.37405 21.25 5.02625 21.25H18.9737C19.6259 21.25 20.1685 20.7486 20.2198 20.0984L20.6589 14.5547C20.3431 14.6808 19.9989 14.75 19.6395 14.75ZM20.3835 7.75L3.57176 7.751L3.55745 7.75233C3.14453 7.78494 2.83622 8.14612 2.86883 8.55905L3.16989 12.3815C3.33197 12.8883 3.80647 13.25 4.36048 13.25H11.3558V12C11.3558 11.6203 11.6379 11.3065 12.004 11.2568L12.1058 11.25C12.52 11.25 12.8558 11.5858 12.8558 12V13.25H19.6395C20.1943 13.25 20.6693 12.8873 20.8308 12.3795L21.1312 8.55905L21.1335 8.5C21.1335 8.08579 20.7977 7.75 20.3835 7.75ZM12 1.75C10.2051 1.75 8.75 3.20507 8.75 5V6.25H15.25V5C15.25 3.20507 13.7949 1.75 12 1.75Z" fill="#191A1A"/>
</svg>
