<?xml version="1.0" standalone="no"?>
<!DOCTYPE svg PUBLIC "-//W3C//DTD SVG 1.1//EN" "http://www.w3.org/Graphics/SVG/1.1/DTD/svg11.dtd" >
<svg xmlns="http://www.w3.org/2000/svg" xmlns:xlink="http://www.w3.org/1999/xlink" version="1.1">
<metadata>
Created by FontForge 20201107 at Sat May 27 20:55:07 2017
 By Jimmy Wärting
\(c\) 2017 Connary Fagen
</metadata>
<defs>
<font id="VanguardCF-Bold" horiz-adv-x="494" >
  <font-face 
    font-family="Vanguard CF Bold"
    font-weight="700"
    font-stretch="normal"
    units-per-em="1200"
    panose-1="0 0 8 0 0 0 0 0 0 0"
    ascent="960"
    descent="-240"
    x-height="920"
    cap-height="920"
    bbox="-204 -375 1560 1155"
    underline-thickness="50"
    underline-position="-100"
    stemh="132"
    stemv="162"
    unicode-range="U+0020-25CA"
  />
<missing-glyph horiz-adv-x="535" 
d="M439 920v-1070h-339v1070h339zM356 848h-176v-35h69v-40h-70v-35h177v35h-70v40h70v35zM286 710h-107v-111h177v36h-70v75zM249 674v-39h-35v39h35zM356 570h-177v-35h70v-40h-70v-35h107v75h70v35zM356 506h-35v-71h-142v-36h177v107zM356 375h-107v-60h37v25h35v-50
h-107v85h-35v-121h177v121zM356 190h-177v-121h177v121zM321 155v-50h-107v50h107zM356 45h-177v-36h75l-75 -50v-35h177v35h-109l75 50h34v36z" />
    <glyph glyph-name=".notdef" horiz-adv-x="535" 
d="M439 920v-1070h-339v1070h339zM356 848h-176v-35h69v-40h-70v-35h177v35h-70v40h70v35zM286 710h-107v-111h177v36h-70v75zM249 674v-39h-35v39h35zM356 570h-177v-35h70v-40h-70v-35h107v75h70v35zM356 506h-35v-71h-142v-36h177v107zM356 375h-107v-60h37v25h35v-50
h-107v85h-35v-121h177v121zM356 190h-177v-121h177v121zM321 155v-50h-107v50h107zM356 45h-177v-36h75l-75 -50v-35h177v35h-109l75 50h34v36z" />
    <glyph glyph-name="A" unicode="A" horiz-adv-x="532" 
d="M341 0l-14 158h-122l-14 -158h-171l92 920h308l92 -920h-171zM217 308h98l-39 450h-20z" />
    <glyph glyph-name="Aacute" unicode="&#xc1;" horiz-adv-x="532" 
d="M397 1130l-53 -160h-157l53 160h157zM341 0l-14 158h-122l-14 -158h-171l92 920h308l92 -920h-171zM217 308h98l-39 450h-20z" />
    <glyph glyph-name="Abreve" unicode="&#x102;" horiz-adv-x="532" 
d="M265 970c-117 0 -173 22 -173 120v40h117v-15c0 -28 20 -36 56 -36s56 8 56 36v15h117v-40c0 -98 -56 -120 -173 -120zM341 0l-14 158h-122l-14 -158h-171l92 920h308l92 -920h-171zM217 308h98l-39 450h-20z" />
    <glyph glyph-name="uni01CD" unicode="&#x1cd;" horiz-adv-x="532" 
d="M365 970h-200l-64 160h129l28 -70h14l28 70h129zM341 0l-14 158h-122l-14 -158h-171l92 920h308l92 -920h-171zM217 308h98l-39 450h-20z" />
    <glyph glyph-name="Acircumflex" unicode="&#xc2;" horiz-adv-x="532" 
d="M258 1040l-28 -70h-129l64 160h200l64 -160h-129l-28 70h-14zM341 0l-14 158h-122l-14 -158h-171l92 920h308l92 -920h-171zM217 308h98l-39 450h-20z" />
    <glyph glyph-name="Adieresis" unicode="&#xc4;" horiz-adv-x="532" 
d="M163 982c-41 0 -73 32 -73 74s32 74 73 74s73 -32 73 -74s-32 -74 -73 -74zM367 982c-41 0 -73 32 -73 74s32 74 73 74s73 -32 73 -74s-32 -74 -73 -74zM341 0l-14 158h-122l-14 -158h-171l92 920h308l92 -920h-171zM217 308h98l-39 450h-20z" />
    <glyph glyph-name="Agrave" unicode="&#xc0;" horiz-adv-x="532" 
d="M345 970h-157l-53 160h157zM341 0l-14 158h-122l-14 -158h-171l92 920h308l92 -920h-171zM217 308h98l-39 450h-20z" />
    <glyph glyph-name="Amacron" unicode="&#x100;" horiz-adv-x="532" 
d="M424 1125v-144h-318v144h318zM341 0l-14 158h-122l-14 -158h-171l92 920h308l92 -920h-171zM217 308h98l-39 450h-20z" />
    <glyph glyph-name="Aogonek" unicode="&#x104;" horiz-adv-x="532" 
d="M445 0c-41 0 -55 -23 -55 -49s14 -49 55 -49h56l-15 -120h-44c-137 0 -209 66 -209 169c0 70 37 113 101 134l-7 73h-122l-14 -158h-171l92 920h308l92 -920h-67zM217 308h98l-39 450h-20z" />
    <glyph glyph-name="Aring" unicode="&#xc5;" horiz-adv-x="532" 
d="M265 926c-69 0 -116 50 -116 115s47 114 116 114s116 -49 116 -114s-47 -115 -116 -115zM265 1074c-19 0 -33 -13 -33 -33c0 -21 14 -34 33 -34s33 13 33 34c0 20 -14 33 -33 33zM341 0l-14 158h-122l-14 -158h-171l92 920h308l92 -920h-171zM217 308h98l-39 450h-20z
" />
    <glyph glyph-name="Atilde" unicode="&#xc3;" horiz-adv-x="532" 
d="M139 990h-77c-2 97 47 139 123 139c95 0 97 -68 154 -68c29 0 51 16 52 45h77c2 -97 -47 -139 -123 -139c-95 0 -97 68 -154 68c-29 0 -51 -16 -52 -45zM341 0l-14 158h-122l-14 -158h-171l92 920h308l92 -920h-171zM217 308h98l-39 450h-20z" />
    <glyph glyph-name="AE" unicode="&#xc6;" horiz-adv-x="690" 
d="M660 770h-136v-234h133v-148h-133v-238h136v-150h-315v161h-123l-29 -161h-173l171 920h469v-150zM249 316h96v444h-17z" />
    <glyph glyph-name="B" unicode="B" horiz-adv-x="495" 
d="M392 469c53 -27 73 -71 73 -135v-137c0 -142 -30 -197 -179 -197h-256v920h254c144 0 174 -55 174 -197v-121c0 -58 -14 -98 -66 -123v-10zM240 770h-31v-243h31c34 0 44 12 44 49v145c0 37 -10 49 -44 49zM286 200v160c0 37 -10 49 -44 49h-33v-258h33c34 0 44 12 44 49
z" />
    <glyph glyph-name="C" unicode="C" 
d="M464 332v-146c0 -148 -87 -197 -217 -197s-217 49 -217 197v546c0 148 87 197 217 197s217 -49 217 -197v-144h-179v143c0 37 -17 48 -38 48s-38 -11 -38 -48v-544c0 -37 17 -48 38 -48s38 11 38 48v145h179z" />
    <glyph glyph-name="Cacute" unicode="&#x106;" 
d="M169 970l53 160h157l-53 -160h-157zM464 332v-146c0 -148 -87 -197 -217 -197s-217 49 -217 197v546c0 148 87 197 217 197s217 -49 217 -197v-144h-179v143c0 37 -17 48 -38 48s-38 -11 -38 -48v-544c0 -37 17 -48 38 -48s38 11 38 48v145h179z" />
    <glyph glyph-name="Ccaron" unicode="&#x10c;" 
d="M83 1130h129l28 -70h14l28 70h129l-64 -160h-200zM464 332v-146c0 -148 -87 -197 -217 -197s-217 49 -217 197v546c0 148 87 197 217 197s217 -49 217 -197v-144h-179v143c0 37 -17 48 -38 48s-38 -11 -38 -48v-544c0 -37 17 -48 38 -48s38 11 38 48v145h179z" />
    <glyph glyph-name="Ccedilla" unicode="&#xc7;" 
d="M464 588h-179v143c0 37 -17 48 -38 48s-38 -11 -38 -48v-544c0 -37 17 -48 38 -48s38 11 38 48v145h179v-146c0 -125 -62 -180 -161 -193l-40 -35c40 -7 93 -33 93 -98c0 -108 -79 -120 -153 -120h-37v81h37c26 0 44 10 44 39c0 30 -18 38 -44 38h-37v58l40 35
c-107 10 -176 63 -176 195v546c0 148 87 197 217 197s217 -49 217 -197v-144z" />
    <glyph glyph-name="Cdotaccent" unicode="&#x10a;" 
d="M247 982c-42 0 -77 32 -77 74s35 74 77 74s77 -32 77 -74s-35 -74 -77 -74zM464 332v-146c0 -148 -87 -197 -217 -197s-217 49 -217 197v546c0 148 87 197 217 197s217 -49 217 -197v-144h-179v143c0 37 -17 48 -38 48s-38 -11 -38 -48v-544c0 -37 17 -48 38 -48
s38 11 38 48v145h179z" />
    <glyph glyph-name="D" unicode="D" 
d="M283 920c150 0 181 -55 181 -197v-526c0 -142 -31 -197 -181 -197h-253v920h253zM285 199v522c0 37 -10 49 -44 49h-32v-620h32c34 0 44 12 44 49z" />
    <glyph glyph-name="Eth" unicode="&#xd0;" horiz-adv-x="521" 
d="M310 920c150 0 181 -55 181 -197v-526c0 -142 -31 -197 -181 -197h-253v380h-27v160h27v380h253zM312 199v522c0 37 -10 49 -44 49h-32v-230h45v-160h-45v-230h32c34 0 44 12 44 49z" />
    <glyph glyph-name="Dcaron" unicode="&#x10e;" 
d="M347 970h-200l-64 160h129l28 -70h14l28 70h129zM283 920c150 0 181 -55 181 -197v-526c0 -142 -31 -197 -181 -197h-253v920h253zM285 199v522c0 37 -10 49 -44 49h-32v-620h32c34 0 44 12 44 49z" />
    <glyph glyph-name="Dcroat" unicode="&#x110;" horiz-adv-x="521" 
d="M310 920c150 0 181 -55 181 -197v-526c0 -142 -31 -197 -181 -197h-253v380h-27v160h27v380h253zM312 199v522c0 37 -10 49 -44 49h-32v-230h45v-160h-45v-230h32c34 0 44 12 44 49z" />
    <glyph glyph-name="E" unicode="E" horiz-adv-x="375" 
d="M345 770h-136v-234h133v-148h-133v-238h136v-150h-315v920h315v-150z" />
    <glyph glyph-name="Eacute" unicode="&#xc9;" horiz-adv-x="375" 
d="M326 1130l-53 -160h-157l53 160h157zM345 770h-136v-234h133v-148h-133v-238h136v-150h-315v920h315v-150z" />
    <glyph glyph-name="Ecaron" unicode="&#x11a;" horiz-adv-x="375" 
d="M294 970h-200l-64 160h129l28 -70h14l28 70h129zM345 920v-150h-136v-234h133v-148h-133v-238h136v-150h-315v920h315z" />
    <glyph glyph-name="Ecircumflex" unicode="&#xca;" horiz-adv-x="375" 
d="M187 1040l-28 -70h-129l64 160h200l64 -160h-129l-28 70h-14zM345 920v-150h-136v-234h133v-148h-133v-238h136v-150h-315v920h315z" />
    <glyph glyph-name="Edieresis" unicode="&#xcb;" horiz-adv-x="375" 
d="M92 982c-41 0 -73 32 -73 74s32 74 73 74s73 -32 73 -74s-32 -74 -73 -74zM296 1130c41 0 73 -32 73 -74s-32 -74 -73 -74s-73 32 -73 74s32 74 73 74zM345 920v-150h-136v-234h133v-148h-133v-238h136v-150h-315v920h315z" />
    <glyph glyph-name="Edotaccent" unicode="&#x116;" horiz-adv-x="375" 
d="M194 982c-42 0 -77 32 -77 74s35 74 77 74s77 -32 77 -74s-35 -74 -77 -74zM345 770h-136v-234h133v-148h-133v-238h136v-150h-315v920h315v-150z" />
    <glyph glyph-name="Egrave" unicode="&#xc8;" horiz-adv-x="375" 
d="M274 970h-157l-53 160h157zM345 770h-136v-234h133v-148h-133v-238h136v-150h-315v920h315v-150z" />
    <glyph glyph-name="Emacron" unicode="&#x112;" horiz-adv-x="375" 
d="M35 1125h318v-144h-318v144zM345 920v-150h-136v-234h133v-148h-133v-238h136v-150h-315v920h315z" />
    <glyph glyph-name="Eogonek" unicode="&#x118;" horiz-adv-x="375" 
d="M345 770h-136v-234h133v-148h-133v-238h136v-150h-56c-41 0 -55 -23 -55 -49s14 -49 55 -49h56l-15 -120h-44c-137 0 -209 66 -209 169c0 18 3 34 7 49h-54v920h315v-150z" />
    <glyph glyph-name="F" unicode="F" horiz-adv-x="375" 
d="M345 770h-135v-242h135v-148h-135v-380h-180v920h315v-150z" />
    <glyph glyph-name="G" unicode="G" 
d="M464 602h-178v129c0 37 -17 48 -39 48s-39 -11 -39 -48v-542c0 -37 15 -48 43 -48c27 0 44 11 44 48v196h-48v144h217v-341c0 -148 -87 -197 -217 -197s-217 49 -217 197v544c0 148 87 197 217 197s217 -49 217 -197v-130z" />
    <glyph glyph-name="Gbreve" unicode="&#x11e;" 
d="M247 970c-117 0 -173 22 -173 120v40h117v-15c0 -28 20 -36 56 -36s56 8 56 36v15h117v-40c0 -98 -56 -120 -173 -120zM464 602h-178v129c0 37 -17 48 -39 48s-39 -11 -39 -48v-542c0 -37 15 -48 43 -48c27 0 44 11 44 48v196h-48v144h217v-341
c0 -148 -87 -197 -217 -197s-217 49 -217 197v544c0 148 87 197 217 197s217 -49 217 -197v-130z" />
    <glyph glyph-name="Gcommaaccent" unicode="&#x122;" 
d="M464 602h-178v129c0 37 -17 48 -39 48s-39 -11 -39 -48v-542c0 -37 15 -48 43 -48c27 0 44 11 44 48v196h-48v144h217v-341c0 -148 -87 -197 -217 -197s-217 49 -217 197v544c0 148 87 197 217 197s217 -49 217 -197v-130zM174 -375c15 59 22 127 21 180h-52v136h181v-51
c0 -125 -21 -216 -51 -265h-99z" />
    <glyph glyph-name="Gdotaccent" unicode="&#x120;" 
d="M247 982c-42 0 -77 32 -77 74s35 74 77 74s77 -32 77 -74s-35 -74 -77 -74zM464 602h-178v129c0 37 -17 48 -39 48s-39 -11 -39 -48v-542c0 -37 15 -48 43 -48c27 0 44 11 44 48v196h-48v144h217v-341c0 -148 -87 -197 -217 -197s-217 49 -217 197v544
c0 148 87 197 217 197s217 -49 217 -197v-130z" />
    <glyph glyph-name="H" unicode="H" horiz-adv-x="495" 
d="M286 920h179v-920h-179v375h-77v-375h-179v920h179v-395h77v395z" />
    <glyph glyph-name="Hbar" unicode="&#x126;" horiz-adv-x="495" 
d="M286 920h179v-920h-179v375h-77v-375h-179v920h179v-152h77v152zM209 525h77v98h-77v-98z" />
    <glyph glyph-name="I" unicode="I" horiz-adv-x="239" 
d="M30 0v920h179v-920h-179z" />
    <glyph glyph-name="IJ" unicode="&#x132;" horiz-adv-x="742" 
d="M30 0v920h179v-920h-179zM457 328v-139c0 -37 17 -48 38 -48s38 11 38 48v731h179v-732c0 -148 -87 -197 -217 -197s-217 49 -217 197v140h179z" />
    <glyph glyph-name="Iacute" unicode="&#xcd;" horiz-adv-x="239" 
d="M42 970l53 160h157l-53 -160h-157zM30 0v920h179v-920h-179z" />
    <glyph glyph-name="uni01CF" unicode="&#x1cf;" horiz-adv-x="239" 
d="M-44 1130h129l28 -70h14l28 70h129l-64 -160h-200zM30 0v920h179v-920h-179z" />
    <glyph glyph-name="Icircumflex" unicode="&#xce;" horiz-adv-x="239" 
d="M-44 970l64 160h200l64 -160h-129l-28 70h-14l-28 -70h-129zM30 0v920h179v-920h-179z" />
    <glyph glyph-name="Idieresis" unicode="&#xcf;" horiz-adv-x="239" 
d="M18 982c-41 0 -73 32 -73 74s32 74 73 74s73 -32 73 -74s-32 -74 -73 -74zM222 982c-41 0 -73 32 -73 74s32 74 73 74s73 -32 73 -74s-32 -74 -73 -74zM30 0v920h179v-920h-179z" />
    <glyph glyph-name="Idotaccent" unicode="&#x130;" horiz-adv-x="239" 
d="M120 982c-42 0 -77 32 -77 74s35 74 77 74s77 -32 77 -74s-35 -74 -77 -74zM30 0v920h179v-920h-179z" />
    <glyph glyph-name="Igrave" unicode="&#xcc;" horiz-adv-x="239" 
d="M200 970h-157l-53 160h157zM30 0v920h179v-920h-179z" />
    <glyph glyph-name="Imacron" unicode="&#x12a;" horiz-adv-x="239" 
d="M-39 981v144h318v-144h-318zM30 0v920h179v-920h-179z" />
    <glyph glyph-name="Iogonek" unicode="&#x12e;" horiz-adv-x="239" 
d="M30 920h179v-920h-56c-41 0 -55 -23 -55 -49s14 -49 55 -49h56l-15 -120h-44c-137 0 -209 66 -209 169c0 65 33 107 89 130v839z" />
    <glyph glyph-name="J" unicode="J" 
d="M209 328v-139c0 -37 17 -48 38 -48s38 11 38 48v731h179v-732c0 -148 -87 -197 -217 -197s-217 49 -217 197v140h179z" />
    <glyph glyph-name="K" unicode="K" horiz-adv-x="522" 
d="M337 0l-90 379l-39 -130v-249h-178v920h178v-375h8l104 375h178l-119 -429l128 -491h-170z" />
    <glyph glyph-name="Kcommaaccent" unicode="&#x136;" horiz-adv-x="522" 
d="M208 249v-249h-178v920h178v-375h8l104 375h178l-119 -429l128 -491h-170l-90 379zM161 -195v136h181v-51c0 -125 -21 -216 -51 -265h-99c15 59 22 127 21 180h-52z" />
    <glyph glyph-name="L" unicode="L" horiz-adv-x="390" 
d="M209 150h151v-150h-330v920h179v-770z" />
    <glyph glyph-name="Lacute" unicode="&#x139;" horiz-adv-x="390" 
d="M255 1130l-53 -160h-157l53 160h157zM209 150h151v-150h-330v920h179v-770z" />
    <glyph glyph-name="Lcaron" unicode="&#x13d;" horiz-adv-x="502" 
d="M209 920v-770h151v-150h-330v920h179zM257 920h200v-56c0 -138 -23 -238 -56 -292h-110c17 65 25 140 24 198h-58v150z" />
    <glyph glyph-name="Lcommaaccent" unicode="&#x13b;" horiz-adv-x="390" 
d="M209 150h151v-150h-330v920h179v-770zM108 -195v136h181v-51c0 -125 -21 -216 -51 -265h-99c15 59 22 127 21 180h-52z" />
    <glyph glyph-name="Ldot" unicode="&#x13f;" horiz-adv-x="499" 
d="M209 920v-770h151v-150h-330v920h179zM368 617c53 0 96 -43 96 -95s-43 -95 -96 -95s-96 43 -96 95s43 95 96 95z" />
    <glyph glyph-name="Lslash" unicode="&#x141;" horiz-adv-x="414" 
d="M233 150h151v-150h-330v247l-54 -45v160l54 45v513h179v-362l127 107v-160l-127 -107v-248z" />
    <glyph glyph-name="M" unicode="M" horiz-adv-x="735" 
d="M30 0v920h271l61 -681h11l61 681h271v-920h-165v676h-14l-63 -676h-191l-63 676h-14v-676h-165z" />
    <glyph glyph-name="N" unicode="N" horiz-adv-x="564" 
d="M30 0v920h227l106 -625h11l-5 122v503h165v-920h-227l-106 625h-11l5 -122v-503h-165z" />
    <glyph glyph-name="Nacute" unicode="&#x143;" horiz-adv-x="564" 
d="M204 970l53 160h157l-53 -160h-157zM30 0v920h227l106 -625h11l-5 122v503h165v-920h-227l-106 625h-11l5 -122v-503h-165z" />
    <glyph glyph-name="Ncaron" unicode="&#x147;" horiz-adv-x="564" 
d="M118 1130h129l28 -70h14l28 70h129l-64 -160h-200zM30 0v920h227l106 -625h11l-5 122v503h165v-920h-227l-106 625h-11l5 -122v-503h-165z" />
    <glyph glyph-name="Ncommaaccent" unicode="&#x145;" horiz-adv-x="564" 
d="M30 0v920h227l106 -625h11l-5 122v503h165v-920h-227l-106 625h-11l5 -122v-503h-165zM209 -375c15 59 22 127 21 180h-52v136h181v-51c0 -125 -21 -216 -51 -265h-99z" />
    <glyph glyph-name="Eng" unicode="&#x14a;" horiz-adv-x="575" 
d="M534 64h11v-85c0 -158 -86 -186 -249 -186v137c46 0 69 10 69 50v20h-58l-106 625h-11l5 -122v-503h-165v920h227l106 -625h11l-5 122v503h165v-856z" />
    <glyph glyph-name="Ntilde" unicode="&#xd1;" horiz-adv-x="564" 
d="M362 967c-95 0 -97 68 -154 68c-29 0 -51 -16 -52 -45h-77c-2 97 47 139 123 139c95 0 97 -68 154 -68c29 0 51 16 52 45h77c2 -97 -47 -139 -123 -139zM30 0v920h227l106 -625h11l-5 122v503h165v-920h-227l-106 625h-11l5 -122v-503h-165z" />
    <glyph glyph-name="O" unicode="O" 
d="M247 929c130 0 217 -49 217 -197v-544c0 -148 -87 -197 -217 -197s-217 49 -217 197v544c0 148 87 197 217 197zM285 731c0 37 -17 48 -38 48s-38 -11 -38 -48v-542c0 -37 17 -48 38 -48s38 11 38 48v542z" />
    <glyph glyph-name="Oacute" unicode="&#xd3;" 
d="M169 970l53 160h157l-53 -160h-157zM247 929c130 0 217 -49 217 -197v-544c0 -148 -87 -197 -217 -197s-217 49 -217 197v544c0 148 87 197 217 197zM285 731c0 37 -17 48 -38 48s-38 -11 -38 -48v-542c0 -37 17 -48 38 -48s38 11 38 48v542z" />
    <glyph glyph-name="uni01D1" unicode="&#x1d1;" 
d="M83 1130h129l28 -70h14l28 70h129l-64 -160h-200zM247 929c130 0 217 -49 217 -197v-544c0 -148 -87 -197 -217 -197s-217 49 -217 197v544c0 148 87 197 217 197zM285 731c0 37 -17 48 -38 48s-38 -11 -38 -48v-542c0 -37 17 -48 38 -48s38 11 38 48v542z" />
    <glyph glyph-name="Ocircumflex" unicode="&#xd4;" 
d="M83 970l64 160h200l64 -160h-129l-28 70h-14l-28 -70h-129zM247 929c130 0 217 -49 217 -197v-544c0 -148 -87 -197 -217 -197s-217 49 -217 197v544c0 148 87 197 217 197zM285 731c0 37 -17 48 -38 48s-38 -11 -38 -48v-542c0 -37 17 -48 38 -48s38 11 38 48v542z" />
    <glyph glyph-name="Odieresis" unicode="&#xd6;" 
d="M145 982c-41 0 -73 32 -73 74s32 74 73 74s73 -32 73 -74s-32 -74 -73 -74zM349 982c-41 0 -73 32 -73 74s32 74 73 74s73 -32 73 -74s-32 -74 -73 -74zM247 929c130 0 217 -49 217 -197v-544c0 -148 -87 -197 -217 -197s-217 49 -217 197v544c0 148 87 197 217 197z
M285 731c0 37 -17 48 -38 48s-38 -11 -38 -48v-542c0 -37 17 -48 38 -48s38 11 38 48v542z" />
    <glyph glyph-name="Ograve" unicode="&#xd2;" 
d="M327 970h-157l-53 160h157zM247 929c130 0 217 -49 217 -197v-544c0 -148 -87 -197 -217 -197s-217 49 -217 197v544c0 148 87 197 217 197zM285 731c0 37 -17 48 -38 48s-38 -11 -38 -48v-542c0 -37 17 -48 38 -48s38 11 38 48v542z" />
    <glyph glyph-name="Ohungarumlaut" unicode="&#x150;" 
d="M49 976l53 160h157l-53 -160h-157zM274 976l53 160h157l-53 -160h-157zM247 929c130 0 217 -49 217 -197v-544c0 -148 -87 -197 -217 -197s-217 49 -217 197v544c0 148 87 197 217 197zM285 731c0 37 -17 48 -38 48s-38 -11 -38 -48v-542c0 -37 17 -48 38 -48
s38 11 38 48v542z" />
    <glyph glyph-name="Omacron" unicode="&#x14c;" 
d="M88 981v144h318v-144h-318zM247 929c130 0 217 -49 217 -197v-544c0 -148 -87 -197 -217 -197s-217 49 -217 197v544c0 148 87 197 217 197zM285 731c0 37 -17 48 -38 48s-38 -11 -38 -48v-542c0 -37 17 -48 38 -48s38 11 38 48v542z" />
    <glyph glyph-name="uni01EA" unicode="&#x1ea;" 
d="M247 929c130 0 217 -49 217 -197v-544c0 -118 -55 -173 -143 -190v-6c-35 -4 -53 -20 -53 -46s16 -44 53 -44h58l-15 -120h-44c-137 0 -209 66 -209 148c0 31 10 56 30 76c-69 24 -111 80 -111 182v544c0 148 87 197 217 197zM209 731v-542c0 -37 17 -48 38 -48
s38 11 38 48v542c0 37 -17 48 -38 48s-38 -11 -38 -48z" />
    <glyph glyph-name="Oslash" unicode="&#xd8;" horiz-adv-x="498" 
d="M468 932l-31 -80c19 -30 29 -69 29 -120v-544c0 -148 -87 -197 -217 -197c-55 0 -102 9 -138 30l-13 -33h-68l31 80c-19 30 -29 69 -29 120v544c0 148 87 197 217 197c55 0 102 -9 138 -30l13 33h68zM211 731v-281l76 194v87c0 37 -17 48 -38 48s-38 -11 -38 -48z
M287 189v281l-76 -194v-87c0 -37 17 -48 38 -48s38 11 38 48z" />
    <glyph glyph-name="Otilde" unicode="&#xd5;" 
d="M327 967c-95 0 -97 68 -154 68c-29 0 -51 -16 -52 -45h-77c-2 97 47 139 123 139c95 0 97 -68 154 -68c29 0 51 16 52 45h77c2 -97 -47 -139 -123 -139zM247 929c130 0 217 -49 217 -197v-544c0 -148 -87 -197 -217 -197s-217 49 -217 197v544c0 148 87 197 217 197z
M285 731c0 37 -17 48 -38 48s-38 -11 -38 -48v-542c0 -37 17 -48 38 -48s38 11 38 48v542z" />
    <glyph glyph-name="OE" unicode="&#x152;" horiz-adv-x="630" 
d="M464 770v-234h133v-148h-133v-238h136v-150h-268c-26 -6 -54 -9 -85 -9c-130 0 -217 49 -217 197v544c0 148 87 197 217 197c31 0 59 -3 85 -9h268v-150h-136zM247 141c21 0 38 11 38 48v542c0 37 -17 48 -38 48s-38 -11 -38 -48v-542c0 -37 17 -48 38 -48z" />
    <glyph glyph-name="P" unicode="P" horiz-adv-x="496" 
d="M284 920c147 0 177 -55 177 -197v-333c0 -142 -30 -197 -177 -197h-75v-193h-179v920h254zM286 391v331c0 37 -10 49 -44 49h-33v-429h33c34 0 44 12 44 49z" />
    <glyph glyph-name="Thorn" unicode="&#xde;" horiz-adv-x="490" 
d="M266 824c164 0 194 -55 194 -197v-333c0 -142 -30 -197 -194 -197h-56v-97h-180v920h180v-96h56zM280 308v305c0 37 -10 51 -44 51h-26v-407h26c34 0 44 14 44 51z" />
    <glyph glyph-name="Q" unicode="Q" horiz-adv-x="525" 
d="M495 20l-98 -100l-81 77c-21 -4 -44 -6 -69 -6c-130 0 -217 49 -217 197v544c0 148 87 197 217 197s217 -49 217 -197v-544c0 -46 -9 -83 -24 -111zM209 189c0 -37 17 -48 38 -48s38 11 38 48v542c0 37 -17 48 -38 48s-38 -11 -38 -48v-542z" />
    <glyph glyph-name="R" unicode="R" horiz-adv-x="490" 
d="M480 0h-161l-64 269h-46v-269h-179v920h254c147 0 177 -55 177 -197v-268c0 -69 -23 -115 -60 -144zM209 771v-365l45 1c24 2 32 16 32 48v267c0 37 -10 49 -44 49h-33z" />
    <glyph glyph-name="Racute" unicode="&#x154;" horiz-adv-x="490" 
d="M384 1130l-53 -160h-157l53 160h157zM480 0h-161l-64 269h-46v-269h-179v920h254c147 0 177 -55 177 -197v-268c0 -69 -23 -115 -60 -144zM209 771v-365l45 1c24 2 32 16 32 48v267c0 37 -10 49 -44 49h-33z" />
    <glyph glyph-name="Rcaron" unicode="&#x158;" horiz-adv-x="490" 
d="M352 970h-200l-64 160h129l28 -70h14l28 70h129zM480 0h-161l-64 269h-46v-269h-179v920h254c147 0 177 -55 177 -197v-268c0 -69 -23 -115 -60 -144zM209 771v-365l45 1c24 2 32 16 32 48v267c0 37 -10 49 -44 49h-33z" />
    <glyph glyph-name="Rcommaaccent" unicode="&#x156;" horiz-adv-x="490" 
d="M209 269v-269h-179v920h254c147 0 177 -55 177 -197v-268c0 -69 -23 -115 -60 -144l79 -311h-161l-64 269h-46zM242 771h-33v-365l45 1c24 2 32 16 32 48v267c0 37 -10 49 -44 49zM148 -195v136h181v-51c0 -125 -21 -216 -51 -265h-99c15 59 22 127 21 180h-52z" />
    <glyph glyph-name="S" unicode="S" horiz-adv-x="491" 
d="M458 600h-172v130c0 37 -16 48 -38 48s-38 -11 -38 -48v-111c0 -123 251 -84 251 -308v-122c0 -146 -84 -196 -213 -196s-212 50 -212 196v131h172v-130c0 -37 16 -48 39 -48c22 0 38 11 38 48v111c0 123 -250 84 -250 308v122c0 146 84 196 212 196
c129 0 211 -50 211 -196v-131z" />
    <glyph glyph-name="Sacute" unicode="&#x15a;" horiz-adv-x="491" 
d="M170 970l53 160h157l-53 -160h-157zM458 600h-172v130c0 37 -16 48 -38 48s-38 -11 -38 -48v-111c0 -123 251 -84 251 -308v-122c0 -146 -84 -196 -213 -196s-212 50 -212 196v131h172v-130c0 -37 16 -48 39 -48c22 0 38 11 38 48v111c0 123 -250 84 -250 308v122
c0 146 84 196 212 196c129 0 211 -50 211 -196v-131z" />
    <glyph glyph-name="Scaron" unicode="&#x160;" horiz-adv-x="491" 
d="M84 1130h129l28 -70h14l28 70h129l-64 -160h-200zM458 600h-172v130c0 37 -16 48 -38 48s-38 -11 -38 -48v-111c0 -123 251 -84 251 -308v-122c0 -146 -84 -196 -213 -196s-212 50 -212 196v131h172v-130c0 -37 16 -48 39 -48c22 0 38 11 38 48v111
c0 123 -250 84 -250 308v122c0 146 84 196 212 196c129 0 211 -50 211 -196v-131z" />
    <glyph glyph-name="Scedilla" unicode="&#x15e;" horiz-adv-x="491" 
d="M210 619c0 -123 251 -84 251 -308v-122c0 -121 -58 -176 -151 -191l-46 -40c40 -7 93 -33 93 -98c0 -108 -79 -120 -153 -120h-37v81h37c26 0 44 10 44 39c0 30 -18 38 -44 38h-37v58l45 38c-108 10 -176 63 -176 195v131h172v-130c0 -37 16 -48 39 -48c22 0 38 11 38 48
v111c0 123 -250 84 -250 308v122c0 146 84 196 212 196c129 0 211 -50 211 -196v-131h-172v130c0 37 -16 48 -38 48s-38 -11 -38 -48v-111z" />
    <glyph glyph-name="Scommaaccent" unicode="&#x218;" horiz-adv-x="491" 
d="M458 600h-172v130c0 37 -16 48 -38 48s-38 -11 -38 -48v-111c0 -123 251 -84 251 -308v-122c0 -146 -84 -196 -213 -196s-212 50 -212 196v131h172v-130c0 -37 16 -48 39 -48c22 0 38 11 38 48v111c0 123 -250 84 -250 308v122c0 146 84 196 212 196
c129 0 211 -50 211 -196v-131zM175 -375c15 59 22 127 21 180h-52v136h181v-51c0 -125 -21 -216 -51 -265h-99z" />
    <glyph glyph-name="uni1E9E" unicode="&#x1e9e;" horiz-adv-x="548" 
d="M404 541c67 -24 92 -82 92 -167v-199c0 -136 -45 -175 -178 -175h-83v140h29c37 0 53 16 53 65v141c0 49 -16 67 -53 67h-29v140l67 227h-93v-780h-179v920h488z" />
    <glyph glyph-name="T" unicode="T" horiz-adv-x="465" 
d="M440 920v-150h-118v-770h-179v770h-118v150h415z" />
    <glyph glyph-name="Tbar" unicode="&#x166;" horiz-adv-x="473" 
d="M448 584v-150h-126v-434h-179v434h-105v150h105v186h-118v150h415v-150h-118v-186h126z" />
    <glyph glyph-name="Tcaron" unicode="&#x164;" horiz-adv-x="465" 
d="M332 970h-200l-64 160h129l28 -70h14l28 70h129zM440 920v-150h-118v-770h-179v770h-118v150h415z" />
    <glyph glyph-name="uni0162" unicode="&#x162;" horiz-adv-x="465" 
d="M297 0l-49 -42c40 -7 93 -33 93 -98c0 -108 -79 -120 -153 -120h-37v81h37c26 0 44 10 44 39c0 30 -18 38 -44 38h-37v58l51 44h-59v770h-118v150h415v-150h-118v-770h-25z" />
    <glyph glyph-name="uni021A" unicode="&#x21a;" horiz-adv-x="465" 
d="M440 920v-150h-118v-770h-179v770h-118v150h415zM128 -195v136h181v-51c0 -125 -21 -216 -51 -265h-99c15 59 22 127 21 180h-52z" />
    <glyph glyph-name="U" unicode="U" 
d="M464 920v-732c0 -148 -87 -197 -217 -197s-217 49 -217 197v732h179v-731c0 -37 17 -48 38 -48s38 11 38 48v731h179z" />
    <glyph glyph-name="Uacute" unicode="&#xda;" 
d="M169 970l53 160h157l-53 -160h-157zM464 920v-732c0 -148 -87 -197 -217 -197s-217 49 -217 197v732h179v-731c0 -37 17 -48 38 -48s38 11 38 48v731h179z" />
    <glyph glyph-name="Ubreve" unicode="&#x16c;" 
d="M247 970c-117 0 -173 22 -173 120v40h117v-15c0 -28 20 -36 56 -36s56 8 56 36v15h117v-40c0 -98 -56 -120 -173 -120zM464 920v-732c0 -148 -87 -197 -217 -197s-217 49 -217 197v732h179v-731c0 -37 17 -48 38 -48s38 11 38 48v731h179z" />
    <glyph glyph-name="uni01D3" unicode="&#x1d3;" 
d="M83 1130h129l28 -70h14l28 70h129l-64 -160h-200zM464 920v-732c0 -148 -87 -197 -217 -197s-217 49 -217 197v732h179v-731c0 -37 17 -48 38 -48s38 11 38 48v731h179z" />
    <glyph glyph-name="Ucircumflex" unicode="&#xdb;" 
d="M83 970l64 160h200l64 -160h-129l-28 70h-14l-28 -70h-129zM464 920v-732c0 -148 -87 -197 -217 -197s-217 49 -217 197v732h179v-731c0 -37 17 -48 38 -48s38 11 38 48v731h179z" />
    <glyph glyph-name="Udieresis" unicode="&#xdc;" 
d="M145 982c-41 0 -73 32 -73 74s32 74 73 74s73 -32 73 -74s-32 -74 -73 -74zM349 982c-41 0 -73 32 -73 74s32 74 73 74s73 -32 73 -74s-32 -74 -73 -74zM464 920v-732c0 -148 -87 -197 -217 -197s-217 49 -217 197v732h179v-731c0 -37 17 -48 38 -48s38 11 38 48v731h179
z" />
    <glyph glyph-name="Ugrave" unicode="&#xd9;" 
d="M327 970h-157l-53 160h157zM464 920v-732c0 -148 -87 -197 -217 -197s-217 49 -217 197v732h179v-731c0 -37 17 -48 38 -48s38 11 38 48v731h179z" />
    <glyph glyph-name="Uhungarumlaut" unicode="&#x170;" 
d="M49 976l53 160h157l-53 -160h-157zM274 976l53 160h157l-53 -160h-157zM464 920v-732c0 -148 -87 -197 -217 -197s-217 49 -217 197v732h179v-731c0 -37 17 -48 38 -48s38 11 38 48v731h179z" />
    <glyph glyph-name="Umacron" unicode="&#x16a;" 
d="M88 981v144h318v-144h-318zM464 920v-732c0 -148 -87 -197 -217 -197s-217 49 -217 197v732h179v-731c0 -37 17 -48 38 -48s38 11 38 48v731h179z" />
    <glyph glyph-name="Uogonek" unicode="&#x172;" 
d="M285 920h179v-732c0 -128 -65 -182 -166 -194c-27 -5 -41 -19 -41 -46c0 -28 16 -46 53 -46h58l-15 -120h-44c-137 0 -209 66 -209 150c0 31 9 58 27 80c-61 26 -97 80 -97 176v732h179v-731c0 -37 17 -48 38 -48s38 11 38 48v731z" />
    <glyph glyph-name="Uring" unicode="&#x16e;" 
d="M247 926c-69 0 -116 50 -116 115s47 114 116 114s116 -49 116 -114s-47 -115 -116 -115zM247 1007c19 0 33 13 33 34c0 20 -14 33 -33 33s-33 -13 -33 -33c0 -21 14 -34 33 -34zM464 920v-732c0 -148 -87 -197 -217 -197s-217 49 -217 197v732h179v-731
c0 -37 17 -48 38 -48s38 11 38 48v731h179z" />
    <glyph glyph-name="V" unicode="V" horiz-adv-x="532" 
d="M20 920h171l65 -758h20l65 758h171l-92 -920h-308z" />
    <glyph glyph-name="W" unicode="W" horiz-adv-x="860" 
d="M661 920h174l-73 -920h-278l-49 727h-10l-49 -727h-278l-73 920h174l42 -728h10l53 728h252l53 -728h10z" />
    <glyph glyph-name="Wacute" unicode="&#x1e82;" horiz-adv-x="860" 
d="M352 970l53 160h157l-53 -160h-157zM661 920h174l-73 -920h-278l-49 727h-10l-49 -727h-278l-73 920h174l42 -728h10l53 728h252l53 -728h10z" />
    <glyph glyph-name="Wcircumflex" unicode="&#x174;" horiz-adv-x="860" 
d="M266 970l64 160h200l64 -160h-129l-28 70h-14l-28 -70h-129zM661 920h174l-73 -920h-278l-49 727h-10l-49 -727h-278l-73 920h174l42 -728h10l53 728h252l53 -728h10z" />
    <glyph glyph-name="Wdieresis" unicode="&#x1e84;" horiz-adv-x="860" 
d="M328 982c-41 0 -73 32 -73 74s32 74 73 74s73 -32 73 -74s-32 -74 -73 -74zM532 982c-41 0 -73 32 -73 74s32 74 73 74s73 -32 73 -74s-32 -74 -73 -74zM661 920h174l-73 -920h-278l-49 727h-10l-49 -727h-278l-73 920h174l42 -728h10l53 728h252l53 -728h10z" />
    <glyph glyph-name="Wgrave" unicode="&#x1e80;" horiz-adv-x="860" 
d="M510 970h-157l-53 160h157zM661 920h174l-73 -920h-278l-49 727h-10l-49 -727h-278l-73 920h174l42 -728h10l53 728h252l53 -728h10z" />
    <glyph glyph-name="X" unicode="X" horiz-adv-x="533" 
d="M508 0h-176l-60 328h-11l-60 -328h-176l107 467l-103 453h176l56 -315h11l56 315h176l-103 -453z" />
    <glyph glyph-name="Y" unicode="Y" horiz-adv-x="534" 
d="M343 920h171l-159 -593v-327h-176v327l-159 593h171l71 -336h10z" />
    <glyph glyph-name="Yacute" unicode="&#xdd;" horiz-adv-x="534" 
d="M399 1130l-53 -160h-157l53 160h157zM343 920h171l-159 -593v-327h-176v327l-159 593h171l71 -336h10z" />
    <glyph glyph-name="Ycircumflex" unicode="&#x176;" horiz-adv-x="534" 
d="M260 1040l-28 -70h-129l64 160h200l64 -160h-129l-28 70h-14zM343 920h171l-159 -593v-327h-176v327l-159 593h171l71 -336h10z" />
    <glyph glyph-name="Ydieresis" unicode="&#x178;" horiz-adv-x="534" 
d="M165 982c-41 0 -73 32 -73 74s32 74 73 74s73 -32 73 -74s-32 -74 -73 -74zM369 982c-41 0 -73 32 -73 74s32 74 73 74s73 -32 73 -74s-32 -74 -73 -74zM343 920h171l-159 -593v-327h-176v327l-159 593h171l71 -336h10z" />
    <glyph glyph-name="Ygrave" unicode="&#x1ef2;" horiz-adv-x="534" 
d="M347 970h-157l-53 160h157zM343 920h171l-159 -593v-327h-176v327l-159 593h171l71 -336h10z" />
    <glyph glyph-name="Z" unicode="Z" horiz-adv-x="446" 
d="M30 0v150l214 607v13h-205v150h377v-150l-220 -607v-13h215v-150h-381z" />
    <glyph glyph-name="Zacute" unicode="&#x179;" horiz-adv-x="446" 
d="M145 970l53 160h157l-53 -160h-157zM30 0v150l214 607v13h-205v150h377v-150l-220 -607v-13h215v-150h-381z" />
    <glyph glyph-name="Zcaron" unicode="&#x17d;" horiz-adv-x="446" 
d="M59 1130h129l28 -70h14l28 70h129l-64 -160h-200zM30 0v150l214 607v13h-205v150h377v-150l-220 -607v-13h215v-150h-381z" />
    <glyph glyph-name="Zdotaccent" unicode="&#x17b;" horiz-adv-x="446" 
d="M223 982c-42 0 -77 32 -77 74s35 74 77 74s77 -32 77 -74s-35 -74 -77 -74zM30 0v150l214 607v13h-205v150h377v-150l-220 -607v-13h215v-150h-381z" />
    <glyph glyph-name="G.ss01" 
d="M464 602h-178v129c0 37 -17 48 -39 48s-39 -11 -39 -48v-542c0 -37 15 -48 43 -48c27 0 44 11 44 48v171l3 25h-51v144h217v-529h-66l-16 81c-21 -66 -69 -90 -151 -90c-114 0 -201 49 -201 197v544c0 148 87 197 217 197s217 -49 217 -197v-130z" />
    <glyph glyph-name="a" unicode="a" horiz-adv-x="532" 
d="M341 0l-14 158h-122l-14 -158h-171l92 920h308l92 -920h-171zM217 308h98l-39 450h-20z" />
    <glyph glyph-name="aacute" unicode="&#xe1;" horiz-adv-x="532" 
d="M397 1130l-53 -160h-157l53 160h157zM341 0l-14 158h-122l-14 -158h-171l92 920h308l92 -920h-171zM217 308h98l-39 450h-20z" />
    <glyph glyph-name="abreve" unicode="&#x103;" horiz-adv-x="532" 
d="M265 970c-117 0 -173 22 -173 120v40h117v-15c0 -28 20 -36 56 -36s56 8 56 36v15h117v-40c0 -98 -56 -120 -173 -120zM341 0l-14 158h-122l-14 -158h-171l92 920h308l92 -920h-171zM217 308h98l-39 450h-20z" />
    <glyph glyph-name="uni01CE" unicode="&#x1ce;" horiz-adv-x="532" 
d="M365 970h-200l-64 160h129l28 -70h14l28 70h129zM341 0l-14 158h-122l-14 -158h-171l92 920h308l92 -920h-171zM217 308h98l-39 450h-20z" />
    <glyph glyph-name="acircumflex" unicode="&#xe2;" horiz-adv-x="532" 
d="M258 1040l-28 -70h-129l64 160h200l64 -160h-129l-28 70h-14zM341 0l-14 158h-122l-14 -158h-171l92 920h308l92 -920h-171zM217 308h98l-39 450h-20z" />
    <glyph glyph-name="adieresis" unicode="&#xe4;" horiz-adv-x="532" 
d="M163 982c-41 0 -73 32 -73 74s32 74 73 74s73 -32 73 -74s-32 -74 -73 -74zM367 982c-41 0 -73 32 -73 74s32 74 73 74s73 -32 73 -74s-32 -74 -73 -74zM341 0l-14 158h-122l-14 -158h-171l92 920h308l92 -920h-171zM217 308h98l-39 450h-20z" />
    <glyph glyph-name="agrave" unicode="&#xe0;" horiz-adv-x="532" 
d="M345 970h-157l-53 160h157zM341 0l-14 158h-122l-14 -158h-171l92 920h308l92 -920h-171zM217 308h98l-39 450h-20z" />
    <glyph glyph-name="amacron" unicode="&#x101;" horiz-adv-x="532" 
d="M424 1125v-144h-318v144h318zM341 0l-14 158h-122l-14 -158h-171l92 920h308l92 -920h-171zM217 308h98l-39 450h-20z" />
    <glyph glyph-name="aogonek" unicode="&#x105;" horiz-adv-x="532" 
d="M445 0c-41 0 -55 -23 -55 -49s14 -49 55 -49h56l-15 -120h-44c-137 0 -209 66 -209 169c0 70 37 113 101 134l-7 73h-122l-14 -158h-171l92 920h308l92 -920h-67zM217 308h98l-39 450h-20z" />
    <glyph glyph-name="aring" unicode="&#xe5;" horiz-adv-x="532" 
d="M265 926c-69 0 -116 50 -116 115s47 114 116 114s116 -49 116 -114s-47 -115 -116 -115zM265 1074c-19 0 -33 -13 -33 -33c0 -21 14 -34 33 -34s33 13 33 34c0 20 -14 33 -33 33zM341 0l-14 158h-122l-14 -158h-171l92 920h308l92 -920h-171zM217 308h98l-39 450h-20z
" />
    <glyph glyph-name="atilde" unicode="&#xe3;" horiz-adv-x="532" 
d="M139 990h-77c-2 97 47 139 123 139c95 0 97 -68 154 -68c29 0 51 16 52 45h77c2 -97 -47 -139 -123 -139c-95 0 -97 68 -154 68c-29 0 -51 -16 -52 -45zM341 0l-14 158h-122l-14 -158h-171l92 920h308l92 -920h-171zM217 308h98l-39 450h-20z" />
    <glyph glyph-name="ae" unicode="&#xe6;" horiz-adv-x="690" 
d="M660 770h-136v-234h133v-148h-133v-238h136v-150h-315v161h-123l-29 -161h-173l171 920h469v-150zM249 316h96v444h-17z" />
    <glyph glyph-name="b" unicode="b" horiz-adv-x="495" 
d="M392 469c53 -27 73 -71 73 -135v-137c0 -142 -30 -197 -179 -197h-256v920h254c144 0 174 -55 174 -197v-121c0 -58 -14 -98 -66 -123v-10zM240 770h-31v-243h31c34 0 44 12 44 49v145c0 37 -10 49 -44 49zM286 200v160c0 37 -10 49 -44 49h-33v-258h33c34 0 44 12 44 49
z" />
    <glyph glyph-name="c" unicode="c" 
d="M464 332v-146c0 -148 -87 -197 -217 -197s-217 49 -217 197v546c0 148 87 197 217 197s217 -49 217 -197v-144h-179v143c0 37 -17 48 -38 48s-38 -11 -38 -48v-544c0 -37 17 -48 38 -48s38 11 38 48v145h179z" />
    <glyph glyph-name="cacute" unicode="&#x107;" 
d="M169 970l53 160h157l-53 -160h-157zM464 332v-146c0 -148 -87 -197 -217 -197s-217 49 -217 197v546c0 148 87 197 217 197s217 -49 217 -197v-144h-179v143c0 37 -17 48 -38 48s-38 -11 -38 -48v-544c0 -37 17 -48 38 -48s38 11 38 48v145h179z" />
    <glyph glyph-name="ccaron" unicode="&#x10d;" 
d="M83 1130h129l28 -70h14l28 70h129l-64 -160h-200zM464 332v-146c0 -148 -87 -197 -217 -197s-217 49 -217 197v546c0 148 87 197 217 197s217 -49 217 -197v-144h-179v143c0 37 -17 48 -38 48s-38 -11 -38 -48v-544c0 -37 17 -48 38 -48s38 11 38 48v145h179z" />
    <glyph glyph-name="ccedilla" unicode="&#xe7;" 
d="M464 588h-179v143c0 37 -17 48 -38 48s-38 -11 -38 -48v-544c0 -37 17 -48 38 -48s38 11 38 48v145h179v-146c0 -125 -62 -180 -161 -193l-40 -35c40 -7 93 -33 93 -98c0 -108 -79 -120 -153 -120h-37v81h37c26 0 44 10 44 39c0 30 -18 38 -44 38h-37v58l40 35
c-107 10 -176 63 -176 195v546c0 148 87 197 217 197s217 -49 217 -197v-144z" />
    <glyph glyph-name="cdotaccent" unicode="&#x10b;" 
d="M247 982c-42 0 -77 32 -77 74s35 74 77 74s77 -32 77 -74s-35 -74 -77 -74zM464 332v-146c0 -148 -87 -197 -217 -197s-217 49 -217 197v546c0 148 87 197 217 197s217 -49 217 -197v-144h-179v143c0 37 -17 48 -38 48s-38 -11 -38 -48v-544c0 -37 17 -48 38 -48
s38 11 38 48v145h179z" />
    <glyph glyph-name="d" unicode="d" 
d="M283 920c150 0 181 -55 181 -197v-526c0 -142 -31 -197 -181 -197h-253v920h253zM285 199v522c0 37 -10 49 -44 49h-32v-620h32c34 0 44 12 44 49z" />
    <glyph glyph-name="eth" unicode="&#xf0;" horiz-adv-x="521" 
d="M310 920c150 0 181 -55 181 -197v-526c0 -142 -31 -197 -181 -197h-253v380h-27v160h27v380h253zM312 199v522c0 37 -10 49 -44 49h-32v-230h45v-160h-45v-230h32c34 0 44 12 44 49z" />
    <glyph glyph-name="dcaron" unicode="&#x10f;" 
d="M347 970h-200l-64 160h129l28 -70h14l28 70h129zM283 920c150 0 181 -55 181 -197v-526c0 -142 -31 -197 -181 -197h-253v920h253zM285 199v522c0 37 -10 49 -44 49h-32v-620h32c34 0 44 12 44 49z" />
    <glyph glyph-name="dcroat" unicode="&#x111;" horiz-adv-x="521" 
d="M310 920c150 0 181 -55 181 -197v-526c0 -142 -31 -197 -181 -197h-253v380h-27v160h27v380h253zM312 199v522c0 37 -10 49 -44 49h-32v-230h45v-160h-45v-230h32c34 0 44 12 44 49z" />
    <glyph glyph-name="e" unicode="e" horiz-adv-x="375" 
d="M345 770h-136v-234h133v-148h-133v-238h136v-150h-315v920h315v-150z" />
    <glyph glyph-name="eacute" unicode="&#xe9;" horiz-adv-x="375" 
d="M326 1130l-53 -160h-157l53 160h157zM345 770h-136v-234h133v-148h-133v-238h136v-150h-315v920h315v-150z" />
    <glyph glyph-name="ecaron" unicode="&#x11b;" horiz-adv-x="375" 
d="M294 970h-200l-64 160h129l28 -70h14l28 70h129zM345 920v-150h-136v-234h133v-148h-133v-238h136v-150h-315v920h315z" />
    <glyph glyph-name="ecircumflex" unicode="&#xea;" horiz-adv-x="375" 
d="M187 1040l-28 -70h-129l64 160h200l64 -160h-129l-28 70h-14zM345 920v-150h-136v-234h133v-148h-133v-238h136v-150h-315v920h315z" />
    <glyph glyph-name="edieresis" unicode="&#xeb;" horiz-adv-x="375" 
d="M92 982c-41 0 -73 32 -73 74s32 74 73 74s73 -32 73 -74s-32 -74 -73 -74zM296 1130c41 0 73 -32 73 -74s-32 -74 -73 -74s-73 32 -73 74s32 74 73 74zM345 920v-150h-136v-234h133v-148h-133v-238h136v-150h-315v920h315z" />
    <glyph glyph-name="edotaccent" unicode="&#x117;" horiz-adv-x="375" 
d="M194 982c-42 0 -77 32 -77 74s35 74 77 74s77 -32 77 -74s-35 -74 -77 -74zM345 770h-136v-234h133v-148h-133v-238h136v-150h-315v920h315v-150z" />
    <glyph glyph-name="egrave" unicode="&#xe8;" horiz-adv-x="375" 
d="M274 970h-157l-53 160h157zM345 770h-136v-234h133v-148h-133v-238h136v-150h-315v920h315v-150z" />
    <glyph glyph-name="emacron" unicode="&#x113;" horiz-adv-x="375" 
d="M35 1125h318v-144h-318v144zM345 920v-150h-136v-234h133v-148h-133v-238h136v-150h-315v920h315z" />
    <glyph glyph-name="eogonek" unicode="&#x119;" horiz-adv-x="375" 
d="M345 770h-136v-234h133v-148h-133v-238h136v-150h-56c-41 0 -55 -23 -55 -49s14 -49 55 -49h56l-15 -120h-44c-137 0 -209 66 -209 169c0 18 3 34 7 49h-54v920h315v-150z" />
    <glyph glyph-name="f" unicode="f" horiz-adv-x="375" 
d="M345 770h-135v-242h135v-148h-135v-380h-180v920h315v-150z" />
    <glyph glyph-name="g" unicode="g" 
d="M464 602h-178v129c0 37 -17 48 -39 48s-39 -11 -39 -48v-542c0 -37 15 -48 43 -48c27 0 44 11 44 48v196h-48v144h217v-341c0 -148 -87 -197 -217 -197s-217 49 -217 197v544c0 148 87 197 217 197s217 -49 217 -197v-130z" />
    <glyph glyph-name="gbreve" unicode="&#x11f;" 
d="M247 970c-117 0 -173 22 -173 120v40h117v-15c0 -28 20 -36 56 -36s56 8 56 36v15h117v-40c0 -98 -56 -120 -173 -120zM464 602h-178v129c0 37 -17 48 -39 48s-39 -11 -39 -48v-542c0 -37 15 -48 43 -48c27 0 44 11 44 48v196h-48v144h217v-341
c0 -148 -87 -197 -217 -197s-217 49 -217 197v544c0 148 87 197 217 197s217 -49 217 -197v-130z" />
    <glyph glyph-name="gcommaaccent" unicode="&#x123;" 
d="M464 602h-178v129c0 37 -17 48 -39 48s-39 -11 -39 -48v-542c0 -37 15 -48 43 -48c27 0 44 11 44 48v196h-48v144h217v-341c0 -148 -87 -197 -217 -197s-217 49 -217 197v544c0 148 87 197 217 197s217 -49 217 -197v-130zM174 -375c15 59 22 127 21 180h-52v136h181v-51
c0 -125 -21 -216 -51 -265h-99z" />
    <glyph glyph-name="gdotaccent" unicode="&#x121;" 
d="M247 982c-42 0 -77 32 -77 74s35 74 77 74s77 -32 77 -74s-35 -74 -77 -74zM464 602h-178v129c0 37 -17 48 -39 48s-39 -11 -39 -48v-542c0 -37 15 -48 43 -48c27 0 44 11 44 48v196h-48v144h217v-341c0 -148 -87 -197 -217 -197s-217 49 -217 197v544
c0 148 87 197 217 197s217 -49 217 -197v-130z" />
    <glyph glyph-name="h" unicode="h" horiz-adv-x="495" 
d="M286 920h179v-920h-179v375h-77v-375h-179v920h179v-395h77v395z" />
    <glyph glyph-name="hbar" unicode="&#x127;" horiz-adv-x="495" 
d="M286 920h179v-920h-179v375h-77v-375h-179v920h179v-152h77v152zM209 525h77v98h-77v-98z" />
    <glyph glyph-name="i" unicode="i" horiz-adv-x="239" 
d="M30 0v920h179v-920h-179z" />
    <glyph glyph-name="dotlessi" unicode="&#x131;" horiz-adv-x="239" 
d="M30 0v920h179v-920h-179z" />
    <glyph glyph-name="iacute" unicode="&#xed;" horiz-adv-x="239" 
d="M42 970l53 160h157l-53 -160h-157zM30 0v920h179v-920h-179z" />
    <glyph glyph-name="uni01D0" unicode="&#x1d0;" horiz-adv-x="239" 
d="M-44 1130h129l28 -70h14l28 70h129l-64 -160h-200zM30 0v920h179v-920h-179z" />
    <glyph glyph-name="icircumflex" unicode="&#xee;" horiz-adv-x="239" 
d="M-44 970l64 160h200l64 -160h-129l-28 70h-14l-28 -70h-129zM30 0v920h179v-920h-179z" />
    <glyph glyph-name="idieresis" unicode="&#xef;" horiz-adv-x="239" 
d="M18 982c-41 0 -73 32 -73 74s32 74 73 74s73 -32 73 -74s-32 -74 -73 -74zM222 982c-41 0 -73 32 -73 74s32 74 73 74s73 -32 73 -74s-32 -74 -73 -74zM30 0v920h179v-920h-179z" />
    <glyph glyph-name="i.loclTRK" horiz-adv-x="239" 
d="M120 982c-42 0 -77 32 -77 74s35 74 77 74s77 -32 77 -74s-35 -74 -77 -74zM30 0v920h179v-920h-179z" />
    <glyph glyph-name="igrave" unicode="&#xec;" horiz-adv-x="239" 
d="M200 970h-157l-53 160h157zM30 0v920h179v-920h-179z" />
    <glyph glyph-name="imacron" unicode="&#x12b;" horiz-adv-x="239" 
d="M-39 981v144h318v-144h-318zM30 0v920h179v-920h-179z" />
    <glyph glyph-name="iogonek" unicode="&#x12f;" horiz-adv-x="239" 
d="M30 920h179v-920h-56c-41 0 -55 -23 -55 -49s14 -49 55 -49h56l-15 -120h-44c-137 0 -209 66 -209 169c0 65 33 107 89 130v839z" />
    <glyph glyph-name="j" unicode="j" 
d="M209 328v-139c0 -37 17 -48 38 -48s38 11 38 48v731h179v-732c0 -148 -87 -197 -217 -197s-217 49 -217 197v140h179z" />
    <glyph glyph-name="k" unicode="k" horiz-adv-x="522" 
d="M337 0l-90 379l-39 -130v-249h-178v920h178v-375h8l104 375h178l-119 -429l128 -491h-170z" />
    <glyph glyph-name="kcommaaccent" unicode="&#x137;" horiz-adv-x="522" 
d="M208 249v-249h-178v920h178v-375h8l104 375h178l-119 -429l128 -491h-170l-90 379zM161 -195v136h181v-51c0 -125 -21 -216 -51 -265h-99c15 59 22 127 21 180h-52z" />
    <glyph glyph-name="l" unicode="l" horiz-adv-x="390" 
d="M209 150h151v-150h-330v920h179v-770z" />
    <glyph glyph-name="lacute" unicode="&#x13a;" horiz-adv-x="390" 
d="M255 1130l-53 -160h-157l53 160h157zM209 150h151v-150h-330v920h179v-770z" />
    <glyph glyph-name="lcaron" unicode="&#x13e;" horiz-adv-x="502" 
d="M209 920v-770h151v-150h-330v920h179zM257 920h200v-56c0 -138 -23 -238 -56 -292h-110c17 65 25 140 24 198h-58v150z" />
    <glyph glyph-name="lcommaaccent" unicode="&#x13c;" horiz-adv-x="390" 
d="M209 150h151v-150h-330v920h179v-770zM108 -195v136h181v-51c0 -125 -21 -216 -51 -265h-99c15 59 22 127 21 180h-52z" />
    <glyph glyph-name="lslash" unicode="&#x142;" horiz-adv-x="414" 
d="M233 150h151v-150h-330v247l-54 -45v160l54 45v513h179v-362l127 107v-160l-127 -107v-248z" />
    <glyph glyph-name="m" unicode="m" horiz-adv-x="735" 
d="M30 0v920h271l61 -681h11l61 681h271v-920h-165v676h-14l-63 -676h-191l-63 676h-14v-676h-165z" />
    <glyph glyph-name="n" unicode="n" horiz-adv-x="564" 
d="M30 0v920h227l106 -625h11l-5 122v503h165v-920h-227l-106 625h-11l5 -122v-503h-165z" />
    <glyph glyph-name="nacute" unicode="&#x144;" horiz-adv-x="564" 
d="M204 970l53 160h157l-53 -160h-157zM30 0v920h227l106 -625h11l-5 122v503h165v-920h-227l-106 625h-11l5 -122v-503h-165z" />
    <glyph glyph-name="ncaron" unicode="&#x148;" horiz-adv-x="564" 
d="M118 1130h129l28 -70h14l28 70h129l-64 -160h-200zM30 0v920h227l106 -625h11l-5 122v503h165v-920h-227l-106 625h-11l5 -122v-503h-165z" />
    <glyph glyph-name="ncommaaccent" unicode="&#x146;" horiz-adv-x="564" 
d="M30 0v920h227l106 -625h11l-5 122v503h165v-920h-227l-106 625h-11l5 -122v-503h-165zM209 -375c15 59 22 127 21 180h-52v136h181v-51c0 -125 -21 -216 -51 -265h-99z" />
    <glyph glyph-name="eng" unicode="&#x14b;" horiz-adv-x="575" 
d="M534 64h11v-85c0 -158 -86 -186 -249 -186v137c46 0 69 10 69 50v20h-58l-106 625h-11l5 -122v-503h-165v920h227l106 -625h11l-5 122v503h165v-856z" />
    <glyph glyph-name="ntilde" unicode="&#xf1;" horiz-adv-x="564" 
d="M362 967c-95 0 -97 68 -154 68c-29 0 -51 -16 -52 -45h-77c-2 97 47 139 123 139c95 0 97 -68 154 -68c29 0 51 16 52 45h77c2 -97 -47 -139 -123 -139zM30 0v920h227l106 -625h11l-5 122v503h165v-920h-227l-106 625h-11l5 -122v-503h-165z" />
    <glyph glyph-name="o" unicode="o" 
d="M247 929c130 0 217 -49 217 -197v-544c0 -148 -87 -197 -217 -197s-217 49 -217 197v544c0 148 87 197 217 197zM285 731c0 37 -17 48 -38 48s-38 -11 -38 -48v-542c0 -37 17 -48 38 -48s38 11 38 48v542z" />
    <glyph glyph-name="oacute" unicode="&#xf3;" 
d="M169 970l53 160h157l-53 -160h-157zM247 929c130 0 217 -49 217 -197v-544c0 -148 -87 -197 -217 -197s-217 49 -217 197v544c0 148 87 197 217 197zM285 731c0 37 -17 48 -38 48s-38 -11 -38 -48v-542c0 -37 17 -48 38 -48s38 11 38 48v542z" />
    <glyph glyph-name="uni01D2" unicode="&#x1d2;" 
d="M83 1130h129l28 -70h14l28 70h129l-64 -160h-200zM247 929c130 0 217 -49 217 -197v-544c0 -148 -87 -197 -217 -197s-217 49 -217 197v544c0 148 87 197 217 197zM285 731c0 37 -17 48 -38 48s-38 -11 -38 -48v-542c0 -37 17 -48 38 -48s38 11 38 48v542z" />
    <glyph glyph-name="ocircumflex" unicode="&#xf4;" 
d="M83 970l64 160h200l64 -160h-129l-28 70h-14l-28 -70h-129zM247 929c130 0 217 -49 217 -197v-544c0 -148 -87 -197 -217 -197s-217 49 -217 197v544c0 148 87 197 217 197zM285 731c0 37 -17 48 -38 48s-38 -11 -38 -48v-542c0 -37 17 -48 38 -48s38 11 38 48v542z" />
    <glyph glyph-name="odieresis" unicode="&#xf6;" 
d="M145 982c-41 0 -73 32 -73 74s32 74 73 74s73 -32 73 -74s-32 -74 -73 -74zM349 982c-41 0 -73 32 -73 74s32 74 73 74s73 -32 73 -74s-32 -74 -73 -74zM247 929c130 0 217 -49 217 -197v-544c0 -148 -87 -197 -217 -197s-217 49 -217 197v544c0 148 87 197 217 197z
M285 731c0 37 -17 48 -38 48s-38 -11 -38 -48v-542c0 -37 17 -48 38 -48s38 11 38 48v542z" />
    <glyph glyph-name="ograve" unicode="&#xf2;" 
d="M327 970h-157l-53 160h157zM247 929c130 0 217 -49 217 -197v-544c0 -148 -87 -197 -217 -197s-217 49 -217 197v544c0 148 87 197 217 197zM285 731c0 37 -17 48 -38 48s-38 -11 -38 -48v-542c0 -37 17 -48 38 -48s38 11 38 48v542z" />
    <glyph glyph-name="ohungarumlaut" unicode="&#x151;" 
d="M49 976l53 160h157l-53 -160h-157zM274 976l53 160h157l-53 -160h-157zM247 929c130 0 217 -49 217 -197v-544c0 -148 -87 -197 -217 -197s-217 49 -217 197v544c0 148 87 197 217 197zM285 731c0 37 -17 48 -38 48s-38 -11 -38 -48v-542c0 -37 17 -48 38 -48
s38 11 38 48v542z" />
    <glyph glyph-name="omacron" unicode="&#x14d;" 
d="M88 981v144h318v-144h-318zM247 929c130 0 217 -49 217 -197v-544c0 -148 -87 -197 -217 -197s-217 49 -217 197v544c0 148 87 197 217 197zM285 731c0 37 -17 48 -38 48s-38 -11 -38 -48v-542c0 -37 17 -48 38 -48s38 11 38 48v542z" />
    <glyph glyph-name="oslash" unicode="&#xf8;" horiz-adv-x="498" 
d="M468 932l-31 -80c19 -30 29 -69 29 -120v-544c0 -148 -87 -197 -217 -197c-55 0 -102 9 -138 30l-13 -33h-68l31 80c-19 30 -29 69 -29 120v544c0 148 87 197 217 197c55 0 102 -9 138 -30l13 33h68zM211 731v-281l76 194v87c0 37 -17 48 -38 48s-38 -11 -38 -48z
M287 189v281l-76 -194v-87c0 -37 17 -48 38 -48s38 11 38 48z" />
    <glyph glyph-name="otilde" unicode="&#xf5;" 
d="M327 967c-95 0 -97 68 -154 68c-29 0 -51 -16 -52 -45h-77c-2 97 47 139 123 139c95 0 97 -68 154 -68c29 0 51 16 52 45h77c2 -97 -47 -139 -123 -139zM247 929c130 0 217 -49 217 -197v-544c0 -148 -87 -197 -217 -197s-217 49 -217 197v544c0 148 87 197 217 197z
M285 731c0 37 -17 48 -38 48s-38 -11 -38 -48v-542c0 -37 17 -48 38 -48s38 11 38 48v542z" />
    <glyph glyph-name="oe" unicode="&#x153;" horiz-adv-x="630" 
d="M464 770v-234h133v-148h-133v-238h136v-150h-268c-26 -6 -54 -9 -85 -9c-130 0 -217 49 -217 197v544c0 148 87 197 217 197c31 0 59 -3 85 -9h268v-150h-136zM247 141c21 0 38 11 38 48v542c0 37 -17 48 -38 48s-38 -11 -38 -48v-542c0 -37 17 -48 38 -48z" />
    <glyph glyph-name="p" unicode="p" horiz-adv-x="496" 
d="M284 920c147 0 177 -55 177 -197v-333c0 -142 -30 -197 -177 -197h-75v-193h-179v920h254zM286 391v331c0 37 -10 49 -44 49h-33v-429h33c34 0 44 12 44 49z" />
    <glyph glyph-name="thorn" unicode="&#xfe;" horiz-adv-x="490" 
d="M266 824c164 0 194 -55 194 -197v-333c0 -142 -30 -197 -194 -197h-56v-97h-180v920h180v-96h56zM280 308v305c0 37 -10 51 -44 51h-26v-407h26c34 0 44 14 44 51z" />
    <glyph glyph-name="q" unicode="q" horiz-adv-x="525" 
d="M495 20l-98 -100l-81 77c-21 -4 -44 -6 -69 -6c-130 0 -217 49 -217 197v544c0 148 87 197 217 197s217 -49 217 -197v-544c0 -46 -9 -83 -24 -111zM209 189c0 -37 17 -48 38 -48s38 11 38 48v542c0 37 -17 48 -38 48s-38 -11 -38 -48v-542z" />
    <glyph glyph-name="r" unicode="r" horiz-adv-x="490" 
d="M480 0h-161l-64 269h-46v-269h-179v920h254c147 0 177 -55 177 -197v-268c0 -69 -23 -115 -60 -144zM209 771v-365l45 1c24 2 32 16 32 48v267c0 37 -10 49 -44 49h-33z" />
    <glyph glyph-name="racute" unicode="&#x155;" horiz-adv-x="490" 
d="M384 1130l-53 -160h-157l53 160h157zM480 0h-161l-64 269h-46v-269h-179v920h254c147 0 177 -55 177 -197v-268c0 -69 -23 -115 -60 -144zM209 771v-365l45 1c24 2 32 16 32 48v267c0 37 -10 49 -44 49h-33z" />
    <glyph glyph-name="rcaron" unicode="&#x159;" horiz-adv-x="490" 
d="M352 970h-200l-64 160h129l28 -70h14l28 70h129zM480 0h-161l-64 269h-46v-269h-179v920h254c147 0 177 -55 177 -197v-268c0 -69 -23 -115 -60 -144zM209 771v-365l45 1c24 2 32 16 32 48v267c0 37 -10 49 -44 49h-33z" />
    <glyph glyph-name="rcommaaccent" unicode="&#x157;" horiz-adv-x="490" 
d="M209 269v-269h-179v920h254c147 0 177 -55 177 -197v-268c0 -69 -23 -115 -60 -144l79 -311h-161l-64 269h-46zM242 771h-33v-365l45 1c24 2 32 16 32 48v267c0 37 -10 49 -44 49zM148 -195v136h181v-51c0 -125 -21 -216 -51 -265h-99c15 59 22 127 21 180h-52z" />
    <glyph glyph-name="s" unicode="s" horiz-adv-x="491" 
d="M458 600h-172v130c0 37 -16 48 -38 48s-38 -11 -38 -48v-111c0 -123 251 -84 251 -308v-122c0 -146 -84 -196 -213 -196s-212 50 -212 196v131h172v-130c0 -37 16 -48 39 -48c22 0 38 11 38 48v111c0 123 -250 84 -250 308v122c0 146 84 196 212 196
c129 0 211 -50 211 -196v-131z" />
    <glyph glyph-name="sacute" unicode="&#x15b;" horiz-adv-x="491" 
d="M170 970l53 160h157l-53 -160h-157zM458 600h-172v130c0 37 -16 48 -38 48s-38 -11 -38 -48v-111c0 -123 251 -84 251 -308v-122c0 -146 -84 -196 -213 -196s-212 50 -212 196v131h172v-130c0 -37 16 -48 39 -48c22 0 38 11 38 48v111c0 123 -250 84 -250 308v122
c0 146 84 196 212 196c129 0 211 -50 211 -196v-131z" />
    <glyph glyph-name="scaron" unicode="&#x161;" horiz-adv-x="491" 
d="M84 1130h129l28 -70h14l28 70h129l-64 -160h-200zM458 600h-172v130c0 37 -16 48 -38 48s-38 -11 -38 -48v-111c0 -123 251 -84 251 -308v-122c0 -146 -84 -196 -213 -196s-212 50 -212 196v131h172v-130c0 -37 16 -48 39 -48c22 0 38 11 38 48v111
c0 123 -250 84 -250 308v122c0 146 84 196 212 196c129 0 211 -50 211 -196v-131z" />
    <glyph glyph-name="scedilla" unicode="&#x15f;" horiz-adv-x="491" 
d="M210 619c0 -123 251 -84 251 -308v-122c0 -121 -58 -176 -151 -191l-46 -40c40 -7 93 -33 93 -98c0 -108 -79 -120 -153 -120h-37v81h37c26 0 44 10 44 39c0 30 -18 38 -44 38h-37v58l45 38c-108 10 -176 63 -176 195v131h172v-130c0 -37 16 -48 39 -48c22 0 38 11 38 48
v111c0 123 -250 84 -250 308v122c0 146 84 196 212 196c129 0 211 -50 211 -196v-131h-172v130c0 37 -16 48 -38 48s-38 -11 -38 -48v-111z" />
    <glyph glyph-name="scommaaccent" unicode="&#x219;" horiz-adv-x="491" 
d="M458 600h-172v130c0 37 -16 48 -38 48s-38 -11 -38 -48v-111c0 -123 251 -84 251 -308v-122c0 -146 -84 -196 -213 -196s-212 50 -212 196v131h172v-130c0 -37 16 -48 39 -48c22 0 38 11 38 48v111c0 123 -250 84 -250 308v122c0 146 84 196 212 196
c129 0 211 -50 211 -196v-131zM175 -375c15 59 22 127 21 180h-52v136h181v-51c0 -125 -21 -216 -51 -265h-99z" />
    <glyph glyph-name="germandbls" unicode="&#xdf;" horiz-adv-x="501" 
d="M469 616c0 -70 -20 -113 -78 -144v-8c59 -31 80 -74 80 -144v-143c0 -148 -83 -177 -218 -177h-18v140h16c28 0 45 10 45 50v156c0 40 -17 52 -45 52h-16v140h16c28 0 44 13 44 53v140c0 37 -23 48 -46 48c-21 0 -40 -11 -40 -48v-731h-179v732c0 148 89 197 219 197
c132 0 220 -49 220 -197v-116z" />
    <glyph glyph-name="t" unicode="t" horiz-adv-x="465" 
d="M440 920v-150h-118v-770h-179v770h-118v150h415z" />
    <glyph glyph-name="tbar" unicode="&#x167;" horiz-adv-x="473" 
d="M448 584v-150h-126v-434h-179v434h-105v150h105v186h-118v150h415v-150h-118v-186h126z" />
    <glyph glyph-name="tcaron" unicode="&#x165;" horiz-adv-x="465" 
d="M332 970h-200l-64 160h129l28 -70h14l28 70h129zM440 920v-150h-118v-770h-179v770h-118v150h415z" />
    <glyph glyph-name="uni0163" unicode="&#x163;" horiz-adv-x="465" 
d="M297 0l-49 -42c40 -7 93 -33 93 -98c0 -108 -79 -120 -153 -120h-37v81h37c26 0 44 10 44 39c0 30 -18 38 -44 38h-37v58l51 44h-59v770h-118v150h415v-150h-118v-770h-25z" />
    <glyph glyph-name="uni021B" unicode="&#x21b;" horiz-adv-x="465" 
d="M440 920v-150h-118v-770h-179v770h-118v150h415zM128 -195v136h181v-51c0 -125 -21 -216 -51 -265h-99c15 59 22 127 21 180h-52z" />
    <glyph glyph-name="u" unicode="u" 
d="M464 920v-732c0 -148 -87 -197 -217 -197s-217 49 -217 197v732h179v-731c0 -37 17 -48 38 -48s38 11 38 48v731h179z" />
    <glyph glyph-name="uacute" unicode="&#xfa;" 
d="M169 970l53 160h157l-53 -160h-157zM464 920v-732c0 -148 -87 -197 -217 -197s-217 49 -217 197v732h179v-731c0 -37 17 -48 38 -48s38 11 38 48v731h179z" />
    <glyph glyph-name="ubreve" unicode="&#x16d;" 
d="M252 970c-117 0 -173 22 -173 120v40h117v-15c0 -28 20 -36 56 -36s56 8 56 36v15h117v-40c0 -98 -56 -120 -173 -120zM464 920v-732c0 -148 -87 -197 -217 -197s-217 49 -217 197v732h179v-731c0 -37 17 -48 38 -48s38 11 38 48v731h179z" />
    <glyph glyph-name="uni01D4" unicode="&#x1d4;" 
d="M83 1130h129l28 -70h14l28 70h129l-64 -160h-200zM464 920v-732c0 -148 -87 -197 -217 -197s-217 49 -217 197v732h179v-731c0 -37 17 -48 38 -48s38 11 38 48v731h179z" />
    <glyph glyph-name="ucircumflex" unicode="&#xfb;" 
d="M83 970l64 160h200l64 -160h-129l-28 70h-14l-28 -70h-129zM464 920v-732c0 -148 -87 -197 -217 -197s-217 49 -217 197v732h179v-731c0 -37 17 -48 38 -48s38 11 38 48v731h179z" />
    <glyph glyph-name="udieresis" unicode="&#xfc;" 
d="M145 982c-41 0 -73 32 -73 74s32 74 73 74s73 -32 73 -74s-32 -74 -73 -74zM349 982c-41 0 -73 32 -73 74s32 74 73 74s73 -32 73 -74s-32 -74 -73 -74zM464 920v-732c0 -148 -87 -197 -217 -197s-217 49 -217 197v732h179v-731c0 -37 17 -48 38 -48s38 11 38 48v731h179
z" />
    <glyph glyph-name="ugrave" unicode="&#xf9;" 
d="M327 970h-157l-53 160h157zM464 920v-732c0 -148 -87 -197 -217 -197s-217 49 -217 197v732h179v-731c0 -37 17 -48 38 -48s38 11 38 48v731h179z" />
    <glyph glyph-name="uhungarumlaut" unicode="&#x171;" 
d="M49 976l53 160h157l-53 -160h-157zM274 976l53 160h157l-53 -160h-157zM464 920v-732c0 -148 -87 -197 -217 -197s-217 49 -217 197v732h179v-731c0 -37 17 -48 38 -48s38 11 38 48v731h179z" />
    <glyph glyph-name="umacron" unicode="&#x16b;" 
d="M88 981v144h318v-144h-318zM464 920v-732c0 -148 -87 -197 -217 -197s-217 49 -217 197v732h179v-731c0 -37 17 -48 38 -48s38 11 38 48v731h179z" />
    <glyph glyph-name="uogonek" unicode="&#x173;" 
d="M285 920h179v-732c0 -128 -65 -182 -166 -194c-27 -5 -41 -19 -41 -46c0 -28 16 -46 53 -46h58l-15 -120h-44c-137 0 -209 66 -209 150c0 31 9 58 27 80c-61 26 -97 80 -97 176v732h179v-731c0 -37 17 -48 38 -48s38 11 38 48v731z" />
    <glyph glyph-name="uring" unicode="&#x16f;" 
d="M247 926c-69 0 -116 50 -116 115s47 114 116 114s116 -49 116 -114s-47 -115 -116 -115zM247 1007c19 0 33 13 33 34c0 20 -14 33 -33 33s-33 -13 -33 -33c0 -21 14 -34 33 -34zM464 920v-732c0 -148 -87 -197 -217 -197s-217 49 -217 197v732h179v-731
c0 -37 17 -48 38 -48s38 11 38 48v731h179z" />
    <glyph glyph-name="v" unicode="v" horiz-adv-x="532" 
d="M20 920h171l65 -758h20l65 758h171l-92 -920h-308z" />
    <glyph glyph-name="w" unicode="w" horiz-adv-x="860" 
d="M661 920h174l-73 -920h-278l-49 727h-10l-49 -727h-278l-73 920h174l42 -728h10l53 728h252l53 -728h10z" />
    <glyph glyph-name="wacute" unicode="&#x1e83;" horiz-adv-x="860" 
d="M352 970l53 160h157l-53 -160h-157zM661 920h174l-73 -920h-278l-49 727h-10l-49 -727h-278l-73 920h174l42 -728h10l53 728h252l53 -728h10z" />
    <glyph glyph-name="wcircumflex" unicode="&#x175;" horiz-adv-x="860" 
d="M266 970l64 160h200l64 -160h-129l-28 70h-14l-28 -70h-129zM661 920h174l-73 -920h-278l-49 727h-10l-49 -727h-278l-73 920h174l42 -728h10l53 728h252l53 -728h10z" />
    <glyph glyph-name="wdieresis" unicode="&#x1e85;" horiz-adv-x="860" 
d="M328 982c-41 0 -73 32 -73 74s32 74 73 74s73 -32 73 -74s-32 -74 -73 -74zM532 982c-41 0 -73 32 -73 74s32 74 73 74s73 -32 73 -74s-32 -74 -73 -74zM661 920h174l-73 -920h-278l-49 727h-10l-49 -727h-278l-73 920h174l42 -728h10l53 728h252l53 -728h10z" />
    <glyph glyph-name="wgrave" unicode="&#x1e81;" horiz-adv-x="860" 
d="M510 970h-157l-53 160h157zM661 920h174l-73 -920h-278l-49 727h-10l-49 -727h-278l-73 920h174l42 -728h10l53 728h252l53 -728h10z" />
    <glyph glyph-name="x" unicode="x" horiz-adv-x="533" 
d="M508 0h-176l-60 328h-11l-60 -328h-176l107 467l-103 453h176l56 -315h11l56 315h176l-103 -453z" />
    <glyph glyph-name="y" unicode="y" horiz-adv-x="534" 
d="M343 920h171l-159 -593v-327h-176v327l-159 593h171l71 -336h10z" />
    <glyph glyph-name="yacute" unicode="&#xfd;" horiz-adv-x="534" 
d="M399 1130l-53 -160h-157l53 160h157zM343 920h171l-159 -593v-327h-176v327l-159 593h171l71 -336h10z" />
    <glyph glyph-name="ycircumflex" unicode="&#x177;" horiz-adv-x="534" 
d="M260 1040l-28 -70h-129l64 160h200l64 -160h-129l-28 70h-14zM343 920h171l-159 -593v-327h-176v327l-159 593h171l71 -336h10z" />
    <glyph glyph-name="ydieresis" unicode="&#xff;" horiz-adv-x="534" 
d="M165 982c-41 0 -73 32 -73 74s32 74 73 74s73 -32 73 -74s-32 -74 -73 -74zM369 982c-41 0 -73 32 -73 74s32 74 73 74s73 -32 73 -74s-32 -74 -73 -74zM343 920h171l-159 -593v-327h-176v327l-159 593h171l71 -336h10z" />
    <glyph glyph-name="ygrave" unicode="&#x1ef3;" horiz-adv-x="534" 
d="M347 970h-157l-53 160h157zM343 920h171l-159 -593v-327h-176v327l-159 593h171l71 -336h10z" />
    <glyph glyph-name="z" unicode="z" horiz-adv-x="446" 
d="M30 0v150l214 607v13h-205v150h377v-150l-220 -607v-13h215v-150h-381z" />
    <glyph glyph-name="zacute" unicode="&#x17a;" horiz-adv-x="446" 
d="M145 970l53 160h157l-53 -160h-157zM30 0v150l214 607v13h-205v150h377v-150l-220 -607v-13h215v-150h-381z" />
    <glyph glyph-name="zcaron" unicode="&#x17e;" horiz-adv-x="446" 
d="M59 1130h129l28 -70h14l28 70h129l-64 -160h-200zM30 0v150l214 607v13h-205v150h377v-150l-220 -607v-13h215v-150h-381z" />
    <glyph glyph-name="zdotaccent" unicode="&#x17c;" horiz-adv-x="446" 
d="M223 982c-42 0 -77 32 -77 74s35 74 77 74s77 -32 77 -74s-35 -74 -77 -74zM30 0v150l214 607v13h-205v150h377v-150l-220 -607v-13h215v-150h-381z" />
    <glyph glyph-name="g.ss01" 
d="M464 602h-178v129c0 37 -17 48 -39 48s-39 -11 -39 -48v-542c0 -37 15 -48 43 -48c27 0 44 11 44 48v171l3 25h-51v144h217v-529h-66l-16 81c-21 -66 -69 -90 -151 -90c-114 0 -201 49 -201 197v544c0 148 87 197 217 197s217 -49 217 -197v-130z" />
    <glyph glyph-name="ordfeminine" unicode="&#xaa;" horiz-adv-x="460" 
d="M277 406l-8 65h-78l-8 -65h-163l70 434h280l70 -434h-163zM205 576h50l-16 124h-18z" />
    <glyph glyph-name="ordmasculine" unicode="&#xba;" horiz-adv-x="496" 
d="M248 409c-125 0 -218 95 -218 218c0 124 93 219 218 219s218 -95 218 -219c0 -123 -93 -218 -218 -218zM248 558c39 0 69 30 69 69s-30 70 -69 70s-69 -31 -69 -70s30 -69 69 -69z" />
    <glyph glyph-name="uni0394" unicode="&#x394;" horiz-adv-x="532" 
d="M420 920l92 -920h-492l92 920h308zM205 160h122l-51 598h-20z" />
    <glyph glyph-name="uni03A9" unicode="&#x3a9;" horiz-adv-x="664" 
d="M556 160h83v-160h-263v725c0 40 -23 50 -44 50s-44 -10 -44 -50v-725h-263v160h83v566c0 158 86 206 224 206s224 -48 224 -206v-566z" />
    <glyph glyph-name="uni03BC" unicode="&#x3bc;" 
d="M285 920h179v-732c0 -148 -87 -197 -217 -197c-11 0 -22 0 -32 1v-142h-180v281c-3 17 -5 36 -5 57v732h185v-762c7 -12 19 -17 32 -17c21 0 38 11 38 48v731z" />
    <glyph glyph-name="pi" unicode="&#x3c0;" horiz-adv-x="734" 
d="M704 760h-100v-530c0 -50 23 -80 85 -80l-30 -157c-149 0 -235 48 -235 206v561h-114v-760h-180v760h-100v160h674v-160z" />
    <glyph glyph-name="zero" unicode="0" 
d="M247 929c130 0 217 -49 217 -197v-544c0 -148 -87 -197 -217 -197s-217 49 -217 197v544c0 148 87 197 217 197zM285 731c0 37 -17 48 -38 48s-38 -11 -38 -48v-542c0 -37 17 -48 38 -48s38 11 38 48v542z" />
    <glyph glyph-name="one" unicode="1" horiz-adv-x="344" 
d="M135 920h179v-920h-179v721c-28 -39 -72 -51 -110 -51v169c38 0 84 24 110 81z" />
    <glyph glyph-name="two" unicode="2" horiz-adv-x="500" 
d="M470 579c0 -214 -262 -228 -262 -379v-50h257v-150h-430v213c0 224 256 241 256 384v134c0 37 -17 48 -38 48s-38 -11 -38 -48v-152h-178v154c0 147 85 196 216 196s217 -49 217 -196v-154z" />
    <glyph glyph-name="three" unicode="3" horiz-adv-x="498" 
d="M468 596c0 -58 -18 -101 -79 -132v-8c61 -31 79 -74 79 -132v-137c0 -147 -85 -196 -217 -196s-216 49 -216 196v127h178v-125c0 -37 17 -48 38 -48s38 11 38 48v136c0 50 -23 64 -66 64h-44v142h44c43 0 66 14 66 64v136c0 37 -17 48 -38 48s-38 -11 -38 -48v-125h-178
v127c0 147 84 196 216 196s217 -49 217 -196v-137z" />
    <glyph glyph-name="four" unicode="4" horiz-adv-x="560" 
d="M530 346v-150h-67v-196h-179v196h-259v150l139 574h299v-574h67zM184 346h100v407h-13z" />
    <glyph glyph-name="five" unicode="5" horiz-adv-x="493" 
d="M291 630c92 0 172 -47 172 -193v-248c0 -146 -85 -196 -217 -196s-216 50 -216 196v122h178v-118c0 -40 17 -50 38 -50c20 0 38 10 38 50v235c0 40 -18 50 -38 50s-38 -10 -38 -50v-48h-178v540h414v-150h-236v-170c19 19 49 30 83 30z" />
    <glyph glyph-name="six" unicode="6" horiz-adv-x="492" 
d="M247 -9c-132 0 -217 50 -217 196v554c0 146 84 196 216 196s211 -50 211 -196v-131h-174v129c0 37 -16 48 -37 48s-38 -11 -38 -48l1 -209c19 19 39 32 87 32c81 0 166 -37 166 -183v-192c0 -146 -83 -196 -215 -196zM246 141c22 0 38 11 38 48v173c0 37 -16 48 -38 48
s-38 -11 -38 -48v-173c0 -37 16 -48 38 -48z" />
    <glyph glyph-name="seven" unicode="7" horiz-adv-x="460" 
d="M25 920h410v-150l-185 -770h-176l191 770h-240v150z" />
    <glyph glyph-name="eight" unicode="8" horiz-adv-x="496" 
d="M248 -9c-133 0 -218 49 -218 196v142c0 58 20 111 79 142v8c-51 31 -71 74 -71 132v132c0 137 80 186 210 186s210 -49 210 -186v-132c0 -58 -20 -101 -71 -132v-8c59 -31 79 -84 79 -142v-142c0 -147 -85 -196 -218 -196zM248 540c21 0 38 11 38 49v142
c0 37 -17 48 -38 48s-38 -11 -38 -48v-142c0 -38 17 -49 38 -49zM248 141c21 0 39 11 39 48v173c0 37 -18 48 -39 48s-39 -11 -39 -48v-173c0 -37 18 -48 39 -48z" />
    <glyph glyph-name="nine" unicode="9" horiz-adv-x="492" 
d="M245 929c132 0 217 -50 217 -196v-554c0 -146 -84 -196 -216 -196s-211 50 -211 196v131h174v-129c0 -37 16 -48 37 -48s38 11 38 48l-1 209c-19 -19 -39 -32 -87 -32c-81 0 -166 37 -166 183v192c0 146 83 196 215 196zM246 779c-22 0 -38 -11 -38 -48v-173
c0 -37 16 -48 38 -48s38 11 38 48v173c0 37 -16 48 -38 48z" />
    <glyph glyph-name="asterisk" unicode="*" horiz-adv-x="618" 
d="M568 738l-167 -85l167 -85l-56 -97l-157 102l10 -187h-112l10 187l-157 -102l-56 97l167 85l-167 85l56 97l157 -102l-10 187h112l-10 -187l157 102z" />
    <glyph glyph-name="backslash" unicode="\" horiz-adv-x="344" 
d="M304 0h-165l-99 920h173z" />
    <glyph glyph-name="periodcentered" unicode="&#xb7;" horiz-adv-x="312" 
d="M156 365c-53 0 -96 43 -96 95s43 95 96 95s96 -43 96 -95s-43 -95 -96 -95z" />
    <glyph glyph-name="bullet" unicode="&#x2022;" horiz-adv-x="459" 
d="M230 300c-88 0 -160 72 -160 160s72 160 160 160c87 0 159 -72 159 -160s-72 -160 -159 -160z" />
    <glyph glyph-name="colon" unicode=":" horiz-adv-x="252" 
d="M126 599c-53 0 -96 43 -96 95s43 95 96 95s96 -43 96 -95s-43 -95 -96 -95zM126 131c-53 0 -96 43 -96 95s43 95 96 95s96 -43 96 -95s-43 -95 -96 -95z" />
    <glyph glyph-name="comma" unicode="," horiz-adv-x="270" 
d="M69 -198c17 65 25 140 24 198h-58v150h200v-56c0 -138 -23 -238 -56 -292h-110z" />
    <glyph glyph-name="ellipsis" unicode="&#x2026;" horiz-adv-x="798" 
d="M126 -16c-53 0 -96 43 -96 95s43 95 96 95s96 -43 96 -95s-43 -95 -96 -95zM399 -16c-53 0 -96 43 -96 95s43 95 96 95s96 -43 96 -95s-43 -95 -96 -95zM672 -16c-53 0 -96 43 -96 95s43 95 96 95s96 -43 96 -95s-43 -95 -96 -95z" />
    <glyph glyph-name="exclam" unicode="!" horiz-adv-x="242" 
d="M56 252l-27 668h184l-27 -668h-130zM121 -16c-53 0 -96 43 -96 95s43 95 96 95s96 -43 96 -95s-43 -95 -96 -95z" />
    <glyph glyph-name="exclamdown" unicode="&#xa1;" horiz-adv-x="242" 
d="M121 640c53 0 96 -43 96 -95s-43 -95 -96 -95s-96 43 -96 95s43 95 96 95zM56 372h130l27 -668h-184z" />
    <glyph glyph-name="numbersign" unicode="#" horiz-adv-x="610" 
d="M585 585h-70v-250h70v-160h-70v-175h-170v175h-80v-175h-170v175h-70v160h70v250h-70v160h70v175h170v-175h80v175h170v-175h70v-160zM345 335v250h-80v-250h80z" />
    <glyph glyph-name="period" unicode="." horiz-adv-x="252" 
d="M126 -16c-53 0 -96 43 -96 95s43 95 96 95s96 -43 96 -95s-43 -95 -96 -95z" />
    <glyph glyph-name="question" unicode="?" horiz-adv-x="499" 
d="M35 588v144c0 148 87 197 217 197s217 -49 217 -197v-123c0 -214 -140 -165 -140 -287v-70h-175v90c0 203 136 144 136 267v122c0 37 -17 48 -38 48s-38 -11 -38 -48v-143h-179zM241 -16c-53 0 -96 43 -96 95s43 95 96 95s96 -43 96 -95s-43 -95 -96 -95z" />
    <glyph glyph-name="questiondown" unicode="&#xbf;" horiz-adv-x="499" 
d="M263 640c53 0 96 -43 96 -95s-43 -95 -96 -95s-96 43 -96 95s43 95 96 95zM469 36v-144c0 -148 -87 -197 -217 -197s-217 49 -217 197v123c0 214 140 165 140 287v70h175v-90c0 -203 -136 -144 -136 -267v-122c0 -37 17 -48 38 -48s38 11 38 48v143h179z" />
    <glyph glyph-name="quotedbl" unicode="&#x22;" horiz-adv-x="493" 
d="M63 480l-13 440h170l-13 -440h-144zM286 480l-13 440h170l-13 -440h-144z" />
    <glyph glyph-name="quotesingle" unicode="'" horiz-adv-x="270" 
d="M63 480l-13 440h170l-13 -440h-144z" />
    <glyph glyph-name="semicolon" unicode=";" horiz-adv-x="269" 
d="M143 599c-53 0 -96 43 -96 95s43 95 96 95s96 -43 96 -95s-43 -95 -96 -95zM64 -50c17 65 25 140 24 198h-58v150h200v-56c0 -138 -23 -238 -56 -292h-110z" />
    <glyph glyph-name="slash" unicode="/" horiz-adv-x="344" 
d="M40 0l91 920h173l-99 -920h-165z" />
    <glyph glyph-name="underscore" unicode="_" horiz-adv-x="630" 
d="M35 -160v160h560v-160h-560z" />
    <glyph glyph-name="braceleft" unicode="{" horiz-adv-x="507" 
d="M281 -105c-63 0 -113 31 -113 109v302l-123 144v20l123 144v302c0 78 51 109 113 109h181v-150h-79c-25 0 -41 -13 -41 -38v-232l-112 -135v-20l112 -135v-232c0 -25 16 -38 41 -38h79v-150h-181z" />
    <glyph glyph-name="braceright" unicode="}" horiz-adv-x="507" 
d="M226 -105h-181v150h79c25 0 41 13 41 38v232l112 135v20l-112 135v232c0 25 -16 38 -41 38h-79v150h181c62 0 113 -31 113 -109v-302l123 -144v-20l-123 -144v-302c0 -78 -50 -109 -113 -109z" />
    <glyph glyph-name="bracketleft" unicode="[" horiz-adv-x="375" 
d="M30 -105v1130h315v-150h-140v-830h140v-150h-315z" />
    <glyph glyph-name="bracketright" unicode="]" horiz-adv-x="375" 
d="M345 -105h-315v150h140v830h-140v150h315v-1130z" />
    <glyph glyph-name="parenleft" unicode="(" horiz-adv-x="397" 
d="M377 -105c-332 0 -347 257 -347 565c0 307 15 565 347 565v-150c-155 0 -169 -156 -169 -415c0 -260 14 -415 169 -415v-150z" />
    <glyph glyph-name="parenright" unicode=")" horiz-adv-x="397" 
d="M20 -105v150c155 0 169 155 169 415c0 259 -14 415 -169 415v150c332 0 347 -258 347 -565c0 -308 -15 -565 -347 -565z" />
    <glyph glyph-name="emdash" unicode="&#x2014;" horiz-adv-x="880" 
d="M30 380v160h820v-160h-820z" />
    <glyph glyph-name="endash" unicode="&#x2013;" horiz-adv-x="795" 
d="M30 380v160h735v-160h-735z" />
    <glyph glyph-name="hyphen" unicode="-" horiz-adv-x="340" 
d="M30 380v160h280v-160h-280z" />
    <glyph glyph-name="uni00AD" unicode="&#xad;" horiz-adv-x="340" 
d="M30 380v160h280v-160h-280z" />
    <glyph glyph-name="guillemotleft" unicode="&#xab;" horiz-adv-x="733" 
d="M425 140h-181l-194 280l194 280h181l-194 -280zM683 140h-181l-194 280l194 280h181l-194 -280z" />
    <glyph glyph-name="guillemotright" unicode="&#xbb;" horiz-adv-x="733" 
d="M50 140l194 280l-194 280h181l194 -280l-194 -280h-181zM308 140l194 280l-194 280h181l194 -280l-194 -280h-181z" />
    <glyph glyph-name="guilsinglleft" unicode="&#x2039;" horiz-adv-x="475" 
d="M425 140h-181l-194 280l194 280h181l-194 -280z" />
    <glyph glyph-name="guilsinglright" unicode="&#x203a;" horiz-adv-x="475" 
d="M50 140l194 280l-194 280h181l194 -280l-194 -280h-181z" />
    <glyph glyph-name="quotedblbase" unicode="&#x201e;" horiz-adv-x="500" 
d="M76 -220c12 74 26 202 21 284h-62v154h200v-46c0 -178 -30 -313 -58 -392h-101zM306 -220c12 74 26 202 21 284h-62v154h200v-46c0 -178 -30 -313 -58 -392h-101z" />
    <glyph glyph-name="quotedblleft" unicode="&#x201c;" horiz-adv-x="500" 
d="M194 920c-12 -74 -26 -202 -21 -284h62v-154h-200v46c0 178 30 313 58 392h101zM424 920c-12 -74 -26 -202 -21 -284h62v-154h-200v46c0 178 30 313 58 392h101z" />
    <glyph glyph-name="quotedblright" unicode="&#x201d;" horiz-adv-x="500" 
d="M76 482c12 74 26 202 21 284h-62v154h200v-46c0 -178 -30 -313 -58 -392h-101zM306 482c12 74 26 202 21 284h-62v154h200v-46c0 -178 -30 -313 -58 -392h-101z" />
    <glyph glyph-name="quoteleft" unicode="&#x2018;" horiz-adv-x="270" 
d="M194 920c-12 -74 -26 -202 -21 -284h62v-154h-200v46c0 178 30 313 58 392h101z" />
    <glyph glyph-name="quoteright" unicode="&#x2019;" horiz-adv-x="270" 
d="M76 482c12 74 26 202 21 284h-62v154h200v-46c0 -178 -30 -313 -58 -392h-101z" />
    <glyph glyph-name="quotesinglbase" unicode="&#x201a;" horiz-adv-x="270" 
d="M69 -198c17 65 25 140 24 198h-58v150h200v-56c0 -138 -23 -238 -56 -292h-110z" />
    <glyph glyph-name="space" unicode=" " horiz-adv-x="160" 
 />
    <glyph glyph-name="cent" unicode="&#xa2;" 
d="M464 527h-179v107c0 37 -17 48 -38 48s-38 -11 -38 -48v-348c0 -37 17 -48 38 -48s38 11 38 48v107h179v-98c0 -128 -57 -184 -147 -201v-94h-140v94c-90 17 -147 73 -147 201v330c0 128 57 184 147 201v94h140v-94c90 -17 147 -73 147 -201v-98z" />
    <glyph glyph-name="currency" unicode="&#xa4;" horiz-adv-x="678" 
d="M611 651c0 -49 -13 -94 -36 -133l53 -53l-85 -84l-49 49c-44 -30 -97 -48 -155 -48s-111 18 -155 48l-49 -49l-85 84l53 53c-23 39 -36 84 -36 133c0 50 14 97 38 136l-55 55l85 84l52 -52c43 29 96 46 152 46s109 -17 152 -46l52 52l85 -84l-55 -55
c24 -39 38 -86 38 -136zM339 492c108 0 163 92 163 159c0 66 -55 160 -163 160s-163 -94 -163 -160c0 -67 55 -159 163 -159z" />
    <glyph glyph-name="dollar" unicode="$" horiz-adv-x="491" 
d="M209 599c0 -111 252 -66 252 -288v-38c0 -109 -54 -163 -143 -180v-93h-140v93c-89 17 -143 72 -143 190v72h174v-71c0 -37 16 -48 39 -48c22 0 38 11 38 48v36c0 111 -251 66 -251 288v38c0 110 55 163 143 180v94h140v-94c88 -18 141 -73 141 -190v-72h-174v71
c0 37 -16 48 -38 48s-38 -11 -38 -48v-36z" />
    <glyph glyph-name="Euro" unicode="&#x20ac;" horiz-adv-x="549" 
d="M519 588h-179v143c0 37 -17 48 -38 48s-38 -11 -38 -48v-196h168v-53h-168v-46h168v-53h-168v-196c0 -37 17 -48 38 -48s38 11 38 48v145h179v-146c0 -148 -87 -197 -217 -197s-217 49 -217 197v197h-55v53h55v46h-55v53h55v197c0 148 87 197 217 197s217 -49 217 -197
v-144z" />
    <glyph glyph-name="florin" unicode="&#x192;" horiz-adv-x="754" 
d="M724 599h-179v130c0 37 -17 48 -38 48s-38 -11 -38 -48v-199h131v-140h-131v-202c0 -148 -87 -197 -217 -197s-217 49 -217 197v133h179v-132c0 -37 17 -48 38 -48s38 11 38 48v201h-130v140h130v200c0 148 87 197 217 197s217 -49 217 -197v-131z" />
    <glyph glyph-name="sterling" unicode="&#xa3;" horiz-adv-x="575" 
d="M276 150h269v-150h-520v150h72v203h-72v150h72v227c0 148 87 197 217 197s217 -49 217 -197v-142h-179v141c0 37 -17 48 -38 48s-38 -11 -38 -48v-226h140v-150h-140v-203z" />
    <glyph glyph-name="yen" unicode="&#xa5;" horiz-adv-x="534" 
d="M355 327v-3h124v-53h-124v-42h124v-53h-124v-176h-176v176h-123v53h123v42h-123v53h123v3l-159 593h171l71 -336h10l71 336h171z" />
    <glyph glyph-name="plus" unicode="+" horiz-adv-x="640" 
d="M595 545v-170h-185v-185h-180v185h-185v170h185v185h180v-185h185z" />
    <glyph glyph-name="minus" unicode="&#x2212;" horiz-adv-x="594" 
d="M30 375v170h534v-170h-534z" />
    <glyph glyph-name="multiply" unicode="&#xd7;" horiz-adv-x="599" 
d="M554 585l-130 -130l130 -131l-120 -121l-131 131l-131 -131l-127 128l131 131l-131 130l120 121l131 -131l131 131z" />
    <glyph glyph-name="divide" unicode="&#xf7;" horiz-adv-x="594" 
d="M301 627c-48 0 -87 39 -87 87c0 47 39 86 87 86s87 -39 87 -86c0 -48 -39 -87 -87 -87zM30 375v170h534v-170h-534zM301 120c-48 0 -87 39 -87 87c0 47 39 86 87 86s87 -39 87 -86c0 -48 -39 -87 -87 -87z" />
    <glyph glyph-name="equal" unicode="=" horiz-adv-x="594" 
d="M30 462v170h534v-170h-534zM30 207v170h534v-170h-534z" />
    <glyph glyph-name="notequal" unicode="&#x2260;" horiz-adv-x="614" 
d="M574 503h-175l-9 -85h184v-170h-202l-27 -248h-165l25 248h-165v170h181l9 85h-190v170h207l24 247h173l-27 -247h157v-170z" />
    <glyph glyph-name="greater" unicode="&#x3e;" horiz-adv-x="350" 
d="M40 131v180l156 142v14l-156 142v180l270 -230v-198z" />
    <glyph glyph-name="less" unicode="&#x3c;" horiz-adv-x="350" 
d="M310 131l-270 230v198l270 230v-180l-156 -142v-14l156 -142v-180z" />
    <glyph glyph-name="greaterequal" unicode="&#x2265;" horiz-adv-x="333" 
d="M30 241v180l156 142v14l-156 142v180l270 -230v-198zM303 28h-270v170h270v-170z" />
    <glyph glyph-name="lessequal" unicode="&#x2264;" horiz-adv-x="333" 
d="M303 241l-270 230v198l270 230v-180l-156 -142v-14l156 -142v-180zM30 28v170h270v-170h-270z" />
    <glyph glyph-name="plusminus" unicode="&#xb1;" horiz-adv-x="625" 
d="M410 664h185v-170h-185v-185h-180v185h-185v170h185v185h180v-185zM30 28v170h534v-170h-534z" />
    <glyph glyph-name="approxequal" unicode="&#x2248;" horiz-adv-x="471" 
d="M318 459c-95 0 -97 68 -154 68c-29 0 -51 -16 -52 -45h-77c-2 97 47 139 123 139c95 0 97 -68 154 -68c29 0 51 16 52 45h77c2 -97 -47 -139 -123 -139zM318 231c-95 0 -97 68 -154 68c-29 0 -51 -16 -52 -45h-77c-2 97 47 139 123 139c95 0 97 -68 154 -68
c29 0 51 16 52 45h77c2 -97 -47 -139 -123 -139z" />
    <glyph glyph-name="asciitilde" unicode="~" horiz-adv-x="471" 
d="M318 379c-95 0 -97 68 -154 68c-29 0 -51 -16 -52 -45h-77c-2 97 47 139 123 139c95 0 97 -68 154 -68c29 0 51 16 52 45h77c2 -97 -47 -139 -123 -139z" />
    <glyph glyph-name="logicalnot" unicode="&#xac;" horiz-adv-x="490" 
d="M465 545v-257h-180v97h-260v160h440z" />
    <glyph glyph-name="infinity" unicode="&#x221e;" horiz-adv-x="824" 
d="M602 626c117 0 173 -86 173 -205c0 -122 -56 -207 -173 -207c-86 0 -139 54 -190 125c-51 -71 -104 -125 -189 -125c-118 0 -174 85 -174 207c0 119 56 205 174 205c85 0 138 -54 189 -125c51 71 104 125 190 125zM240 328c42 0 68 33 115 93c-47 59 -73 92 -115 92
c-54 0 -73 -43 -73 -92c0 -51 19 -93 73 -93zM584 328c54 0 73 42 73 93c0 49 -19 92 -73 92c-42 0 -68 -33 -115 -92c47 -60 73 -93 115 -93z" />
    <glyph glyph-name="integral" unicode="&#x222b;" horiz-adv-x="754" 
d="M507 927c130 0 217 -49 217 -197v-131h-179v130c0 37 -17 48 -38 48s-38 -11 -38 -48v-541c0 -148 -87 -197 -217 -197s-217 49 -217 197v133h179v-132c0 -37 17 -48 38 -48s38 11 38 48v541c0 148 87 197 217 197z" />
    <glyph glyph-name="product" unicode="&#x220f;" horiz-adv-x="508" 
d="M478 920v-920h-180v760h-88v-760h-180v920h448z" />
    <glyph glyph-name="summation" unicode="&#x2211;" horiz-adv-x="430" 
d="M30 0v160l173 291l-173 309v160h370v-160h-183l165 -296v-26l-165 -278h183v-160h-370z" />
    <glyph glyph-name="radical" unicode="&#x221a;" horiz-adv-x="566" 
d="M373 920h173l-99 -920h-306l-41 382h-80v160h230l36 -380h16z" />
    <glyph glyph-name="uni00B5" unicode="&#xb5;" 
d="M285 920h179v-732c0 -148 -87 -197 -217 -197c-11 0 -22 0 -32 1v-142h-180v281c-3 17 -5 36 -5 57v732h185v-762c7 -12 19 -17 32 -17c21 0 38 11 38 48v731z" />
    <glyph glyph-name="partialdiff" unicode="&#x2202;" horiz-adv-x="492" 
d="M245 -9c-132 0 -215 50 -215 196v192c0 146 85 183 166 183c48 0 68 -13 87 -32l1 209c0 37 -17 48 -38 48s-37 -11 -37 -48v-129h-174v131c0 146 79 196 211 196s216 -50 216 -196v-554c0 -146 -85 -196 -217 -196zM246 141c22 0 38 11 38 48v173c0 37 -16 48 -38 48
s-38 -11 -38 -48v-173c0 -37 16 -48 38 -48z" />
    <glyph glyph-name="percent" unicode="%" horiz-adv-x="1124" 
d="M235 933c123 0 205 -50 205 -206v-172c0 -156 -82 -206 -205 -206s-205 50 -205 206v172c0 156 82 206 205 206zM276 0l402 920h170l-402 -920h-170zM273 734c0 38 -17 49 -38 49s-38 -11 -38 -49v-186c0 -38 17 -49 38 -49s38 11 38 49v186zM889 -13
c-123 0 -205 50 -205 206v172c0 156 82 206 205 206s205 -50 205 -206v-172c0 -156 -82 -206 -205 -206zM851 186c0 -38 17 -49 38 -49s38 11 38 49v186c0 38 -17 49 -38 49s-38 -11 -38 -49v-186z" />
    <glyph glyph-name="perthousand" unicode="&#x2030;" horiz-adv-x="1590" 
d="M235 933c123 0 205 -50 205 -206v-172c0 -156 -82 -206 -205 -206s-205 50 -205 206v172c0 156 82 206 205 206zM276 0l402 920h170l-402 -920h-170zM273 734c0 38 -17 49 -38 49s-38 -11 -38 -49v-186c0 -38 17 -49 38 -49s38 11 38 49v186zM889 -13
c-123 0 -205 50 -205 206v172c0 156 82 206 205 206s205 -50 205 -206v-172c0 -156 -82 -206 -205 -206zM1355 -13c-123 0 -205 50 -205 206v172c0 156 82 206 205 206s205 -50 205 -206v-172c0 -156 -82 -206 -205 -206zM851 186c0 -38 17 -49 38 -49s38 11 38 49v186
c0 38 -17 49 -38 49s-38 -11 -38 -49v-186zM1317 186c0 -38 17 -49 38 -49s38 11 38 49v186c0 38 -17 49 -38 49s-38 -11 -38 -49v-186z" />
    <glyph glyph-name="lozenge" unicode="&#x25ca;" horiz-adv-x="506" 
d="M100 0l-70 460l70 460h306l70 -460l-70 -460h-306zM245 162h16l44 298l-44 298h-16l-44 -298z" />
    <glyph glyph-name="at" unicode="@" horiz-adv-x="595" 
d="M334 929c162 0 231 -77 231 -244v-388c0 -86 -46 -117 -126 -117h-79c-80 0 -115 31 -115 117v177c0 86 35 117 115 117h65v94c0 69 -28 104 -91 104h-53c-63 0 -91 -35 -91 -104v-404c0 -98 35 -150 144 -150h57v-140h-88c-184 0 -273 76 -273 254v440
c0 167 89 244 251 244h53zM403 305c11 0 22 6 22 25v136h-32c-13 0 -23 -6 -23 -25v-111c0 -19 11 -25 22 -25h11z" />
    <glyph glyph-name="ampersand" unicode="&#x26;" horiz-adv-x="497" 
d="M467 530v-345c0 -147 -84 -196 -214 -196s-218 49 -218 196v127c0 58 18 111 79 142v8c-53 30 -71 72 -71 130v151c0 137 80 186 210 186s210 -49 210 -186v-134h-172v126c0 33 -17 44 -38 44s-38 -11 -38 -44v-161c0 -33 17 -45 38 -45zM292 183v202h-39
c-21 0 -39 -12 -39 -45v-157c0 -33 18 -44 39 -44s39 11 39 44z" />
    <glyph glyph-name="paragraph" unicode="&#xb6;" horiz-adv-x="725" 
d="M479 920v-920h-180v193h-89c-150 0 -180 55 -180 197v333c0 142 30 197 180 197h269zM515 920h180v-920h-180v920zM254 353h45v407h-45c-34 0 -44 -14 -44 -51v-305c0 -37 10 -51 44 -51z" />
    <glyph glyph-name="section" unicode="&#xa7;" horiz-adv-x="507" 
d="M209 699c0 -123 268 -14 268 -238v-278c0 -146 -85 -195 -221 -195c-137 0 -221 49 -221 195v52h174v-43c0 -40 24 -50 47 -50s46 10 46 50v29c0 123 -267 14 -267 238v278c0 146 85 195 220 195s219 -49 219 -195v-52h-174v43c0 40 -23 50 -45 50c-23 0 -46 -10 -46 -50
v-29zM209 469c0 -49 42 -61 93 -72v54c0 49 -42 61 -93 72v-54z" />
    <glyph glyph-name="copyright" unicode="&#xa9;" horiz-adv-x="491" 
d="M245 499c-126 0 -215 92 -215 216s89 217 215 217c127 0 216 -93 216 -217s-89 -216 -216 -216zM248 586c50 0 103 23 118 83h-49c-13 -25 -35 -40 -70 -40c-47 0 -83 32 -83 86c0 55 36 87 83 87c35 0 57 -16 70 -40h49c-15 60 -68 84 -118 84c-76 0 -132 -55 -132 -131
c0 -75 56 -129 132 -129z" />
    <glyph glyph-name="registered" unicode="&#xae;" horiz-adv-x="491" 
d="M245 499c-126 0 -215 92 -215 216s89 217 215 217c127 0 216 -93 216 -217s-89 -216 -216 -216zM143 587h49v78h82l45 -78h53l-52 88c27 13 46 38 46 75c0 54 -38 87 -106 87h-117v-250zM192 707v87h69c34 0 53 -14 53 -44c0 -28 -19 -43 -53 -43h-69z" />
    <glyph glyph-name="trademark" unicode="&#x2122;" horiz-adv-x="355" 
d="M135 920v-36h-35v-167h-40v167h-35v36h110zM261 920h69v-203h-38v164h-6l-17 -164h-52l-17 164h-6v-164h-38v203h69l15 -167h6z" />
    <glyph glyph-name="degree" unicode="&#xb0;" horiz-adv-x="456" 
d="M228 933c118 0 198 -50 198 -206v-172c0 -156 -80 -206 -198 -206s-198 50 -198 206v172c0 156 80 206 198 206zM266 734c0 38 -17 49 -38 49s-38 -11 -38 -49v-186c0 -38 17 -49 38 -49s38 11 38 49v186z" />
    <glyph glyph-name="bar" unicode="|" horiz-adv-x="240" 
d="M30 -84v1085h180v-1085h-180z" />
    <glyph glyph-name="brokenbar" unicode="&#xa6;" horiz-adv-x="240" 
d="M30 496v505h180v-505h-180zM210 421v-505h-180v505h180z" />
    <glyph glyph-name="dagger" unicode="&#x2020;" horiz-adv-x="640" 
d="M595 816v-170h-185v-185h-180v185h-185v170h185v185h180v-185h185z" />
    <glyph glyph-name="daggerdbl" unicode="&#x2021;" horiz-adv-x="640" 
d="M410 816h185v-170h-185v-185h-180v185h-185v170h185v185h180v-185zM410 456v-185h185v-170h-185v-185h-180v185h-185v170h185v185h180z" />
    <glyph glyph-name="uni2116" unicode="&#x2116;" horiz-adv-x="980" 
d="M763 927c123 0 187 -50 187 -195v-217c0 -145 -64 -194 -187 -194s-187 49 -187 194v217c0 145 64 195 187 195zM30 0v920h233l87 -625h11l-5 122v503h168v-920h-223l-97 625h-11l5 -122v-503h-168zM793 732c0 36 -11 45 -30 45s-30 -9 -30 -45v-211c0 -36 11 -45 30 -45
s30 9 30 45v211zM576 0v160h374v-160h-374z" />
    <glyph glyph-name="asciicircum" unicode="^" horiz-adv-x="758" 
d="M50 614l230 270h198l230 -270h-180l-142 156h-14l-142 -156h-180z" />
    <glyph glyph-name="uni0326" unicode="&#x326;" horiz-adv-x="0" 
d="M-173 -375c15 59 22 127 21 180h-52v136h181v-51c0 -125 -21 -216 -51 -265h-99z" />
    <glyph glyph-name="acute" unicode="&#xb4;" horiz-adv-x="210" 
d="M0 680l53 160h157l-53 -160h-157z" />
    <glyph glyph-name="breve" unicode="&#x2d8;" horiz-adv-x="346" 
d="M173 680c-117 0 -173 22 -173 120v40h117v-15c0 -28 20 -36 56 -36s56 8 56 36v15h117v-40c0 -98 -56 -120 -173 -120z" />
    <glyph glyph-name="caron" unicode="&#x2c7;" horiz-adv-x="328" 
d="M0 840h129l28 -70h14l28 70h129l-64 -160h-200z" />
    <glyph glyph-name="cedilla" unicode="&#xb8;" horiz-adv-x="190" 
d="M97 -42c40 -7 93 -33 93 -98c0 -108 -79 -120 -153 -120h-37v81h37c26 0 44 10 44 39c0 30 -18 38 -44 38h-37v58l51 44h95z" />
    <glyph glyph-name="circumflex" unicode="&#x2c6;" horiz-adv-x="328" 
d="M0 680l64 160h200l64 -160h-129l-28 70h-14l-28 -70h-129z" />
    <glyph glyph-name="dieresis" unicode="&#xa8;" horiz-adv-x="350" 
d="M73 692c-41 0 -73 32 -73 74s32 74 73 74s73 -32 73 -74s-32 -74 -73 -74zM277 692c-41 0 -73 32 -73 74s32 74 73 74s73 -32 73 -74s-32 -74 -73 -74z" />
    <glyph glyph-name="dotaccent" unicode="&#x2d9;" horiz-adv-x="154" 
d="M77 692c-42 0 -77 32 -77 74s35 74 77 74s77 -32 77 -74s-35 -74 -77 -74z" />
    <glyph glyph-name="grave" unicode="`" horiz-adv-x="210" 
d="M210 680h-157l-53 160h157z" />
    <glyph glyph-name="hungarumlaut" unicode="&#x2dd;" horiz-adv-x="435" 
d="M0 680l53 160h157l-53 -160h-157zM225 680l53 160h157l-53 -160h-157z" />
    <glyph glyph-name="macron" unicode="&#xaf;" horiz-adv-x="318" 
d="M0 691v144h318v-144h-318z" />
    <glyph glyph-name="ogonek" unicode="&#x2db;" horiz-adv-x="268" 
d="M268 0h-56c-41 0 -55 -23 -55 -49s14 -49 55 -49h56l-15 -120h-44c-137 0 -209 66 -209 169s82 149 209 149h59v-100z" />
    <glyph glyph-name="ring" unicode="&#x2da;" horiz-adv-x="232" 
d="M116 636c-69 0 -116 50 -116 115s47 114 116 114s116 -49 116 -114s-47 -115 -116 -115zM116 717c19 0 33 13 33 34c0 20 -14 33 -33 33s-33 -13 -33 -33c0 -21 14 -34 33 -34z" />
    <glyph glyph-name="tilde" unicode="&#x2dc;" horiz-adv-x="406" 
d="M283 677c-95 0 -97 68 -154 68c-29 0 -51 -16 -52 -45h-77c-2 97 47 139 123 139c95 0 97 -68 154 -68c29 0 51 16 52 45h77c2 -97 -47 -139 -123 -139z" />
    </font>
</defs>
</svg>
