<svg width="24" height="24" viewBox="0 0 24 24" fill="none" xmlns="http://www.w3.org/2000/svg">
<path d="M21 2.75C22.5188 2.75 23.75 3.98122 23.75 5.5V18.5C23.75 20.0188 22.5188 21.25 21 21.25H3C1.48122 21.25 0.25 20.0188 0.25 18.5V5.5C0.25 3.98122 1.48122 2.75 3 2.75H21ZM22.25 11.75H1.75V18.5C1.75 19.1904 2.30964 19.75 3 19.75H21C21.6904 19.75 22.25 19.1904 22.25 18.5V11.75ZM11 15.75C11.4142 15.75 11.75 16.0858 11.75 16.5C11.75 16.9142 11.4142 17.25 11 17.25H6C5.58579 17.25 5.25 16.9142 5.25 16.5C5.25 16.0858 5.58579 15.75 6 15.75H11ZM22.25 8.25H1.75V10.25H22.25V8.25ZM21 4.25H3C2.30964 4.25 1.75 4.80964 1.75 5.5V6.75H22.25V5.5C22.25 4.80964 21.6904 4.25 21 4.25Z" fill="#191A1A"/>
</svg>
