<svg width="24" height="24" viewBox="0 0 24 24" fill="none" xmlns="http://www.w3.org/2000/svg">
<path d="M21 2.75C22.5188 2.75 23.75 3.98122 23.75 5.5V18.5C23.75 20.0188 22.5188 21.25 21 21.25H3C1.48122 21.25 0.25 20.0188 0.25 18.5V5.5C0.25 3.98122 1.48122 2.75 3 2.75H21ZM21 4.25H3C2.30964 4.25 1.75 4.80964 1.75 5.5V18.5C1.75 19.1904 2.30964 19.75 3 19.75H21C21.6904 19.75 22.25 19.1904 22.25 18.5V5.5C22.25 4.80964 21.6904 4.25 21 4.25ZM5 6.75C5.41421 6.75 5.75 7.08579 5.75 7.5V16.5C5.75 16.9142 5.41421 17.25 5 17.25C4.58579 17.25 4.25 16.9142 4.25 16.5V7.5C4.25 7.08579 4.58579 6.75 5 6.75ZM19 6.75C19.4142 6.75 19.75 7.08579 19.75 7.5V16.5C19.75 16.9142 19.4142 17.25 19 17.25C18.5858 17.25 18.25 16.9142 18.25 16.5V7.5C18.25 7.08579 18.5858 6.75 19 6.75ZM12 6.75C12.4142 6.75 12.75 7.08579 12.75 7.5V15.5C12.75 15.9142 12.4142 16.25 12 16.25C11.5858 16.25 11.25 15.9142 11.25 15.5V7.5C11.25 7.08579 11.5858 6.75 12 6.75ZM8.5 6.75C8.91421 6.75 9.25 7.08579 9.25 7.5V13.5C9.25 13.9142 8.91421 14.25 8.5 14.25C8.08579 14.25 7.75 13.9142 7.75 13.5V7.5C7.75 7.08579 8.08579 6.75 8.5 6.75ZM15.5 6.75C15.9142 6.75 16.25 7.08579 16.25 7.5V12.5C16.25 12.9142 15.9142 13.25 15.5 13.25C15.0858 13.25 14.75 12.9142 14.75 12.5V7.5C14.75 7.08579 15.0858 6.75 15.5 6.75Z" fill="#191A1A"/>
</svg>
