<svg width="24" height="24" viewBox="0 0 24 24" fill="none" xmlns="http://www.w3.org/2000/svg">
<path d="M7.43003 1.21142C7.82723 0.539489 8.66211 0.267743 9.37872 0.577133L11.8898 1.66126C11.953 1.68856 12.0247 1.68856 12.088 1.66126L14.599 0.577133C15.3157 0.267743 16.1505 0.539489 16.5477 1.21142L17.9461 3.57697C17.981 3.63607 18.0387 3.67819 18.1056 3.69348L20.7778 4.30375C21.535 4.47667 22.0473 5.18327 21.9762 5.95668L21.724 8.70108C21.7178 8.76917 21.7397 8.83685 21.7846 8.88836L23.5946 10.9617L23.6898 11.0822C24.1021 11.6605 24.0704 12.4554 23.5946 13.0004L21.7846 15.0738C21.7397 15.1253 21.7178 15.193 21.724 15.2611L21.9762 18.0055C22.0473 18.7789 21.535 19.4855 20.7778 19.6584L18.1056 20.2686C18.0387 20.2839 17.981 20.3261 17.9461 20.3852L16.5477 22.7507C16.1505 23.4226 15.3157 23.6944 14.599 23.385L12.0893 22.3015C12.0259 22.2741 11.9539 22.2742 11.8906 22.3017L9.38136 23.3924C8.66417 23.7042 7.82708 23.4329 7.42913 22.7597L6.03167 20.3957C5.99674 20.3366 5.93904 20.2944 5.87212 20.2792L3.19978 19.6689C2.44275 19.496 1.93048 18.7896 2.00135 18.0163L2.25385 15.2611C2.26008 15.193 2.23818 15.1254 2.19322 15.0739L0.382329 12.9995C-0.126754 12.4163 -0.127527 11.5469 0.380518 10.9629L2.19352 8.87856C2.23829 8.82709 2.26008 8.75955 2.25384 8.69161L2.00172 5.94803C1.93051 5.17307 2.44498 4.46545 3.20412 4.29419L5.87227 3.69227C5.93946 3.67712 5.99742 3.63491 6.03247 3.57562L7.43003 1.21142ZM15.2173 1.95032L15.1936 1.95427L12.6825 3.03839C12.2398 3.22952 11.7379 3.22952 11.2952 3.03839L8.78415 1.95427C8.76104 1.94428 8.73411 1.95305 8.72129 1.97473L7.32373 4.33893C7.07839 4.75397 6.67268 5.0494 6.20237 5.1555L3.53422 5.75742C3.50973 5.76294 3.49313 5.78577 3.49543 5.81077L3.74755 8.55435C3.79125 9.02992 3.6387 9.50268 3.32527 9.86301L1.51227 11.9473C1.49589 11.9661 1.49591 11.9942 1.51233 12.013L3.32323 14.0874C3.6379 14.4479 3.79125 14.9215 3.74759 15.398L3.49509 18.1532C3.4928 18.1781 3.50933 18.2009 3.53375 18.2065L6.20609 18.8168C6.67455 18.9238 7.07841 19.2187 7.32293 19.6324L8.72039 21.9964C8.73323 22.0181 8.76023 22.0269 8.78337 22.0168L11.2926 20.9261C11.7362 20.7332 12.2398 20.7326 12.6839 20.9243L15.1936 22.0079C15.2167 22.0178 15.2437 22.0091 15.2565 21.9874L16.6548 19.6218C16.8994 19.2082 17.3032 18.9133 17.7717 18.8063L20.4438 18.196C20.4683 18.1905 20.4848 18.1677 20.4825 18.1427L20.2303 15.3983C20.1865 14.9217 20.3399 14.4479 20.6546 14.0873L22.4646 12.0139C22.481 11.9951 22.481 11.967 22.4646 11.9482L20.6546 9.87482C20.3399 9.51424 20.1865 9.04046 20.2303 8.56382L20.4825 5.81942C20.4848 5.79447 20.4683 5.77167 20.4438 5.76609L17.7717 5.15583C17.3032 5.04884 16.8994 4.75393 16.6548 4.34028L15.2565 1.97473C15.2437 1.95305 15.2167 1.94428 15.1936 1.95427L15.2173 1.95032ZM13.9127 8.50618C14.1779 8.18797 14.6508 8.14498 14.969 8.41015C15.2872 8.67533 15.3302 9.14825 15.065 9.46646L10.065 15.4665C9.79987 15.7847 9.32695 15.8277 9.00874 15.5625C8.69053 15.2973 8.64754 14.8244 8.91271 14.5062L13.9127 8.50618ZM14.9889 13.4863C15.5412 13.4863 15.9889 13.934 15.9889 14.4863C15.9889 15.0386 15.5412 15.4863 14.9889 15.4863C14.4366 15.4863 13.9889 15.0386 13.9889 14.4863C13.9889 13.934 14.4366 13.4863 14.9889 13.4863ZM8.98888 8.48632C9.54117 8.48632 9.98888 8.93403 9.98888 9.48632C9.98888 10.0386 9.54117 10.4863 8.98888 10.4863C8.43659 10.4863 7.98888 10.0386 7.98888 9.48632C7.98888 8.93403 8.43659 8.48632 8.98888 8.48632Z" fill="#191A1A"/>
</svg>
