<svg width="24" height="24" viewBox="0 0 24 24" fill="none" xmlns="http://www.w3.org/2000/svg">
<path fill-rule="evenodd" clip-rule="evenodd" d="M7.25 17.75C8.49264 17.75 9.5 18.7574 9.5 20C9.5 21.2426 8.49264 22.25 7.25 22.25C6.00736 22.25 5 21.2426 5 20C5 18.7574 6.00736 17.75 7.25 17.75ZM18.25 17.75C19.4926 17.75 20.5 18.7574 20.5 20C20.5 21.2426 19.4926 22.25 18.25 22.25C17.0074 22.25 16 21.2426 16 20C16 18.7574 17.0074 17.75 18.25 17.75ZM7.25 19.25C6.83579 19.25 6.5 19.5858 6.5 20C6.5 20.4142 6.83579 20.75 7.25 20.75C7.66421 20.75 8 20.4142 8 20C8 19.5858 7.66421 19.25 7.25 19.25ZM18.25 19.25C17.8358 19.25 17.5 19.5858 17.5 20C17.5 20.4142 17.8358 20.75 18.25 20.75C18.6642 20.75 19 20.4142 19 20C19 19.5858 18.6642 19.25 18.25 19.25ZM3.29113 0.480705L3.31492 0.506666C3.32724 0.520756 3.33903 0.535311 3.35028 0.550301C3.35821 0.560774 3.36617 0.57199 3.37382 0.583445C3.38628 0.602146 3.39784 0.621206 3.40855 0.640797C3.41376 0.650361 3.41893 0.660363 3.42388 0.670509C3.43522 0.693537 3.44538 0.717286 3.45431 0.741626C3.45584 0.746244 3.45732 0.750415 3.45876 0.754606L3.46304 0.766794C3.47042 0.789388 3.47676 0.812455 3.482 0.835937L3.48544 0.853058L3.891 2.885L21.1147 2.88534C22.3573 2.88534 23.3647 3.8927 23.3647 5.13534L23.357 5.32092L23.334 5.50524L22.6643 9.52368C22.304 11.6852 20.5156 13.3099 18.3494 13.4784L18.1316 13.4903L6.089 13.877L6.16388 14.2453C6.27239 14.7878 6.72249 15.1892 7.26331 15.2438L7.38961 15.2501H20.25C20.6642 15.2501 21 15.5859 21 16.0001C21 16.3798 20.7178 16.6936 20.3518 16.7433L20.25 16.7501H7.38961C6.13573 16.7501 5.04858 15.9036 4.73143 14.705L4.69301 14.5395L2.135 1.75H0.75C0.335786 1.75 0 1.41421 0 1C0 0.620304 0.282154 0.306509 0.648229 0.256847L0.75 0.25H2.75L2.78156 0.250635C2.79967 0.251383 2.81766 0.252788 2.83551 0.254831L2.75 0.25C2.80248 0.25 2.8537 0.25539 2.90314 0.265648C2.91396 0.268001 2.92521 0.27062 2.93638 0.273493C2.96631 0.281008 2.9952 0.290354 3.02328 0.301343C3.02546 0.30246 3.02841 0.303634 3.03135 0.304825C3.05031 0.31226 3.06812 0.320331 3.08554 0.32906C3.13863 0.355914 3.18879 0.388976 3.23447 0.427575C3.25018 0.44075 3.26556 0.454904 3.28033 0.46967L3.29113 0.480705ZM21.1147 4.38534L4.191 4.385L5.791 12.387L5.80862 12.3857L18.0834 11.9911C19.57 11.9433 20.8258 10.8945 21.1492 9.45855L21.1847 9.27708L21.8545 5.25864C21.8612 5.21789 21.8647 5.17665 21.8647 5.13534C21.8647 4.75565 21.5825 4.44185 21.2164 4.39219L21.1147 4.38534Z" fill="#191A1A"/>
</svg>
