<svg width="24" height="24" viewBox="0 0 24 24" fill="none" xmlns="http://www.w3.org/2000/svg">
<path d="M21 2.75C22.5188 2.75 23.75 3.98122 23.75 5.5V8.5C23.75 8.91421 23.4142 9.25 23 9.25C21.4812 9.25 20.25 10.4812 20.25 12C20.25 13.5188 21.4812 14.75 23 14.75C23.4142 14.75 23.75 15.0858 23.75 15.5V18.5C23.75 20.0188 22.5188 21.25 21 21.25H3C1.48122 21.25 0.25 20.0188 0.25 18.5V15.5C0.25 15.0858 0.585786 14.75 1 14.75C2.51878 14.75 3.75 13.5188 3.75 12C3.75 10.4812 2.51878 9.25 1 9.25C0.585786 9.25 0.25 8.91421 0.25 8.5V5.5C0.25 3.98122 1.48122 2.75 3 2.75H21ZM21 4.25H3C2.30964 4.25 1.75 4.80964 1.75 5.5V7.81597C3.73951 8.1702 5.25 9.9087 5.25 12C5.25 14.0913 3.73951 15.8298 1.75 16.184V18.5C1.75 19.1904 2.30964 19.75 3 19.75H21C21.6904 19.75 22.25 19.1904 22.25 18.5V16.184C20.2605 15.8298 18.75 14.0913 18.75 12C18.75 9.98082 20.1581 8.29052 22.0459 7.85751L22.25 7.81597V5.5C22.25 4.80964 21.6904 4.25 21 4.25ZM13.9238 8.51986C14.189 8.20165 14.6619 8.15866 14.9801 8.42383C15.2983 8.68901 15.3413 9.16193 15.0762 9.48014L10.0762 15.4801C9.81099 15.7983 9.33807 15.8413 9.01986 15.5762C8.70165 15.311 8.65866 14.8381 8.92383 14.5199L13.9238 8.51986ZM15 13.5C15.5523 13.5 16 13.9477 16 14.5C16 15.0523 15.5523 15.5 15 15.5C14.4477 15.5 14 15.0523 14 14.5C14 13.9477 14.4477 13.5 15 13.5ZM9 8.5C9.55229 8.5 10 8.94772 10 9.5C10 10.0523 9.55229 10.5 9 10.5C8.44771 10.5 8 10.0523 8 9.5C8 8.94772 8.44771 8.5 9 8.5Z" fill="#191A1A"/>
</svg>
