<svg width="24" height="24" viewBox="0 0 24 24" fill="none" xmlns="http://www.w3.org/2000/svg">
<path d="M17.6007 10.6254C17.6288 13.652 20.2559 14.6592 20.285 14.672C20.2628 14.7431 19.8652 16.1074 18.9009 17.5166C18.0673 18.735 17.2022 19.9489 15.8393 19.974C14.5001 19.9987 14.0695 19.1799 12.5385 19.1799C11.0079 19.1799 10.5295 19.9489 9.26178 19.9987C7.94625 20.0485 6.9445 18.6812 6.10398 17.4673C4.38648 14.9842 3.07395 10.4508 4.83634 7.39061C5.71186 5.87092 7.27647 4.90859 8.97473 4.88391C10.2665 4.85927 11.4859 5.753 12.2756 5.753C13.0648 5.753 14.5465 4.67821 16.1042 4.83606C16.7563 4.8632 18.5867 5.09947 19.7621 6.81993C19.6674 6.87864 17.578 8.09499 17.6007 10.6254V10.6254ZM15.0839 3.1933C15.7823 2.34789 16.2524 1.171 16.1242 0C15.1175 0.0404612 13.9001 0.670851 13.178 1.5158C12.5309 2.26404 11.9641 3.46164 12.117 4.60946C13.2391 4.69628 14.3855 4.03925 15.0839 3.1933" fill="#191A1A"/>
</svg>
