<svg width="24" height="24" viewBox="0 0 24 24" fill="none" xmlns="http://www.w3.org/2000/svg">
<path fill-rule="evenodd" clip-rule="evenodd" d="M16.3669 0.000595408C15.0905 0.0518956 13.6079 0.816118 12.71 1.86686C11.792 2.92824 11.2361 4.39365 11.4136 5.72552C11.4589 6.06553 11.7358 6.32755 12.0778 6.35401C13.4543 6.46051 14.9064 5.72859 15.8499 4.58586C16.7694 3.47291 17.2694 2.02612 17.1184 0.647519C17.0768 0.26791 16.7485 -0.0147403 16.3669 0.000595408ZM15.6577 1.60146L15.6521 1.64903C15.5435 2.35906 15.2166 3.07075 14.7294 3.66046L14.5926 3.81677C14.1217 4.32432 13.5099 4.69397 12.9042 4.84098L12.8617 4.84894L12.8759 4.7465C12.9906 4.07021 13.3341 3.36677 13.8119 2.81425C14.2424 2.31061 14.8787 1.88867 15.5095 1.65311L15.6577 1.60146ZM16.0995 5.85432L16.5488 5.88121C17.3531 5.94535 19.1081 6.28632 20.2657 7.98077L20.1226 8.07182C19.6122 8.41308 17.9457 9.69588 17.9667 12.0285C17.996 15.1884 20.6885 16.2788 20.8173 16.331L20.8218 16.3328L20.7261 16.6267C20.5491 17.1369 20.1189 18.2343 19.3496 19.3585L18.9838 19.8852C18.2022 20.9831 17.3451 21.9493 16.0931 21.9723C15.3973 21.9852 14.9321 21.7839 14.4484 21.5747C13.9419 21.3555 13.4151 21.1277 12.5821 21.1277C11.7101 21.1277 11.1592 21.3623 10.6284 21.5884C10.1681 21.7844 9.72297 21.974 9.09678 21.9986C7.6975 22.0515 6.63196 20.5972 5.73793 19.306C3.91107 16.6649 2.51498 11.8428 4.38958 8.58778C5.32084 6.97134 6.98508 5.94773 8.79145 5.92148C9.57052 5.90662 10.3248 6.20579 10.9851 6.46766C11.4893 6.66766 11.9387 6.84591 12.3024 6.84591C12.6284 6.84591 13.0655 6.6735 13.5753 6.47242C14.3053 6.18448 15.1843 5.83775 16.0995 5.85432ZM14.6279 7.62454L13.557 8.03493C13.5256 8.0465 13.4989 8.05616 13.4784 8.06329C13.0386 8.21643 12.6829 8.29913 12.3024 8.29913C11.9226 8.29913 11.5611 8.22082 11.1388 8.07835L10.8427 7.97205L10.2422 7.73676C9.56814 7.47302 9.16845 7.36778 8.81257 7.37456C7.53636 7.3931 6.33345 8.1248 5.64889 9.31304C4.30739 11.6424 5.02854 15.7259 6.93269 18.4788L7.20749 18.8679C8.08894 20.0893 8.63178 20.5619 9.03972 20.5465C9.25073 20.5382 9.41878 20.5032 9.67111 20.4095L10.1161 20.227C11.0262 19.8402 11.6435 19.6744 12.5821 19.6744C13.3903 19.6744 13.9549 19.8037 14.6854 20.0979L15.1288 20.2855C15.5658 20.473 15.7629 20.525 16.0663 20.5194C16.6213 20.5091 17.1217 20.0413 18.1503 18.5378C18.4635 18.0802 18.7333 17.5974 18.9607 17.1108L19.0253 16.964L18.8826 16.8577C18.7993 16.793 18.7167 16.7256 18.635 16.6553L18.3926 16.4361C17.24 15.3395 16.5304 13.8674 16.5135 12.0415C16.5001 10.548 17.0041 9.26588 17.8489 8.21458L18.0224 8.00741L18.1349 7.88327L17.9877 7.79144C17.5247 7.52333 17.0155 7.38022 16.5056 7.33498L16.2283 7.3164C15.8035 7.27336 15.3287 7.36893 14.6279 7.62454Z" fill="#191A1A"/>
</svg>
