<svg width="24" height="24" viewBox="0 0 24 24" fill="none" xmlns="http://www.w3.org/2000/svg">
<path fill-rule="evenodd" clip-rule="evenodd" d="M19.2147 1.69573L21.2622 3.74325L14.3418 10.7228C13.6517 10.0333 12.9931 9.37422 12.2943 8.67532L19.2147 1.69573ZM7.23457 10.5314C10.3925 10.5314 12.9686 13.1075 12.9686 16.2654C12.9686 19.4233 10.3925 22 7.23457 22C4.07608 22 1.5 19.4233 1.5 16.2654C1.5 13.1075 4.07608 10.5314 7.23457 10.5314ZM7.23457 12.9261C9.02513 12.9261 10.4861 14.4263 10.4861 16.2654C10.4861 18.1046 9.02513 19.6054 7.23457 19.6054C5.44343 19.6054 3.98243 18.1046 3.98243 16.2654C3.98243 14.4263 5.44343 12.9261 7.23457 12.9261ZM22.9779 12.8991V15.7948H15.8707V12.8991H22.9779ZM6.65684 0H9.55252V7.1072H6.65684V0Z" fill="#191A1A"/>
</svg>
