<svg width="24" height="24" viewBox="0 0 24 24" fill="none" xmlns="http://www.w3.org/2000/svg">
<path d="M12 1.25C17.9371 1.25 22.75 6.06294 22.75 12C22.75 17.9371 17.9371 22.75 12 22.75C6.06294 22.75 1.25 17.9371 1.25 12C1.25 6.06294 6.06294 1.25 12 1.25ZM12 2.75C6.89137 2.75 2.75 6.89137 2.75 12C2.75 16.8564 6.4925 20.8387 11.2507 21.2201L11.25 14.25H9.5C9.1203 14.25 8.80651 13.9678 8.75685 13.6018L8.75 13.5C8.75 13.0858 9.08579 12.75 9.5 12.75H11.25V10C11.25 7.92893 12.9289 6.25 15 6.25H16C16.4142 6.25 16.75 6.58579 16.75 7C16.75 7.41421 16.4142 7.75 16 7.75H15C13.7574 7.75 12.75 8.75736 12.75 10V12.75H14.5C14.8797 12.75 15.1935 13.0322 15.2432 13.3982L15.25 13.5C15.25 13.9142 14.9142 14.25 14.5 14.25H12.75L12.7503 21.22C17.4202 20.8452 21.1115 17.0018 21.2462 12.268L21.25 12C21.25 6.89137 17.1086 2.75 12 2.75Z" fill="#191A1A"/>
</svg>
