<svg width="24" height="24" viewBox="0 0 24 24" fill="none" xmlns="http://www.w3.org/2000/svg">
<path fill-rule="evenodd" clip-rule="evenodd" d="M2 4.27193C2 2.74103 3.23893 1.5 4.76722 1.5C5.22143 1.5 5.66866 1.612 6.06944 1.82611L20.5345 9.55391C21.8829 10.2743 22.3931 11.9534 21.6739 13.3042C21.4155 13.7894 21.0189 14.1867 20.5345 14.4455L6.06944 22.1733C4.72095 22.8938 3.04475 22.3827 2.32556 21.032C2.11181 20.6305 2 20.1825 2 19.7275V4.27193ZM5.35914 3.16019C5.24262 3.09794 5.11747 3.05468 4.98837 3.03159L13.428 11.0875L15.8982 8.79059L5.35914 3.16019ZM17.3073 9.54336L14.5227 12.1325L17.0827 14.5761L19.8242 13.1115C20.0444 12.9938 20.2246 12.8132 20.3421 12.5927C20.669 11.9787 20.4371 11.2155 19.8242 10.888L17.3073 9.54336ZM12.3196 12.1181L3.60194 3.79669C3.54227 3.94335 3.50939 4.10379 3.50939 4.27193V19.7275C3.50939 19.8964 3.54326 20.0631 3.60856 20.2179L12.3196 12.1181ZM5.02876 20.9603L13.4144 13.1631L15.6799 15.3255L5.35914 20.8393C5.2525 20.8962 5.14134 20.9363 5.02876 20.9603Z" fill="#191A1A"/>
</svg>
