<svg width="24" height="24" viewBox="0 0 24 24" fill="none" xmlns="http://www.w3.org/2000/svg">
<path d="M12.1837 20.25C7.52055 20.25 3.75 16.5549 3.75 12C3.75 7.44514 7.52055 3.75 12.1837 3.75C14.377 3.75 16.2925 4.5056 17.8196 5.89956C18.1256 6.17881 18.5999 6.15718 18.8792 5.85125C19.1584 5.54532 19.1368 5.07094 18.8309 4.79169C17.0296 3.14752 14.7543 2.25 12.1837 2.25C6.69883 2.25 2.25 6.60986 2.25 12C2.25 17.3901 6.69883 21.75 12.1837 21.75C17.8497 21.75 21.75 17.8103 21.75 12.2025L21.7369 11.7823C21.7184 11.3758 21.3792 11.0583 20.9724 11.0666L11.9847 11.2502C11.5706 11.2586 11.2417 11.6012 11.2502 12.0153C11.2586 12.4294 11.6012 12.7583 12.0153 12.7498L20.2431 12.5818C20.0765 17.157 16.889 20.25 12.1837 20.25Z" fill="#191A1A"/>
</svg>
