<svg width="24" height="24" viewBox="0 0 24 24" fill="none" xmlns="http://www.w3.org/2000/svg">
<path fill-rule="evenodd" clip-rule="evenodd" d="M15.8668 7.35561C15.1445 6.67778 13.8779 5.86666 12.0001 5.86666C9.35568 5.86666 7.11124 7.61114 6.30005 10.0223L6.29996 10.0222C6.09997 10.6444 5.97781 11.311 5.97781 11.9999C5.97781 12.6887 6.09997 13.3554 6.31105 13.9776L6.31118 13.9776C7.11127 16.3887 9.35573 18.1331 12.0002 18.1331C13.489 18.1331 14.6223 17.7221 15.4667 17.1332L15.4667 17.1332C16.8001 16.1999 17.4001 14.811 17.5112 13.8887H12.0001V10.1776H21.389C21.5334 10.7999 21.6001 11.3999 21.6001 12.2221C21.6001 15.2665 20.5112 17.8331 18.6224 19.5776L18.6225 19.5777C16.9669 21.111 14.7002 21.9999 12.0002 21.9999C8.089 21.9999 4.71118 19.7554 3.06672 16.4887L3.06665 16.4888C2.3889 15.1332 2 13.611 2 11.9999C2 10.3888 2.3889 8.86651 3.06665 7.51093L3.06684 7.51084C4.71133 4.24432 8.08906 2 12.0001 2C14.7001 2 16.9557 2.9889 18.689 4.60002L15.8668 7.35561Z" fill="#191A1A"/>
</svg>
