<svg width="24" height="24" viewBox="0 0 24 24" fill="none" xmlns="http://www.w3.org/2000/svg">
<path d="M16.5 1.75C19.6756 1.75 22.25 4.32436 22.25 7.5V16.5C22.25 19.6756 19.6756 22.25 16.5 22.25H7.5C4.32436 22.25 1.75 19.6756 1.75 16.5V7.5C1.75 4.32436 4.32436 1.75 7.5 1.75H16.5ZM16.5 3.25H7.5C5.15279 3.25 3.25 5.15279 3.25 7.5V16.5C3.25 18.8472 5.15279 20.75 7.5 20.75H16.5C18.8472 20.75 20.75 18.8472 20.75 16.5V7.5C20.75 5.15279 18.8472 3.25 16.5 3.25ZM12 7.25C14.6234 7.25 16.75 9.37665 16.75 12C16.75 14.6234 14.6234 16.75 12 16.75C9.37665 16.75 7.25 14.6234 7.25 12C7.25 9.37665 9.37665 7.25 12 7.25ZM12 8.75C10.2051 8.75 8.75 10.2051 8.75 12C8.75 13.7949 10.2051 15.25 12 15.25C13.7949 15.25 15.25 13.7949 15.25 12C15.25 10.2051 13.7949 8.75 12 8.75ZM17.5 5.5C18.0523 5.5 18.5 5.94772 18.5 6.5C18.5 7.05228 18.0523 7.5 17.5 7.5C16.9477 7.5 16.5 7.05228 16.5 6.5C16.5 5.94772 16.9477 5.5 17.5 5.5Z" fill="#191A1A"/>
</svg>
