<svg width="24" height="24" viewBox="0 0 24 24" fill="none" xmlns="http://www.w3.org/2000/svg">
<path fill-rule="evenodd" clip-rule="evenodd" d="M22.25 7.5C22.25 4.32436 19.6756 1.75 16.5 1.75H7.5C4.32436 1.75 1.75 4.32436 1.75 7.5V16.5C1.75 19.6756 4.32436 22.25 7.5 22.25H16.5C19.6756 22.25 22.25 19.6756 22.25 16.5V7.5ZM7.5 3.25H16.5C18.8472 3.25 20.75 5.15279 20.75 7.5V16.5C20.75 18.8472 18.8472 20.75 16.5 20.75H7.5C5.15279 20.75 3.25 18.8472 3.25 16.5V7.5C3.25 5.15279 5.15279 3.25 7.5 3.25ZM7.5 6.5C8.05228 6.5 8.5 6.94772 8.5 7.5C8.5 8.05228 8.05228 8.5 7.5 8.5C6.94772 8.5 6.5 8.05228 6.5 7.5C6.5 6.94772 6.94772 6.5 7.5 6.5ZM6.75 10.5C6.75 10.0858 7.08579 9.75 7.5 9.75C7.91421 9.75 8.25 10.0858 8.25 10.5V16.5C8.25 16.9142 7.91421 17.25 7.5 17.25C7.08579 17.25 6.75 16.9142 6.75 16.5V10.5ZM13.5 9.75C11.4289 9.75 9.75 11.4289 9.75 13.5V16.5C9.75 16.9142 10.0858 17.25 10.5 17.25C10.9142 17.25 11.25 16.9142 11.25 16.5V13.5C11.25 12.2574 12.2574 11.25 13.5 11.25C14.7426 11.25 15.75 12.2574 15.75 13.5V16.5C15.75 16.9142 16.0858 17.25 16.5 17.25C16.9142 17.25 17.25 16.9142 17.25 16.5V13.5C17.25 11.4289 15.5711 9.75 13.5 9.75Z" fill="#191A1A"/>
</svg>
