<svg width="24" height="24" viewBox="0 0 24 24" fill="none" xmlns="http://www.w3.org/2000/svg">
<path d="M23.7337 3.27821C23.6967 2.723 23.0893 2.3999 22.6083 2.67961C21.8803 3.10293 21.0926 3.41773 20.2712 3.6142C18.5964 2.12706 16.1353 1.81465 14.1179 2.87264C12.2718 3.84085 11.1888 5.75157 11.2675 7.7514C8.09369 7.36697 5.18049 5.79588 3.15095 3.34901C2.77238 2.89259 2.03888 3.03528 1.85902 3.60032C-0.220163 10.132 2.13994 15.5478 6.09762 17.3131C4.87348 17.9429 3.50402 18.2768 2.10503 18.2754C1.76535 18.2748 1.42532 18.2546 1.08739 18.215C0.29364 18.1219 -0.07579 19.1693 0.60075 19.5948C2.8422 21.0043 5.44938 21.7517 8.11144 21.7483C16.181 21.7516 21.901 15.5168 22.0562 8.36615L22.0574 7.74334C23.3965 6.14915 23.8483 5.00291 23.7337 3.27821ZM8.32301 17.6699C8.83961 17.272 8.63747 16.4499 7.99528 16.337C4.27942 15.6836 1.58057 11.2492 2.93841 5.3319C5.36815 7.72167 8.62898 9.156 12.0974 9.32639C12.5961 9.35089 12.9791 8.89032 12.864 8.40443C12.4688 6.73602 13.2659 5.01324 14.8146 4.20104C16.3701 3.38526 18.2923 3.69377 19.4985 4.95068C19.6747 5.1343 19.9321 5.21602 20.1819 5.16774C20.8656 5.03564 21.5323 4.83431 22.1714 4.56767C22.0081 5.32926 21.576 6.01398 20.7297 6.98827C20.5993 7.1383 20.5339 7.33391 20.5477 7.53216L20.555 7.67134L20.5594 8.0677C20.5594 14.5471 15.4274 20.2513 8.11079 20.2483C6.87982 20.2499 5.66248 20.0721 4.49712 19.726L4.06261 19.5883C5.60791 19.2888 7.06935 18.6354 8.32301 17.6699Z" fill="#191A1A"/>
</svg>
