<svg width="24" height="24" viewBox="0 0 24 24" fill="none" xmlns="http://www.w3.org/2000/svg">
<path d="M12.0062 0.800049L12.3512 0.805323C15.2169 0.891999 17.8984 2.04416 19.9321 4.07049C22.0474 6.1781 23.2135 8.98386 23.2124 11.964C23.2099 18.117 18.1817 23.1196 12.0018 23.1196C10.2294 23.119 8.48437 22.7005 6.9137 21.902L2.90903 22.9475C2.65416 23.014 2.38626 23.0123 2.13228 22.9424C1.33352 22.7227 0.864126 21.897 1.08386 21.0983L2.1409 17.2558L1.95861 16.9047C1.19669 15.3711 0.799283 13.6802 0.799989 11.955C0.802464 5.80271 5.82958 0.800049 12.0062 0.800049ZM12.006 2.30005L11.7302 2.3039C6.50734 2.44983 2.30209 6.72482 2.29999 11.9556C2.29929 13.6559 2.74506 15.3164 3.59455 16.7815C3.69543 16.9555 3.7222 17.1627 3.66886 17.3567L2.53013 21.4961L6.81582 20.3773C7.00007 20.3292 7.19572 20.353 7.36307 20.4438C8.78189 21.214 10.3787 21.619 12.002 21.6196C17.3551 21.6196 21.7102 17.2866 21.7124 11.9634C21.7133 9.38251 20.7062 6.95927 18.8733 5.13308C17.0396 3.30595 14.6045 2.30111 12.006 2.30005ZM8.95442 5.55005C9.46031 5.55005 9.93714 5.76224 10.2878 6.11225L10.4617 6.27586C10.578 6.38866 10.6955 6.50958 10.8172 6.64262L10.8659 6.6971L11.6648 7.50809C12.0609 7.90241 12.2799 8.37645 12.2799 8.88982C12.2799 9.39918 12.0519 9.88618 11.6648 10.2716L11.276 10.6581C11.3636 10.7925 11.4694 10.9363 11.5981 11.0965C12.1805 11.809 12.7821 12.3581 13.3642 12.7287L13.7602 12.3345C14.145 11.9514 14.6207 11.7367 15.1303 11.7367C15.656 11.7367 16.1396 11.955 16.5004 12.3345L17.867 13.6948C18.6554 14.4796 18.6596 15.623 17.8864 16.4252L17.7837 16.5358C17.6833 16.6402 17.5908 16.7251 17.5149 16.7815C17.3667 16.9167 17.2522 17.0331 17.1107 17.197L16.9624 17.3475C16.471 17.808 15.8427 18.05 15.1434 18.05L14.9399 18.0486C14.0968 17.997 13.3282 17.7477 12.4775 17.3341C10.8891 16.5646 9.50668 15.4889 8.35191 14.1178C7.40608 12.9825 6.75751 11.902 6.32907 10.7362C6.05365 9.95942 5.91974 9.32294 5.97351 8.58817C6.02831 7.97001 6.28776 7.42534 6.73023 6.98491L7.59889 6.12063C7.98499 5.75654 8.45447 5.55005 8.95442 5.55005ZM8.95442 7.05005C8.85821 7.05005 8.74849 7.09831 8.64255 7.19783L7.78844 8.04801C7.59393 8.24162 7.49095 8.45782 7.46859 8.70904C7.43433 9.17801 7.53099 9.63745 7.73991 10.2268C8.10294 11.2145 8.66342 12.1483 9.50177 13.1546C10.5184 14.3616 11.7328 15.3065 13.1324 15.9846C13.8231 16.3204 14.4199 16.514 14.9858 16.55H15.1434C15.4919 16.55 15.7702 16.4333 16.0155 16.1731L16.1032 16.0729C16.2239 15.9392 16.3627 15.803 16.5502 15.6345C16.62 15.5805 16.6913 15.5116 16.7784 15.414L16.865 15.3168C17.0122 15.1252 16.9918 14.9401 16.8088 14.7579L15.428 13.3831C15.3294 13.2795 15.2346 13.2367 15.1303 13.2367C15.0361 13.2367 14.9335 13.2831 14.8184 13.3976L14.03 14.1824C13.787 14.4243 13.4108 14.4706 13.1164 14.2947L12.8895 14.1794L12.658 14.0522C11.8587 13.555 11.1268 12.89 10.4328 12.041C10.0713 11.5912 9.8289 11.2094 9.65704 10.8051C9.53345 10.5143 9.60534 10.1773 9.8368 9.96223L10.0351 9.77406L10.6066 9.20845C10.7257 9.08983 10.7799 8.97415 10.7799 8.88982C10.7799 8.79826 10.7333 8.69728 10.6014 8.56604L9.76029 7.71156L9.69046 7.63213C9.56064 7.49116 9.41836 7.34954 9.25314 7.19783C9.15039 7.09555 9.04813 7.05005 8.95442 7.05005Z" fill="#191A1A"/>
</svg>
