<svg width="24" height="24" viewBox="0 0 24 24" fill="none" xmlns="http://www.w3.org/2000/svg">
<path d="M11.61 3.25L13.1403 3.25644L14.2056 3.27243C14.9962 3.28726 15.7772 3.30878 16.5193 3.33822C18.5859 3.42018 20.0609 3.54898 20.7958 3.75361C22.0035 4.08891 22.9473 5.06939 23.2666 6.30996L23.3173 6.52047C23.4482 7.10217 23.5456 7.84549 23.6168 8.72148C23.6753 9.44008 23.7126 10.2068 23.7334 10.9732C23.7407 11.241 23.7453 11.4899 23.7479 11.7135L23.75 11.9986L23.7334 13.0241C23.7126 13.7905 23.6752 14.5573 23.6168 15.276C23.5367 16.2615 23.4234 17.0791 23.2666 17.6872C22.9475 18.9277 22.0036 19.9082 20.7963 20.2436C20.2339 20.4001 19.2391 20.5123 17.8779 20.593L17.2239 20.6281L16.5193 20.659C15.5298 20.6982 14.4713 20.7234 13.4129 20.7374L12.3901 20.7472L10.8597 20.7408L9.79438 20.7248C9.00377 20.7099 8.2228 20.6884 7.48069 20.659C5.41409 20.5771 3.93911 20.4483 3.20403 20.2437C1.99635 19.9082 1.05246 18.9276 0.733404 17.6875C0.576526 17.0791 0.463303 16.2614 0.383208 15.276C0.3248 14.5573 0.287406 13.7905 0.266644 13.0241L0.250488 12.1105L0.266641 10.9732C0.2874 10.2069 0.324787 9.44009 0.383185 8.7215C0.463282 7.7359 0.576513 6.91824 0.733303 6.3102C1.05245 5.06958 1.99638 4.08896 3.20361 3.75376C3.76602 3.59717 4.7609 3.485 6.12208 3.40424L6.7761 3.36914L7.48068 3.33822C8.47016 3.29898 9.52874 3.27378 10.5871 3.25979L11.61 3.25ZM12.3816 4.74998L10.8766 4.75635L9.82348 4.77215C9.04228 4.7868 8.27118 4.80805 7.54013 4.83704C5.60433 4.91382 4.18401 5.03784 3.60543 5.19893C2.91989 5.38928 2.37285 5.95759 2.1859 6.68432C2.05497 7.19206 1.95199 7.93571 1.87826 8.843C1.8223 9.53156 1.78617 10.2725 1.76609 11.0138L1.76141 11.1982C1.75297 11.5543 1.75003 11.8318 1.75003 11.9986L1.75764 12.6277L1.78423 13.5386C1.80548 14.0921 1.8363 14.638 1.87828 15.1544C1.95201 16.0616 2.05499 16.8052 2.186 17.3134C2.37284 18.0396 2.91992 18.608 3.6059 18.7985C4.18398 18.9594 5.60431 19.0834 7.54012 19.1602L8.28341 19.1866C9.03784 19.2106 9.82232 19.2272 10.6069 19.2375L11.6185 19.2472L13.1234 19.2408L14.1765 19.2251C14.9577 19.2104 15.7288 19.1892 16.4598 19.1602C18.3957 19.0834 19.816 18.9594 20.3944 18.7984C21.0801 18.608 21.6271 18.0397 21.814 17.313C21.945 16.8052 22.048 16.0616 22.1217 15.1544C22.1777 14.4658 22.2139 13.7249 22.234 12.9835L22.2424 12.6277L22.25 11.9986L22.2424 11.3696L22.2158 10.4587C22.1946 9.90529 22.1637 9.35943 22.1218 8.84301C22.048 7.93574 21.945 7.1921 21.8139 6.6839C21.6271 5.95753 21.0801 5.38927 20.394 5.19879C19.816 5.03784 18.3956 4.91382 16.4598 4.83704L15.7166 4.81058C14.9622 4.78663 14.1777 4.77003 13.3931 4.75966L12.3816 4.74998ZM9.16351 8.96908C9.50489 8.36903 10.2681 8.15934 10.8681 8.50071L15.1069 10.9122C15.3023 11.0234 15.4642 11.1852 15.5753 11.3806C15.9167 11.9807 15.707 12.7439 15.1069 13.0852L10.8681 15.4966L10.7523 15.5547C10.5944 15.624 10.4234 15.6601 10.25 15.6601C9.55964 15.6601 8.99999 15.1004 8.99999 14.4101V9.58719C8.99999 9.37046 9.05634 9.15746 9.16351 8.96908ZM10.5 10.017V13.9802L13.9832 11.9987L10.5 10.017Z" fill="#191A1A"/>
</svg>
