<svg width="24" height="24" viewBox="0 0 24 24" fill="none" xmlns="http://www.w3.org/2000/svg">
<path fill-rule="evenodd" clip-rule="evenodd" d="M23.75 5.5C23.75 3.98122 22.5188 2.75 21 2.75H3C1.48122 2.75 0.25 3.98122 0.25 5.5V18.5C0.25 20.0188 1.48122 21.25 3 21.25H21C22.5188 21.25 23.75 20.0188 23.75 18.5V5.5ZM3 4.25H21C21.6904 4.25 22.25 4.80964 22.25 5.5V15.5285L19.5755 12.3191C18.4932 11.0204 16.5065 10.9965 15.3933 12.2687L13.8456 14.0375L9.55975 9.56528C8.43942 8.39625 6.55659 8.44336 5.49613 9.66697L1.75 13.9894V5.5C1.75 4.80964 2.30964 4.25 3 4.25ZM19.3201 19.75L14.8875 15.1247L16.5222 13.2565C17.0282 12.6782 17.9312 12.689 18.4232 13.2794L22.25 17.8716V18.5C22.25 19.1904 21.6904 19.75 21 19.75H19.3201ZM8.47677 10.6031L17.2425 19.75H3C2.30964 19.75 1.75 19.1904 1.75 18.5V16.2797L6.62967 10.6494C7.11169 10.0932 7.96753 10.0718 8.47677 10.6031ZM17.5 9.5C18.1904 9.5 18.75 8.94036 18.75 8.25C18.75 7.55964 18.1904 7 17.5 7C16.8096 7 16.25 7.55964 16.25 8.25C16.25 8.94036 16.8096 9.5 17.5 9.5Z" fill="#191A1A"/>
</svg>
