<svg width="24" height="24" viewBox="0 0 24 24" fill="none" xmlns="http://www.w3.org/2000/svg">
<path d="M18.5 1.75C20.0188 1.75 21.25 2.98122 21.25 4.5V19.5C21.25 21.0188 20.0188 22.25 18.5 22.25H5.5C3.98122 22.25 2.75 21.0188 2.75 19.5V4.5C2.75 2.98122 3.98122 1.75 5.5 1.75H18.5ZM18.5 3.25H5.5C4.80964 3.25 4.25 3.80964 4.25 4.5V19.5C4.25 20.1904 4.80964 20.75 5.5 20.75H18.5C19.1904 20.75 19.75 20.1904 19.75 19.5V4.5C19.75 3.80964 19.1904 3.25 18.5 3.25ZM12 15.35C12.4142 15.35 12.75 15.6858 12.75 16.1C12.75 16.5142 12.4142 16.85 12 16.85H8C7.58579 16.85 7.25 16.5142 7.25 16.1C7.25 15.6858 7.58579 15.35 8 15.35H12ZM16 11.35C16.4142 11.35 16.75 11.6858 16.75 12.1C16.75 12.5142 16.4142 12.85 16 12.85H8C7.58579 12.85 7.25 12.5142 7.25 12.1C7.25 11.6858 7.58579 11.35 8 11.35H16ZM16 7.1C16.4142 7.1 16.75 7.43579 16.75 7.85C16.75 8.26421 16.4142 8.6 16 8.6H8C7.58579 8.6 7.25 8.26421 7.25 7.85C7.25 7.43579 7.58579 7.1 8 7.1H16Z" fill="#191A1A"/>
</svg>
