<svg width="25" height="24" viewBox="0 0 25 24" fill="none" xmlns="http://www.w3.org/2000/svg">
<path d="M11.2859 18.5407L18.8873 10.9393C20.45 9.37658 20.45 6.84514 18.8873 5.28244C17.3246 3.71973 14.7932 3.71973 13.2305 5.28244L4.39165 14.1213C3.41584 15.0971 3.41584 16.681 4.39165 17.6568C5.36746 18.6326 6.95138 18.6326 7.92718 17.6568L15.3518 10.2322C15.7407 9.84328 15.7407 9.20688 15.3518 8.81797C14.9629 8.42906 14.3265 8.42906 13.9376 8.81797L7.75041 15.0052C7.45751 15.298 6.98264 15.298 6.68975 15.0052C6.39685 14.7123 6.39685 14.2374 6.68975 13.9445L12.8769 7.75731C13.8527 6.7815 15.4367 6.7815 16.4125 7.75731C17.3883 8.73312 17.3883 10.317 16.4125 11.2928L8.98784 18.7175C7.42514 20.2802 4.8937 20.2802 3.33099 18.7175C1.76828 17.1548 1.76828 14.6233 3.33099 13.0606L12.1698 4.22178C14.3194 2.07217 17.7984 2.07217 19.948 4.22178C22.0976 6.37138 22.0976 9.85034 19.948 12L12.3466 19.6013C12.0537 19.8942 11.5788 19.8942 11.2859 19.6013C10.993 19.3085 10.993 18.8336 11.2859 18.5407Z" fill="#191A1A"/>
</svg>
