<svg width="25" height="24" viewBox="0 0 25 24" fill="none" xmlns="http://www.w3.org/2000/svg">
<path d="M12.0024 1.25C17.9417 1.25 22.7524 6.06079 22.7524 12C22.7524 17.9392 17.9417 22.75 12.0024 22.75C6.06323 22.75 1.25244 17.9392 1.25244 12C1.25244 6.06079 6.06323 1.25 12.0024 1.25ZM19.0312 5.9848C18.9936 6.05385 18.95 6.11312 18.8967 6.16637L6.16881 18.8943C6.11418 18.9489 6.05323 18.9934 5.9883 19.0276C7.60422 20.4137 9.70518 21.25 12.0024 21.25C17.1132 21.25 21.2524 17.1108 21.2524 12C21.2524 9.70274 20.4161 7.60178 19.0312 5.9848ZM12.0024 2.75C6.89165 2.75 2.75244 6.88921 2.75244 12C2.75244 14.2973 3.58874 16.3982 4.97367 18.0152C5.00909 17.9492 5.05352 17.8883 5.10815 17.8336L17.8361 5.10571C17.8907 5.05108 17.9517 5.00665 18.0166 4.9724C16.4007 3.5863 14.2997 2.75 12.0024 2.75Z" fill="#191A1A"/>
</svg>
