<svg width="24" height="24" viewBox="0 0 24 24" fill="none" xmlns="http://www.w3.org/2000/svg">
<path d="M14.4386 2.75C15.0488 2.75 15.6149 3.06779 15.9326 3.58867L17.1779 5.63019C17.2233 5.7046 17.3042 5.75 17.3914 5.75H20C21.5142 5.75 22.75 6.98579 22.75 8.5V18.5C22.75 20.0142 21.5142 21.25 20 21.25H4C2.48579 21.25 1.25 20.0142 1.25 18.5V8.5C1.25 6.98579 2.48579 5.75 4 5.75H6.60863C6.6958 5.75 6.77667 5.7046 6.82206 5.63019L8.06739 3.58867L8.15188 3.46275C8.47978 3.01703 9.00207 2.75 9.56137 2.75H14.4386ZM14.4386 4.25H9.56137C9.4742 4.25 9.39333 4.2954 9.34794 4.36981L8.10261 6.41133C7.78488 6.93221 7.21878 7.25 6.60863 7.25H4C3.31421 7.25 2.75 7.81421 2.75 8.5V18.5C2.75 19.1858 3.31421 19.75 4 19.75H20C20.6858 19.75 21.25 19.1858 21.25 18.5V8.5C21.25 7.81421 20.6858 7.25 20 7.25H17.3914C16.7812 7.25 16.2151 6.93221 15.8974 6.41133L14.6521 4.36981C14.6067 4.2954 14.5258 4.25 14.4386 4.25ZM12 9C14.2087 9 16 10.7913 16 13C16 15.2087 14.2087 17 12 17C9.79127 17 8 15.2087 8 13C8 10.7913 9.79127 9 12 9ZM12 10.5C10.6197 10.5 9.5 11.6197 9.5 13C9.5 14.3803 10.6197 15.5 12 15.5C13.3803 15.5 14.5 14.3803 14.5 13C14.5 11.6197 13.3803 10.5 12 10.5Z" fill="#191A1A"/>
</svg>
