<svg width="25" height="24" viewBox="0 0 25 24" fill="none" xmlns="http://www.w3.org/2000/svg">
<path d="M20.0024 1.75C21.5167 1.75 22.7524 2.98579 22.7524 4.5V16.5C22.7524 18.0142 21.5167 19.25 20.0024 19.25H7.26553L4.09682 21.785C3.34211 22.3887 2.24085 22.2664 1.63708 21.5117C1.38863 21.2011 1.25338 20.8152 1.2536 20.4175L1.26245 4.5C1.26245 2.98503 2.48896 1.75 4.00244 1.75H20.0024ZM20.0024 3.25H4.00244C3.36239 3.25 2.83259 3.7432 2.76887 4.37244L2.76244 4.50042L2.7536 20.4183C2.7536 20.4751 2.77289 20.5303 2.80838 20.5746C2.89464 20.6824 3.05196 20.6999 3.15978 20.6137L6.73936 17.75H20.0024C20.6882 17.75 21.2524 17.1858 21.2524 16.5V4.5C21.2524 3.81421 20.6882 3.25 20.0024 3.25ZM12.0024 12.5C12.5547 12.5 13.0024 12.9477 13.0024 13.5C13.0024 14.0523 12.5547 14.5 12.0024 14.5C11.4502 14.5 11.0024 14.0523 11.0024 13.5C11.0024 12.9477 11.4502 12.5 12.0024 12.5ZM12.003 5.75C12.4172 5.75 12.753 6.08579 12.753 6.5V10.5C12.753 10.9142 12.4172 11.25 12.003 11.25C11.5888 11.25 11.253 10.9142 11.253 10.5V6.5C11.253 6.08579 11.5888 5.75 12.003 5.75Z" fill="#191A1A"/>
</svg>
