<svg width="25" height="24" viewBox="0 0 25 24" fill="none" xmlns="http://www.w3.org/2000/svg">
<path d="M4.00244 1.75C2.48822 1.75 1.25244 2.98579 1.25244 4.5V16.5C1.25244 18.0142 2.48822 19.25 4.00244 19.25H16.7394L19.9081 21.785C20.6628 22.3887 21.764 22.2664 22.3678 21.5117C22.6162 21.2011 22.7515 20.8152 22.7513 20.4175L22.7424 4.5C22.7424 2.98503 21.5159 1.75 20.0024 1.75H4.00244ZM4.00244 3.25H20.0024C20.6425 3.25 21.1723 3.7432 21.236 4.37244L21.2424 4.50042L21.2513 20.4183C21.2513 20.4751 21.232 20.5303 21.1965 20.5746C21.1102 20.6824 20.9529 20.6999 20.8451 20.6137L17.2655 17.75H4.00244C3.31665 17.75 2.75244 17.1858 2.75244 16.5V4.5C2.75244 3.81421 3.31665 3.25 4.00244 3.25ZM12.0024 11.75C11.5882 11.75 11.2524 12.0858 11.2524 12.5C11.2524 12.9142 11.5882 13.25 12.0024 13.25H16.0024C16.4167 13.25 16.7524 12.9142 16.7524 12.5C16.7524 12.0858 16.4167 11.75 16.0024 11.75H12.0024ZM8.00244 7.75C7.58823 7.75 7.25244 8.08579 7.25244 8.5C7.25244 8.91421 7.58823 9.25 8.00244 9.25H16.0024C16.4167 9.25 16.7524 8.91421 16.7524 8.5C16.7524 8.08579 16.4167 7.75 16.0024 7.75H8.00244Z" fill="#191A1A"/>
</svg>
