<svg width="25" height="24" viewBox="0 0 25 24" fill="none" xmlns="http://www.w3.org/2000/svg">
<path d="M14.5024 1.25C14.9167 1.25 15.2524 1.58579 15.2524 2V4.25H21.0024C21.3821 4.25 21.6959 4.53215 21.7456 4.89823L21.7524 5C21.7524 5.41421 21.4167 5.75 21.0024 5.75H20.2524V20C20.2524 21.4625 19.1107 22.6584 17.67 22.745L17.5024 22.75H6.50244C4.98366 22.75 3.75244 21.5188 3.75244 20V5.75H3.00244C2.62275 5.75 2.30895 5.46785 2.25929 5.10177L2.25244 5C2.25244 4.58579 2.58823 4.25 3.00244 4.25H8.75244V2C8.75244 1.6203 9.0346 1.30651 9.40067 1.25685L9.50244 1.25H14.5024ZM5.25244 5.75V20C5.25244 20.6904 5.81209 21.25 6.50244 21.25H17.5024C18.1928 21.25 18.7524 20.6904 18.7524 20V5.75H5.25244ZM9.50244 9.25C9.91666 9.25 10.2524 9.58579 10.2524 10V17C10.2524 17.4142 9.91666 17.75 9.50244 17.75C9.08823 17.75 8.75244 17.4142 8.75244 17V10C8.75244 9.58579 9.08823 9.25 9.50244 9.25ZM14.5024 9.25C14.9167 9.25 15.2524 9.58579 15.2524 10V17C15.2524 17.4142 14.9167 17.75 14.5024 17.75C14.0882 17.75 13.7524 17.4142 13.7524 17V10C13.7524 9.58579 14.0882 9.25 14.5024 9.25ZM13.7524 2.75H10.2524V4.25H13.7524V2.75Z" fill="#191A1A"/>
</svg>
