<svg width="24" height="24" viewBox="0 0 24 24" fill="none" xmlns="http://www.w3.org/2000/svg">
<path opacity="0.9" d="M12 14.5C12.4142 14.5 12.75 14.8358 12.75 15.25V20.5C12.75 20.9142 12.4142 21.25 12 21.25C11.5858 21.25 11.25 20.9142 11.25 20.5V15.25C11.25 14.8358 11.5858 14.5 12 14.5ZM20 11.25C20.4142 11.25 20.75 11.5858 20.75 12C20.75 12.4142 20.4142 12.75 20 12.75H4C3.58579 12.75 3.25 12.4142 3.25 12C3.25 11.5858 3.58579 11.25 4 11.25H20ZM18 2.75C18.4142 2.75 18.75 3.08579 18.75 3.5C18.75 3.91421 18.4142 4.25 18 4.25H12.75V8.75C12.75 9.1297 12.4678 9.44349 12.1018 9.49315L12 9.5C11.5858 9.5 11.25 9.16421 11.25 8.75V4.25H6C5.6203 4.25 5.30651 3.96785 5.25685 3.60177L5.25 3.5C5.25 3.08579 5.58579 2.75 6 2.75H18Z" fill="#191A1A"/>
</svg>
