<svg width="24" height="24" viewBox="0 0 24 24" fill="none" xmlns="http://www.w3.org/2000/svg">
<path d="M19 19.75C19.4142 19.75 19.75 20.0858 19.75 20.5C19.75 20.9142 19.4142 21.25 19 21.25H5C4.58579 21.25 4.25 20.9142 4.25 20.5C4.25 20.0858 4.58579 19.75 5 19.75H19ZM18 2.75C18.4142 2.75 18.75 3.08579 18.75 3.5V11.5C18.75 15.2279 15.7279 18.25 12 18.25C8.27208 18.25 5.25 15.2279 5.25 11.5V3.5C5.25 3.08579 5.58579 2.75 6 2.75C6.41421 2.75 6.75 3.08579 6.75 3.5V11.5C6.75 14.3995 9.1005 16.75 12 16.75C14.8995 16.75 17.25 14.3995 17.25 11.5V3.5C17.25 3.08579 17.5858 2.75 18 2.75Z" fill="#191A1A"/>
</svg>
