<svg width="24" height="24" viewBox="0 0 24 24" fill="none" xmlns="http://www.w3.org/2000/svg">
<path d="M14 19.75C14.4142 19.75 14.75 20.0858 14.75 20.5C14.75 20.9142 14.4142 21.25 14 21.25H4C3.58579 21.25 3.25 20.9142 3.25 20.5C3.25 20.0858 3.58579 19.75 4 19.75H14ZM20 14.0833C20.4142 14.0833 20.75 14.4191 20.75 14.8333C20.75 15.2475 20.4142 15.5833 20 15.5833H4C3.58579 15.5833 3.25 15.2475 3.25 14.8333C3.25 14.4191 3.58579 14.0833 4 14.0833H20ZM14 8.41667C14.4142 8.41667 14.75 8.75245 14.75 9.16667C14.75 9.58088 14.4142 9.91667 14 9.91667H4C3.58579 9.91667 3.25 9.58088 3.25 9.16667C3.25 8.75245 3.58579 8.41667 4 8.41667H14ZM20 2.75C20.4142 2.75 20.75 3.08579 20.75 3.5C20.75 3.91421 20.4142 4.25 20 4.25H4C3.58579 4.25 3.25 3.91421 3.25 3.5C3.25 3.08579 3.58579 2.75 4 2.75H20Z" fill="#191A1A"/>
</svg>
