<svg width="24" height="24" viewBox="0 0 24 24" fill="none" xmlns="http://www.w3.org/2000/svg">
<path d="M18.5 2.75C18.9142 2.75 19.25 3.08579 19.25 3.5C19.25 3.91421 18.9142 4.25 18.5 4.25L15.766 4.2498L9.839 19.7498L12.5 19.75C12.8797 19.75 13.1935 20.0322 13.2432 20.3982L13.25 20.5C13.25 20.9142 12.9142 21.25 12.5 21.25H5.5C5.08579 21.25 4.75 20.9142 4.75 20.5C4.75 20.0858 5.08579 19.75 5.5 19.75L8.233 19.7498L14.16 4.2498L11.5 4.25C11.1203 4.25 10.8065 3.96785 10.7568 3.60177L10.75 3.5C10.75 3.08579 11.0858 2.75 11.5 2.75H18.5Z" fill="#191A1A"/>
</svg>
