<svg width="24" height="24" viewBox="0 0 24 24" fill="none" xmlns="http://www.w3.org/2000/svg">
<path d="M4.75 17C4.88807 17 5 17.1119 5 17.25V20.75C5 20.8881 4.88807 21 4.75 21H2.5C2.22386 21 2 20.7761 2 20.5C2 20.2239 2.22386 20 2.5 20H4V19.5H3.5C3.22386 19.5 3 19.2761 3 19C3 18.7239 3.22386 18.5 3.5 18.5H4V18H2.5C2.22386 18 2 17.7761 2 17.5C2 17.2239 2.22386 17 2.5 17H4.75ZM20 18.25C20.4142 18.25 20.75 18.5858 20.75 19C20.75 19.4142 20.4142 19.75 20 19.75H8C7.58579 19.75 7.25 19.4142 7.25 19C7.25 18.5858 7.58579 18.25 8 18.25H20ZM4.75 10C4.88807 10 5 10.1119 5 10.25V10.8075C5 10.8672 4.97865 10.9249 4.93981 10.9702L3.2 13H4.5C4.77614 13 5 13.2239 5 13.5C5 13.7761 4.77614 14 4.5 14H2.25C2.11193 14 2 13.8881 2 13.75V13.1925C2 13.1328 2.02135 13.0751 2.06019 13.0298L3.8 11H2.5C2.22386 11 2 10.7761 2 10.5C2 10.2239 2.22386 10 2.5 10H4.75ZM20 11.25C20.4142 11.25 20.75 11.5858 20.75 12C20.75 12.4142 20.4142 12.75 20 12.75H8C7.58579 12.75 7.25 12.4142 7.25 12C7.25 11.5858 7.58579 11.25 8 11.25H20ZM3.75 3C3.88807 3 4 3.11193 4 3.25V6.5C4 6.77614 3.77614 7 3.5 7C3.22386 7 3 6.77614 3 6.5V4H2.5C2.22386 4 2 3.77614 2 3.5C2 3.22386 2.22386 3 2.5 3H3.75ZM20 4.25C20.4142 4.25 20.75 4.58579 20.75 5C20.75 5.41421 20.4142 5.75 20 5.75H8C7.58579 5.75 7.25 5.41421 7.25 5C7.25 4.58579 7.58579 4.25 8 4.25H20Z" fill="#191A1A"/>
</svg>
