<svg width="24" height="24" viewBox="0 0 24 24" fill="none" xmlns="http://www.w3.org/2000/svg">
<path d="M6.25 3.5C6.25 3.08579 6.58579 2.75 7 2.75H14C16.6234 2.75 18.75 4.87665 18.75 7.5C18.75 9.05577 18.002 10.4368 16.8461 11.3033C18.5678 12.1635 19.75 13.9437 19.75 16C19.75 18.8995 17.3995 21.25 14.5 21.25H7C6.58579 21.25 6.25 20.9142 6.25 20.5V3.5ZM14.5 12.25H7.75V19.75H14.5C16.5711 19.75 18.25 18.0711 18.25 16C18.25 13.9289 16.5711 12.25 14.5 12.25ZM14 4.25H7.75V10.75H14C15.7949 10.75 17.25 9.29493 17.25 7.5C17.25 5.70507 15.7949 4.25 14 4.25Z" fill="#191A1A"/>
</svg>
