<svg width="24" height="24" viewBox="0 0 24 24" fill="none" xmlns="http://www.w3.org/2000/svg">
<path d="M8 19.75C7.58579 19.75 7.25 20.0858 7.25 20.5C7.25 20.9142 7.58579 21.25 8 21.25H16C16.4142 21.25 16.75 20.9142 16.75 20.5C16.75 20.0858 16.4142 19.75 16 19.75H8ZM4 14.0833C3.58579 14.0833 3.25 14.4191 3.25 14.8333C3.25 15.2475 3.58579 15.5833 4 15.5833H20C20.4142 15.5833 20.75 15.2475 20.75 14.8333C20.75 14.4191 20.4142 14.0833 20 14.0833H4ZM8 8.41667C7.58579 8.41667 7.25 8.75245 7.25 9.16667C7.25 9.58088 7.58579 9.91667 8 9.91667H16C16.4142 9.91667 16.75 9.58088 16.75 9.16667C16.75 8.75245 16.4142 8.41667 16 8.41667H8ZM4 2.75C3.58579 2.75 3.25 3.08579 3.25 3.5C3.25 3.91421 3.58579 4.25 4 4.25H20C20.4142 4.25 20.75 3.91421 20.75 3.5C20.75 3.08579 20.4142 2.75 20 2.75H4Z" fill="#191A1A"/>
</svg>
