<svg width="24" height="24" viewBox="0 0 24 24" fill="none" xmlns="http://www.w3.org/2000/svg">
<path d="M10 19.75C9.58579 19.75 9.25 20.0858 9.25 20.5C9.25 20.9142 9.58579 21.25 10 21.25H20C20.4142 21.25 20.75 20.9142 20.75 20.5C20.75 20.0858 20.4142 19.75 20 19.75H10ZM4 14.0833C3.58579 14.0833 3.25 14.4191 3.25 14.8333C3.25 15.2475 3.58579 15.5833 4 15.5833H20C20.4142 15.5833 20.75 15.2475 20.75 14.8333C20.75 14.4191 20.4142 14.0833 20 14.0833H4ZM10 8.41667C9.58579 8.41667 9.25 8.75245 9.25 9.16667C9.25 9.58088 9.58579 9.91667 10 9.91667H20C20.4142 9.91667 20.75 9.58088 20.75 9.16667C20.75 8.75245 20.4142 8.41667 20 8.41667H10ZM4 2.75C3.58579 2.75 3.25 3.08579 3.25 3.5C3.25 3.91421 3.58579 4.25 4 4.25H20C20.4142 4.25 20.75 3.91421 20.75 3.5C20.75 3.08579 20.4142 2.75 20 2.75H4Z" fill="#191A1A"/>
</svg>
