<svg width="24" height="24" viewBox="0 0 24 24" fill="none" xmlns="http://www.w3.org/2000/svg">
<path d="M14.7502 2.25C15.1644 2.25 15.5002 2.58579 15.5002 3C15.5002 3.41421 15.1644 3.75 14.7502 3.75H13.0647C12.0419 3.75 11.1478 4.43978 10.8883 5.42904L9.885 9.25H12C12.3797 9.25 12.6935 9.53215 12.7432 9.89823L12.75 10C12.75 10.3797 12.4678 10.6935 12.1018 10.7432L12 10.75H9.492L8.97563 12.7197C8.95812 12.7865 8.93213 12.8488 8.89913 12.9058L7.31277 18.9518C6.88022 20.6006 5.39009 21.7502 3.68552 21.7502H2C1.58579 21.7502 1.25 21.4144 1.25 21.0002C1.25 20.586 1.58579 20.2502 2 20.2502H3.68552C4.70826 20.2502 5.60234 19.5604 5.86187 18.5711L7.77455 11.2805C7.79207 11.2137 7.81806 11.1514 7.85106 11.0944L7.941 10.75H6C5.6203 10.75 5.30651 10.4678 5.25685 10.1018L5.25 10C5.25 9.6203 5.53215 9.30651 5.89823 9.25685L6 9.25H8.335L9.43741 5.04841C9.86996 3.39963 11.3601 2.25 13.0647 2.25H14.7502ZM20.7029 12.1438L20.7851 12.2149C21.0456 12.4753 21.0693 12.8828 20.8562 13.17L20.7851 13.2523L18.538 15.5L20.7851 17.7477C21.0456 18.0082 21.0693 18.4157 20.8562 18.7029L20.7851 18.7851C20.5247 19.0456 20.1172 19.0693 19.83 18.8562L19.7477 18.7851L17.5 16.538L15.2523 18.7851C14.9918 19.0456 14.5843 19.0693 14.2971 18.8562L14.2149 18.7851C13.9544 18.5247 13.9307 18.1172 14.1438 17.83L14.2149 17.7477L16.462 15.5L14.2149 13.2523C13.9544 12.9918 13.9307 12.5843 14.1438 12.2971L14.2149 12.2149C14.4753 11.9544 14.8828 11.9307 15.17 12.1438L15.2523 12.2149L17.5 14.462L19.7477 12.2149C20.0082 11.9544 20.4157 11.9307 20.7029 12.1438Z" fill="#191A1A"/>
</svg>
