<svg width="25" height="24" viewBox="0 0 25 24" fill="none" xmlns="http://www.w3.org/2000/svg">
<path d="M12.0024 1.25C17.9417 1.25 22.7524 6.06079 22.7524 12C22.7524 17.9392 17.9417 22.75 12.0024 22.75C6.06323 22.75 1.25244 17.9392 1.25244 12C1.25244 6.06079 6.06323 1.25 12.0024 1.25ZM12.0024 2.75C6.89165 2.75 2.75244 6.88921 2.75244 12C2.75244 17.1108 6.89165 21.25 12.0024 21.25C17.1132 21.25 21.2524 17.1108 21.2524 12C21.2524 6.88921 17.1132 2.75 12.0024 2.75ZM9.77541 14.2945C11.0452 15.5643 13.1018 15.5643 14.3716 14.2945C14.6645 14.0016 15.1394 14.0016 15.4323 14.2945C15.7252 14.5874 15.7252 15.0623 15.4323 15.3552C13.5767 17.2108 10.5704 17.2108 8.71475 15.3552C8.42186 15.0623 8.42186 14.5874 8.71475 14.2945C9.00765 14.0016 9.48252 14.0016 9.77541 14.2945ZM9.00244 9C9.55473 9 10.0024 9.44771 10.0024 10C10.0024 10.5523 9.55473 11 9.00244 11C8.45016 11 8.00244 10.5523 8.00244 10C8.00244 9.44771 8.45016 9 9.00244 9ZM15.0024 9C15.5547 9 16.0024 9.44771 16.0024 10C16.0024 10.5523 15.5547 11 15.0024 11C14.4502 11 14.0024 10.5523 14.0024 10C14.0024 9.44771 14.4502 9 15.0024 9Z" fill="#191A1A"/>
</svg>
