<svg width="25" height="24" viewBox="0 0 25 24" fill="none" xmlns="http://www.w3.org/2000/svg">
<path fill-rule="evenodd" clip-rule="evenodd" d="M15.2521 2.79272C15.6101 2.91909 15.8121 3.28959 15.7371 3.65133L15.7097 3.74958L9.70968 20.7496C9.57183 21.1402 9.14343 21.3451 8.75283 21.2072C8.39478 21.0808 8.19278 20.7103 8.26778 20.3486L8.2952 20.2503L14.2952 3.25035C14.4331 2.85975 14.8615 2.65486 15.2521 2.79272ZM18.7828 6.46963L23.7828 11.4696C24.0757 11.7625 24.0757 12.2374 23.7828 12.5303L18.7828 17.5303C18.4899 17.8232 18.015 17.8232 17.7221 17.5303C17.4292 17.2374 17.4292 16.7625 17.7221 16.4696L22.1918 12L17.7221 7.53029C17.4292 7.2374 17.4292 6.76252 17.7221 6.46963C18.015 6.17674 18.4899 6.17674 18.7828 6.46963ZM5.22211 6.46963C5.515 6.17674 5.98988 6.17674 6.28277 6.46963C6.57566 6.76252 6.57566 7.2374 6.28277 7.53029L1.8131 12L6.28277 16.4696C6.57566 16.7625 6.57566 17.2374 6.28277 17.5303C5.98988 17.8232 5.515 17.8232 5.22211 17.5303L0.222111 12.5303C-0.0707819 12.2374 -0.0707819 11.7625 0.222111 11.4696L5.22211 6.46963Z" fill="#191A1A"/>
</svg>
