<svg width="25" height="24" viewBox="0 0 25 24" fill="none" xmlns="http://www.w3.org/2000/svg">
<path d="M6.53012 9.3686C6.82253 9.07653 7.29664 9.07653 7.58906 9.3686C7.88147 9.66067 7.88147 10.1342 7.58905 10.4263L5.1182 12.8942C3.46117 14.5493 3.46117 17.2327 5.1182 18.8878C6.77523 20.5428 9.46182 20.5428 11.1188 18.8878L13.5897 16.4198C13.8821 16.1278 14.3562 16.1278 14.6486 16.4198C14.9411 16.7119 14.9411 17.1854 14.6486 17.4775L12.1778 19.9454C9.93592 22.1847 6.30113 22.1847 4.05926 19.9454C1.81739 17.7062 1.81739 14.0757 4.05926 11.8365L6.53012 9.3686ZM11.8248 4.08018C14.0667 1.84096 17.7015 1.84096 19.9433 4.08018C22.1852 6.3194 22.1852 9.94988 19.9433 12.1891L17.4725 14.657C17.1801 14.9491 16.706 14.9491 16.4135 14.657C16.1211 14.365 16.1211 13.8914 16.4135 13.5993L18.8844 11.1314C20.5414 9.47634 20.5414 6.79294 18.8844 5.13786C17.2274 3.48279 14.5408 3.48279 12.8837 5.13786L10.4129 7.60579C10.1205 7.89787 9.64637 7.89787 9.35395 7.60579C9.06153 7.31372 9.06153 6.84018 9.35395 6.54811L11.8248 4.08018ZM15.0016 7.95836C15.294 7.66628 15.7681 7.66628 16.0606 7.95836C16.353 8.25043 16.353 8.72397 16.0606 9.01604L9.00097 16.0673C8.70855 16.3593 8.23445 16.3593 7.94203 16.0673C7.64962 15.7752 7.64962 15.3017 7.94203 15.0096L15.0016 7.95836Z" fill="#191A1A"/>
</svg>
