<svg width="25" height="24" viewBox="0 0 25 24" fill="none" xmlns="http://www.w3.org/2000/svg">
<path fill-rule="evenodd" clip-rule="evenodd" d="M10.2882 3.5C10.6826 3.5 11.0024 3.8372 11.0024 4.25316V13.5494C11.0024 13.6635 10.9779 13.776 10.9306 13.8786L8.07342 20.0761C7.95388 20.3354 7.70444 20.5 7.43101 20.5H3.1453C2.61779 20.5 2.27227 19.9178 2.50289 19.4176L4.86054 14.3024L1.71673 14.3025C1.35511 14.3025 1.05626 14.0192 1.00896 13.6516L1.00244 13.5494V4.25316C1.00244 3.8372 1.32224 3.5 1.71673 3.5H10.2882ZM22.2882 3.5C22.6826 3.5 23.0024 3.8372 23.0024 4.25316V13.5494C23.0024 13.6635 22.9779 13.776 22.9306 13.8786L20.0734 20.0761C19.9539 20.3354 19.7044 20.5 19.431 20.5H15.1453C14.6178 20.5 14.2723 19.9178 14.5029 19.4176L16.8605 14.3024L13.7167 14.3025C13.3551 14.3025 13.0563 14.0192 13.009 13.6516L13.0024 13.5494V4.25316C13.0024 3.8372 13.3222 3.5 13.7167 3.5H22.2882ZM9.57387 5.00633H2.43101V12.7961L6.00244 12.7962C6.49698 12.7962 6.83157 13.3079 6.68143 13.7841L6.64485 13.8786L4.28625 18.9931H6.98339L9.57387 13.3745V5.00633ZM21.5739 5.00633H14.431V12.7961L18.0024 12.7962C18.497 12.7962 18.8316 13.3079 18.6814 13.7841L18.6448 13.8786L16.2863 18.9931H18.9834L21.5739 13.3745V5.00633Z" fill="#191A1A"/>
</svg>
