<svg width="25" height="24" viewBox="0 0 25 24" fill="none" xmlns="http://www.w3.org/2000/svg">
<path d="M19.0024 12.25C19.4167 12.25 19.7524 12.5858 19.7524 13C19.7524 16.5325 16.6621 19.3913 12.7529 19.7187L12.7524 22.5C12.7524 22.9142 12.4167 23.25 12.0024 23.25C11.5882 23.25 11.2524 22.9142 11.2524 22.5L11.253 19.7188C7.34326 19.3918 4.25244 16.5328 4.25244 13C4.25244 12.5858 4.58823 12.25 5.00244 12.25C5.41665 12.25 5.75244 12.5858 5.75244 13C5.75244 15.8716 8.52721 18.25 12.0024 18.25C15.4777 18.25 18.2524 15.8716 18.2524 13C18.2524 12.5858 18.5882 12.25 19.0024 12.25ZM12.0024 0.75C14.3497 0.75 16.2524 2.65279 16.2524 5V11.5C16.2524 13.8472 14.3497 15.75 12.0024 15.75C9.65523 15.75 7.75244 13.8472 7.75244 11.5V5C7.75244 2.65279 9.65523 0.75 12.0024 0.75ZM12.0024 2.25C10.4837 2.25 9.25244 3.48122 9.25244 5V11.5C9.25244 13.0188 10.4837 14.25 12.0024 14.25C13.5212 14.25 14.7524 13.0188 14.7524 11.5V5C14.7524 3.48122 13.5212 2.25 12.0024 2.25Z" fill="#191A1A"/>
</svg>
