<svg width="25" height="24" viewBox="0 0 25 24" fill="none" xmlns="http://www.w3.org/2000/svg">
<path d="M12.0024 0.75C14.6258 0.75 16.7524 2.87665 16.7524 5.5L16.752 8.75H18.9979C20.5166 8.75 21.7479 9.98122 21.7479 11.5L21.6378 20.5336C21.6195 22.0391 20.3937 23.25 18.888 23.25H5.11681C3.61111 23.25 2.38538 22.0391 2.36702 20.5335L2.25723 11.5335C2.23939 10.0711 3.36642 8.86141 4.80603 8.75727L5.00702 8.75H7.25202L7.25245 5.5C7.25245 2.87665 9.3791 0.75 12.0024 0.75ZM18.9979 10.25H5.00702L4.86406 10.2581C4.23457 10.3298 3.74922 10.8681 3.75702 11.5152L3.86691 20.5152C3.87525 21.1996 4.4324 21.75 5.11681 21.75H18.888C19.5724 21.75 20.1296 21.1996 20.1379 20.5153L20.2478 11.5153L20.2414 11.3722C20.1774 10.7419 19.6451 10.25 18.9979 10.25ZM12.0024 13.25C12.4167 13.25 12.7524 13.5858 12.7524 14V18C12.7524 18.4142 12.4167 18.75 12.0024 18.75C11.5882 18.75 11.2524 18.4142 11.2524 18V14C11.2524 13.5858 11.5882 13.25 12.0024 13.25ZM12.0024 2.25C10.2075 2.25 8.75245 3.70507 8.75245 5.5V8.75H15.2524V5.5C15.2524 3.70507 13.7974 2.25 12.0024 2.25Z" fill="#191A1A"/>
</svg>
