<svg width="24" height="24" viewBox="0 0 24 24" fill="none" xmlns="http://www.w3.org/2000/svg">
<path d="M19.5 21.25C19.9142 21.25 20.25 21.5858 20.25 22C20.25 22.4142 19.9142 22.75 19.5 22.75H3.5C3.08579 22.75 2.75 22.4142 2.75 22C2.75 21.5858 3.08579 21.25 3.5 21.25H19.5ZM15.1682 1.94492C15.9492 1.16387 17.2155 1.16387 17.9966 1.94492L20.5551 4.50344C21.3362 5.28448 21.3362 6.55081 20.5551 7.33186L8.88523 19.0017C8.51016 19.3768 8.00145 19.5875 7.47102 19.5875H4.6625C3.696 19.5875 2.9125 18.804 2.9125 17.8375V15.029L2.92024 14.8532C2.96135 14.3872 3.16489 13.9482 3.49829 13.6148L15.1682 1.94492ZM12.625 6.60913L4.55895 14.6755C4.46518 14.7692 4.4125 14.8964 4.4125 15.029V17.8375C4.4125 17.9756 4.52443 18.0875 4.6625 18.0875H7.47102C7.60363 18.0875 7.7308 18.0348 7.82457 17.9411L15.89 9.87413L12.625 6.60913ZM16.9359 3.00558C16.7407 2.81032 16.4241 2.81032 16.2288 3.00558L13.686 5.54813L16.951 8.81313L19.4944 6.2712C19.668 6.09764 19.6873 5.82821 19.5523 5.63334L19.4944 5.5641L16.9359 3.00558Z" fill="#191A1A"/>
</svg>
