<svg width="25" height="24" viewBox="0 0 25 24" fill="none" xmlns="http://www.w3.org/2000/svg">
<path d="M10.3243 3.25C10.3243 2.55964 9.76466 2 9.0743 2C8.73504 2 8.41035 2.1379 8.17478 2.38204L1.20292 9.60742C0.735622 10.0917 0.735622 10.859 1.20292 11.3433L8.17478 18.5687C8.65414 19.0655 9.44547 19.0796 9.94226 18.6003C10.1864 18.3647 10.3243 18.04 10.3243 17.7008V14.743C15.5367 14.9021 19.155 16.7504 21.7901 20.5737C22.2511 21.2425 23.298 20.8036 23.144 20.006C21.7507 12.7859 17.679 7.71012 10.7009 6.28482L10.3243 6.21197V3.25ZM9.5743 13.2317C9.16009 13.2317 8.8243 13.5675 8.8243 13.9817V17.0816L2.44985 10.4754L8.8243 3.86913V6.8481C8.8243 7.21989 9.09668 7.53557 9.46446 7.59002C15.1454 8.43109 18.8327 11.7589 20.7108 16.8105L20.8333 17.1498C18.0007 14.4895 14.332 13.2317 9.5743 13.2317Z" fill="#191A1A"/>
</svg>
