<svg width="24" height="24" viewBox="0 0 24 24" fill="none" xmlns="http://www.w3.org/2000/svg">
<path d="M14.4386 2.75C15.0488 2.75 15.6149 3.06779 15.9326 3.58867L17.1779 5.63019C17.2233 5.7046 17.3042 5.75 17.3914 5.75H20C21.5142 5.75 22.75 6.98579 22.75 8.5V18.5C22.75 20.0142 21.5142 21.25 20 21.25H4C2.48579 21.25 1.25 20.0142 1.25 18.5V8.5C1.25 6.98579 2.48579 5.75 4 5.75H6.60863C6.6958 5.75 6.77667 5.7046 6.82206 5.63019L8.06739 3.58867L8.15188 3.46275C8.47978 3.01703 9.00207 2.75 9.56137 2.75H14.4386ZM14.4386 4.25H9.56137C9.4742 4.25 9.39333 4.2954 9.34794 4.36981L8.10261 6.41133C7.78488 6.93221 7.21878 7.25 6.60863 7.25H4C3.31421 7.25 2.75 7.81421 2.75 8.5V18.5C2.75 19.1858 3.31421 19.75 4 19.75H20C20.6858 19.75 21.25 19.1858 21.25 18.5V8.5C21.25 7.81421 20.6858 7.25 20 7.25H17.3914C16.7812 7.25 16.2151 6.93221 15.8974 6.41133L14.6521 4.36981C14.6067 4.2954 14.5258 4.25 14.4386 4.25ZM12 9.25C12.4142 9.25 12.75 9.58579 12.75 10V12.25H15C15.3797 12.25 15.6935 12.5322 15.7432 12.8982L15.75 13C15.75 13.4142 15.4142 13.75 15 13.75H12.75V16C12.75 16.3797 12.4678 16.6935 12.1018 16.7432L12 16.75C11.5858 16.75 11.25 16.4142 11.25 16V13.75H9C8.6203 13.75 8.30651 13.4678 8.25685 13.1018L8.25 13C8.25 12.5858 8.58579 12.25 9 12.25H11.25V10C11.25 9.6203 11.5322 9.30651 11.8982 9.25685L12 9.25Z" fill="#191A1A"/>
</svg>
