<svg width="24" height="24" viewBox="0 0 24 24" fill="none" xmlns="http://www.w3.org/2000/svg">
<path fill-rule="evenodd" clip-rule="evenodd" d="M22.0339 16C23.0847 16 23.9237 16.7291 23.9237 17.7745C23.9237 18.3807 23.5593 18.9429 22.8644 19.7423L21.9322 20.8228H24V22H20.0678V21.2269L21.6864 19.4436C22.3305 18.7321 22.7373 18.2665 22.7373 17.8272C22.7373 17.3792 22.4068 17.1332 22.0424 17.1332C21.6525 17.1332 21.3136 17.2914 20.9153 17.8712L20 17.2211C20.4746 16.4832 21.0678 16 22.0339 16ZM17.4462 6.14705L17.5303 6.21967C17.7966 6.48594 17.8208 6.9026 17.6029 7.19621L17.5303 7.28033L13.0607 11.75L17.5303 16.2197C17.8232 16.5126 17.8232 16.9874 17.5303 17.2803C17.2641 17.5466 16.8474 17.5708 16.5538 17.3529L16.4697 17.2803L12 12.811L7.53033 17.2803C7.23744 17.5732 6.76256 17.5732 6.46967 17.2803C6.17678 16.9874 6.17678 16.5126 6.46967 16.2197L10.9393 11.75L6.46967 7.28033C6.17678 6.98744 6.17678 6.51256 6.46967 6.21967C6.76256 5.92678 7.23744 5.92678 7.53033 6.21967L12 10.689L16.4697 6.21967C16.7359 5.9534 17.1526 5.9292 17.4462 6.14705Z" fill="#191A1A"/>
</svg>
