<svg width="24" height="24" viewBox="0 0 24 24" fill="none" xmlns="http://www.w3.org/2000/svg">
<path fill-rule="evenodd" clip-rule="evenodd" d="M17.4462 6.14705L17.5303 6.21967C17.7966 6.48594 17.8208 6.9026 17.6029 7.19621L17.5303 7.28033L13.0607 11.75L17.5303 16.2197C17.8232 16.5126 17.8232 16.9874 17.5303 17.2803C17.2641 17.5466 16.8474 17.5708 16.5538 17.3529L16.4697 17.2803L12 12.811L7.53033 17.2803C7.23744 17.5732 6.76256 17.5732 6.46967 17.2803C6.17678 16.9874 6.17678 16.5126 6.46967 16.2197L10.9393 11.75L6.46967 7.28033C6.17678 6.98744 6.17678 6.51256 6.46967 6.21967C6.76256 5.92678 7.23744 5.92678 7.53033 6.21967L12 10.689L16.4697 6.21967C16.7359 5.9534 17.1526 5.9292 17.4462 6.14705ZM22.0339 2C23.0847 2 23.9237 2.72914 23.9237 3.77452C23.9237 4.38067 23.5593 4.9429 22.8644 5.74231L21.9322 6.82284H24V8H20.0678V7.22694L21.6864 5.44363C22.3305 4.73206 22.7373 4.26647 22.7373 3.82723C22.7373 3.37921 22.4068 3.13324 22.0424 3.13324C21.6525 3.13324 21.3136 3.29136 20.9153 3.87116L20 3.22108C20.4746 2.48316 21.0678 2 22.0339 2Z" fill="#191A1A"/>
</svg>
