<svg width="24" height="24" viewBox="0 0 24 24" fill="none" xmlns="http://www.w3.org/2000/svg">
<path d="M3 2.75C2.58579 2.75 2.25 3.08579 2.25 3.5C2.25 3.91421 2.58579 4.25 3 4.25H8.25V20.5C8.25 20.8797 8.53215 21.1935 8.89823 21.2432L9 21.25C9.41421 21.25 9.75 20.9142 9.75 20.5V4.25H15C15.3797 4.25 15.6935 3.96785 15.7432 3.60177L15.75 3.5C15.75 3.08579 15.4142 2.75 15 2.75H3ZM13 9.75C12.5858 9.75 12.25 10.0858 12.25 10.5C12.25 10.9142 12.5858 11.25 13 11.25H16.25V20.5C16.25 20.8797 16.5322 21.1935 16.8982 21.2432L17 21.25C17.4142 21.25 17.75 20.9142 17.75 20.5V11.25H21C21.3797 11.25 21.6935 10.9678 21.7432 10.6018L21.75 10.5C21.75 10.0858 21.4142 9.75 21 9.75H13Z" fill="#191A1A"/>
</svg>
