<svg width="25" height="24" viewBox="0 0 25 24" fill="none" xmlns="http://www.w3.org/2000/svg">
<path d="M12.0024 0.75C14.6074 0.75 16.7524 2.6567 16.7524 5.05556L16.752 8.75H18.9979C20.5166 8.75 21.7479 9.98122 21.7479 11.5L21.6378 20.5336C21.6195 22.0391 20.3937 23.25 18.888 23.25H5.11681C3.61111 23.25 2.38538 22.0391 2.36702 20.5335L2.25723 11.5335C2.23939 10.0711 3.36642 8.86141 4.80603 8.75727L5.00702 8.75H15.2524V5.05556C15.2524 3.52705 13.8158 2.25 12.0024 2.25C10.1891 2.25 8.75245 3.52705 8.75245 5.05556C8.75245 5.46977 8.41666 5.80556 8.00245 5.80556C7.58824 5.80556 7.25245 5.46977 7.25245 5.05556C7.25245 2.6567 9.39749 0.75 12.0024 0.75ZM18.9979 10.25H5.00702L4.86406 10.2581C4.23457 10.3298 3.74922 10.8681 3.75702 11.5152L3.86691 20.5152C3.87525 21.1996 4.4324 21.75 5.11681 21.75H18.888C19.5724 21.75 20.1296 21.1996 20.1379 20.5153L20.2478 11.5153L20.2414 11.3722C20.1774 10.7419 19.6451 10.25 18.9979 10.25ZM14.0024 15.25C14.4167 15.25 14.7524 15.5858 14.7524 16C14.7524 16.4142 14.4167 16.75 14.0024 16.75H10.0024C9.58824 16.75 9.25245 16.4142 9.25245 16C9.25245 15.5858 9.58824 15.25 10.0024 15.25H14.0024Z" fill="#191A1A"/>
</svg>
