<svg width="24" height="24" viewBox="0 0 24 24" fill="none" xmlns="http://www.w3.org/2000/svg">
<path d="M12 1.25C17.9392 1.25 22.75 6.06079 22.75 12C22.75 17.9392 17.9392 22.75 12 22.75C6.06079 22.75 1.25 17.9392 1.25 12C1.25 6.06079 6.06079 1.25 12 1.25ZM12 2.75C6.88921 2.75 2.75 6.88921 2.75 12C2.75 17.1108 6.88921 21.25 12 21.25C17.1108 21.25 21.25 17.1108 21.25 12C21.25 6.88921 17.1108 2.75 12 2.75ZM10.5 7.25C10.7705 7.25 11.0336 7.33772 11.25 7.5L15.9167 11C16.469 11.4142 16.5809 12.1977 16.1667 12.75C16.0956 12.8448 16.0114 12.9289 15.9167 13L11.25 16.5C10.6977 16.9142 9.91421 16.8023 9.5 16.25C9.36477 16.0697 9.28131 15.8569 9.25725 15.6344L9.25 15.5V8.5C9.25 7.80964 9.80964 7.25 10.5 7.25ZM10.75 9V15L14.75 12L10.75 9Z" fill="#191A1A"/>
</svg>
