<?xml version="1.0" standalone="no"?>
<!DOCTYPE svg PUBLIC "-//W3C//DTD SVG 1.1//EN" "http://www.w3.org/Graphics/SVG/1.1/DTD/svg11.dtd" >
<svg xmlns="http://www.w3.org/2000/svg" xmlns:xlink="http://www.w3.org/1999/xlink" version="1.1">
<metadata>
Created by FontForge 20201107 at Thu Aug 12 15:03:49 2021
 By Jimmy Wärting
Aprova Nova is \(c\) Naipe Foundry
</metadata>
<defs>
<font id="AprovaNova-Bold" horiz-adv-x="0" >
  <font-face 
    font-family="Aprova Nova"
    font-weight="700"
    font-stretch="normal"
    units-per-em="1000"
    panose-1="2 11 8 0 0 0 0 0 0 0"
    ascent="800"
    descent="-200"
    x-height="514"
    cap-height="716"
    bbox="-538 -303 1611 1030"
    underline-thickness="80"
    underline-position="-195"
    stemh="146"
    stemv="151"
    unicode-range="U+000D-FFE3"
  />
<missing-glyph horiz-adv-x="834" 
d="M770 -60h-706v607l215 215h491v-822zM124 520v-520h586v702h-405zM660 50h-486v398h202v204h284v-602zM326 498h-152l152 154v-154zM376 264c13 0 25 12 25 26s-12 26 -25 26c-15 0 -27 -12 -27 -26s12 -26 27 -26zM459 264c14 0 26 12 26 26s-12 26 -26 26
s-26 -12 -26 -26s12 -26 26 -26zM294 149l23 -25c27 27 58 42 100 42s74 -15 100 -42l24 25c-28 31 -68 53 -124 53s-95 -22 -123 -53z" />
    <glyph glyph-name=".notdef" horiz-adv-x="834" 
d="M770 -60h-706v607l215 215h491v-822zM124 520v-520h586v702h-405zM660 50h-486v398h202v204h284v-602zM326 498h-152l152 154v-154zM376 264c13 0 25 12 25 26s-12 26 -25 26c-15 0 -27 -12 -27 -26s12 -26 27 -26zM459 264c14 0 26 12 26 26s-12 26 -26 26
s-26 -12 -26 -26s12 -26 26 -26zM294 149l23 -25c27 27 58 42 100 42s74 -15 100 -42l24 25c-28 31 -68 53 -124 53s-95 -22 -123 -53z" />
    <glyph glyph-name="NULL" horiz-adv-x="500" 
 />
    <glyph glyph-name="CR" unicode="&#xd;" horiz-adv-x="500" 
 />
    <glyph glyph-name="space" unicode=" " horiz-adv-x="260" 
 />
    <glyph glyph-name="A" unicode="A" horiz-adv-x="688" 
d="M676 0h-151l-44 136h-271l-47 -136h-151l255 716h167zM350 540l-92 -265h178z" />
    <glyph glyph-name="Aacute" unicode="&#xc1;" horiz-adv-x="688" 
d="M440 1006l72 -73l-168 -154l-71 73zM676 0h-151l-44 136h-271l-47 -136h-151l255 716h167zM350 540l-92 -265h178z" />
    <glyph glyph-name="Acircumflex" unicode="&#xc2;" horiz-adv-x="688" 
d="M440 782l-89 84l-90 -84l-72 69l161 148l162 -148zM676 0h-151l-44 136h-271l-47 -136h-151l255 716h167zM350 540l-92 -265h178z" />
    <glyph glyph-name="Adieresis" unicode="&#xc4;" horiz-adv-x="688" 
d="M246 789c-48 0 -83 35 -83 82c0 48 35 84 83 84c47 0 83 -37 83 -84c0 -46 -36 -82 -83 -82zM456 789c-49 0 -83 35 -83 82c0 48 34 84 83 84c47 0 83 -37 83 -84c0 -46 -36 -82 -83 -82zM676 0h-151l-44 136h-271l-47 -136h-151l255 716h167zM350 540l-92 -265h178z" />
    <glyph glyph-name="Agrave" unicode="&#xc0;" horiz-adv-x="688" 
d="M258 1006l167 -154l-71 -73l-168 154zM676 0h-151l-44 136h-271l-47 -136h-151l255 716h167zM350 540l-92 -265h178z" />
    <glyph glyph-name="Aogonek" unicode="&#x104;" horiz-adv-x="688" 
d="M676 -135l14 -86c-16 -9 -44 -16 -77 -16c-75 0 -120 34 -120 104c0 54 32 102 72 133h-40l-44 136h-271l-47 -136h-151l255 716h167l242 -716c-41 -25 -73 -69 -73 -106c0 -25 14 -37 40 -37c11 0 25 4 33 8zM350 540l-92 -265h178z" />
    <glyph glyph-name="Aring" unicode="&#xc5;" horiz-adv-x="688" 
d="M351 790c-68 0 -123 51 -123 119c0 69 55 121 123 121s123 -52 123 -121c0 -68 -55 -119 -123 -119zM350 945c-21 0 -35 -14 -35 -36c0 -21 14 -35 35 -35c22 0 36 14 36 35c0 22 -14 36 -36 36zM676 0h-151l-44 136h-271l-47 -136h-151l255 716h167zM350 540l-92 -265
h178z" />
    <glyph glyph-name="Atilde" unicode="&#xc3;" horiz-adv-x="688" 
d="M294 845c-21 0 -37 -12 -53 -41l-91 46c31 69 71 108 130 108c28 0 53 -10 83 -28c16 -10 30 -17 45 -17c21 0 35 10 52 45l91 -46c-29 -74 -73 -111 -132 -111c-25 0 -50 9 -78 25c-21 14 -32 19 -47 19zM676 0h-151l-44 136h-271l-47 -136h-151l255 716h167zM350 540
l-92 -265h178z" />
    <glyph glyph-name="AE" unicode="&#xc6;" horiz-adv-x="898" 
d="M566 284l12 -140h275v-144h-406l-14 146h-213l-58 -146h-150l279 716h540v-144h-290l13 -144h243v-144h-231zM391 578l-116 -293h145z" />
    <glyph glyph-name="B" unicode="B" horiz-adv-x="621" 
d="M476 366c70 -26 105 -88 105 -165c0 -133 -83 -201 -242 -201h-274v716h255c174 0 243 -67 243 -196c0 -71 -34 -126 -87 -154zM323 573h-108v-144h108c57 0 87 24 87 71c0 45 -31 73 -87 73zM215 143h123c56 0 91 30 91 78c0 52 -34 79 -89 79h-125v-157z" />
    <glyph glyph-name="C" unicode="C" horiz-adv-x="732" 
d="M387 -13c-223 0 -364 155 -364 370c0 217 151 370 364 370c166 0 272 -75 330 -208l-137 -52c-47 81 -109 115 -193 115c-123 0 -211 -89 -211 -225c0 -135 88 -224 211 -224c84 0 146 34 193 115l137 -52c-58 -133 -164 -209 -330 -209z" />
    <glyph glyph-name="Ccedilla" unicode="&#xc7;" horiz-adv-x="732" 
d="M387 133c84 0 146 34 193 115l137 -52c-56 -127 -155 -203 -310 -209l-3 -19c58 -9 90 -42 90 -91c0 -65 -46 -104 -123 -104c-42 0 -78 11 -111 29l29 69c24 -12 51 -21 78 -21c28 0 42 11 42 26c0 14 -11 23 -44 23h-62l20 92c-186 27 -300 172 -300 366
c0 217 151 370 364 370c166 0 272 -75 330 -208l-137 -52c-47 81 -109 115 -193 115c-123 0 -211 -89 -211 -225c0 -135 88 -224 211 -224z" />
    <glyph glyph-name="D" unicode="D" horiz-adv-x="696" 
d="M65 716h249c220 0 360 -135 360 -359c0 -226 -141 -357 -361 -357h-248v716zM215 144h88c128 0 217 64 217 213c0 146 -88 215 -216 215h-89v-428z" />
    <glyph glyph-name="Eth" unicode="&#xd0;" horiz-adv-x="739" 
d="M93 716h249c220 0 359 -135 359 -359c0 -226 -140 -357 -360 -357h-248v289h-75v137h75v290zM243 144h88c127 0 216 64 216 213c0 146 -88 215 -215 215h-89v-146h132v-137h-132v-145z" />
    <glyph glyph-name="E" unicode="E" horiz-adv-x="564" 
d="M519 716v-142h-304v-144h245v-142h-245v-145h304v-143h-454v716h454z" />
    <glyph glyph-name="Eacute" unicode="&#xc9;" horiz-adv-x="564" 
d="M381 1006l72 -73l-168 -154l-71 73zM519 716v-142h-304v-144h245v-142h-245v-145h304v-143h-454v716h454z" />
    <glyph glyph-name="Ecircumflex" unicode="&#xca;" horiz-adv-x="564" 
d="M381 782l-89 84l-90 -84l-72 69l161 148l162 -148zM519 716v-142h-304v-144h245v-142h-245v-145h304v-143h-454v716h454z" />
    <glyph glyph-name="Edieresis" unicode="&#xcb;" horiz-adv-x="564" 
d="M187 789c-48 0 -83 35 -83 82c0 48 35 84 83 84c47 0 83 -37 83 -84c0 -46 -36 -82 -83 -82zM397 789c-49 0 -83 35 -83 82c0 48 34 84 83 84c47 0 83 -37 83 -84c0 -46 -36 -82 -83 -82zM519 716v-142h-304v-144h245v-142h-245v-145h304v-143h-454v716h454z" />
    <glyph glyph-name="Egrave" unicode="&#xc8;" horiz-adv-x="564" 
d="M199 1006l167 -154l-71 -73l-168 154zM519 716v-142h-304v-144h245v-142h-245v-145h304v-143h-454v716h454z" />
    <glyph glyph-name="Eogonek" unicode="&#x118;" horiz-adv-x="564" 
d="M519 -135l14 -86c-16 -9 -44 -16 -77 -16c-75 0 -120 34 -120 104c0 54 32 102 72 133h-343v716h454v-142h-304v-144h245v-142h-245v-145h304v-143c-41 -25 -73 -69 -73 -106c0 -25 14 -37 40 -37c11 0 25 4 33 8z" />
    <glyph glyph-name="uni1EBC" unicode="&#x1ebc;" horiz-adv-x="564" 
d="M235 845c-21 0 -37 -12 -53 -41l-91 46c31 69 71 108 130 108c28 0 53 -10 83 -28c16 -10 30 -17 45 -17c21 0 35 10 52 45l91 -46c-29 -74 -73 -111 -132 -111c-25 0 -50 9 -78 25c-21 14 -32 19 -47 19zM519 716v-142h-304v-144h245v-142h-245v-145h304v-143h-454v716
h454z" />
    <glyph glyph-name="F" unicode="F" horiz-adv-x="539" 
d="M514 716v-144h-299v-154h245v-144h-245v-274h-150v716h449z" />
    <glyph glyph-name="G" unicode="G" horiz-adv-x="752" 
d="M375 387h349c5 -21 8 -46 8 -72c0 -195 -158 -328 -345 -328c-218 0 -364 155 -364 365c0 222 151 375 364 375c163 0 268 -72 327 -199l-137 -54c-48 77 -109 108 -190 108c-123 0 -211 -89 -211 -230c0 -133 88 -224 210 -224c94 0 165 47 192 125h-203v134z" />
    <glyph glyph-name="H" unicode="H" horiz-adv-x="714" 
d="M499 423v293h150v-716h-150v279h-284v-279h-150v716h150v-293h284z" />
    <glyph glyph-name="I" unicode="I" horiz-adv-x="280" 
d="M215 716v-716h-150v716h150z" />
    <glyph glyph-name="IJ" unicode="&#x132;" horiz-adv-x="869" 
d="M215 716v-716h-150v716h150zM563 129c58 0 91 37 91 98v489h151v-486c0 -144 -84 -245 -241 -245c-158 0 -242 92 -242 240v41h151v-38c0 -66 34 -99 90 -99z" />
    <glyph glyph-name="Iacute" unicode="&#xcd;" horiz-adv-x="280" 
d="M301 933l-168 -154l-71 73l167 154zM215 716v-716h-150v716h150z" />
    <glyph glyph-name="Icircumflex" unicode="&#xce;" horiz-adv-x="280" 
d="M208 782l-68 79l-69 -79l-77 68l146 154l145 -154zM215 0h-150v716h150v-716z" />
    <glyph glyph-name="Idieresis" unicode="&#xcf;" horiz-adv-x="280" 
d="M-34 871c0 50 33 84 83 84s83 -34 83 -84c0 -48 -33 -82 -83 -82s-83 34 -83 82zM149 871c0 50 33 84 82 84c50 0 83 -34 83 -84c0 -48 -33 -82 -83 -82c-49 0 -82 34 -82 82zM215 716v-716h-150v716h150z" />
    <glyph glyph-name="Igrave" unicode="&#xcc;" horiz-adv-x="280" 
d="M214 852l-71 -73l-168 154l72 73zM215 716v-716h-150v716h150z" />
    <glyph glyph-name="J" unicode="J" horiz-adv-x="576" 
d="M273 129c58 0 91 37 91 98v489h151v-486c0 -144 -84 -245 -241 -245c-158 0 -242 92 -242 240v41h151v-38c0 -66 34 -99 90 -99z" />
    <glyph glyph-name="K" unicode="K" horiz-adv-x="662" 
d="M339 360l317 -360h-196l-245 284v-284h-150v716h150v-287l254 287h186z" />
    <glyph glyph-name="L" unicode="L" horiz-adv-x="522" 
d="M215 716v-572h284v-144h-434v716h150z" />
    <glyph glyph-name="Lslash" unicode="&#x141;" horiz-adv-x="555" 
d="M248 333v-189h284v-144h-434v262l-41 -19l-48 98l89 42v333h150v-262l187 88l51 -96z" />
    <glyph glyph-name="M" unicode="M" horiz-adv-x="908" 
d="M624 716h134l127 -716h-150l-50 321c-8 47 -14 93 -19 139c-13 -46 -26 -90 -42 -136l-111 -315h-117l-111 315c-16 46 -30 90 -42 135c-6 -45 -12 -91 -19 -138l-50 -321h-151l127 716h134l170 -482z" />
    <glyph glyph-name="N" unicode="N" horiz-adv-x="747" 
d="M532 268v448h150v-716h-136l-331 448v-448h-150v716h136z" />
    <glyph glyph-name="Ntilde" unicode="&#xd1;" horiz-adv-x="747" 
d="M321 845c-21 0 -37 -12 -53 -41l-91 46c31 69 71 108 130 108c28 0 53 -10 83 -28c16 -10 30 -17 45 -17c21 0 35 10 52 45l91 -46c-29 -74 -73 -111 -132 -111c-25 0 -50 9 -78 25c-21 14 -32 19 -47 19zM532 268v448h150v-716h-136l-331 448v-448h-150v716h136z" />
    <glyph glyph-name="O" unicode="O" horiz-adv-x="782" 
d="M23 357c0 217 153 371 369 371c215 0 368 -154 368 -371c0 -215 -153 -370 -368 -370c-216 0 -369 155 -369 370zM176 357c0 -135 90 -222 216 -222c125 0 215 87 215 223c0 135 -90 223 -215 223c-126 0 -216 -88 -216 -224z" />
    <glyph glyph-name="Oacute" unicode="&#xd3;" horiz-adv-x="782" 
d="M552 933l-168 -154l-71 73l167 154zM23 357c0 217 153 371 369 371c215 0 368 -154 368 -371c0 -215 -153 -370 -368 -370c-216 0 -369 155 -369 370zM176 357c0 -135 90 -222 216 -222c125 0 215 87 215 223c0 135 -90 223 -215 223c-126 0 -216 -88 -216 -224z" />
    <glyph glyph-name="Ocircumflex" unicode="&#xd4;" horiz-adv-x="782" 
d="M480 782l-89 84l-90 -84l-72 69l161 148l162 -148zM392 728c215 0 368 -154 368 -371c0 -215 -153 -370 -368 -370c-216 0 -369 155 -369 370c0 217 153 371 369 371zM392 135c125 0 215 87 215 223c0 135 -90 223 -215 223c-126 0 -216 -88 -216 -224
c0 -135 90 -222 216 -222z" />
    <glyph glyph-name="Odieresis" unicode="&#xd6;" horiz-adv-x="782" 
d="M203 871c0 48 35 84 83 84c47 0 83 -37 83 -84c0 -46 -36 -82 -83 -82c-48 0 -83 35 -83 82zM413 871c0 48 34 84 83 84c47 0 83 -37 83 -84c0 -46 -36 -82 -83 -82c-49 0 -83 35 -83 82zM23 357c0 217 153 371 369 371c215 0 368 -154 368 -371
c0 -215 -153 -370 -368 -370c-216 0 -369 155 -369 370zM176 357c0 -135 90 -222 216 -222c125 0 215 87 215 223c0 135 -90 223 -215 223c-126 0 -216 -88 -216 -224z" />
    <glyph glyph-name="Ograve" unicode="&#xd2;" horiz-adv-x="782" 
d="M465 852l-71 -73l-168 154l72 73zM23 357c0 217 153 371 369 371c215 0 368 -154 368 -371c0 -215 -153 -370 -368 -370c-216 0 -369 155 -369 370zM176 357c0 -135 90 -222 216 -222c125 0 215 87 215 223c0 135 -90 223 -215 223c-126 0 -216 -88 -216 -224z" />
    <glyph glyph-name="Oslash" unicode="&#xd8;" horiz-adv-x="782" 
d="M725 674l-53 -67c56 -64 88 -151 88 -250c0 -215 -153 -370 -368 -370c-65 0 -124 14 -176 40l-51 -66l-111 81l54 69c-54 64 -85 149 -85 246c0 217 153 371 369 371c63 0 122 -13 172 -38l51 65zM176 357c0 -47 11 -88 30 -122l262 334c-23 8 -49 12 -76 12
c-126 0 -216 -88 -216 -224zM392 135c125 0 215 87 215 223c0 48 -12 91 -32 125l-263 -335c24 -8 51 -13 80 -13z" />
    <glyph glyph-name="Otilde" unicode="&#xd5;" horiz-adv-x="782" 
d="M459 801c-25 0 -50 9 -78 25c-21 14 -32 19 -47 19c-21 0 -37 -12 -53 -41l-91 46c31 69 71 108 130 108c28 0 53 -10 83 -28c16 -10 30 -17 45 -17c21 0 35 10 52 45l91 -46c-29 -74 -73 -111 -132 -111zM23 357c0 217 153 371 369 371c215 0 368 -154 368 -371
c0 -215 -153 -370 -368 -370c-216 0 -369 155 -369 370zM176 357c0 -135 90 -222 216 -222c125 0 215 87 215 223c0 135 -90 223 -215 223c-126 0 -216 -88 -216 -224z" />
    <glyph glyph-name="OE" unicode="&#x152;" horiz-adv-x="1071" 
d="M1026 716v-144h-299v-141h240v-144h-240v-143h299v-144h-442v82c-57 -58 -134 -95 -222 -95c-199 0 -339 155 -339 370c0 217 140 371 339 371c88 0 165 -37 222 -94v82h442zM377 135c119 0 205 87 205 223s-86 223 -205 223c-117 0 -201 -88 -201 -224
c0 -135 84 -222 201 -222z" />
    <glyph glyph-name="P" unicode="P" horiz-adv-x="610" 
d="M65 716h260c159 0 265 -100 265 -258s-107 -258 -266 -258h-109v-200h-150v716zM215 344h97c78 0 125 41 125 114c0 75 -47 114 -124 114h-98v-228z" />
    <glyph glyph-name="Thorn" unicode="&#xde;" horiz-adv-x="610" 
d="M215 615h109c159 0 266 -100 266 -257c0 -158 -107 -258 -266 -258h-109v-100h-150v716h150v-101zM215 244h97c78 0 125 41 125 114c0 75 -47 113 -125 113h-97v-227z" />
    <glyph glyph-name="Q" unicode="Q" horiz-adv-x="782" 
d="M760 357c0 -111 -41 -206 -110 -272l80 -134h-153l-38 63c-44 -17 -94 -27 -147 -27c-216 0 -369 155 -369 370c0 217 153 371 369 371c215 0 368 -154 368 -371zM392 135c25 0 48 3 69 10l-101 169h152l56 -93c25 36 39 83 39 137c0 135 -90 223 -215 223
c-126 0 -216 -88 -216 -224c0 -135 90 -222 216 -222z" />
    <glyph glyph-name="R" unicode="R" horiz-adv-x="632" 
d="M602 0h-164l-115 220h-108v-220h-150v716h264c153 0 266 -97 266 -248c0 -100 -49 -176 -125 -216zM317 572h-102v-208h102c78 0 125 37 125 104c0 68 -47 104 -125 104z" />
    <glyph glyph-name="S" unicode="S" horiz-adv-x="597" 
d="M310 -18c-123 0 -226 53 -283 171l116 73c42 -69 101 -105 175 -105c64 0 98 30 98 75c0 42 -26 69 -134 95c-176 41 -229 116 -229 223c0 124 96 216 254 216c121 0 202 -52 251 -128l-116 -81c-38 48 -92 67 -143 67c-61 0 -97 -25 -97 -68c0 -40 26 -64 126 -88
c176 -42 243 -108 243 -231c0 -125 -100 -219 -261 -219z" />
    <glyph glyph-name="Scaron" unicode="&#x160;" horiz-adv-x="597" 
d="M390 999l72 -69l-161 -148l-162 148l72 69l89 -83zM328 432c176 -42 243 -108 243 -231c0 -125 -100 -219 -261 -219c-123 0 -226 53 -283 171l116 73c42 -69 101 -105 175 -105c64 0 98 30 98 75c0 42 -26 69 -134 95c-176 41 -229 116 -229 223c0 124 96 216 254 216
c121 0 202 -52 251 -128l-116 -81c-38 48 -92 67 -143 67c-61 0 -97 -25 -97 -68c0 -40 26 -64 126 -88z" />
    <glyph glyph-name="uni1E9E" unicode="&#x1e9e;" horiz-adv-x="743" 
d="M681 582l-135 -178c115 -52 165 -123 165 -216c0 -118 -85 -205 -231 -205c-86 0 -176 38 -222 105l87 92c32 -41 77 -65 122 -65c58 0 91 34 91 78c0 55 -42 86 -140 123l-85 32l149 197c-31 23 -72 38 -119 38c-90 0 -151 -47 -151 -166v-417h-150v428
c0 188 111 300 309 300c123 0 233 -55 310 -146z" />
    <glyph glyph-name="T" unicode="T" horiz-adv-x="601" 
d="M10 716h581v-144h-217v-572h-151v572h-213v144z" />
    <glyph glyph-name="U" unicode="U" horiz-adv-x="703" 
d="M352 -13c-187 0 -290 104 -290 308v421h150v-423c0 -101 48 -160 140 -160s140 59 140 160v423h150v-421c0 -204 -104 -308 -290 -308z" />
    <glyph glyph-name="Uacute" unicode="&#xda;" horiz-adv-x="703" 
d="M514 933l-168 -154l-71 73l167 154zM352 -13c-187 0 -290 104 -290 308v421h150v-423c0 -101 48 -160 140 -160s140 59 140 160v423h150v-421c0 -204 -104 -308 -290 -308z" />
    <glyph glyph-name="Ucircumflex" unicode="&#xdb;" horiz-adv-x="703" 
d="M441 782l-89 84l-90 -84l-72 69l161 148l162 -148zM492 293v423h150v-421c0 -204 -104 -308 -290 -308c-187 0 -290 104 -290 308v421h150v-423c0 -101 48 -160 140 -160s140 59 140 160z" />
    <glyph glyph-name="Udieresis" unicode="&#xdc;" horiz-adv-x="703" 
d="M165 871c0 48 35 84 83 84c47 0 83 -37 83 -84c0 -46 -36 -82 -83 -82c-48 0 -83 35 -83 82zM375 871c0 48 34 84 83 84c47 0 83 -37 83 -84c0 -46 -36 -82 -83 -82c-49 0 -83 35 -83 82zM352 -13c-187 0 -290 104 -290 308v421h150v-423c0 -101 48 -160 140 -160
s140 59 140 160v423h150v-421c0 -204 -104 -308 -290 -308z" />
    <glyph glyph-name="Ugrave" unicode="&#xd9;" horiz-adv-x="703" 
d="M427 852l-71 -73l-168 154l72 73zM352 -13c-187 0 -290 104 -290 308v421h150v-423c0 -101 48 -160 140 -160s140 59 140 160v423h150v-421c0 -204 -104 -308 -290 -308z" />
    <glyph glyph-name="V" unicode="V" horiz-adv-x="676" 
d="M339 186l179 530h151l-245 -716h-172l-245 716h154z" />
    <glyph glyph-name="W" unicode="W" horiz-adv-x="1037" 
d="M743 213l131 503h151l-197 -716h-165l-144 477l-145 -477h-165l-197 716h152l131 -503l152 503h144z" />
    <glyph glyph-name="Wacute" unicode="&#x1e82;" horiz-adv-x="1037" 
d="M609 1006l72 -73l-168 -154l-71 73zM743 213l131 503h151l-197 -716h-165l-144 477l-145 -477h-165l-197 716h152l131 -503l152 503h144z" />
    <glyph glyph-name="Wcircumflex" unicode="&#x174;" horiz-adv-x="1037" 
d="M609 782l-89 84l-90 -84l-72 69l161 148l162 -148zM743 213l131 503h151l-197 -716h-165l-144 477l-145 -477h-165l-197 716h152l131 -503l152 503h144z" />
    <glyph glyph-name="Wdieresis" unicode="&#x1e84;" horiz-adv-x="1037" 
d="M415 789c-48 0 -83 35 -83 82c0 48 35 84 83 84c47 0 83 -37 83 -84c0 -46 -36 -82 -83 -82zM625 789c-49 0 -83 35 -83 82c0 48 34 84 83 84c47 0 83 -37 83 -84c0 -46 -36 -82 -83 -82zM743 213l131 503h151l-197 -716h-165l-144 477l-145 -477h-165l-197 716h152
l131 -503l152 503h144z" />
    <glyph glyph-name="Wgrave" unicode="&#x1e80;" horiz-adv-x="1037" 
d="M427 1006l167 -154l-71 -73l-168 154zM743 213l131 503h151l-197 -716h-165l-144 477l-145 -477h-165l-197 716h152l131 -503l152 503h144z" />
    <glyph glyph-name="X" unicode="X" horiz-adv-x="703" 
d="M447 358l248 -358h-184l-160 239l-159 -239h-184l248 363l-241 353h180l159 -241l159 241h180z" />
    <glyph glyph-name="Y" unicode="Y" horiz-adv-x="635" 
d="M471 716h161l-242 -468v-248h-150v246l-243 470h166l154 -306z" />
    <glyph glyph-name="Yacute" unicode="&#xdd;" horiz-adv-x="635" 
d="M404 1006l72 -73l-168 -154l-71 73zM471 716h161l-242 -468v-248h-150v246l-243 470h166l154 -306z" />
    <glyph glyph-name="Ycircumflex" unicode="&#x176;" horiz-adv-x="635" 
d="M403 782l-89 84l-90 -84l-72 69l161 148l162 -148zM471 716h161l-242 -468v-248h-150v246l-243 470h166l154 -306z" />
    <glyph glyph-name="Ydieresis" unicode="&#x178;" horiz-adv-x="635" 
d="M210 789c-48 0 -83 35 -83 82c0 48 35 84 83 84c47 0 83 -37 83 -84c0 -46 -36 -82 -83 -82zM420 789c-49 0 -83 35 -83 82c0 48 34 84 83 84c47 0 83 -37 83 -84c0 -46 -36 -82 -83 -82zM471 716h161l-242 -468v-248h-150v246l-243 470h166l154 -306z" />
    <glyph glyph-name="Ygrave" unicode="&#x1ef2;" horiz-adv-x="635" 
d="M222 1006l167 -154l-71 -73l-168 154zM471 716h161l-242 -468v-248h-150v246l-243 470h166l154 -306z" />
    <glyph glyph-name="Z" unicode="Z" horiz-adv-x="605" 
d="M568 605l-329 -461h334v-144h-530v112l331 460h-323v144h517v-111z" />
    <glyph glyph-name="Zcaron" unicode="&#x17d;" horiz-adv-x="605" 
d="M409 999l72 -69l-161 -148l-162 148l72 69l89 -83zM568 605l-329 -461h334v-144h-530v112l331 460h-323v144h517v-111z" />
    <glyph glyph-name="Iacute_J.loclNLD" horiz-adv-x="856" 
d="M301 933l-168 -154l-71 73l167 154zM881 933l-168 -154l-71 73l167 154zM215 716v-716h-150v716h150zM553 129c58 0 91 37 91 98v489h151v-486c0 -144 -84 -245 -241 -245c-158 0 -242 92 -242 240v41h151v-38c0 -66 34 -99 90 -99z" />
    <glyph glyph-name="J.alt" horiz-adv-x="359" 
d="M33 -15h-24v144h30c102 0 114 52 114 171v416h150v-471c0 -161 -69 -260 -270 -260z" />
    <glyph glyph-name="a" unicode="a" horiz-adv-x="533" 
d="M270 527c142 0 214 -83 214 -202v-325h-122l-11 35c-32 -32 -79 -49 -138 -49c-113 0 -188 69 -188 173c0 107 82 174 189 174c49 0 89 -11 120 -33v31c0 38 -25 71 -85 71c-38 0 -88 -8 -141 -33l-43 108c61 30 132 50 205 50zM258 95c47 0 77 25 77 64s-30 65 -77 65
s-77 -26 -77 -65s30 -64 77 -64z" />
    <glyph glyph-name="aacute" unicode="&#xe1;" horiz-adv-x="533" 
d="M361 804l72 -72l-168 -155l-71 74zM270 527c142 0 214 -83 214 -202v-325h-122l-11 35c-32 -32 -79 -49 -138 -49c-113 0 -188 69 -188 173c0 107 82 174 189 174c49 0 89 -11 120 -33v31c0 38 -25 71 -85 71c-38 0 -88 -8 -141 -33l-43 108c61 30 132 50 205 50zM258 95
c47 0 77 25 77 64s-30 65 -77 65s-77 -26 -77 -65s30 -64 77 -64z" />
    <glyph glyph-name="acircumflex" unicode="&#xe2;" horiz-adv-x="533" 
d="M360 581l-89 83l-90 -83l-72 69l161 148l162 -148zM270 527c142 0 214 -83 214 -202v-325h-122l-11 35c-32 -32 -79 -49 -138 -49c-113 0 -188 69 -188 173c0 107 82 174 189 174c49 0 89 -11 120 -33v31c0 38 -25 71 -85 71c-38 0 -88 -8 -141 -33l-43 108
c61 30 132 50 205 50zM258 95c47 0 77 25 77 64s-30 65 -77 65s-77 -26 -77 -65s30 -64 77 -64z" />
    <glyph glyph-name="adieresis" unicode="&#xe4;" horiz-adv-x="533" 
d="M166 587c-48 0 -82 36 -82 83s35 83 82 83s83 -36 83 -83s-35 -83 -83 -83zM376 587c-48 0 -82 36 -82 83s34 83 82 83c47 0 83 -36 83 -83s-35 -83 -83 -83zM270 527c142 0 214 -83 214 -202v-325h-122l-11 35c-32 -32 -79 -49 -138 -49c-113 0 -188 69 -188 173
c0 107 82 174 189 174c49 0 89 -11 120 -33v31c0 38 -25 71 -85 71c-38 0 -88 -8 -141 -33l-43 108c61 30 132 50 205 50zM258 95c47 0 77 25 77 64s-30 65 -77 65s-77 -26 -77 -65s30 -64 77 -64z" />
    <glyph glyph-name="agrave" unicode="&#xe0;" horiz-adv-x="533" 
d="M179 804l167 -153l-71 -74l-168 155zM270 527c142 0 214 -83 214 -202v-325h-122l-11 35c-32 -32 -79 -49 -138 -49c-113 0 -188 69 -188 173c0 107 82 174 189 174c49 0 89 -11 120 -33v31c0 38 -25 71 -85 71c-38 0 -88 -8 -141 -33l-43 108c61 30 132 50 205 50z
M258 95c47 0 77 25 77 64s-30 65 -77 65s-77 -26 -77 -65s30 -64 77 -64z" />
    <glyph glyph-name="aogonek" unicode="&#x105;" horiz-adv-x="533" 
d="M484 -135l14 -86c-16 -9 -44 -16 -77 -16c-75 0 -120 34 -120 104c0 54 32 102 72 133h-11l-11 35c-32 -32 -79 -49 -138 -49c-113 0 -188 69 -188 173c0 107 82 174 189 174c49 0 89 -11 120 -33v31c0 38 -25 71 -85 71c-38 0 -88 -8 -141 -33l-43 108
c61 30 132 50 205 50c142 0 214 -83 214 -202v-325c-41 -25 -73 -69 -73 -106c0 -25 14 -37 40 -37c11 0 25 4 33 8zM258 95c47 0 77 25 77 64s-30 65 -77 65s-77 -26 -77 -65s30 -64 77 -64z" />
    <glyph glyph-name="aring" unicode="&#xe5;" horiz-adv-x="533" 
d="M271 588c-68 0 -123 51 -123 119c0 69 55 121 123 121s123 -52 123 -121c0 -68 -55 -119 -123 -119zM270 744c-21 0 -35 -15 -35 -36s14 -36 35 -36c22 0 36 15 36 36s-14 36 -36 36zM270 527c142 0 214 -83 214 -202v-325h-122l-11 35c-32 -32 -79 -49 -138 -49
c-113 0 -188 69 -188 173c0 107 82 174 189 174c49 0 89 -11 120 -33v31c0 38 -25 71 -85 71c-38 0 -88 -8 -141 -33l-43 108c61 30 132 50 205 50zM258 95c47 0 77 25 77 64s-30 65 -77 65s-77 -26 -77 -65s30 -64 77 -64z" />
    <glyph glyph-name="atilde" unicode="&#xe3;" horiz-adv-x="533" 
d="M215 644c-22 0 -37 -13 -53 -42l-91 46c30 69 71 108 130 108c28 0 52 -10 82 -28c16 -9 31 -16 45 -16c22 0 35 10 53 44l91 -46c-30 -74 -73 -111 -132 -111c-26 0 -51 9 -78 26c-21 13 -33 19 -47 19zM270 527c142 0 214 -83 214 -202v-325h-122l-11 35
c-32 -32 -79 -49 -138 -49c-113 0 -188 69 -188 173c0 107 82 174 189 174c49 0 89 -11 120 -33v31c0 38 -25 71 -85 71c-38 0 -88 -8 -141 -33l-43 108c61 30 132 50 205 50zM258 95c47 0 77 25 77 64s-30 65 -77 65s-77 -26 -77 -65s30 -64 77 -64z" />
    <glyph glyph-name="ae" unicode="&#xe6;" horiz-adv-x="835" 
d="M812 268c0 -23 -2 -45 -3 -59h-332c8 -65 48 -102 114 -102c57 0 91 26 113 72l102 -57c-36 -85 -119 -135 -218 -135c-80 0 -144 30 -187 82c-40 -58 -98 -84 -178 -84c-124 0 -198 70 -198 174c0 107 82 174 189 174c49 0 88 -12 118 -35v33c0 38 -26 71 -85 71
c-37 0 -85 -8 -136 -33l-43 108c59 30 129 50 195 50c72 0 125 -21 160 -58c40 37 93 58 156 58c147 0 233 -108 233 -259zM580 410c-54 0 -95 -33 -103 -99h198c-4 65 -42 99 -95 99zM259 95c47 0 77 25 77 64s-30 65 -77 65s-77 -26 -77 -65s30 -64 77 -64z" />
    <glyph glyph-name="b" unicode="b" horiz-adv-x="600" 
d="M337 527c140 0 238 -111 238 -269c0 -159 -97 -271 -236 -271c-63 0 -117 23 -156 65l-15 -52h-112v716h150v-230c36 27 80 41 131 41zM311 128c65 0 112 53 112 130c0 76 -47 129 -112 129s-113 -53 -113 -130c0 -76 48 -129 113 -129z" />
    <glyph glyph-name="c" unicode="c" horiz-adv-x="537" 
d="M288 -13c-158 0 -262 113 -262 271c0 156 104 269 262 269c112 0 201 -61 238 -156l-136 -60c-20 45 -52 71 -102 71c-64 0 -112 -47 -112 -124c0 -78 48 -124 112 -124c50 0 82 25 102 69l136 -60c-37 -93 -127 -156 -238 -156z" />
    <glyph glyph-name="ccedilla" unicode="&#xe7;" horiz-adv-x="537" 
d="M288 134c50 0 82 25 102 69l136 -60c-35 -88 -117 -149 -220 -155l-3 -20c58 -9 90 -42 90 -91c0 -65 -46 -104 -123 -104c-42 0 -78 11 -111 29l29 69c24 -12 51 -21 78 -21c28 0 42 11 42 26c0 14 -11 23 -44 23h-62l21 95c-121 27 -197 129 -197 264
c0 156 104 269 262 269c112 0 201 -61 238 -156l-136 -60c-20 45 -52 71 -102 71c-64 0 -112 -47 -112 -124c0 -78 48 -124 112 -124z" />
    <glyph glyph-name="d" unicode="d" horiz-adv-x="600" 
d="M395 486v230h150v-716h-112l-15 53c-39 -43 -93 -66 -156 -66c-140 0 -236 112 -236 271c0 158 98 269 237 269c52 0 96 -14 132 -41zM290 128c65 0 112 53 112 129c0 77 -47 130 -112 130s-112 -53 -112 -129c0 -77 47 -130 112 -130z" />
    <glyph glyph-name="eth" unicode="&#xf0;" horiz-adv-x="589" 
d="M451 674l-53 -41c114 -91 157 -217 157 -332c0 -204 -108 -314 -270 -314c-149 0 -250 99 -250 238c0 145 101 236 227 236c67 0 121 -24 155 -64c-18 58 -54 109 -113 151l-94 -75l-62 77l60 49c-36 14 -77 27 -124 37l51 111l21 -5c58 -12 109 -30 153 -52l78 63z
M292 117c64 0 111 44 111 108s-47 106 -111 106s-110 -42 -110 -106s46 -108 110 -108z" />
    <glyph glyph-name="e" unicode="e" horiz-adv-x="563" 
d="M539 258c0 -18 -1 -34 -3 -44h-372c7 -68 53 -107 126 -107c67 0 102 31 129 72l102 -57c-44 -84 -127 -132 -239 -132c-154 0 -256 105 -256 267c0 158 102 270 256 270c157 0 257 -117 257 -269zM283 410c-62 0 -105 -34 -117 -89h232c-13 54 -51 89 -115 89z" />
    <glyph glyph-name="eacute" unicode="&#xe9;" horiz-adv-x="563" 
d="M373 804l72 -72l-168 -155l-71 74zM539 258c0 -18 -1 -34 -3 -44h-372c7 -68 53 -107 126 -107c67 0 102 31 129 72l102 -57c-44 -84 -127 -132 -239 -132c-154 0 -256 105 -256 267c0 158 102 270 256 270c157 0 257 -117 257 -269zM283 410c-62 0 -105 -34 -117 -89
h232c-13 54 -51 89 -115 89z" />
    <glyph glyph-name="ecircumflex" unicode="&#xea;" horiz-adv-x="563" 
d="M372 581l-89 83l-90 -83l-72 69l161 148l162 -148zM539 258c0 -18 -1 -34 -3 -44h-372c7 -68 53 -107 126 -107c67 0 102 31 129 72l102 -57c-44 -84 -127 -132 -239 -132c-154 0 -256 105 -256 267c0 158 102 270 256 270c157 0 257 -117 257 -269zM283 410
c-62 0 -105 -34 -117 -89h232c-13 54 -51 89 -115 89z" />
    <glyph glyph-name="edieresis" unicode="&#xeb;" horiz-adv-x="563" 
d="M178 587c-48 0 -82 36 -82 83s35 83 82 83s83 -36 83 -83s-35 -83 -83 -83zM388 587c-48 0 -82 36 -82 83s34 83 82 83c47 0 83 -36 83 -83s-35 -83 -83 -83zM539 258c0 -18 -1 -34 -3 -44h-372c7 -68 53 -107 126 -107c67 0 102 31 129 72l102 -57
c-44 -84 -127 -132 -239 -132c-154 0 -256 105 -256 267c0 158 102 270 256 270c157 0 257 -117 257 -269zM283 410c-62 0 -105 -34 -117 -89h232c-13 54 -51 89 -115 89z" />
    <glyph glyph-name="egrave" unicode="&#xe8;" horiz-adv-x="563" 
d="M191 804l167 -153l-71 -74l-168 155zM539 258c0 -18 -1 -34 -3 -44h-372c7 -68 53 -107 126 -107c67 0 102 31 129 72l102 -57c-44 -84 -127 -132 -239 -132c-154 0 -256 105 -256 267c0 158 102 270 256 270c157 0 257 -117 257 -269zM283 410c-62 0 -105 -34 -117 -89
h232c-13 54 -51 89 -115 89z" />
    <glyph glyph-name="eogonek" unicode="&#x119;" horiz-adv-x="563" 
d="M539 258c0 -18 -1 -34 -3 -44h-372c7 -68 53 -107 126 -107c67 0 102 31 129 72l102 -57c-32 -62 -85 -104 -156 -122h2c-41 -25 -73 -69 -73 -106c0 -25 14 -37 40 -37c11 0 25 4 33 8l14 -86c-16 -9 -44 -16 -77 -16c-75 0 -120 34 -120 104c0 50 27 94 63 125
c-134 15 -221 116 -221 265c0 158 102 270 256 270c157 0 257 -117 257 -269zM283 410c-62 0 -105 -34 -117 -89h232c-13 54 -51 89 -115 89z" />
    <glyph glyph-name="uni1EBD" unicode="&#x1ebd;" horiz-adv-x="563" 
d="M227 644c-22 0 -37 -13 -53 -42l-91 46c30 69 71 108 130 108c28 0 52 -10 82 -28c16 -9 31 -16 45 -16c22 0 35 10 53 44l91 -46c-30 -74 -73 -111 -132 -111c-26 0 -51 9 -78 26c-21 13 -33 19 -47 19zM539 258c0 -18 -1 -34 -3 -44h-372c7 -68 53 -107 126 -107
c67 0 102 31 129 72l102 -57c-44 -84 -127 -132 -239 -132c-154 0 -256 105 -256 267c0 158 102 270 256 270c157 0 257 -117 257 -269zM283 410c-62 0 -105 -34 -117 -89h232c-13 54 -51 89 -115 89z" />
    <glyph glyph-name="f" unicode="f" horiz-adv-x="354" 
d="M298 603c-35 0 -56 -20 -56 -65v-29h92v-137h-92v-372h-150v372h-70v137h70v51c0 117 67 183 172 183c36 0 65 -6 81 -10v-136c-13 3 -26 6 -47 6z" />
    <glyph glyph-name="g" unicode="g" horiz-adv-x="604" 
d="M420 458l16 56h112v-441c0 -181 -99 -280 -263 -280c-84 0 -174 34 -221 130l-9 18l109 55c35 -55 66 -78 123 -78c66 0 111 40 111 123v31c-35 -29 -80 -44 -133 -44c-139 0 -237 102 -237 249c0 146 97 250 236 250c64 0 118 -25 156 -69zM293 159c66 0 113 49 113 118
c0 70 -47 119 -113 119s-113 -50 -113 -119s47 -118 113 -118z" />
    <glyph glyph-name="h" unicode="h" horiz-adv-x="582" 
d="M370 527c140 0 163 -105 163 -214v-313h-150v307c0 59 -24 73 -60 73c-40 0 -84 -21 -117 -53v-327h-150v716h150v-246c47 34 103 57 164 57z" />
    <glyph glyph-name="i" unicode="i" horiz-adv-x="265" 
d="M44 676c0 53 35 89 89 89c53 0 88 -36 88 -89s-35 -88 -88 -88c-54 0 -89 35 -89 88zM208 514v-514h-150v514h150z" />
    <glyph glyph-name="dotlessi" unicode="&#x131;" horiz-adv-x="265" 
d="M208 514v-514h-150v514h150z" />
    <glyph glyph-name="iacute" unicode="&#xed;" horiz-adv-x="265" 
d="M295 732l-168 -155l-71 74l167 153zM208 514v-514h-150v514h150z" />
    <glyph glyph-name="icircumflex" unicode="&#xee;" horiz-adv-x="265" 
d="M201 581l-68 79l-69 -79l-78 67l146 154l146 -154zM208 0h-150v514h150v-514z" />
    <glyph glyph-name="idieresis" unicode="&#xef;" horiz-adv-x="265" 
d="M-42 670c0 49 33 83 83 83s83 -34 83 -83s-33 -83 -83 -83s-83 34 -83 83zM141 670c0 49 33 83 82 83c50 0 83 -34 83 -83s-33 -83 -83 -83c-49 0 -82 34 -82 83zM208 514v-514h-150v514h150z" />
    <glyph glyph-name="igrave" unicode="&#xec;" horiz-adv-x="265" 
d="M207 651l-71 -74l-169 155l73 72zM208 514v-514h-150v514h150z" />
    <glyph glyph-name="ij" unicode="&#x133;" horiz-adv-x="537" 
d="M44 676c0 53 35 89 89 89c53 0 88 -36 88 -89s-35 -88 -88 -88c-54 0 -89 35 -89 88zM316 676c0 53 34 89 88 89s89 -36 89 -89s-35 -88 -89 -88s-88 35 -88 88zM208 514v-514h-150v514h150zM330 514h150v-564c0 -86 -46 -162 -156 -162c-37 0 -61 8 -68 11v127
c8 -2 18 -4 34 -4c26 0 40 20 40 53v539z" />
    <glyph glyph-name="j" unicode="j" horiz-adv-x="272" 
d="M51 676c0 53 34 89 88 89s89 -36 89 -89s-35 -88 -89 -88s-88 35 -88 88zM65 514h150v-564c0 -86 -46 -162 -156 -162c-37 0 -62 8 -68 11v127c8 -2 18 -4 34 -4c26 0 40 20 40 53v539z" />
    <glyph glyph-name="uni0237" unicode="&#x237;" horiz-adv-x="259" 
d="M60 514h150v-564c0 -86 -45 -162 -156 -162c-36 0 -61 8 -68 11v127c8 -2 18 -4 32 -4c28 0 42 20 42 53v539z" />
    <glyph glyph-name="k" unicode="k" horiz-adv-x="534" 
d="M324 272l220 -272h-174l-165 204v-204h-149v716h149v-388l166 186h168z" />
    <glyph glyph-name="l" unicode="l" horiz-adv-x="282" 
d="M255 138v-137c-15 -4 -40 -6 -59 -6c-76 0 -140 43 -140 150v571h149v-518c0 -51 20 -60 50 -60z" />
    <glyph glyph-name="lslash" unicode="&#x142;" horiz-adv-x="339" 
d="M233 352v-154c0 -51 21 -60 50 -60v-137c-14 -4 -40 -6 -59 -6c-75 0 -140 43 -140 150v118l-26 -16l-54 89l80 48v332h149v-242l52 31l56 -88z" />
    <glyph glyph-name="m" unicode="m" horiz-adv-x="884" 
d="M677 527c136 0 158 -105 158 -214v-313h-150v307c0 59 -25 73 -57 73c-38 0 -77 -21 -108 -53v-14v-313h-150v307c0 59 -24 73 -57 73c-38 0 -76 -20 -107 -52v-328h-150v514h111l18 -59c49 42 110 72 177 72c73 0 113 -30 135 -75c49 43 111 75 180 75z" />
    <glyph glyph-name="n" unicode="n" horiz-adv-x="581" 
d="M370 527c140 0 163 -105 163 -214v-313h-150v307c0 59 -24 73 -60 73c-40 0 -84 -21 -117 -53v-327h-150v514h111l18 -60c51 42 115 73 185 73z" />
    <glyph glyph-name="ntilde" unicode="&#xf1;" horiz-adv-x="581" 
d="M238 644c-22 0 -37 -13 -53 -42l-91 46c30 69 71 108 130 108c28 0 52 -10 82 -28c16 -9 31 -16 45 -16c22 0 35 10 53 44l91 -46c-30 -74 -73 -111 -132 -111c-26 0 -51 9 -78 26c-21 13 -33 19 -47 19zM370 527c140 0 163 -105 163 -214v-313h-150v307
c0 59 -24 73 -60 73c-40 0 -84 -21 -117 -53v-327h-150v514h111l18 -60c51 42 115 73 185 73z" />
    <glyph glyph-name="o" unicode="o" horiz-adv-x="591" 
d="M295 -13c-160 0 -269 111 -269 270c0 158 109 270 269 270c161 0 270 -112 270 -270c0 -159 -109 -270 -270 -270zM295 133c70 0 118 50 118 124c0 75 -48 125 -118 125c-69 0 -117 -50 -117 -124c0 -75 48 -125 117 -125z" />
    <glyph glyph-name="oacute" unicode="&#xf3;" horiz-adv-x="591" 
d="M457 732l-168 -155l-71 74l167 153zM295 -13c-160 0 -269 111 -269 270c0 158 109 270 269 270c161 0 270 -112 270 -270c0 -159 -109 -270 -270 -270zM295 133c70 0 118 50 118 124c0 75 -48 125 -118 125c-69 0 -117 -50 -117 -124c0 -75 48 -125 117 -125z" />
    <glyph glyph-name="ocircumflex" unicode="&#xf4;" horiz-adv-x="591" 
d="M384 581l-89 83l-90 -83l-72 69l161 148l162 -148zM295 527c161 0 270 -112 270 -270c0 -159 -109 -270 -270 -270c-160 0 -269 111 -269 270c0 158 109 270 269 270zM295 133c70 0 118 50 118 124c0 75 -48 125 -118 125c-69 0 -117 -50 -117 -124
c0 -75 48 -125 117 -125z" />
    <glyph glyph-name="odieresis" unicode="&#xf6;" horiz-adv-x="591" 
d="M108 670c0 47 35 83 82 83s83 -36 83 -83s-35 -83 -83 -83s-82 36 -82 83zM318 670c0 47 34 83 82 83c47 0 83 -36 83 -83s-35 -83 -83 -83s-82 36 -82 83zM295 -13c-160 0 -269 111 -269 270c0 158 109 270 269 270c161 0 270 -112 270 -270c0 -159 -109 -270 -270 -270
zM295 133c70 0 118 50 118 124c0 75 -48 125 -118 125c-69 0 -117 -50 -117 -124c0 -75 48 -125 117 -125z" />
    <glyph glyph-name="ograve" unicode="&#xf2;" horiz-adv-x="591" 
d="M370 651l-71 -74l-168 155l72 72zM295 -13c-160 0 -269 111 -269 270c0 158 109 270 269 270c161 0 270 -112 270 -270c0 -159 -109 -270 -270 -270zM295 133c70 0 118 50 118 124c0 75 -48 125 -118 125c-69 0 -117 -50 -117 -124c0 -75 48 -125 117 -125z" />
    <glyph glyph-name="oslash" unicode="&#xf8;" horiz-adv-x="599" 
d="M545 493l-41 -53c42 -46 65 -110 65 -183c0 -159 -109 -270 -270 -270c-46 0 -88 9 -124 26l-37 -47l-83 61l37 48c-39 47 -62 109 -62 182c0 158 109 270 269 270c46 0 87 -9 123 -26l42 54zM165 255c0 -25 5 -48 15 -67l158 204c-12 3 -25 5 -39 5
c-79 0 -134 -57 -134 -142zM299 118c80 0 136 55 136 137c0 28 -6 53 -17 74l-159 -206c13 -3 26 -5 40 -5z" />
    <glyph glyph-name="otilde" unicode="&#xf5;" horiz-adv-x="591" 
d="M364 599c-26 0 -51 9 -78 26c-21 13 -33 19 -47 19c-22 0 -37 -13 -53 -42l-91 46c30 69 71 108 130 108c28 0 52 -10 82 -28c16 -9 31 -16 45 -16c22 0 35 10 53 44l91 -46c-30 -74 -73 -111 -132 -111zM295 -13c-160 0 -269 111 -269 270c0 158 109 270 269 270
c161 0 270 -112 270 -270c0 -159 -109 -270 -270 -270zM295 133c70 0 118 50 118 124c0 75 -48 125 -118 125c-69 0 -117 -50 -117 -124c0 -75 48 -125 117 -125z" />
    <glyph glyph-name="oe" unicode="&#x153;" horiz-adv-x="927" 
d="M906 258c0 -20 -2 -39 -3 -49h-362c14 -62 58 -102 128 -102c62 0 96 31 122 72l102 -57c-44 -85 -127 -135 -237 -135c-79 0 -145 30 -189 83c-43 -52 -108 -83 -185 -83c-150 0 -252 111 -252 270c0 158 102 270 252 270c78 0 143 -31 186 -85c44 54 110 85 188 85
c154 0 250 -117 250 -269zM657 410c-56 0 -98 -33 -114 -94h222c-11 58 -48 94 -108 94zM294 133c67 0 113 50 113 124c0 75 -46 125 -113 125c-66 0 -112 -50 -112 -124c0 -75 46 -125 112 -125z" />
    <glyph glyph-name="p" unicode="p" horiz-adv-x="600" 
d="M339 527c139 0 236 -112 236 -270s-98 -270 -238 -270c-51 0 -95 14 -131 41v-223h-150v709h112l15 -52c39 42 93 65 156 65zM311 128c65 0 112 53 112 129s-47 130 -112 130s-113 -53 -113 -130c0 -76 48 -129 113 -129z" />
    <glyph glyph-name="thorn" unicode="&#xfe;" horiz-adv-x="622" 
d="M345 527c146 0 247 -112 247 -270s-103 -270 -248 -270c-57 0 -107 16 -145 45v-227h-150v911h150v-238c39 32 89 49 146 49zM320 116c71 0 120 55 120 141c0 83 -49 142 -120 142c-77 0 -121 -59 -121 -142c0 -86 44 -141 121 -141z" />
    <glyph glyph-name="q" unicode="q" horiz-adv-x="600" 
d="M418 462l15 52h112v-709h-150v223c-36 -27 -80 -41 -132 -41c-139 0 -237 112 -237 270s96 270 236 270c63 0 117 -23 156 -65zM290 128c65 0 112 53 112 129c0 77 -47 130 -112 130s-112 -54 -112 -130s47 -129 112 -129z" />
    <glyph glyph-name="r" unicode="r" horiz-adv-x="384" 
d="M313 527c22 0 41 -4 52 -10v-136h-34c-57 0 -98 -11 -125 -36v-345h-150v514h111l15 -54c31 33 81 67 131 67z" />
    <glyph glyph-name="s" unicode="s" horiz-adv-x="472" 
d="M242 -15c-82 0 -154 29 -212 108l86 81c46 -50 87 -69 138 -69c32 0 53 16 53 37c0 24 -19 37 -106 59c-109 27 -160 73 -160 161c0 91 75 168 199 168c97 0 164 -44 208 -96l-94 -80c-29 28 -73 52 -127 52c-31 0 -56 -13 -56 -35s20 -35 95 -53
c127 -30 178 -78 178 -165c0 -101 -87 -168 -202 -168z" />
    <glyph glyph-name="scaron" unicode="&#x161;" horiz-adv-x="472" 
d="M330 798l72 -69l-161 -148l-162 148l72 69l90 -84zM266 318c127 -30 178 -78 178 -165c0 -101 -87 -168 -202 -168c-82 0 -154 29 -212 108l86 81c46 -50 87 -69 138 -69c32 0 53 16 53 37c0 24 -19 37 -106 59c-109 27 -160 73 -160 161c0 91 75 168 199 168
c97 0 164 -44 208 -96l-94 -80c-29 28 -73 52 -127 52c-31 0 -56 -13 -56 -35s20 -35 95 -53z" />
    <glyph glyph-name="germandbls" unicode="&#xdf;" horiz-adv-x="627" 
d="M424 -18c-73 0 -144 29 -197 105l85 84c27 -50 54 -70 92 -70c34 0 55 20 55 49c0 23 -13 50 -78 95c-59 41 -86 81 -86 124c0 37 16 64 51 100c26 26 41 46 41 71c0 37 -29 64 -85 64c-61 0 -101 -40 -101 -110v-494h-150v494c0 151 93 251 257 251
c138 0 233 -79 233 -175c0 -55 -26 -87 -62 -124c-23 -23 -37 -41 -37 -61c0 -22 11 -35 57 -68c76 -56 108 -105 108 -173c0 -95 -73 -162 -183 -162z" />
    <glyph glyph-name="t" unicode="t" horiz-adv-x="414" 
d="M367 514v-138h-114v-175c0 -47 24 -66 60 -66c22 0 40 4 54 9v-140c-25 -8 -50 -13 -84 -13c-113 0 -180 53 -180 179v206h-80v138h78l31 123h121v-123h114z" />
    <glyph glyph-name="u" unicode="u" horiz-adv-x="582" 
d="M376 186v328h150v-514h-111l-18 59c-48 -42 -107 -72 -168 -72c-152 0 -180 101 -180 214v313h150v-306c0 -59 28 -74 64 -74c40 0 81 18 113 52z" />
    <glyph glyph-name="uacute" unicode="&#xfa;" horiz-adv-x="582" 
d="M378 804l72 -72l-168 -155l-71 74zM376 186v328h150v-514h-111l-18 59c-48 -42 -107 -72 -168 -72c-152 0 -180 101 -180 214v313h150v-306c0 -59 28 -74 64 -74c40 0 81 18 113 52z" />
    <glyph glyph-name="ucircumflex" unicode="&#xfb;" horiz-adv-x="582" 
d="M377 581l-89 83l-90 -83l-72 69l161 148l162 -148zM376 186v328h150v-514h-111l-18 59c-48 -42 -107 -72 -168 -72c-152 0 -180 101 -180 214v313h150v-306c0 -59 28 -74 64 -74c40 0 81 18 113 52z" />
    <glyph glyph-name="udieresis" unicode="&#xfc;" horiz-adv-x="582" 
d="M183 587c-48 0 -82 36 -82 83s35 83 82 83s83 -36 83 -83s-35 -83 -83 -83zM393 587c-48 0 -82 36 -82 83s34 83 82 83c47 0 83 -36 83 -83s-35 -83 -83 -83zM376 186v328h150v-514h-111l-18 59c-48 -42 -107 -72 -168 -72c-152 0 -180 101 -180 214v313h150v-306
c0 -59 28 -74 64 -74c40 0 81 18 113 52z" />
    <glyph glyph-name="ugrave" unicode="&#xf9;" horiz-adv-x="582" 
d="M196 804l167 -153l-71 -74l-168 155zM376 186v328h150v-514h-111l-18 59c-48 -42 -107 -72 -168 -72c-152 0 -180 101 -180 214v313h150v-306c0 -59 28 -74 64 -74c40 0 81 18 113 52z" />
    <glyph glyph-name="v" unicode="v" horiz-adv-x="547" 
d="M278 183l107 331h151l-185 -514h-145l-195 514h155z" />
    <glyph glyph-name="w" unicode="w" horiz-adv-x="797" 
d="M561 205l86 309h142l-156 -514h-134l-98 290l-98 -290h-139l-155 514h147l86 -310l100 310h118z" />
    <glyph glyph-name="wacute" unicode="&#x1e83;" horiz-adv-x="797" 
d="M492 804l72 -72l-168 -155l-71 74zM561 205l86 309h142l-156 -514h-134l-98 290l-98 -290h-139l-155 514h147l86 -310l100 310h118z" />
    <glyph glyph-name="wcircumflex" unicode="&#x175;" horiz-adv-x="797" 
d="M491 581l-89 83l-90 -83l-72 69l161 148l162 -148zM561 205l86 309h142l-156 -514h-134l-98 290l-98 -290h-139l-155 514h147l86 -310l100 310h118z" />
    <glyph glyph-name="wdieresis" unicode="&#x1e85;" horiz-adv-x="797" 
d="M297 587c-48 0 -82 36 -82 83s35 83 82 83s83 -36 83 -83s-35 -83 -83 -83zM507 587c-48 0 -82 36 -82 83s34 83 82 83c47 0 83 -36 83 -83s-35 -83 -83 -83zM561 205l86 309h142l-156 -514h-134l-98 290l-98 -290h-139l-155 514h147l86 -310l100 310h118z" />
    <glyph glyph-name="wgrave" unicode="&#x1e81;" horiz-adv-x="797" 
d="M310 804l167 -153l-71 -74l-168 155zM561 205l86 309h142l-156 -514h-134l-98 290l-98 -290h-139l-155 514h147l86 -310l100 310h118z" />
    <glyph glyph-name="x" unicode="x" horiz-adv-x="552" 
d="M362 259l179 -259h-168l-97 153l-97 -153h-168l179 259l-177 255h169l94 -150l94 150h169z" />
    <glyph glyph-name="y" unicode="y" horiz-adv-x="573" 
d="M288 224l126 290h153l-308 -709h-153l106 245l-202 464h152z" />
    <glyph glyph-name="yacute" unicode="&#xfd;" horiz-adv-x="573" 
d="M378 804l72 -72l-168 -155l-71 74zM288 224l126 290h153l-308 -709h-153l106 245l-202 464h152z" />
    <glyph glyph-name="ycircumflex" unicode="&#x177;" horiz-adv-x="573" 
d="M377 581l-89 83l-90 -83l-72 69l161 148l162 -148zM288 224l126 290h153l-308 -709h-153l106 245l-202 464h152z" />
    <glyph glyph-name="ydieresis" unicode="&#xff;" horiz-adv-x="573" 
d="M183 587c-48 0 -82 36 -82 83s35 83 82 83s83 -36 83 -83s-35 -83 -83 -83zM393 587c-48 0 -82 36 -82 83s34 83 82 83c47 0 83 -36 83 -83s-35 -83 -83 -83zM288 224l126 290h153l-308 -709h-153l106 245l-202 464h152z" />
    <glyph glyph-name="ygrave" unicode="&#x1ef3;" horiz-adv-x="573" 
d="M196 804l167 -153l-71 -74l-168 155zM288 224l126 290h153l-308 -709h-153l106 245l-202 464h152z" />
    <glyph glyph-name="z" unicode="z" horiz-adv-x="502" 
d="M459 399l-237 -266h241v-133h-424v116l235 265h-229v133h414v-115z" />
    <glyph glyph-name="zcaron" unicode="&#x17e;" horiz-adv-x="502" 
d="M342 798l72 -69l-161 -148l-162 148l72 69l90 -84zM459 399l-237 -266h241v-133h-424v116l235 265h-229v133h414v-115z" />
    <glyph glyph-name="iacute_j.loclNLD" horiz-adv-x="524" 
d="M295 732l-168 -155l-71 74l167 153zM562 732l-168 -155l-71 74l167 153zM208 514v-514h-150v514h150zM325 514h150v-564c0 -86 -45 -162 -156 -162c-36 0 -61 8 -67 11v127c8 -2 17 -4 31 -4c28 0 42 20 42 53v539z" />
    <glyph glyph-name="fi" unicode="&#xfb01;" horiz-adv-x="619" 
d="M487 588c-54 0 -89 35 -89 88s35 89 89 89c53 0 88 -36 88 -89s-35 -88 -88 -88zM92 509v51c0 117 67 183 172 183c36 0 65 -6 81 -10v-136c-13 3 -26 6 -47 6c-35 0 -56 -20 -56 -65v-29h92v-137h-92v-372h-150v372h-70v137h70zM562 0h-150v514h150v-514z" />
    <glyph glyph-name="fl" unicode="&#xfb02;" horiz-adv-x="651" 
d="M92 509v51c0 117 67 183 172 183c36 0 65 -6 81 -10v-136c-13 3 -26 6 -47 6c-35 0 -56 -20 -56 -65v-29h92v-137h-92v-372h-150v372h-70v137h70zM574 716v-518c0 -51 20 -60 50 -60v-137c-15 -4 -40 -6 -59 -6c-76 0 -140 43 -140 150v571h149z" />
    <glyph glyph-name="ordfeminine" unicode="&#xaa;" horiz-adv-x="394" 
d="M204 730c108 0 163 -62 163 -162v-232h-95l-8 28c-22 -24 -55 -39 -94 -39c-83 0 -146 56 -146 130c0 82 68 129 144 129c37 0 64 -11 83 -26v25c0 28 -21 51 -63 51c-28 0 -63 -6 -102 -25l-33 83c48 23 94 38 151 38zM188 409c35 0 61 20 61 46c0 25 -25 46 -61 46
c-34 0 -59 -21 -59 -46c0 -26 25 -46 59 -46z" />
    <glyph glyph-name="ordmasculine" unicode="&#xba;" horiz-adv-x="449" 
d="M224 321c-120 0 -202 84 -202 202c0 117 82 202 202 202c121 0 203 -85 203 -202c0 -118 -82 -202 -203 -202zM224 435c48 0 81 36 81 88c0 53 -33 88 -81 88s-80 -35 -80 -88c0 -52 32 -88 80 -88z" />
    <glyph glyph-name="uni0394" unicode="&#x394;" horiz-adv-x="809" 
d="M404 732l396 -732h-620l-1 -1v1h-170zM405 439l-153 -297h305z" />
    <glyph glyph-name="uni03A9" unicode="&#x3a9;" horiz-adv-x="807" 
d="M777 365c0 -97 -42 -180 -108 -237h101l-1 -128h-316l1 137c100 23 170 108 170 228c0 125 -92 216 -220 216s-221 -91 -221 -216c0 -120 70 -205 170 -228l1 -137h-316l-1 128h102c-66 57 -109 140 -109 237c0 211 155 363 374 363c218 0 373 -152 373 -363z" />
    <glyph glyph-name="alpha" unicode="&#x3b1;" horiz-adv-x="679" 
d="M604 120c12 0 29 4 41 10v-129c-27 -9 -46 -14 -68 -14c-36 0 -92 16 -125 69c-53 -43 -114 -69 -182 -69c-152 0 -240 107 -240 270c0 165 101 270 239 270c108 0 172 -68 216 -162c6 30 9 62 9 95v54h137v-36c0 -108 -30 -216 -80 -303l4 -16c8 -27 25 -39 49 -39z
M279 126c47 0 91 24 128 66l-2 6c-41 142 -82 190 -133 190c-56 0 -89 -54 -89 -131s33 -131 96 -131z" />
    <glyph glyph-name="beta" unicode="&#x3b2;" horiz-adv-x="606" 
d="M462 376c74 -35 114 -100 114 -169c0 -130 -102 -220 -243 -220c-49 0 -93 14 -129 38v-220h-150v678c0 151 101 245 250 245c142 0 241 -91 241 -204c0 -66 -29 -117 -83 -148zM314 126c49 0 107 26 107 95c0 56 -52 89 -120 89h-33v120h36c49 0 88 31 88 74
c0 51 -41 78 -89 78c-68 0 -99 -48 -99 -109v-283c19 -51 67 -64 110 -64z" />
    <glyph glyph-name="gamma" unicode="&#x3b3;" horiz-adv-x="552" 
d="M533 514v-26c0 -163 -79 -367 -197 -479c12 -67 18 -132 18 -204h-163c0 218 -49 359 -147 621l-33 88h171l23 -65c36 -102 65 -187 87 -263c44 74 71 171 71 284v44h170z" />
    <glyph glyph-name="delta" unicode="&#x3b4;" horiz-adv-x="569" 
d="M351 488c152 -103 197 -167 197 -269c0 -134 -100 -232 -255 -232c-158 0 -259 100 -259 234c0 98 52 178 137 230c-42 39 -60 75 -60 127c0 96 84 150 191 150c50 0 94 -8 119 -19v-132c-30 11 -62 19 -101 19c-30 0 -54 -6 -54 -29c0 -20 31 -42 85 -79zM293 133
c64 0 100 39 100 96c0 43 -20 75 -107 136c-58 -29 -98 -77 -98 -133c0 -59 37 -99 105 -99z" />
    <glyph glyph-name="epsilon" unicode="&#x3b5;" horiz-adv-x="493" 
d="M386 171l92 -80c-58 -72 -129 -104 -219 -104c-132 0 -218 72 -218 165c0 42 26 79 68 105c-40 26 -64 62 -64 103c0 93 82 165 207 165c90 0 160 -32 218 -103l-92 -80c-52 46 -76 57 -127 57c-31 0 -62 -13 -62 -46c0 -29 34 -49 87 -49c15 0 34 2 61 6v-107
c-29 4 -45 4 -62 4c-65 0 -89 -22 -89 -50c0 -29 31 -44 71 -44c51 0 76 11 129 58z" />
    <glyph glyph-name="eta" unicode="&#x3b7;" horiz-adv-x="569" 
d="M358 527c145 0 168 -105 168 -214v-508h-150v502c0 59 -23 73 -59 73c-40 0 -85 -21 -118 -54v-326h-150v514h112l18 -60c49 42 112 73 179 73z" />
    <glyph glyph-name="theta" unicode="&#x3b8;" horiz-adv-x="588" 
d="M294 728c155 0 256 -141 256 -370c0 -233 -101 -371 -256 -371s-255 138 -255 371c0 229 100 370 255 370zM294 587c-69 0 -100 -72 -109 -160h218c-10 88 -41 160 -109 160zM294 130c68 0 100 69 110 159h-220c9 -90 40 -159 110 -159z" />
    <glyph glyph-name="lambda" unicode="&#x3bb;" horiz-adv-x="628" 
d="M575 119c11 0 30 4 42 8v-125c-25 -9 -51 -15 -84 -15c-50 0 -105 34 -137 110l-89 215l-135 -315h-154l212 499l-23 56c-10 26 -28 44 -64 44c-13 0 -28 -2 -49 -6v123c24 9 69 15 89 15c68 0 120 -32 152 -109l191 -461c9 -21 23 -39 49 -39z" />
    <glyph glyph-name="uni03BC" unicode="&#x3bc;" horiz-adv-x="582" 
d="M376 186v328h150v-514h-111l-18 59c-48 -42 -107 -72 -168 -72c-11 0 -21 0 -30 1v-183h-150v709h150v-306c0 -59 28 -74 64 -74c40 0 81 18 113 52z" />
    <glyph glyph-name="pi" unicode="&#x3c0;" horiz-adv-x="693" 
d="M661 514v-138h-105v-175c0 -47 20 -66 50 -66c22 0 41 4 54 9v-140c-21 -8 -45 -13 -74 -13c-112 0 -180 53 -180 179v206h-140v-376h-150v376h-94v138h639z" />
    <glyph glyph-name="rho" unicode="&#x3c1;" horiz-adv-x="626" 
d="M324 527c159 0 277 -115 277 -270c0 -158 -105 -270 -253 -270c-61 0 -112 17 -151 49v-231h-150v429c0 188 118 293 277 293zM324 126c72 0 125 55 125 131s-53 132 -125 132c-73 0 -126 -55 -126 -132c0 -76 53 -131 126 -131z" />
    <glyph glyph-name="sigma" unicode="&#x3c3;" horiz-adv-x="624" 
d="M310 527h301v-140h-99c36 -39 57 -89 57 -145c0 -150 -109 -255 -270 -255c-160 0 -269 111 -269 270c0 158 109 270 280 270zM299 133c69 0 118 52 118 124c0 73 -49 125 -118 125c-68 0 -117 -52 -117 -124c0 -73 49 -125 117 -125z" />
    <glyph glyph-name="tau" unicode="&#x3c4;" horiz-adv-x="394" 
d="M361 514v-138h-104v-175c0 -47 20 -66 50 -66c22 0 41 4 54 9v-140c-21 -8 -45 -13 -74 -13c-112 0 -180 53 -180 179v206h-90v138h344z" />
    <glyph glyph-name="phi" unicode="&#x3c6;" horiz-adv-x="696" 
d="M666 272c0 -162 -95 -270 -245 -284v-183h-145v183c-157 15 -246 136 -246 278c0 98 33 182 125 272l108 -86c-64 -63 -87 -112 -87 -181c0 -82 37 -137 100 -151v199c0 134 63 207 182 207c134 0 208 -113 208 -254zM421 310v-190c67 14 101 71 101 153
c0 75 -24 126 -59 126c-30 0 -42 -30 -42 -89z" />
    <glyph glyph-name="omega" unicode="&#x3c9;" horiz-adv-x="767" 
d="M514 514h155c65 -110 81 -157 81 -262c0 -157 -86 -265 -212 -265c-69 0 -121 33 -154 86c-34 -53 -86 -86 -155 -86c-125 0 -212 108 -212 265c0 106 17 152 81 262h155c-59 -104 -82 -158 -82 -255c0 -75 27 -131 78 -131c54 0 66 74 66 157c0 18 -1 86 -8 118h153
c-6 -32 -8 -100 -8 -118c0 -83 12 -157 66 -157c52 0 78 56 78 130c0 98 -23 152 -82 256z" />
    <glyph glyph-name="uni03D5" unicode="&#x3d5;" horiz-adv-x="693" 
d="M663 257c0 -152 -95 -256 -241 -269v-183h-150v183c-146 13 -242 117 -242 269s96 256 242 269v141h150v-141c146 -13 241 -117 241 -269zM175 257c0 -73 37 -124 97 -137v275c-60 -13 -97 -65 -97 -138zM422 395v-275c59 13 97 65 97 137s-38 125 -97 138z" />
    <glyph glyph-name="zero" unicode="0" horiz-adv-x="589" 
d="M295 -13c-158 0 -261 139 -261 370c0 229 103 371 261 371s260 -142 260 -371c0 -231 -102 -370 -260 -370zM295 134c80 0 108 100 108 223c0 110 -28 223 -108 223c-83 0 -109 -113 -109 -223c0 -123 27 -223 109 -223z" />
    <glyph glyph-name="one" unicode="1" horiz-adv-x="382" 
d="M192 716h115v-716h-150v501c-32 -17 -77 -29 -130 -29v141c79 0 147 40 165 103z" />
    <glyph glyph-name="two" unicode="2" horiz-adv-x="542" 
d="M362 262l-107 -118h245v-144h-455v125l189 203c89 94 112 135 112 181s-32 74 -72 74c-44 0 -89 -26 -140 -96l-107 80c58 95 137 161 251 161c136 0 215 -90 215 -201c0 -90 -33 -160 -131 -265z" />
    <glyph glyph-name="three" unicode="3" horiz-adv-x="555" 
d="M411 381c72 -33 114 -93 114 -177c0 -119 -90 -217 -245 -217c-114 0 -192 41 -260 124l96 91c43 -46 89 -69 148 -69c71 0 109 35 109 86c0 65 -58 92 -138 92c-17 0 -36 -1 -54 -4v130c22 -2 33 -3 48 -3c74 0 116 29 116 79c0 44 -30 70 -83 70
c-50 0 -93 -24 -135 -74l-96 96c75 89 147 123 246 123c137 0 218 -81 218 -192c0 -68 -30 -122 -84 -155z" />
    <glyph glyph-name="four" unicode="4" horiz-adv-x="612" 
d="M493 315h96v-145h-96v-170h-151v170h-306v88l162 458h149l-140 -401h125l60 172h101v-172z" />
    <glyph glyph-name="five" unicode="5" horiz-adv-x="562" 
d="M322 469c117 0 213 -90 213 -235c0 -157 -107 -247 -251 -247c-109 0 -196 46 -245 120l126 80c29 -40 69 -58 112 -58c67 0 105 39 105 100c0 58 -43 96 -102 96c-41 0 -75 -15 -105 -53l-119 28v416h438v-146h-294v-135c33 23 72 34 122 34z" />
    <glyph glyph-name="six" unicode="6" horiz-adv-x="587" 
d="M353 454c127 0 208 -95 208 -222c0 -141 -91 -245 -251 -245c-170 0 -277 115 -277 350c0 249 116 391 300 391c82 0 157 -31 215 -83l-83 -104c-39 30 -83 47 -129 47c-78 0 -141 -54 -149 -208c39 48 97 74 166 74zM305 127c65 0 109 37 109 98c0 62 -44 99 -109 99
c-62 0 -107 -37 -107 -99s45 -98 107 -98z" />
    <glyph glyph-name="seven" unicode="7" horiz-adv-x="522" 
d="M31 571v145h467v-127l-275 -589h-166l275 571h-301z" />
    <glyph glyph-name="eight" unicode="8" horiz-adv-x="576" 
d="M434 370c67 -38 104 -101 104 -171c0 -121 -87 -212 -250 -212s-249 91 -249 212c0 71 38 133 106 171c-59 38 -89 97 -89 157c0 111 79 201 233 201c152 0 232 -90 232 -201c0 -59 -29 -118 -87 -157zM288 587c-50 0 -84 -29 -84 -70c0 -43 34 -73 84 -73s84 30 84 73
c0 41 -34 70 -84 70zM288 129c60 0 98 34 98 86c0 55 -38 91 -98 91s-98 -36 -98 -91c0 -52 38 -86 98 -86z" />
    <glyph glyph-name="nine" unicode="9" horiz-adv-x="586" 
d="M282 728c169 0 277 -115 277 -350c0 -249 -116 -391 -301 -391c-81 0 -156 32 -214 83l83 105c38 -31 82 -48 128 -48c77 0 141 55 149 208c-39 -48 -97 -73 -165 -73c-128 0 -209 94 -209 221c0 142 91 245 252 245zM286 391c63 0 108 38 108 100c0 61 -45 98 -108 98
c-64 0 -108 -37 -108 -98c0 -62 44 -100 108 -100z" />
    <glyph glyph-name="uni2780" unicode="&#x2780;" horiz-adv-x="820" 
d="M411 -37c-211 0 -377 170 -377 387c0 218 166 387 377 387c210 0 375 -169 375 -387c0 -217 -165 -387 -375 -387zM411 61c158 0 278 128 278 289c0 162 -120 290 -278 290c-159 0 -280 -128 -280 -290c0 -161 121 -289 280 -289zM474 138h-110v277
c-22 -12 -59 -19 -95 -19v103c59 0 113 24 124 61h81v-422z" />
    <glyph glyph-name="uni2781" unicode="&#x2781;" horiz-adv-x="820" 
d="M411 -37c-211 0 -377 170 -377 387c0 218 166 387 377 387c210 0 375 -169 375 -387c0 -217 -165 -387 -375 -387zM411 61c158 0 278 128 278 289c0 162 -120 290 -278 290c-159 0 -280 -128 -280 -290c0 -161 121 -289 280 -289zM557 152h-300v80l117 117
c46 47 70 77 70 99c0 21 -18 32 -37 32c-24 0 -50 -18 -79 -52l-79 58c35 53 83 97 162 97c85 0 142 -58 142 -127c0 -51 -32 -93 -85 -147l-50 -52h139v-105z" />
    <glyph glyph-name="uni2782" unicode="&#x2782;" horiz-adv-x="820" 
d="M411 -37c-211 0 -377 170 -377 387c0 218 166 387 377 387c210 0 375 -169 375 -387c0 -217 -165 -387 -375 -387zM411 61c158 0 278 128 278 289c0 162 -120 290 -278 290c-159 0 -280 -128 -280 -290c0 -161 121 -289 280 -289zM403 130c-64 0 -117 27 -154 82l69 65
c36 -35 50 -44 86 -44c24 0 51 12 51 37c0 19 -17 37 -67 37c-12 0 -29 -1 -48 -2v89c25 -2 31 -2 42 -2c34 0 58 15 58 43c0 20 -18 33 -44 33c-29 0 -56 -15 -85 -48l-68 70c53 59 96 80 158 80c90 0 146 -49 146 -113c0 -40 -15 -71 -44 -92c39 -21 63 -55 63 -95
c0 -79 -69 -140 -163 -140z" />
    <glyph glyph-name="uni2783" unicode="&#x2783;" horiz-adv-x="820" 
d="M411 -37c-211 0 -377 170 -377 387c0 218 166 387 377 387c210 0 375 -169 375 -387c0 -217 -165 -387 -375 -387zM411 61c158 0 278 128 278 289c0 162 -120 290 -278 290c-159 0 -280 -128 -280 -290c0 -161 121 -289 280 -289zM534 149h-109v79h-205v60l90 283h107
l-78 -238h86l29 109h80v-109h56v-105h-56v-79z" />
    <glyph glyph-name="uni2784" unicode="&#x2784;" horiz-adv-x="820" 
d="M411 -37c-211 0 -377 170 -377 387c0 218 166 387 377 387c210 0 375 -169 375 -387c0 -217 -165 -387 -375 -387zM411 61c158 0 278 128 278 289c0 162 -120 290 -278 290c-159 0 -280 -128 -280 -290c0 -161 121 -289 280 -289zM411 124c-49 0 -105 18 -144 75l81 59
c16 -18 38 -29 65 -29c30 0 52 16 52 43c0 24 -19 42 -50 42c-25 0 -47 -11 -65 -29l-84 17v255h284v-105h-187v-61c18 12 43 19 72 19c84 0 137 -58 137 -134c0 -92 -70 -152 -161 -152z" />
    <glyph glyph-name="uni2785" unicode="&#x2785;" horiz-adv-x="820" 
d="M411 -37c-211 0 -377 170 -377 387c0 218 166 387 377 387c210 0 375 -169 375 -387c0 -217 -165 -387 -375 -387zM411 61c158 0 278 128 278 289c0 162 -120 290 -278 290c-159 0 -280 -128 -280 -290c0 -161 121 -289 280 -289zM410 131c-97 0 -173 80 -173 197
c0 154 73 243 193 243c52 0 106 -21 146 -60l-60 -72c-33 25 -55 34 -89 34c-41 0 -79 -29 -90 -100c26 22 58 35 96 35c78 0 139 -53 139 -126c0 -88 -60 -151 -162 -151zM412 226c34 0 58 18 58 48s-24 48 -58 48s-59 -18 -59 -48s25 -48 59 -48z" />
    <glyph glyph-name="uni2786" unicode="&#x2786;" horiz-adv-x="820" 
d="M411 -37c-211 0 -377 170 -377 387c0 218 166 387 377 387c210 0 375 -169 375 -387c0 -217 -165 -387 -375 -387zM411 61c158 0 278 128 278 289c0 162 -120 290 -278 290c-159 0 -280 -128 -280 -290c0 -161 121 -289 280 -289zM397 138h-118l155 317h-173v105h305v-79
z" />
    <glyph glyph-name="uni2787" unicode="&#x2787;" horiz-adv-x="820" 
d="M411 -37c-211 0 -377 170 -377 387c0 218 166 387 377 387c210 0 375 -169 375 -387c0 -217 -165 -387 -375 -387zM411 61c158 0 278 128 278 289c0 162 -120 290 -278 290c-159 0 -280 -128 -280 -290c0 -161 121 -289 280 -289zM411 130c-107 0 -164 59 -164 127
c0 36 20 76 68 99c-44 23 -61 58 -61 88c0 66 52 126 157 126c104 0 156 -61 156 -126c0 -30 -17 -65 -61 -87c48 -25 69 -65 69 -101c0 -66 -58 -126 -164 -126zM411 394c28 0 45 21 45 42s-17 40 -45 40c-29 0 -46 -19 -46 -40s17 -42 46 -42zM411 225c33 0 53 19 53 42
s-20 46 -53 46c-34 0 -54 -22 -54 -46c0 -23 20 -42 54 -42z" />
    <glyph glyph-name="uni2788" unicode="&#x2788;" horiz-adv-x="820" 
d="M410 -37c-211 0 -376 170 -376 387c0 218 165 387 376 387s376 -169 376 -387c0 -217 -165 -387 -376 -387zM410 61c158 0 279 128 279 289c0 162 -121 290 -279 290s-279 -128 -279 -290c0 -161 121 -289 279 -289zM390 130c-52 0 -105 21 -146 60l61 72
c33 -25 54 -34 89 -34c40 0 78 29 89 100c-26 -22 -57 -35 -96 -35c-77 0 -139 53 -139 126c0 88 61 151 163 151c96 0 172 -80 172 -197c0 -154 -72 -243 -193 -243zM408 379c34 0 59 18 59 48s-25 48 -59 48s-58 -18 -58 -48s24 -48 58 -48z" />
    <glyph glyph-name="uni278A" unicode="&#x278a;" horiz-adv-x="769" 
d="M385 -5c-193 0 -344 156 -344 355s151 355 344 355s344 -156 344 -355s-151 -355 -344 -355zM341 415v-277h109v422h-80c-12 -37 -65 -61 -124 -61v-103c35 0 72 7 95 19z" />
    <glyph glyph-name="uni278B" unicode="&#x278b;" horiz-adv-x="769" 
d="M41 350c0 199 151 355 344 355s344 -156 344 -355s-151 -355 -344 -355s-344 156 -344 355zM530 147v105h-139l50 52c52 54 85 96 85 147c0 69 -58 127 -143 127c-78 0 -127 -44 -162 -97l79 -58c30 34 55 52 80 52c19 0 36 -11 36 -32c0 -22 -23 -52 -70 -99l-116 -117
v-80h300z" />
    <glyph glyph-name="uni278C" unicode="&#x278c;" horiz-adv-x="769" 
d="M41 350c0 199 151 355 344 355s344 -156 344 -355s-151 -355 -344 -355s-344 156 -344 355zM537 270c0 40 -24 74 -63 95c29 21 44 52 44 92c0 64 -56 113 -146 113c-62 0 -105 -21 -158 -80l68 -70c29 33 56 48 85 48c26 0 44 -13 44 -33c0 -28 -24 -43 -58 -43
c-11 0 -17 0 -42 2v-89c19 1 36 2 48 2c50 0 67 -18 67 -37c0 -25 -27 -37 -51 -37c-36 0 -50 9 -86 44l-69 -65c37 -55 90 -82 154 -82c94 0 163 61 163 140z" />
    <glyph glyph-name="uni278D" unicode="&#x278d;" horiz-adv-x="769" 
d="M41 350c0 199 151 355 344 355s344 -156 344 -355s-151 -355 -344 -355s-344 156 -344 355zM506 227h56v105h-56v109h-80l-29 -109h-86l78 238h-107l-90 -283v-60h205v-79h109v79z" />
    <glyph glyph-name="uni278E" unicode="&#x278e;" horiz-adv-x="769" 
d="M385 -5c-193 0 -344 156 -344 355s151 355 344 355s344 -156 344 -355s-151 -355 -344 -355zM384 129c91 0 161 60 161 152c0 76 -53 134 -137 134c-29 0 -54 -7 -72 -19v61h187v105h-284v-255l84 -17c18 18 40 29 65 29c31 0 50 -18 50 -42c0 -27 -22 -43 -52 -43
c-27 0 -49 11 -65 29l-81 -59c39 -57 95 -75 144 -75z" />
    <glyph glyph-name="uni278F" unicode="&#x278f;" horiz-adv-x="769" 
d="M729 351c0 -199 -151 -356 -344 -356s-344 157 -344 356s151 354 344 354s344 -155 344 -354zM213 328c0 -117 76 -197 173 -197c102 0 162 63 162 151c0 73 -61 126 -139 126c-38 0 -70 -13 -96 -35c11 71 50 100 88 100c36 0 58 -9 91 -34l60 72c-40 39 -94 60 -146 60
c-120 0 -193 -89 -193 -243zM329 274c0 30 25 48 59 48s58 -18 58 -48s-24 -48 -58 -48s-59 18 -59 48z" />
    <glyph glyph-name="uni2790" unicode="&#x2790;" horiz-adv-x="769" 
d="M41 350c0 199 151 355 344 355s344 -156 344 -355s-151 -355 -344 -355s-344 156 -344 355zM372 138l169 343v79h-305v-105h173l-155 -317h118z" />
    <glyph glyph-name="uni2791" unicode="&#x2791;" horiz-adv-x="769" 
d="M385 -5c-193 0 -344 156 -344 355s151 355 344 355s344 -156 344 -355s-151 -355 -344 -355zM384 130c107 0 164 60 164 126c0 36 -21 76 -69 101c45 22 62 57 62 87c0 65 -52 126 -157 126c-104 0 -156 -60 -156 -126c0 -30 16 -65 60 -88c-47 -23 -67 -63 -67 -99
c0 -68 57 -127 163 -127zM384 394c-29 0 -46 21 -46 42s17 40 46 40s46 -19 46 -40s-17 -42 -46 -42zM384 225c-33 0 -53 19 -53 42c0 24 19 46 53 46c33 0 53 -23 53 -46s-20 -42 -53 -42z" />
    <glyph glyph-name="uni2792" unicode="&#x2792;" horiz-adv-x="769" 
d="M41 351c0 198 151 354 344 354s344 -156 344 -354c0 -200 -151 -356 -344 -356s-344 156 -344 356zM556 374c0 116 -76 196 -172 196c-102 0 -163 -62 -163 -151c0 -73 62 -125 139 -125c39 0 70 13 97 35c-12 -71 -49 -100 -89 -100c-36 0 -57 8 -90 34l-61 -72
c41 -40 94 -61 146 -61c121 0 193 90 193 244zM440 427c0 -29 -25 -47 -58 -47c-34 0 -59 18 -59 47c0 30 25 48 59 48c33 0 58 -18 58 -48z" />
    <glyph glyph-name="zero.tf" horiz-adv-x="587" 
d="M294 -13c-158 0 -261 139 -261 370c0 229 103 371 261 371s260 -142 260 -371c0 -231 -102 -370 -260 -370zM294 134c80 0 108 100 108 223c0 110 -28 223 -108 223c-83 0 -109 -113 -109 -223c0 -123 27 -223 109 -223z" />
    <glyph glyph-name="one.tf" horiz-adv-x="587" 
d="M393 715v-570h159v-145h-480v145h171v361c-39 -19 -97 -34 -165 -34v141c94 0 175 40 197 102h118z" />
    <glyph glyph-name="two.tf" horiz-adv-x="587" 
d="M394 270l-116 -126h250v-144h-461v125l200 215c80 87 104 136 104 177c0 42 -26 66 -69 66c-48 0 -100 -32 -146 -96l-107 80c67 98 148 160 267 160c127 0 207 -82 207 -195c0 -95 -48 -175 -129 -262z" />
    <glyph glyph-name="three.tf" horiz-adv-x="587" 
d="M415 382c74 -33 117 -94 117 -181c0 -117 -99 -214 -248 -214c-99 0 -173 39 -242 124l96 91c62 -52 89 -68 145 -68c57 0 98 34 98 89c0 59 -55 87 -128 87c-15 0 -37 -1 -65 -3v130c33 -2 43 -2 55 -2c68 0 112 28 112 82c0 39 -34 65 -84 65c-52 0 -89 -21 -136 -73
l-96 96c83 92 146 123 234 123c143 0 229 -79 229 -187c0 -70 -32 -125 -87 -159z" />
    <glyph glyph-name="four.tf" horiz-adv-x="587" 
d="M489 308h87v-145h-87v-163h-151v163h-309v95l159 457h149l-140 -407h137l54 154h101v-154z" />
    <glyph glyph-name="five.tf" horiz-adv-x="587" 
d="M324 469c128 0 219 -94 219 -220c0 -167 -111 -262 -248 -262c-88 0 -176 32 -241 124l120 81c32 -36 73 -52 114 -52c64 0 103 40 103 102c0 51 -46 83 -100 83c-41 0 -76 -18 -107 -48l-119 23v415h437v-145h-294v-130c30 17 70 29 116 29z" />
    <glyph glyph-name="six.tf" horiz-adv-x="587" 
d="M318 454c147 0 237 -93 237 -212c0 -149 -96 -255 -252 -255s-272 112 -272 345c0 251 114 396 291 396c85 0 152 -24 224 -83l-83 -105c-56 36 -91 48 -143 48c-75 0 -137 -58 -152 -206c39 46 91 72 150 72zM299 127c64 0 108 38 108 102c0 59 -44 95 -108 95
c-63 0 -108 -36 -108 -95c0 -64 45 -102 108 -102z" />
    <glyph glyph-name="seven.tf" horiz-adv-x="587" 
d="M53 570v145h501v-127l-309 -588h-167l301 570h-326z" />
    <glyph glyph-name="eight.tf" horiz-adv-x="587" 
d="M439 370c68 -38 104 -101 104 -171c0 -111 -86 -212 -249 -212s-250 101 -250 212c0 71 38 133 106 171c-58 38 -89 95 -89 157c0 108 75 201 234 201c157 0 231 -93 231 -201c0 -60 -30 -118 -87 -157zM294 587c-52 0 -84 -27 -84 -67c0 -46 32 -76 84 -76s84 30 84 76
c0 40 -32 67 -84 67zM294 129c60 0 98 32 98 83c0 57 -38 94 -98 94s-98 -37 -98 -94c0 -51 38 -83 98 -83z" />
    <glyph glyph-name="nine.tf" horiz-adv-x="587" 
d="M286 728c156 0 272 -111 272 -345c0 -250 -114 -396 -291 -396c-85 0 -152 24 -224 84l83 104c56 -36 90 -48 143 -48c75 0 137 58 152 207c-39 -46 -91 -72 -150 -72c-147 0 -237 92 -237 212c0 149 96 254 252 254zM290 391c63 0 108 36 108 96c0 64 -45 102 -108 102
c-64 0 -108 -39 -108 -102c0 -60 44 -96 108 -96z" />
    <glyph glyph-name="uni2080" unicode="&#x2080;" horiz-adv-x="396" 
d="M199 -139c-106 0 -175 85 -175 225c0 139 69 225 175 225c105 0 174 -86 174 -225c0 -140 -69 -225 -174 -225zM199 202c-47 0 -62 -55 -62 -116c0 -62 15 -117 62 -117c46 0 60 55 60 117c0 61 -14 116 -60 116z" />
    <glyph glyph-name="uni2081" unicode="&#x2081;" horiz-adv-x="258" 
d="M136 302h86v-432h-112v285c-24 -13 -58 -21 -97 -21v105c59 0 112 25 123 63z" />
    <glyph glyph-name="uni2082" unicode="&#x2082;" horiz-adv-x="374" 
d="M251 31l-51 -53h142v-108h-307v83l119 120c48 48 71 78 71 101c0 21 -17 31 -36 31c-25 0 -51 -18 -82 -53l-81 59c36 55 86 100 166 100c88 0 146 -59 146 -129c0 -53 -34 -96 -87 -151z" />
    <glyph glyph-name="uni2083" unicode="&#x2083;" horiz-adv-x="367" 
d="M283 102c40 -22 63 -57 63 -97c0 -82 -70 -144 -166 -144c-66 0 -120 27 -158 83l70 68c38 -36 52 -46 88 -46c25 0 52 13 52 39c0 19 -18 37 -68 37c-11 0 -29 -1 -49 -3v92c26 -2 32 -2 43 -2c34 0 59 16 59 44c0 20 -18 33 -44 33c-30 0 -58 -15 -87 -49l-71 72
c55 61 99 82 162 82c93 0 150 -50 150 -116c0 -40 -15 -72 -44 -93z" />
    <glyph glyph-name="uni2084" unicode="&#x2084;" horiz-adv-x="403" 
d="M333 59h57v-108h-57v-81h-112v81h-208v62l99 289h110l-84 -243h83l31 111h81v-111z" />
    <glyph glyph-name="uni2085" unicode="&#x2085;" horiz-adv-x="375" 
d="M208 153c88 0 142 -60 142 -138c0 -95 -71 -156 -164 -156c-50 0 -108 18 -148 77l83 60c17 -17 39 -29 66 -29c31 0 53 17 53 44c0 24 -19 42 -51 42c-25 0 -47 -11 -66 -28l-87 16v261h292v-108h-192v-61c18 12 43 20 72 20z" />
    <glyph glyph-name="uni2086" unicode="&#x2086;" horiz-adv-x="384" 
d="M220 144c82 0 145 -53 145 -128c0 -91 -62 -155 -167 -155c-98 0 -176 81 -176 201c0 158 74 249 197 249c53 0 108 -21 150 -61l-63 -74c-34 25 -55 34 -90 34c-42 0 -79 -28 -92 -103c26 24 59 37 96 37zM201 -41c34 0 59 18 59 49c0 30 -25 48 -59 48s-60 -18 -60 -48
c0 -31 26 -49 60 -49z" />
    <glyph glyph-name="uni2087" unicode="&#x2087;" horiz-adv-x="359" 
d="M19 194v108h333v-82l-194 -350h-121l179 324h-197z" />
    <glyph glyph-name="uni2088" unicode="&#x2088;" horiz-adv-x="377" 
d="M292 93c45 -24 64 -63 64 -99c0 -70 -58 -133 -167 -133s-168 62 -168 134c0 35 19 74 64 98c-41 24 -57 60 -57 90c0 67 53 129 161 129c107 0 160 -63 160 -129c0 -31 -16 -66 -57 -90zM189 214c-30 0 -47 -18 -47 -40c0 -21 17 -42 47 -42c29 0 46 21 46 42
s-17 40 -46 40zM189 -41c33 0 53 19 53 43c0 23 -20 46 -53 46c-35 0 -55 -22 -55 -46s21 -43 55 -43z" />
    <glyph glyph-name="uni2089" unicode="&#x2089;" horiz-adv-x="384" 
d="M186 311c98 0 176 -81 176 -200c0 -158 -74 -250 -197 -250c-53 0 -108 21 -150 61l63 74c34 -25 55 -34 90 -34c42 0 79 29 93 104c-27 -24 -59 -38 -94 -38c-85 0 -147 54 -147 129c0 91 61 154 166 154zM183 117c34 0 60 18 60 48c0 31 -26 48 -60 48s-59 -18 -59 -48
s25 -48 59 -48z" />
    <glyph glyph-name="zero.dnom" horiz-adv-x="396" 
d="M199 -9c-106 0 -175 85 -175 225c0 139 69 225 175 225c105 0 174 -86 174 -225c0 -140 -69 -225 -174 -225zM199 332c-47 0 -62 -55 -62 -116c0 -62 15 -117 62 -117c46 0 60 55 60 117c0 61 -14 116 -60 116z" />
    <glyph glyph-name="one.dnom" horiz-adv-x="258" 
d="M136 432h86v-432h-112v285c-24 -13 -58 -21 -97 -21v105c59 0 112 25 123 63z" />
    <glyph glyph-name="two.dnom" horiz-adv-x="374" 
d="M251 161l-51 -53h142v-108h-307v84l119 119c48 48 71 78 71 101c0 21 -17 31 -36 31c-25 0 -51 -18 -82 -53l-81 59c36 55 86 100 166 100c88 0 146 -59 146 -129c0 -53 -34 -96 -87 -151z" />
    <glyph glyph-name="three.dnom" horiz-adv-x="367" 
d="M283 232c40 -22 63 -57 63 -97c0 -82 -70 -144 -166 -144c-66 0 -120 27 -158 84l70 67c38 -36 52 -45 88 -45c25 0 52 13 52 38c0 19 -18 37 -68 37c-11 0 -29 -1 -49 -3v92c26 -2 32 -2 43 -2c34 0 59 16 59 44c0 20 -18 33 -44 33c-30 0 -58 -15 -87 -49l-71 72
c55 61 99 82 162 82c93 0 150 -50 150 -116c0 -40 -15 -72 -44 -93z" />
    <glyph glyph-name="four.dnom" horiz-adv-x="403" 
d="M333 189h57v-108h-57v-81h-112v81h-208v62l99 289h110l-84 -243h83l31 111h81v-111z" />
    <glyph glyph-name="five.dnom" horiz-adv-x="375" 
d="M208 283c88 0 142 -60 142 -138c0 -94 -71 -156 -164 -156c-50 0 -108 19 -148 78l83 60c17 -18 39 -29 66 -29c31 0 53 16 53 43c0 24 -19 42 -51 42c-25 0 -47 -11 -66 -28l-87 16v261h292v-108h-192v-61c18 12 43 20 72 20z" />
    <glyph glyph-name="six.dnom" horiz-adv-x="384" 
d="M220 274c82 0 145 -53 145 -128c0 -91 -62 -155 -167 -155c-98 0 -176 82 -176 201c0 158 74 249 197 249c53 0 108 -21 150 -61l-63 -74c-34 25 -55 34 -90 34c-42 0 -79 -28 -92 -103c26 24 59 37 96 37zM201 89c34 0 59 18 59 49c0 30 -25 48 -59 48s-60 -18 -60 -48
c0 -31 26 -49 60 -49z" />
    <glyph glyph-name="seven.dnom" horiz-adv-x="359" 
d="M19 324v108h333v-82l-194 -350h-121l179 324h-197z" />
    <glyph glyph-name="eight.dnom" horiz-adv-x="377" 
d="M292 223c45 -24 64 -63 64 -98c0 -70 -58 -134 -167 -134s-168 63 -168 135c0 34 19 73 64 97c-41 24 -57 60 -57 90c0 67 53 129 161 129c107 0 160 -63 160 -129c0 -31 -16 -66 -57 -90zM189 344c-30 0 -47 -18 -47 -40c0 -21 17 -42 47 -42c29 0 46 21 46 42
s-17 40 -46 40zM189 89c33 0 53 20 53 43s-20 46 -53 46c-35 0 -55 -22 -55 -46s21 -43 55 -43z" />
    <glyph glyph-name="nine.dnom" horiz-adv-x="384" 
d="M186 441c98 0 176 -81 176 -200c0 -158 -74 -250 -197 -250c-53 0 -108 21 -150 62l63 74c34 -25 55 -34 90 -34c42 0 79 28 93 103c-27 -24 -59 -38 -94 -38c-85 0 -147 54 -147 129c0 91 61 154 166 154zM183 247c34 0 60 18 60 48c0 31 -26 48 -60 48s-59 -18 -59 -48
s25 -48 59 -48z" />
    <glyph glyph-name="zero.numr" horiz-adv-x="396" 
d="M199 279c-106 0 -175 85 -175 224c0 140 69 226 175 226c105 0 174 -86 174 -226c0 -139 -69 -224 -174 -224zM199 620c-47 0 -62 -55 -62 -117c0 -61 15 -116 62 -116c46 0 60 55 60 116c0 62 -14 117 -60 117z" />
    <glyph glyph-name="one.numr" horiz-adv-x="258" 
d="M136 720h86v-432h-112v285c-24 -13 -58 -22 -97 -22v106c59 0 112 24 123 63z" />
    <glyph glyph-name="two.numr" horiz-adv-x="374" 
d="M251 448l-51 -52h142v-108h-307v83l119 119c48 47 71 78 71 101c0 21 -17 31 -36 31c-25 0 -51 -18 -82 -53l-81 59c36 55 86 100 166 100c88 0 146 -59 146 -129c0 -53 -34 -96 -87 -151z" />
    <glyph glyph-name="three.numr" horiz-adv-x="367" 
d="M283 520c40 -22 63 -58 63 -98c0 -81 -70 -143 -166 -143c-66 0 -120 27 -158 83l70 68c38 -36 52 -46 88 -46c25 0 52 13 52 38c0 19 -18 37 -68 37c-11 0 -29 -1 -49 -2v92c26 -2 32 -2 43 -2c34 0 59 15 59 43c0 21 -18 34 -44 34c-30 0 -58 -16 -87 -50l-71 72
c55 62 99 83 162 83c93 0 150 -50 150 -116c0 -40 -15 -72 -44 -93z" />
    <glyph glyph-name="four.numr" horiz-adv-x="403" 
d="M333 477h57v-108h-57v-81h-112v81h-208v62l99 289h110l-83 -243h82l31 110h81v-110z" />
    <glyph glyph-name="five.numr" horiz-adv-x="375" 
d="M208 570c88 0 142 -59 142 -137c0 -95 -71 -156 -164 -156c-50 0 -108 18 -148 77l83 60c17 -17 39 -29 66 -29c31 0 53 17 53 44c0 24 -19 42 -51 42c-25 0 -47 -11 -66 -29l-87 17v261h292v-108h-192v-62c18 12 43 20 72 20z" />
    <glyph glyph-name="six.numr" horiz-adv-x="384" 
d="M220 562c82 0 145 -54 145 -129c0 -90 -62 -154 -167 -154c-98 0 -176 81 -176 201c0 157 74 249 197 249c53 0 108 -21 150 -62l-63 -74c-34 26 -55 35 -90 35c-42 0 -79 -28 -92 -103c26 23 59 37 96 37zM201 377c34 0 59 18 59 48s-25 48 -59 48s-60 -18 -60 -48
s26 -48 60 -48z" />
    <glyph glyph-name="seven.numr" horiz-adv-x="359" 
d="M19 612v108h333v-82l-194 -350h-121l179 324h-197z" />
    <glyph glyph-name="eight.numr" horiz-adv-x="377" 
d="M292 510c45 -24 64 -63 64 -98c0 -70 -58 -133 -167 -133s-168 62 -168 134c0 35 19 74 64 97c-41 24 -57 59 -57 90c0 67 53 129 161 129c107 0 160 -62 160 -129c0 -30 -16 -65 -57 -90zM189 632c-30 0 -47 -19 -47 -40c0 -22 17 -42 47 -42c29 0 46 20 46 42
c0 21 -17 40 -46 40zM189 377c33 0 53 19 53 43c0 23 -20 45 -53 45c-35 0 -55 -22 -55 -45c0 -24 21 -43 55 -43z" />
    <glyph glyph-name="nine.numr" horiz-adv-x="384" 
d="M186 729c98 0 176 -82 176 -201c0 -157 -74 -249 -197 -249c-53 0 -108 21 -150 61l63 74c34 -25 55 -34 90 -34c42 0 79 29 93 103c-27 -23 -59 -37 -94 -37c-85 0 -147 54 -147 128c0 91 61 155 166 155zM183 534c34 0 60 18 60 48c0 31 -26 49 -60 49s-59 -18 -59 -49
c0 -30 25 -48 59 -48z" />
    <glyph glyph-name="uni2070" unicode="&#x2070;" horiz-adv-x="396" 
d="M199 367c-106 0 -175 85 -175 224c0 140 69 226 175 226c105 0 174 -86 174 -226c0 -139 -69 -224 -174 -224zM199 708c-47 0 -62 -55 -62 -117c0 -61 15 -116 62 -116c46 0 60 55 60 116c0 62 -14 117 -60 117z" />
    <glyph glyph-name="uni00B9" unicode="&#xb9;" horiz-adv-x="258" 
d="M136 808h86v-432h-112v285c-24 -13 -58 -22 -97 -22v106c59 0 112 24 123 63z" />
    <glyph glyph-name="uni00B2" unicode="&#xb2;" horiz-adv-x="374" 
d="M251 536l-51 -52h142v-108h-307v83l119 119c48 47 71 78 71 101c0 21 -17 31 -36 31c-25 0 -51 -18 -82 -53l-81 59c36 55 86 100 166 100c88 0 146 -59 146 -129c0 -53 -34 -96 -87 -151z" />
    <glyph glyph-name="uni00B3" unicode="&#xb3;" horiz-adv-x="367" 
d="M283 608c40 -22 63 -58 63 -98c0 -81 -70 -143 -166 -143c-66 0 -120 27 -158 83l70 68c38 -36 52 -46 88 -46c25 0 52 13 52 38c0 19 -18 37 -68 37c-11 0 -29 -1 -49 -2v92c26 -2 32 -2 43 -2c34 0 59 15 59 43c0 21 -18 34 -44 34c-30 0 -58 -16 -87 -50l-71 72
c55 62 99 83 162 83c93 0 150 -50 150 -116c0 -40 -15 -72 -44 -93z" />
    <glyph glyph-name="uni2074" unicode="&#x2074;" horiz-adv-x="403" 
d="M333 565h57v-108h-57v-81h-112v81h-208v62l99 289h110l-83 -243h82l31 110h81v-110z" />
    <glyph glyph-name="uni2075" unicode="&#x2075;" horiz-adv-x="375" 
d="M208 658c88 0 142 -59 142 -137c0 -95 -71 -156 -164 -156c-50 0 -108 18 -148 77l83 60c17 -17 39 -29 66 -29c31 0 53 17 53 44c0 24 -19 42 -51 42c-25 0 -47 -11 -66 -29l-87 17v261h292v-108h-192v-62c18 12 43 20 72 20z" />
    <glyph glyph-name="uni2076" unicode="&#x2076;" horiz-adv-x="384" 
d="M220 650c82 0 145 -54 145 -129c0 -90 -62 -154 -167 -154c-98 0 -176 81 -176 201c0 157 74 249 197 249c53 0 108 -21 150 -62l-63 -74c-34 26 -55 35 -90 35c-42 0 -79 -28 -92 -103c26 23 59 37 96 37zM201 465c34 0 59 18 59 48s-25 48 -59 48s-60 -18 -60 -48
s26 -48 60 -48z" />
    <glyph glyph-name="uni2077" unicode="&#x2077;" horiz-adv-x="359" 
d="M19 700v108h333v-82l-194 -350h-121l179 324h-197z" />
    <glyph glyph-name="uni2078" unicode="&#x2078;" horiz-adv-x="377" 
d="M292 598c45 -24 64 -63 64 -98c0 -70 -58 -133 -167 -133s-168 62 -168 134c0 35 19 74 64 97c-41 24 -57 59 -57 90c0 67 53 129 161 129c107 0 160 -62 160 -129c0 -30 -16 -65 -57 -90zM189 720c-30 0 -47 -19 -47 -40c0 -22 17 -42 47 -42c29 0 46 20 46 42
c0 21 -17 40 -46 40zM189 465c33 0 53 19 53 43c0 23 -20 45 -53 45c-35 0 -55 -22 -55 -45c0 -24 21 -43 55 -43z" />
    <glyph glyph-name="uni2079" unicode="&#x2079;" horiz-adv-x="384" 
d="M186 817c98 0 176 -82 176 -201c0 -157 -74 -249 -197 -249c-53 0 -108 21 -150 61l63 74c34 -25 55 -34 90 -34c42 0 79 29 93 103c-27 -23 -59 -37 -94 -37c-85 0 -147 54 -147 128c0 91 61 155 166 155zM183 622c34 0 60 18 60 48c0 31 -26 49 -60 49s-59 -18 -59 -49
c0 -30 25 -48 59 -48z" />
    <glyph glyph-name="fraction" unicode="&#x2044;" horiz-adv-x="287" 
d="M428 693l-473 -748l-96 52l471 746z" />
    <glyph glyph-name="onehalf" unicode="&#xbd;" horiz-adv-x="930" 
d="M146 -3l471 746l98 -50l-473 -748zM222 720v-432h-113v284c-24 -13 -58 -21 -96 -21v106c59 0 111 24 123 63h86zM807 161l-51 -53h142v-108h-307v84l119 119c48 48 71 78 71 101c0 21 -17 31 -36 31c-25 0 -51 -18 -82 -53l-81 59c36 55 86 100 166 100
c88 0 146 -59 146 -129c0 -53 -34 -96 -87 -151z" />
    <glyph glyph-name="onequarter" unicode="&#xbc;" horiz-adv-x="947" 
d="M146 -3l471 746l98 -50l-473 -748zM222 720v-432h-113v284c-24 -13 -58 -21 -96 -21v106c59 0 111 24 123 63h86zM877 189h57v-108h-57v-81h-112v81h-208v62l99 289h110l-84 -243h83l31 111h81v-111z" />
    <glyph glyph-name="threequarters" unicode="&#xbe;" horiz-adv-x="990" 
d="M226 -3l470 746l98 -50l-472 -748zM346 422c0 -81 -70 -143 -166 -143c-66 0 -120 27 -158 83l70 68c38 -36 52 -46 88 -46c25 0 52 13 52 38c0 19 -18 37 -68 37c-11 0 -29 -1 -49 -2v92c26 -2 32 -2 43 -2c34 0 59 15 59 43c0 21 -18 34 -44 34c-30 0 -58 -16 -87 -50
l-71 72c55 62 99 83 162 83c93 0 150 -50 150 -116c0 -40 -15 -72 -44 -93c40 -22 63 -58 63 -98zM920 189h57v-108h-57v-81h-112v81h-208v62l99 289h110l-84 -243h83l31 111h81v-111z" />
    <glyph glyph-name="uni2160" unicode="&#x2160;" horiz-adv-x="490" 
d="M454 682v-141h-134v-399h134v-142h-418v142h134v399h-134v141h418z" />
    <glyph glyph-name="uni2161" unicode="&#x2161;" horiz-adv-x="792" 
d="M756 682v-141h-133v-399h133v-142h-720v142h134v399h-134v141h720zM320 142h153v399h-153v-399z" />
    <glyph glyph-name="uni2162" unicode="&#x2162;" horiz-adv-x="1090" 
d="M1054 682v-141h-134v-399h134v-142h-1018v142h134v399h-134v141h1018zM320 541v-399h153v399h-153zM623 142h148v399h-148v-399z" />
    <glyph glyph-name="uni2163" unicode="&#x2163;" horiz-adv-x="1043" 
d="M1020 682v-141h-94l-118 -399h212v-142h-984v142h134v399h-134v141h984zM408 541h-88v-399h205zM559 541l108 -367l108 367h-216z" />
    <glyph glyph-name="uni2164" unicode="&#x2164;" horiz-adv-x="753" 
d="M729 682v-141h-94l-117 -399h211v-142h-705v142h211l-117 399h-94v141h705zM269 541l108 -366l107 366h-215z" />
    <glyph glyph-name="uni2165" unicode="&#x2165;" horiz-adv-x="1043" 
d="M1007 682v-141h-134v-399h134v-142h-983v142h211l-117 399h-94v141h983zM377 175l107 366h-215zM518 142h206v399h-89z" />
    <glyph glyph-name="uni2166" unicode="&#x2166;" horiz-adv-x="1346" 
d="M1310 682v-141h-134v-399h134v-142h-1286v142h211l-117 399h-94v141h1286zM377 175l107 366h-215zM636 541l-118 -399h206v399h-88zM874 142h152v399h-152v-399z" />
    <glyph glyph-name="uni2167" unicode="&#x2167;" horiz-adv-x="1647" 
d="M1611 682v-142h-134v-398h134v-142h-1587v142h212l-118 398h-94v142h1587zM378 175l107 365h-215zM637 540l-117 -398h205v398h-88zM875 540v-398h153v398h-153zM1179 142h148v398h-148v-398z" />
    <glyph glyph-name="uni2168" unicode="&#x2168;" horiz-adv-x="1019" 
d="M989 541h-105l-143 -200l143 -199h105v-142h-953v142h134v399h-134v141h953v-141zM423 541h-103v-399h103l144 199zM575 541l79 -120l78 120h-157zM654 262l-79 -120h157z" />
    <glyph glyph-name="uni2169" unicode="&#x2169;" horiz-adv-x="745" 
d="M711 541h-106l-147 -200l150 -204h103v-142h-681v142h103l150 204l-147 200h-106v141h681v-141zM371 418l82 123h-164zM371 264l-85 -127h170z" />
    <glyph glyph-name="uni216C" unicode="&#x216c;" horiz-adv-x="658" 
d="M485 142v150h149v-292h-598v142h110v399h-110v141h394v-141h-134v-399h189z" />
    <glyph glyph-name="uni216D" unicode="&#x216d;" horiz-adv-x="766" 
d="M382 550c-115 0 -199 -89 -199 -210c0 -116 84 -207 199 -207c88 0 159 49 184 131h149v-264h-145v86c-49 -63 -116 -99 -205 -99c-196 0 -335 152 -335 352c0 207 139 356 335 356c87 0 155 -31 205 -84v71h145v-268h-149c-25 80 -96 136 -184 136z" />
    <glyph glyph-name="uni216E" unicode="&#x216e;" horiz-adv-x="767" 
d="M406 682c190 0 331 -131 331 -344c0 -218 -141 -338 -332 -338h-369v141h115v400h-115v141h370zM301 141h100c101 0 183 62 183 197c0 130 -81 203 -182 203h-101v-400z" />
    <glyph glyph-name="uni216F" unicode="&#x216f;" horiz-adv-x="995" 
d="M832 540l71 -397h81v-143h-294v143h63l-36 219l-15 97c-14 -42 -29 -89 -39 -118l-112 -330h-107l-112 329l-39 119l-15 -97l-36 -219h63v-143h-294v143h81l71 397h-114v142h300l149 -402l149 402h299v-142h-114z" />
    <glyph glyph-name="period" unicode="." horiz-adv-x="295" 
d="M147 -10c-57 0 -104 48 -104 105s47 104 104 104c59 0 106 -47 106 -104s-47 -105 -106 -105z" />
    <glyph glyph-name="comma" unicode="," horiz-adv-x="301" 
d="M263 77c0 -83 -48 -166 -158 -246l-68 65c50 44 73 94 73 131c0 47 -28 74 -68 94c20 65 67 83 112 83c55 0 109 -48 109 -127z" />
    <glyph glyph-name="colon" unicode=":" horiz-adv-x="295" 
d="M147 325c-57 0 -104 48 -104 105s47 104 104 104c59 0 106 -47 106 -104s-47 -105 -106 -105zM147 -10c-57 0 -104 48 -104 105s47 104 104 104c59 0 106 -47 106 -104s-47 -105 -106 -105z" />
    <glyph glyph-name="semicolon" unicode=";" horiz-adv-x="300" 
d="M150 325c-57 0 -104 48 -104 105s47 104 104 104c59 0 106 -47 106 -104s-47 -105 -106 -105zM262 77c0 -83 -47 -166 -157 -246l-69 65c50 44 73 94 73 131c0 47 -28 74 -68 94c20 65 67 83 112 83c56 0 109 -48 109 -127z" />
    <glyph glyph-name="ellipsis" unicode="&#x2026;" horiz-adv-x="833" 
d="M149 -10c-57 0 -105 48 -105 105s48 104 105 104c58 0 105 -47 105 -104s-47 -105 -105 -105zM416 -10c-57 0 -105 48 -105 105s48 104 105 104c58 0 105 -47 105 -104s-47 -105 -105 -105zM685 -10c-57 0 -104 48 -104 105s47 104 104 104c59 0 106 -47 106 -104
s-47 -105 -106 -105z" />
    <glyph glyph-name="exclam" unicode="!" horiz-adv-x="301" 
d="M75 404l-10 345h170l-10 -345l-13 -170h-124zM150 -7c-54 0 -97 43 -97 97s43 98 97 98s98 -44 98 -98s-43 -97 -98 -97z" />
    <glyph glyph-name="exclamdown" unicode="&#xa1;" horiz-adv-x="301" 
d="M151 561c54 0 97 -43 97 -97s-43 -98 -97 -98s-98 44 -98 98s44 97 98 97zM226 150l10 -346h-170l10 346l13 170h124z" />
    <glyph glyph-name="question" unicode="?" horiz-adv-x="570" 
d="M347 282l-92 -59l-75 115l72 49c91 61 123 90 123 143c0 45 -36 77 -82 77c-40 0 -81 -15 -140 -70l-31 -28l-92 108l22 22c65 67 146 114 245 114c140 0 231 -96 231 -216c0 -100 -47 -170 -181 -255zM281 -8c-54 0 -97 43 -97 97c0 55 43 98 97 98s98 -43 98 -98
c0 -54 -43 -97 -98 -97z" />
    <glyph glyph-name="questiondown" unicode="&#xbf;" horiz-adv-x="536" 
d="M289 554c54 0 97 -42 97 -97c0 -54 -43 -97 -97 -97c-53 0 -98 43 -98 97c0 55 44 97 98 97zM223 265l93 59l75 -116l-73 -49c-91 -60 -122 -90 -122 -143c0 -45 35 -77 81 -77c41 0 81 15 140 71l32 27l91 -108l-21 -22c-65 -67 -146 -114 -245 -114
c-140 0 -231 96 -231 217c0 100 47 170 180 255z" />
    <glyph glyph-name="periodcentered" unicode="&#xb7;" horiz-adv-x="286" 
d="M143 185c-57 0 -105 48 -105 105s48 104 105 104c58 0 105 -47 105 -104s-47 -105 -105 -105z" />
    <glyph glyph-name="bullet" unicode="&#x2022;" horiz-adv-x="391" 
d="M196 143c-83 0 -151 69 -151 152c0 84 68 152 151 152c82 0 151 -68 151 -152c0 -83 -69 -152 -151 -152z" />
    <glyph glyph-name="asterisk" unicode="*" horiz-adv-x="465" 
d="M313 601l122 13v-106l-125 13l81 -106l-98 -53l-57 113l-57 -114l-100 53l82 107l-131 -13v106l128 -14l-81 106l99 52l59 -117l58 116l98 -52z" />
    <glyph glyph-name="numbersign" unicode="#" horiz-adv-x="719" 
d="M683 532v-116h-136l-26 -141h112v-116h-133l-33 -178h-126l33 178h-112l-33 -178h-127l33 178h-99v116h120l26 141h-96v116h117l33 177h127l-33 -177h112l33 177h126l-33 -177h115zM283 275h112l26 141h-112z" />
    <glyph glyph-name="slash" unicode="/" horiz-adv-x="516" 
d="M522 723l-404 -829l-125 58l405 829z" />
    <glyph glyph-name="backslash" unicode="\" horiz-adv-x="516" 
d="M522 -48l-124 -58l-405 829l125 58z" />
    <glyph glyph-name="parenleft" unicode="(" horiz-adv-x="370" 
d="M192 346c0 -169 63 -294 169 -401l-99 -92c-123 110 -215 271 -215 493c0 223 92 383 215 493l99 -92c-106 -107 -169 -232 -169 -401z" />
    <glyph glyph-name="parenright" unicode=")" horiz-adv-x="370" 
d="M177 346c0 169 -63 294 -168 401l99 92c122 -110 214 -270 214 -493c0 -222 -92 -383 -214 -493l-99 92c105 107 168 232 168 401z" />
    <glyph glyph-name="braceleft" unicode="{" horiz-adv-x="344" 
d="M262 -22h44l2 -135c-25 -6 -46 -7 -66 -7c-141 0 -195 75 -195 153c0 91 101 163 101 229c0 24 -16 43 -48 57l-51 21v100l51 22c32 13 48 33 48 57c0 65 -101 137 -101 228c0 78 54 153 195 153c20 0 41 -1 66 -7l-2 -135h-44c-39 0 -62 -16 -62 -47
c0 -65 86 -135 86 -212c0 -43 -22 -82 -54 -109c32 -26 54 -65 54 -109c0 -76 -86 -146 -86 -211c0 -32 23 -48 62 -48z" />
    <glyph glyph-name="braceright" unicode="}" horiz-adv-x="344" 
d="M295 296l-51 -21c-32 -14 -48 -33 -48 -57c0 -66 101 -138 101 -229c0 -78 -54 -153 -195 -153c-20 0 -41 1 -66 7l2 135h44c39 0 62 16 62 48c0 65 -86 135 -86 211c0 44 22 83 54 109c-32 27 -54 66 -54 109c0 77 86 147 86 212c0 31 -23 47 -62 47h-44l-2 135
c25 6 46 7 66 7c141 0 195 -75 195 -153c0 -91 -101 -163 -101 -228c0 -24 16 -44 48 -57l51 -22v-100z" />
    <glyph glyph-name="bracketleft" unicode="[" horiz-adv-x="348" 
d="M325 817v-141h-113v-701h113v-141h-263v983h263z" />
    <glyph glyph-name="bracketright" unicode="]" horiz-adv-x="343" 
d="M282 817v-983h-264v141h114v701h-114v141h264z" />
    <glyph glyph-name="hyphen" unicode="-" horiz-adv-x="388" 
d="M358 368v-137h-328v137h328z" />
    <glyph glyph-name="uni00AD" unicode="&#xad;" horiz-adv-x="388" 
d="M358 368v-137h-328v137h328z" />
    <glyph glyph-name="endash" unicode="&#x2013;" horiz-adv-x="601" 
d="M578 367v-135h-554v135h554z" />
    <glyph glyph-name="emdash" unicode="&#x2014;" horiz-adv-x="1028" 
d="M1005 367v-135h-982v135h982z" />
    <glyph glyph-name="underscore" unicode="_" horiz-adv-x="582" 
d="M560 14v-123h-538v123h538z" />
    <glyph glyph-name="quotesinglbase" unicode="&#x201a;" horiz-adv-x="254" 
d="M80 -179l-58 61c48 48 69 94 69 131c0 42 -22 61 -64 86c14 43 56 73 101 73c56 0 109 -48 109 -123c0 -72 -46 -160 -157 -228z" />
    <glyph glyph-name="quotedblbase" unicode="&#x201e;" horiz-adv-x="502" 
d="M77 -178l-59 61c49 48 70 94 70 131c0 42 -22 61 -65 86c14 43 56 73 101 73c57 0 110 -48 110 -123c0 -72 -47 -160 -157 -228zM326 -178l-59 61c49 48 70 94 70 131c0 42 -22 61 -65 86c14 43 56 73 101 73c57 0 110 -48 110 -123c0 -72 -47 -160 -157 -228z" />
    <glyph glyph-name="quotedblleft" unicode="&#x201c;" horiz-adv-x="503" 
d="M127 405c-57 0 -110 47 -110 122c0 72 47 160 157 228l59 -61c-49 -48 -70 -94 -70 -131c0 -41 22 -60 65 -86c-14 -43 -56 -72 -101 -72zM376 405c-57 0 -110 47 -110 122c0 72 47 160 157 228l59 -61c-49 -48 -70 -94 -70 -131c0 -41 22 -60 65 -86
c-14 -43 -56 -72 -101 -72z" />
    <glyph glyph-name="quotedblright" unicode="&#x201d;" horiz-adv-x="503" 
d="M80 396l-58 62c48 48 69 93 69 130c0 42 -22 61 -64 86c14 43 56 73 101 73c56 0 109 -48 109 -123c0 -71 -46 -159 -157 -228zM329 396l-58 62c48 48 69 93 69 130c0 42 -22 61 -64 86c14 43 56 73 101 73c56 0 109 -48 109 -123c0 -71 -46 -159 -157 -228z" />
    <glyph glyph-name="quoteleft" unicode="&#x2018;" horiz-adv-x="254" 
d="M131 405c-57 0 -110 47 -110 122c0 72 47 160 157 228l59 -61c-49 -48 -70 -94 -70 -131c0 -41 22 -60 65 -86c-14 -43 -56 -72 -101 -72z" />
    <glyph glyph-name="quoteright" unicode="&#x2019;" horiz-adv-x="254" 
d="M76 396l-58 62c48 48 69 93 69 130c0 42 -22 61 -64 86c14 43 56 73 101 73c56 0 109 -48 109 -123c0 -71 -46 -159 -157 -228z" />
    <glyph glyph-name="guillemotleft" unicode="&#xab;" horiz-adv-x="607" 
d="M28 315l155 217h156l-154 -218l153 -215h-156zM263 315l155 217h156l-154 -218l153 -215h-156z" />
    <glyph glyph-name="guillemotright" unicode="&#xbb;" horiz-adv-x="608" 
d="M33 532h156l155 -217l-154 -216h-156l153 215zM268 532h156l155 -217l-154 -216h-156l153 215z" />
    <glyph glyph-name="guilsinglleft" unicode="&#x2039;" horiz-adv-x="373" 
d="M35 315l155 217h156l-154 -218l153 -215h-156z" />
    <glyph glyph-name="guilsinglright" unicode="&#x203a;" horiz-adv-x="373" 
d="M28 532h156l155 -217l-154 -216h-156l153 215z" />
    <glyph glyph-name="quotedbl" unicode="&#x22;" horiz-adv-x="417" 
d="M179 388h-119l-39 184v163h158v-347zM382 388h-119l-39 184v163h158v-347z" />
    <glyph glyph-name="quotesingle" unicode="'" horiz-adv-x="214" 
d="M184 388h-119l-39 184v163h158v-347z" />
    <glyph glyph-name="uni3000" unicode="&#x3000;" horiz-adv-x="1000" 
 />
    <glyph glyph-name="uni205F" unicode="&#x205f;" horiz-adv-x="222" 
 />
    <glyph glyph-name="uni2001" unicode="&#x2001;" horiz-adv-x="1000" 
 />
    <glyph glyph-name="uni2003" unicode="&#x2003;" horiz-adv-x="1000" 
 />
    <glyph glyph-name="uni2000" unicode="&#x2000;" horiz-adv-x="500" 
 />
    <glyph glyph-name="uni2002" unicode="&#x2002;" horiz-adv-x="500" 
 />
    <glyph glyph-name="uni2007" unicode="&#x2007;" horiz-adv-x="587" 
 />
    <glyph glyph-name="uni2005" unicode="&#x2005;" horiz-adv-x="250" 
 />
    <glyph glyph-name="uni200A" unicode="&#x200a;" horiz-adv-x="143" 
 />
    <glyph glyph-name="uni202F" unicode="&#x202f;" horiz-adv-x="208" 
 />
    <glyph glyph-name="uni2008" unicode="&#x2008;" horiz-adv-x="295" 
 />
    <glyph glyph-name="uni2006" unicode="&#x2006;" horiz-adv-x="167" 
 />
    <glyph glyph-name="uni00A0" unicode="&#xa0;" horiz-adv-x="260" 
 />
    <glyph glyph-name="uni2009" unicode="&#x2009;" horiz-adv-x="200" 
 />
    <glyph glyph-name="uni2004" unicode="&#x2004;" horiz-adv-x="333" 
 />
    <glyph glyph-name="uni200B" unicode="&#x200b;" 
 />
    <glyph glyph-name="uni200C" unicode="&#x200c;" 
 />
    <glyph glyph-name=".null" horiz-adv-x="462" 
 />
    <glyph glyph-name=".null" horiz-adv-x="462" 
 />
    <glyph glyph-name="cent" unicode="&#xa2;" horiz-adv-x="549" 
d="M294 229c61 0 88 32 112 76l130 -61c-33 -81 -96 -132 -180 -149v-102h-142v105c-114 30 -184 132 -184 260c0 126 73 227 184 259v112h142v-108c85 -17 147 -67 180 -150l-130 -60c-25 46 -49 76 -113 76c-69 0 -113 -51 -113 -128c0 -79 45 -130 114 -130z" />
    <glyph glyph-name="currency" unicode="&#xa4;" horiz-adv-x="611" 
d="M526 333c0 -34 -7 -67 -21 -96l76 -76l-97 -98l-74 74c-31 -16 -66 -25 -104 -25c-37 0 -72 9 -104 26l-74 -75l-98 98l77 77c-14 28 -22 61 -22 95c0 35 8 67 22 96l-77 77l98 97l74 -74c31 17 67 26 104 26c38 0 73 -9 104 -25l74 73l97 -97l-76 -77
c14 -28 21 -61 21 -96zM224 333c0 -47 34 -83 82 -83c47 0 82 36 82 83c0 48 -35 83 -82 83c-48 0 -82 -35 -82 -83z" />
    <glyph glyph-name="dollar" unicode="$" horiz-adv-x="581" 
d="M547 198c0 -102 -75 -184 -188 -207v-120h-132v119c-83 15 -149 60 -193 150l116 72c47 -70 99 -88 153 -88c51 0 89 24 89 62c0 36 -25 70 -143 95c-141 30 -195 101 -195 201c0 98 64 180 173 204v109h132v-107c81 -15 141 -58 180 -121l-116 -81
c-38 50 -88 65 -136 65c-53 0 -84 -26 -84 -61c0 -33 24 -58 120 -80c155 -37 224 -98 224 -212z" />
    <glyph glyph-name="Euro" unicode="&#x20ac;" horiz-adv-x="673" 
d="M554 179l102 -103c-71 -62 -136 -89 -240 -89c-133 0 -249 89 -295 226h-86v110h66c-1 7 -1 15 -1 22s0 15 1 22h-66v111h87c47 132 162 218 294 218c101 0 165 -26 235 -89l-102 -98c-44 33 -77 46 -131 46c-65 0 -111 -29 -138 -77h197l-31 -111h-194
c-1 -7 -1 -15 -1 -22s0 -15 1 -22h183l-31 -110h-127c27 -53 74 -85 141 -85c58 0 90 15 136 51z" />
    <glyph glyph-name="sterling" unicode="&#xa3;" horiz-adv-x="560" 
d="M272 145h258v-145h-461l-28 94l45 28c49 28 73 83 73 129v3h-112v128h63c-17 33 -31 71 -31 122c0 103 82 191 218 191c94 0 169 -34 226 -113l-104 -93c-35 46 -76 61 -120 61c-41 0 -75 -26 -75 -71c0 -32 14 -64 30 -97h177v-128h-133v-9c0 -35 -10 -69 -26 -100z" />
    <glyph glyph-name="yen" unicode="&#xa5;" horiz-adv-x="596" 
d="M438 682h145l-150 -298h109v-124h-171v-48h171v-124h-171v-88h-150v88h-171v124h171v48h-171v124h110l-147 298h145l138 -296z" />
    <glyph glyph-name="uni27D1" unicode="&#x27d1;" horiz-adv-x="181" 
d="M5 457c0 48 39 87 86 87c48 0 86 -39 86 -87c0 -47 -38 -85 -86 -85c-47 0 -86 38 -86 85z" />
    <glyph glyph-name="congruent" unicode="&#x2245;" horiz-adv-x="615" 
d="M451 684l121 -61c-39 -79 -80 -131 -164 -131c-85 0 -122 53 -177 53c-31 0 -49 -22 -72 -58l-120 62c40 80 81 131 164 131c85 0 121 -53 177 -53c31 0 49 22 71 57zM539 263h-489v137h489v-137zM539 41h-489v137h489v-137z" />
    <glyph glyph-name="forall" unicode="&#x2200;" horiz-adv-x="683" 
d="M475 570l54 165h141l-248 -735h-148l-261 735h141l57 -165h264zM258 436l90 -259l84 259h-174z" />
    <glyph glyph-name="uni208B" unicode="&#x208b;" horiz-adv-x="339" 
d="M292 42h-245v95h245v-95z" />
    <glyph glyph-name="uni207B" unicode="&#x207b;" horiz-adv-x="339" 
d="M292 558h-245v95h245v-95z" />
    <glyph glyph-name="plus" unicode="+" horiz-adv-x="587" 
d="M363 426h186v-142h-186v-186h-145v186h-179v142h179v191h145v-191z" />
    <glyph glyph-name="minus" unicode="&#x2212;" horiz-adv-x="489" 
d="M449 429v-142h-409v142h409z" />
    <glyph glyph-name="multiply" unicode="&#xd7;" horiz-adv-x="576" 
d="M438 608l100 -100l-150 -150l150 -150l-100 -99l-150 150l-150 -150l-99 99l150 150l-150 150l99 100l150 -150z" />
    <glyph glyph-name="divide" unicode="&#xf7;" horiz-adv-x="598" 
d="M296 471c-62 0 -106 40 -106 93c0 56 44 96 106 96c63 0 107 -40 107 -96c0 -53 -44 -93 -107 -93zM568 430v-144h-538v144h538zM296 56c-62 0 -106 40 -106 95c0 54 44 94 106 94c63 0 107 -40 107 -94c0 -55 -44 -95 -107 -95z" />
    <glyph glyph-name="equal" unicode="=" horiz-adv-x="566" 
d="M528 353h-489v137h489v-137zM528 130h-489v137h489v-137z" />
    <glyph glyph-name="notequal" unicode="&#x2260;" horiz-adv-x="566" 
d="M527 491v-137h-163l-33 -86h196v-137h-247l-49 -128l-120 45l31 83h-104v137h156l32 86h-188v137h239l47 124l122 -45l-30 -79h111z" />
    <glyph glyph-name="greater" unicode="&#x3e;" horiz-adv-x="522" 
d="M26 495l65 109l405 -247v-82l-405 -246l-65 108l289 179z" />
    <glyph glyph-name="less" unicode="&#x3c;" horiz-adv-x="522" 
d="M428 607l69 -112l-288 -177l288 -177l-69 -112l-402 246v86z" />
    <glyph glyph-name="greaterequal" unicode="&#x2265;" horiz-adv-x="549" 
d="M32 551l58 129l416 -181v-109l-416 -180l-58 128l281 107zM506 13h-462v142h462v-142z" />
    <glyph glyph-name="lessequal" unicode="&#x2264;" horiz-adv-x="549" 
d="M460 680l57 -129l-280 -106l280 -107l-57 -128l-417 180v109zM505 13h-462v142h462v-142z" />
    <glyph glyph-name="plusminus" unicode="&#xb1;" horiz-adv-x="587" 
d="M359 675v-163h190v-144h-190v-152h-144v152h-176v144h176v163h144zM549 6h-510v144h510v-144z" />
    <glyph glyph-name="approxequal" unicode="&#x2248;" horiz-adv-x="620" 
d="M455 522l122 -61c-40 -79 -80 -131 -165 -131c-84 0 -121 53 -177 53c-31 0 -49 -22 -71 -58l-121 62c41 80 81 131 164 131c86 0 122 -53 177 -53c32 0 49 22 71 57zM455 277l122 -61c-40 -79 -80 -131 -165 -131c-84 0 -121 53 -177 53c-31 0 -49 -22 -71 -58l-121 62
c41 80 81 131 164 131c86 0 122 -53 177 -53c32 0 49 22 71 57z" />
    <glyph glyph-name="asciitilde" unicode="~" horiz-adv-x="602" 
d="M120 212l-112 59c45 85 94 145 191 145c93 0 131 -67 197 -67c39 0 65 29 90 78l111 -58c-42 -86 -92 -146 -191 -146c-92 0 -130 67 -196 67c-39 0 -62 -27 -90 -78z" />
    <glyph glyph-name="logicalnot" unicode="&#xac;" horiz-adv-x="592" 
d="M34 416h512v-312h-145v167h-367v145z" />
    <glyph glyph-name="asciicircum" unicode="^" horiz-adv-x="492" 
d="M246 596l242 -213l-79 -87l-163 139l-162 -139l-79 87z" />
    <glyph glyph-name="infinity" unicode="&#x221e;" horiz-adv-x="909" 
d="M660 528c128 0 215 -87 215 -207s-87 -207 -215 -207c-88 0 -152 50 -206 108c-54 -58 -117 -108 -205 -108c-128 0 -215 87 -215 207s87 207 215 207c88 0 152 -50 206 -108c54 58 117 108 205 108zM249 252c44 0 81 29 118 68c-38 39 -75 69 -118 69
c-44 0 -73 -28 -73 -68c0 -41 29 -69 73 -69zM660 252c45 0 73 28 73 69c0 40 -28 68 -73 68c-44 0 -81 -28 -118 -67c38 -40 75 -70 118 -70z" />
    <glyph glyph-name="emptyset" unicode="&#x2205;" horiz-adv-x="879" 
d="M760 727l91 -102l-90 -78c33 -56 52 -121 52 -190c0 -204 -167 -370 -373 -370c-89 0 -170 30 -234 81l-84 -72l-94 102l87 75c-31 54 -49 117 -49 184c0 205 167 371 374 371c87 0 166 -29 230 -79zM219 357c0 -29 5 -56 15 -82l319 274c-33 20 -72 32 -113 32
c-122 0 -221 -100 -221 -224zM660 358c0 31 -6 60 -18 87l-319 -276c34 -21 74 -34 117 -34c121 0 220 100 220 223z" />
    <glyph glyph-name="logicaland" unicode="&#x2227;" horiz-adv-x="683" 
d="M391 570l260 -520l-128 -62l-181 363l-181 -362l-129 61l260 520h99z" />
    <glyph glyph-name="logicalor" unicode="&#x2228;" horiz-adv-x="683" 
d="M342 214l181 363l128 -61l-260 -521h-99l-260 520l129 61z" />
    <glyph glyph-name="intersection" unicode="&#x2229;" horiz-adv-x="579" 
d="M176 10h-120v276c0 131 63 251 234 251s234 -120 234 -251v-276h-120v276c0 87 -45 129 -114 129s-114 -42 -114 -129v-276z" />
    <glyph glyph-name="uni222A" unicode="&#x222a;" horiz-adv-x="579" 
d="M55 256v276h120v-276c0 -87 45 -129 114 -129s114 42 114 129v276h120v-276c0 -131 -63 -251 -234 -251s-234 120 -234 251z" />
    <glyph glyph-name="integral" unicode="&#x222b;" horiz-adv-x="403" 
d="M276 690v-792c0 -117 -65 -182 -170 -182c-30 0 -56 6 -82 16v137c20 -9 36 -12 55 -12c32 0 49 22 49 59v792c0 117 65 181 170 181c29 0 56 -6 82 -16v-136c-20 9 -36 12 -56 12c-32 0 -48 -22 -48 -59z" />
    <glyph glyph-name="product" unicode="&#x220f;" horiz-adv-x="712" 
d="M648 716v-716h-150v569h-284v-569h-150v716h584z" />
    <glyph glyph-name="summation" unicode="&#x2211;" horiz-adv-x="621" 
d="M49 716h540v-145h-334l189 -213l-189 -213h334v-145h-540v132l209 226l-209 226v132z" />
    <glyph glyph-name="radical" unicode="&#x221a;" horiz-adv-x="840" 
d="M629 955h292v-145h-187l-319 -929h-175l-231 669h154l164 -476l290 846h4z" />
    <glyph glyph-name="partialdiff" unicode="&#x2202;" horiz-adv-x="628" 
d="M280 727c175 0 316 -136 316 -389c0 -172 -102 -350 -304 -350c-139 0 -250 96 -250 248c0 133 105 231 234 231c82 0 141 -32 182 -78c-15 141 -96 200 -178 200c-69 0 -114 -15 -180 -56l-53 119c83 52 144 75 233 75zM301 131c77 0 129 48 150 125
c-22 43 -75 82 -148 82c-62 0 -114 -39 -114 -105s57 -102 112 -102z" />
    <glyph glyph-name="uni00B5" unicode="&#xb5;" horiz-adv-x="582" 
d="M376 186v328h150v-514h-111l-18 59c-48 -42 -107 -72 -168 -72c-11 0 -21 0 -30 1v-183h-150v709h150v-306c0 -59 28 -74 64 -74c40 0 81 18 113 52z" />
    <glyph glyph-name="percent" unicode="%" horiz-adv-x="813" 
d="M196 368c-96 0 -176 77 -176 172c0 97 80 172 176 172c98 0 177 -76 177 -172c0 -95 -80 -172 -177 -172zM734 639l-569 -657l-91 68l570 657zM196 482c34 0 59 24 59 58c0 35 -25 59 -59 59s-58 -24 -58 -59c0 -34 24 -58 58 -58zM617 -18c-96 0 -176 78 -176 173
c0 96 80 172 176 172c98 0 177 -77 177 -172s-80 -173 -177 -173zM617 96c34 0 59 24 59 59s-25 59 -59 59s-58 -24 -58 -59s24 -59 58 -59z" />
    <glyph glyph-name="perthousand" unicode="&#x2030;" horiz-adv-x="1159" 
d="M196 368c-96 0 -176 77 -176 172c0 97 80 172 176 172c98 0 177 -76 177 -172c0 -95 -80 -172 -177 -172zM734 639l-569 -657l-96 73l570 657zM196 477c37 0 64 26 64 63c0 38 -27 64 -64 64s-63 -26 -63 -64c0 -37 26 -63 63 -63zM597 -18c-96 0 -176 78 -176 173
c0 96 80 172 176 172c98 0 177 -77 177 -172s-80 -173 -177 -173zM972 -18c-96 0 -176 78 -176 173c0 96 80 172 176 172c98 0 177 -77 177 -172s-80 -173 -177 -173zM597 91c37 0 64 26 64 64s-27 64 -64 64s-63 -26 -63 -64s26 -64 63 -64zM972 91c37 0 64 26 64 64
s-27 64 -64 64s-63 -26 -63 -64s26 -64 63 -64z" />
    <glyph glyph-name="uni208A" unicode="&#x208a;" horiz-adv-x="342" 
d="M219 134h85v-90h-85v-88h-95v88h-85v90h85v88h95v-88z" />
    <glyph glyph-name="uni207A" unicode="&#x207a;" horiz-adv-x="342" 
d="M218 651h85v-90h-85v-88h-95v88h-85v90h85v87h95v-87z" />
    <glyph glyph-name="uni2204" unicode="&#x2204;" horiz-adv-x="587" 
d="M334 716h195v-716h-307l-20 -130l-82 12l18 118h-78v135h99l25 162h-124v124h143l25 161h-168v134h189l20 130l83 -12zM379 582h-66l-25 -161h91v161zM379 297h-111l-25 -162h136v162z" />
    <glyph glyph-name="thereexists" unicode="&#x2203;" horiz-adv-x="580" 
d="M56 572v144h464v-716h-464v145h314v142h-314v144h314v141h-314z" />
    <glyph glyph-name="uni2208" unicode="&#x2208;" horiz-adv-x="670" 
d="M619 414h-296c-82 0 -130 -37 -147 -97h443v-100h-444c15 -63 65 -102 148 -102h296v-105h-296c-157 0 -272 78 -272 255c0 176 115 254 272 254h296v-105z" />
    <glyph glyph-name="uni2209" unicode="&#x2209;" horiz-adv-x="670" 
d="M619 519v-105h-127l-38 -97h165v-100h-204l-41 -102h245v-105h-286l-51 -130l-85 32l42 107c-112 24 -188 102 -188 246c0 176 115 254 272 254h113l50 128l85 -32l-38 -96h86zM176 317h180l38 97h-71c-82 0 -130 -37 -147 -97zM279 119l38 98h-142
c12 -51 47 -86 104 -98z" />
    <glyph glyph-name="propersubset" unicode="&#x2282;" horiz-adv-x="670" 
d="M51 265c0 176 115 254 272 254h296v-120h-296c-99 0 -149 -53 -149 -134s50 -135 149 -135h296v-120h-296c-157 0 -272 78 -272 255z" />
    <glyph glyph-name="propersuperset" unicode="&#x2283;" horiz-adv-x="670" 
d="M619 265c0 -177 -114 -255 -272 -255h-296v120h296c100 0 149 54 149 135s-49 134 -149 134h-296v120h296c158 0 272 -78 272 -254z" />
    <glyph glyph-name="uni2284" unicode="&#x2284;" horiz-adv-x="670" 
d="M619 519v-120h-142l-101 -269h243v-120h-288l-49 -130l-85 29l41 110c-112 24 -187 103 -187 246c0 176 115 254 272 254h103l50 133l85 -29l-39 -104h97zM281 134l100 265h-58c-99 0 -149 -53 -149 -134c0 -69 36 -118 107 -131z" />
    <glyph glyph-name="uni2285" unicode="&#x2285;" horiz-adv-x="670" 
d="M473 620l-41 -110c112 -24 187 -102 187 -245c0 -177 -114 -255 -272 -255h-103l-50 -133l-85 29l39 104h-97v120h142l101 269h-243v120h288l49 130zM289 130h58c100 0 149 54 149 135c0 69 -35 117 -107 130z" />
    <glyph glyph-name="uni2286" unicode="&#x2286;" horiz-adv-x="679" 
d="M51 385c0 176 115 254 272 254h296v-120h-296c-99 0 -149 -53 -149 -134s50 -135 149 -135h296v-120h-296c-157 0 -272 78 -272 255zM628 -95h-558v105h558v-105z" />
    <glyph glyph-name="uni2287" unicode="&#x2287;" horiz-adv-x="667" 
d="M628 385c0 -177 -114 -255 -272 -255h-296v120h296c100 0 149 54 149 135s-49 134 -149 134h-296v120h296c158 0 272 -78 272 -254zM609 10v-105h-558v105h558z" />
    <glyph glyph-name="uni2288" unicode="&#x2288;" horiz-adv-x="679" 
d="M358 10h270v-105h-295l-25 -100l-89 21l19 79h-168v105h194l30 121c-142 9 -243 88 -243 254c0 176 115 254 272 254h95l28 113l89 -21l-23 -92h107v-120h-136l-66 -269h202v-120h-231zM174 385c0 -81 50 -135 149 -135l66 269h-66c-99 0 -149 -53 -149 -134z" />
    <glyph glyph-name="uni2289" unicode="&#x2289;" horiz-adv-x="679" 
d="M356 130h-53l-30 -120h336v-105h-361l-25 -100l-89 21l19 79h-102v105h128l30 120h-149v120h178l66 269h-244v120h273l28 113l89 -21l-24 -98c121 -21 202 -99 202 -248c0 -177 -114 -255 -272 -255zM397 516l-65 -266h24c100 0 149 54 149 135c0 69 -36 118 -108 131z
" />
    <glyph glyph-name="uni228A" unicode="&#x228a;" horiz-adv-x="679" 
d="M619 130h-296c-157 0 -272 78 -272 255c0 176 115 254 272 254h296v-120h-296c-99 0 -149 -53 -149 -134s50 -135 149 -135h296v-120zM417 10h211v-105h-254l-41 -100l-82 31l28 69h-209v105h252l40 98l82 -31z" />
    <glyph glyph-name="uni228B" unicode="&#x228b;" horiz-adv-x="667" 
d="M628 385c0 -177 -114 -255 -272 -255h-296v120h296c100 0 149 54 149 135s-49 134 -149 134h-296v120h296c158 0 272 -78 272 -254zM357 108l82 -31l-27 -67h197v-105h-240l-41 -100l-82 31l28 69h-223v105h266z" />
    <glyph glyph-name="arrowup" unicode="&#x2191;" horiz-adv-x="545" 
d="M285 882l224 -387h-149v-563h-150v563h-148z" />
    <glyph glyph-name="uni2197" unicode="&#x2197;" horiz-adv-x="782" 
d="M323 573l432 116l-116 -432l-105 105l-397 -397l-106 106l397 397z" />
    <glyph glyph-name="arrowright" unicode="&#x2192;" horiz-adv-x="1039" 
d="M628 549l387 -224l-387 -223v148h-562v150h562v149z" />
    <glyph glyph-name="uni2198" unicode="&#x2198;" horiz-adv-x="782" 
d="M644 690l106 -106l-397 -397l105 -105l-432 -116l116 432l105 -105z" />
    <glyph glyph-name="arrowdown" unicode="&#x2193;" horiz-adv-x="545" 
d="M343 730v-562h149l-224 -387l-223 387h148v562h150z" />
    <glyph glyph-name="uni2199" unicode="&#x2199;" horiz-adv-x="782" 
d="M640 398l115 -432l-431 116l105 105l-398 397l106 106l398 -397z" />
    <glyph glyph-name="arrowleft" unicode="&#x2190;" horiz-adv-x="1017" 
d="M417 400h562v-150h-562v-148l-387 223l387 224v-149z" />
    <glyph glyph-name="uni2196" unicode="&#x2196;" horiz-adv-x="782" 
d="M357 468l397 -398l-106 -106l-398 397l-105 -105l-115 432l431 -116z" />
    <glyph glyph-name="uni21C4" unicode="&#x21c4;" horiz-adv-x="1204" 
d="M1175 537l-380 -219v144h-677v150h677v144zM31 101l380 219v-144h677v-150h-677v-145z" />
    <glyph glyph-name="uni21C5" unicode="&#x21c5;" horiz-adv-x="973" 
d="M269 862l219 -380h-145v-677h-150v677h-144zM780 776v-678h144l-220 -380l-219 380h145v678h150z" />
    <glyph glyph-name="arrowdblboth" unicode="&#x21d4;" horiz-adv-x="890" 
d="M574 448l70 66l224 -257l-224 -257l-70 67l54 61h-366l54 -61l-70 -67l-224 257l224 257l70 -66l-57 -64h372zM147 257l35 -39h526l35 39l-33 37h-530z" />
    <glyph glyph-name="lozenge" unicode="&#x25ca;" horiz-adv-x="633" 
d="M235 715h163l205 -352v-12l-205 -351h-163l-205 351v12zM186 358l131 -220l130 220l-130 220z" />
    <glyph glyph-name="at" unicode="@" horiz-adv-x="902" 
d="M569 563h87l-39 -193c-3 -18 -8 -47 -8 -66c0 -22 14 -35 36 -35c41 0 89 37 89 140c0 137 -108 245 -266 245c-174 0 -298 -128 -298 -305c0 -170 126 -293 300 -293c94 0 153 30 217 80l77 -98c-72 -72 -178 -112 -289 -112c-258 0 -443 170 -443 421
c0 257 199 435 435 435c233 0 403 -174 403 -363c0 -208 -141 -272 -243 -272c-52 0 -96 20 -120 60c-32 -34 -75 -56 -126 -56c-86 0 -153 68 -153 166c0 143 99 253 217 253c46 0 81 -18 104 -46zM411 268c55 0 86 69 86 132c0 32 -12 58 -42 58c-57 0 -88 -73 -88 -131
c0 -34 13 -59 44 -59z" />
    <glyph glyph-name="ampersand" unicode="&#x26;" horiz-adv-x="677" 
d="M340 452h318v-133h-91v-50c0 -232 -158 -282 -258 -282c-170 0 -264 104 -264 232c0 69 43 135 115 175c-50 33 -79 88 -79 155c0 96 73 203 222 203c59 0 135 -15 210 -98l-104 -95c-37 36 -65 47 -100 47c-50 0 -80 -32 -80 -73c0 -47 38 -81 111 -81zM417 279v40h-109
c-67 0 -111 -34 -111 -93c0 -58 44 -92 110 -92c80 0 110 51 110 145z" />
    <glyph glyph-name="paragraph" unicode="&#xb6;" horiz-adv-x="737" 
d="M337 755h368v-90l-76 -42v-496c0 -165 -86 -274 -255 -274c-87 0 -184 35 -244 156l-5 10l116 66c42 -78 79 -96 129 -96c66 0 109 40 109 117v509h-112v-430h-56c-146 0 -266 120 -266 280c0 187 134 290 292 290z" />
    <glyph glyph-name="section" unicode="&#xa7;" horiz-adv-x="572" 
d="M464 196c48 -34 72 -80 72 -144c0 -120 -102 -206 -246 -206c-115 0 -205 46 -256 156l114 72c47 -73 96 -92 152 -92c46 0 81 21 81 57c0 34 -27 61 -142 88c-133 30 -183 92 -183 188c0 53 25 101 72 133c-49 37 -70 88 -70 151c0 114 90 204 237 204
c114 0 190 -47 238 -120l-114 -81c-36 47 -85 62 -133 62c-46 0 -78 -22 -78 -58c0 -32 23 -58 115 -80c147 -35 215 -90 215 -201c0 -51 -28 -97 -74 -129zM196 338c0 -35 23 -59 122 -84c10 -2 19 -5 29 -7c27 7 46 30 46 59c0 37 -27 63 -149 93c-29 -8 -48 -30 -48 -61z
" />
    <glyph glyph-name="copyright" unicode="&#xa9;" horiz-adv-x="702" 
d="M351 157c-177 0 -317 145 -317 316c0 177 143 320 317 320c173 0 317 -143 317 -320c0 -171 -142 -316 -317 -316zM351 254c120 0 215 96 215 219c0 127 -95 222 -215 222c-121 0 -217 -95 -217 -222c0 -123 96 -219 217 -219zM355 312c-95 0 -161 65 -161 161
s65 161 161 161c65 0 117 -25 147 -96l-85 -39c-16 32 -36 42 -62 42c-37 0 -60 -25 -60 -68s23 -67 60 -67c25 0 46 10 62 42l85 -38c-30 -72 -82 -98 -147 -98z" />
    <glyph glyph-name="registered" unicode="&#xae;" horiz-adv-x="701" 
d="M351 793c173 0 317 -143 317 -320c0 -171 -142 -316 -317 -316c-177 0 -317 145 -317 316c0 177 143 320 317 320zM351 254c120 0 215 96 215 219c0 127 -95 222 -215 222c-121 0 -217 -95 -217 -222c0 -123 96 -219 217 -219zM488 522c0 -45 -20 -78 -52 -97l51 -99h-99
l-41 79h-22v-79h-89v313h116c78 0 136 -38 136 -117zM353 557h-28v-69h28c30 0 45 11 45 34c0 22 -15 35 -45 35z" />
    <glyph glyph-name="trademark" unicode="&#x2122;" horiz-adv-x="890" 
d="M378 715v-118h-113v-287h-123v287h-116v118h352zM707 715h105l65 -405h-117l-19 146l-5 84c-5 -23 -11 -48 -13 -55l-50 -171h-92l-50 171c-2 8 -8 33 -14 55l-5 -84l-18 -146h-117l64 405h105l80 -201h2z" />
    <glyph glyph-name="degree" unicode="&#xb0;" horiz-adv-x="415" 
d="M207 354c-100 0 -182 80 -182 178c0 100 83 179 182 179c100 0 184 -79 184 -179s-83 -178 -184 -178zM207 459c41 0 72 31 72 73s-31 72 -72 72c-40 0 -72 -30 -72 -72s32 -73 72 -73z" />
    <glyph glyph-name="bar" unicode="|" horiz-adv-x="269" 
d="M205 829v-998h-137v998h137z" />
    <glyph glyph-name="brokenbar" unicode="&#xa6;" horiz-adv-x="273" 
d="M205 829v-441h-137v441h137zM205 272v-441h-137v441h137z" />
    <glyph glyph-name="uniFFE3" unicode="&#xffe3;" horiz-adv-x="320" 
d="M316 955v-145h-311v145h311z" />
    <glyph glyph-name="uni0308" unicode="&#x308;" 
d="M-380 670c0 47 35 83 82 83s83 -36 83 -83s-35 -83 -83 -83s-82 36 -82 83zM-170 670c0 47 34 83 82 83c47 0 83 -36 83 -83s-35 -83 -83 -83s-82 36 -82 83z" />
    <glyph glyph-name="uni0307" unicode="&#x307;" 
d="M-176 665c0 48 39 87 86 87c48 0 86 -39 86 -87c0 -46 -38 -85 -86 -85c-47 0 -86 39 -86 85z" />
    <glyph glyph-name="gravecomb" unicode="&#x300;" 
d="M-4 651l-71 -74l-168 155l72 72z" />
    <glyph glyph-name="acutecomb" unicode="&#x301;" 
d="M-4 732l-168 -155l-71 74l167 153z" />
    <glyph glyph-name="uni030B" unicode="&#x30b;" 
d="M-168 784l-92 -198l-92 40l89 196zM-4 784l-92 -198l-92 40l89 196z" />
    <glyph glyph-name="uni0302" unicode="&#x302;" 
d="M-167 798l162 -148l-72 -69l-89 83l-90 -83l-72 69z" />
    <glyph glyph-name="uni030C" unicode="&#x30c;" 
d="M-166 714l89 84l72 -69l-161 -148l-162 148l72 69z" />
    <glyph glyph-name="uni0306" unicode="&#x306;" 
d="M-161 609c-91 0 -152 58 -155 155h101c1 -42 18 -66 54 -66c37 0 54 24 56 66h101c-3 -97 -63 -155 -157 -155z" />
    <glyph glyph-name="uni030A" unicode="&#x30a;" 
d="M-127 588c-68 0 -123 51 -123 119c0 69 55 121 123 121s123 -52 123 -121c0 -68 -55 -119 -123 -119zM-128 672c22 0 36 15 36 36s-14 36 -36 36c-21 0 -35 -15 -35 -36s14 -36 35 -36z" />
    <glyph glyph-name="tildecomb" unicode="&#x303;" 
d="M-136 599c-26 0 -51 9 -78 26c-21 13 -33 19 -47 19c-22 0 -37 -13 -53 -42l-91 46c30 69 71 108 130 108c28 0 52 -10 82 -28c16 -9 31 -16 45 -16c22 0 35 10 53 44l91 -46c-30 -74 -73 -111 -132 -111z" />
    <glyph glyph-name="uni0304" unicode="&#x304;" 
d="M-4 729v-120h-311v120h311z" />
    <glyph glyph-name="uni0305" unicode="&#x305;" 
d="M485 955v-145h-614v145h614z" />
    <glyph glyph-name="dotbelowcomb" unicode="&#x323;" 
d="M-176 -149c0 48 39 87 86 87c48 0 86 -39 86 -87c0 -46 -38 -85 -86 -85c-47 0 -86 39 -86 85z" />
    <glyph glyph-name="uni0326" unicode="&#x326;" 
d="M-160 -303l-9 41c49 16 67 45 67 81c0 45 -34 75 -65 90c18 33 44 49 76 49c46 0 86 -38 86 -95c0 -80 -67 -148 -155 -166z" />
    <glyph glyph-name="uni0327" unicode="&#x327;" 
d="M-86 0l-6 -32c58 -9 90 -42 90 -91c0 -65 -46 -104 -123 -104c-42 0 -78 11 -111 29l29 69c24 -12 51 -21 78 -21c28 0 42 11 42 26c0 14 -11 23 -44 23h-62l22 101h85z" />
    <glyph glyph-name="uni0328" unicode="&#x328;" 
d="M-86 -237c-75 0 -120 34 -120 104c0 57 36 107 79 138l104 -5c-41 -25 -73 -69 -73 -106c0 -25 14 -37 40 -37c11 0 25 4 33 8l14 -86c-16 -9 -44 -16 -77 -16z" />
    <glyph glyph-name="dieresis" unicode="&#xa8;" horiz-adv-x="384" 
d="M4 670c0 47 35 83 83 83c47 0 83 -36 83 -83s-36 -83 -83 -83c-48 0 -83 36 -83 83zM214 670c0 47 34 83 83 83c47 0 83 -36 83 -83s-36 -83 -83 -83c-49 0 -83 36 -83 83z" />
    <glyph glyph-name="dotaccent" unicode="&#x2d9;" horiz-adv-x="181" 
d="M4 665c0 48 39 87 86 87c48 0 86 -39 86 -87c0 -46 -38 -85 -86 -85c-47 0 -86 39 -86 85z" />
    <glyph glyph-name="grave" unicode="`" horiz-adv-x="248" 
d="M243 651l-71 -74l-168 155l72 72z" />
    <glyph glyph-name="acute" unicode="&#xb4;" horiz-adv-x="248" 
d="M243 732l-168 -155l-71 74l167 153z" />
    <glyph glyph-name="hungarumlaut" unicode="&#x2dd;" horiz-adv-x="357" 
d="M188 784l-91 -198l-93 40l90 196zM352 784l-91 -198l-93 40l90 196z" />
    <glyph glyph-name="circumflex" unicode="&#x2c6;" horiz-adv-x="332" 
d="M166 798l162 -148l-73 -69l-88 83l-90 -83l-73 69z" />
    <glyph glyph-name="caron" unicode="&#x2c7;" horiz-adv-x="332" 
d="M166 714l89 84l73 -69l-162 -148l-162 148l73 69z" />
    <glyph glyph-name="breve" unicode="&#x2d8;" horiz-adv-x="321" 
d="M160 609c-91 0 -153 58 -156 155h101c2 -42 18 -66 55 -66c36 0 54 24 55 66h101c-3 -97 -63 -155 -156 -155z" />
    <glyph glyph-name="ring" unicode="&#x2da;" horiz-adv-x="255" 
d="M127 588c-68 0 -123 51 -123 119c0 69 55 121 123 121s123 -52 123 -121c0 -68 -55 -119 -123 -119zM127 672c21 0 36 15 36 36s-15 36 -36 36s-36 -15 -36 -36s15 -36 36 -36z" />
    <glyph glyph-name="tilde" unicode="&#x2dc;" horiz-adv-x="410" 
d="M273 599c-25 0 -50 9 -78 26c-21 13 -32 19 -47 19c-21 0 -37 -13 -53 -42l-91 46c31 69 71 108 130 108c28 0 53 -10 83 -28c16 -9 30 -16 45 -16c21 0 35 10 52 44l91 -46c-29 -74 -73 -111 -132 -111z" />
    <glyph glyph-name="macron" unicode="&#xaf;" horiz-adv-x="320" 
d="M315 729v-120h-311v120h311z" />
    <glyph glyph-name="cedilla" unicode="&#xb8;" horiz-adv-x="241" 
d="M155 0l-7 -32c59 -9 90 -42 90 -91c0 -65 -45 -104 -123 -104c-41 0 -78 11 -111 29l30 69c23 -12 51 -21 77 -21c29 0 42 11 42 26c0 14 -11 23 -44 23h-62l23 101h85z" />
    <glyph glyph-name="ogonek" unicode="&#x2db;" horiz-adv-x="214" 
d="M128 -237c-75 0 -120 34 -120 104c0 57 36 107 79 138l104 -5c-41 -25 -73 -69 -73 -106c0 -25 14 -37 40 -37c11 0 25 4 33 8l14 -86c-16 -9 -44 -16 -77 -16z" />
    <glyph glyph-name="caron.alt" horiz-adv-x="121" 
d="M5 742h112v-56l-22 -162h-90v218z" />
    <glyph glyph-name="uni0308.case" 
d="M-525 871c0 48 35 84 83 84c47 0 83 -37 83 -84c0 -46 -36 -82 -83 -82c-48 0 -83 35 -83 82zM-315 871c0 48 34 84 83 84c47 0 83 -37 83 -84c0 -46 -36 -82 -83 -82c-49 0 -83 35 -83 82z" />
    <glyph glyph-name="gravecomb.case" 
d="M-263 852l-71 -73l-168 154l72 73z" />
    <glyph glyph-name="acutecomb.case" 
d="M-176 933l-168 -154l-71 73l167 154z" />
    <glyph glyph-name="uni0302.case" 
d="M-339 999l162 -148l-72 -69l-89 84l-90 -84l-72 69z" />
    <glyph glyph-name="uni030C.case" 
d="M-297 916l90 83l72 -69l-161 -148l-162 148l72 69z" />
    <glyph glyph-name="uni030A.case" 
d="M-337 790c-68 0 -123 51 -123 119c0 69 55 121 123 121s123 -52 123 -121c0 -68 -55 -119 -123 -119zM-338 874c22 0 36 14 36 35c0 22 -14 36 -36 36c-21 0 -35 -14 -35 -36c0 -21 14 -35 35 -35z" />
    <glyph glyph-name="tildecomb.case" 
d="M-269 801c-25 0 -50 9 -78 25c-21 14 -32 19 -47 19c-21 0 -37 -12 -53 -41l-91 46c31 69 71 108 130 108c28 0 53 -10 83 -28c16 -10 30 -17 45 -17c21 0 35 10 52 45l91 -46c-29 -74 -73 -111 -132 -111z" />
    <glyph glyph-name="uni0308.nrw.case" 
d="M-314 871c0 50 33 84 83 84s83 -34 83 -84c0 -48 -33 -82 -83 -82s-83 34 -83 82zM-131 871c0 50 33 84 82 84c50 0 83 -34 83 -84c0 -48 -33 -82 -83 -82c-49 0 -82 34 -82 82z" />
    <glyph glyph-name="uni0302.nrw.case" 
d="M-140 1004l145 -154l-77 -68l-68 79l-69 -79l-77 68z" />
    <glyph glyph-name="dieresis.nrw" horiz-adv-x="359" 
d="M6 670c0 49 33 83 82 83c50 0 83 -34 83 -83s-33 -83 -83 -83c-49 0 -82 34 -82 83zM188 670c0 49 33 83 82 83c50 0 83 -34 83 -83s-33 -83 -83 -83c-49 0 -82 34 -82 83z" />
    <glyph glyph-name="circumflex.nrw" horiz-adv-x="300" 
d="M150 802l146 -154l-77 -67l-68 79l-69 -79l-77 67z" />
    <glyph glyph-name="breve.nrw" horiz-adv-x="291" 
d="M145 599c-82 0 -137 50 -140 148h101c1 -34 12 -60 39 -60c28 0 39 26 40 60h102c-4 -98 -58 -148 -142 -148z" />
    <glyph glyph-name="tilde.nrw" horiz-adv-x="308" 
d="M91 759c25 0 41 -8 66 -25c19 -14 27 -18 36 -18c15 0 24 14 26 48l85 -37c0 -79 -43 -120 -86 -120c-25 0 -41 8 -66 25c-19 14 -27 18 -36 18c-16 0 -25 -14 -26 -48l-85 37c0 79 41 120 86 120z" />
    <glyph glyph-name="macron.nrw" horiz-adv-x="260" 
d="M256 729v-120h-251v120h251z" />
    </font>
</defs>
</svg>
