<?xml version="1.0" standalone="no"?>
<!DOCTYPE svg PUBLIC "-//W3C//DTD SVG 1.1//EN" "http://www.w3.org/Graphics/SVG/1.1/DTD/svg11.dtd" >
<svg xmlns="http://www.w3.org/2000/svg" xmlns:xlink="http://www.w3.org/1999/xlink" version="1.1">
<metadata>
Created by FontForge 20201107 at Thu Aug 12 15:03:49 2021
 By Jimmy Wärting
Aprova Nova is \(c\) Naipe Foundry
</metadata>
<defs>
<font id="AprovaNova-Black" horiz-adv-x="0" >
  <font-face 
    font-family="Aprova Nova Black"
    font-weight="800"
    font-stretch="normal"
    units-per-em="1000"
    panose-1="2 11 8 0 0 0 0 0 0 0"
    ascent="800"
    descent="-200"
    x-height="530"
    cap-height="736"
    bbox="-555 -309 1662 1071"
    underline-thickness="80"
    underline-position="-195"
    stemh="175"
    stemv="182"
    unicode-range="U+000D-FFE3"
  />
<missing-glyph horiz-adv-x="834" 
d="M770 -60h-706v607l215 215h491v-822zM124 520v-520h586v702h-405zM660 50h-486v398h202v204h284v-602zM326 498h-152l152 154v-154zM375 259c16 0 30 13 30 29c0 17 -14 30 -30 30s-30 -13 -30 -30c0 -16 14 -29 30 -29zM458 259c17 0 31 13 31 29c0 17 -14 30 -31 30
c-15 0 -29 -13 -29 -30c0 -16 14 -29 29 -29zM292 148l27 -29c26 26 57 41 98 41s72 -15 98 -41l28 29c-29 31 -70 55 -126 55c-57 0 -98 -24 -125 -55z" />
    <glyph glyph-name=".notdef" horiz-adv-x="834" 
d="M770 -60h-706v607l215 215h491v-822zM124 520v-520h586v702h-405zM660 50h-486v398h202v204h284v-602zM326 498h-152l152 154v-154zM375 259c16 0 30 13 30 29c0 17 -14 30 -30 30s-30 -13 -30 -30c0 -16 14 -29 30 -29zM458 259c17 0 31 13 31 29c0 17 -14 30 -31 30
c-15 0 -29 -13 -29 -30c0 -16 14 -29 29 -29zM292 148l27 -29c26 26 57 41 98 41s72 -15 98 -41l28 29c-29 31 -70 55 -126 55c-57 0 -98 -24 -125 -55z" />
    <glyph glyph-name="NULL" horiz-adv-x="500" 
 />
    <glyph glyph-name="CR" unicode="&#xd;" horiz-adv-x="500" 
 />
    <glyph glyph-name="space" unicode=" " horiz-adv-x="260" 
 />
    <glyph glyph-name="A" unicode="A" horiz-adv-x="704" 
d="M696 0h-180l-37 121h-250l-41 -121h-181l262 736h186zM360 508l-75 -221h143z" />
    <glyph glyph-name="Aacute" unicode="&#xc1;" horiz-adv-x="704" 
d="M450 1044l85 -86l-177 -162l-84 86zM696 0h-180l-37 121h-250l-41 -121h-181l262 736h186zM360 508l-75 -221h143z" />
    <glyph glyph-name="Acircumflex" unicode="&#xc2;" horiz-adv-x="704" 
d="M450 801l-88 78l-88 -78l-86 79l174 153l173 -153zM696 0h-180l-37 121h-250l-41 -121h-181l262 736h186zM360 508l-75 -221h143z" />
    <glyph glyph-name="Adieresis" unicode="&#xc4;" horiz-adv-x="704" 
d="M251 806c-53 0 -93 41 -93 93c0 53 41 94 93 94s94 -42 94 -94c0 -51 -41 -93 -94 -93zM473 806c-53 0 -93 41 -93 93c0 53 40 94 93 94c52 0 94 -42 94 -94c0 -51 -41 -93 -94 -93zM696 0h-180l-37 121h-250l-41 -121h-181l262 736h186zM360 508l-75 -221h143z" />
    <glyph glyph-name="Agrave" unicode="&#xc0;" horiz-adv-x="704" 
d="M273 1044l176 -162l-84 -86l-177 162zM696 0h-180l-37 121h-250l-41 -121h-181l262 736h186zM360 508l-75 -221h143z" />
    <glyph glyph-name="Aogonek" unicode="&#x104;" horiz-adv-x="704" 
d="M697 -125l17 -101c-19 -9 -50 -17 -86 -17c-85 0 -131 39 -131 112c0 59 32 102 68 131h-49l-37 121h-250l-41 -121h-181l262 736h186l241 -736c-35 -20 -66 -64 -66 -98c0 -23 12 -35 37 -35c10 0 22 4 30 8zM360 508l-75 -221h143z" />
    <glyph glyph-name="Aring" unicode="&#xc5;" horiz-adv-x="704" 
d="M362 812c-73 0 -132 55 -132 129s59 130 132 130c74 0 133 -56 133 -130s-59 -129 -133 -129zM362 976c-20 0 -34 -14 -34 -35c0 -20 14 -34 34 -34c21 0 34 14 34 34c0 21 -13 35 -34 35zM696 0h-180l-37 121h-250l-41 -121h-181l262 736h186zM360 508l-75 -221h143z
" />
    <glyph glyph-name="Atilde" unicode="&#xc3;" horiz-adv-x="704" 
d="M310 861c-22 0 -38 -12 -55 -40l-106 54c33 77 77 120 141 120c25 0 48 -10 78 -26c16 -8 31 -15 46 -15c21 0 37 9 56 41l105 -54c-35 -84 -84 -121 -142 -121c-26 0 -50 8 -79 24c-20 12 -31 17 -44 17zM696 0h-180l-37 121h-250l-41 -121h-181l262 736h186zM360 508
l-75 -221h143z" />
    <glyph glyph-name="AE" unicode="&#xc6;" horiz-adv-x="936" 
d="M606 280l9 -106h282v-174h-435l-13 130h-210l-51 -130h-181l283 736h585v-174h-292l9 -108h253v-174h-239zM406 562l-103 -266h130z" />
    <glyph glyph-name="B" unicode="B" horiz-adv-x="633" 
d="M491 372c76 -25 108 -90 108 -165c0 -138 -85 -207 -253 -207h-293v736h272c195 0 261 -71 261 -204c0 -76 -36 -134 -95 -160zM328 565h-95v-119h95c50 0 74 19 74 59c0 39 -25 60 -74 60zM233 171h108c46 0 76 22 76 62c0 42 -30 62 -74 62h-110v-124z" />
    <glyph glyph-name="C" unicode="C" horiz-adv-x="745" 
d="M394 -14c-233 0 -376 157 -376 381c0 225 153 382 376 382c173 0 287 -79 342 -228l-160 -66c-40 80 -97 120 -182 120c-113 0 -192 -79 -192 -208c0 -128 79 -207 192 -207c85 0 142 40 182 120l160 -65c-55 -150 -169 -229 -342 -229z" />
    <glyph glyph-name="Ccedilla" unicode="&#xc7;" horiz-adv-x="745" 
d="M394 160c85 0 142 40 182 120l160 -65c-52 -143 -158 -221 -318 -228l-3 -15c57 -12 90 -48 90 -100c0 -70 -50 -113 -135 -113c-40 0 -78 11 -114 29l31 81c27 -12 56 -20 82 -20c24 0 37 9 37 22c0 12 -10 21 -38 21h-70l22 100c-189 30 -302 176 -302 375
c0 225 153 382 376 382c173 0 287 -79 342 -228l-160 -66c-40 80 -97 120 -182 120c-113 0 -192 -79 -192 -208c0 -128 79 -207 192 -207z" />
    <glyph glyph-name="D" unicode="D" horiz-adv-x="706" 
d="M53 736h264c234 0 371 -138 371 -368c0 -232 -138 -368 -372 -368h-263v736zM233 174h70c124 0 201 56 201 194c0 136 -76 194 -200 194h-71v-388z" />
    <glyph glyph-name="Eth" unicode="&#xd0;" horiz-adv-x="749" 
d="M84 736h264c235 0 372 -138 372 -368c0 -232 -138 -368 -373 -368h-263v285h-72v164h72v287zM264 174h70c125 0 202 56 202 194c0 136 -76 194 -201 194h-71v-113h119v-164h-119v-111z" />
    <glyph glyph-name="E" unicode="E" horiz-adv-x="570" 
d="M531 736v-171h-298v-111h239v-171h-239v-112h298v-171h-478v736h478z" />
    <glyph glyph-name="Eacute" unicode="&#xc9;" horiz-adv-x="570" 
d="M380 1044l85 -86l-177 -162l-84 86zM531 736v-171h-298v-111h239v-171h-239v-112h298v-171h-478v736h478z" />
    <glyph glyph-name="Ecircumflex" unicode="&#xca;" horiz-adv-x="570" 
d="M380 801l-88 78l-88 -78l-86 79l174 153l173 -153zM531 736v-171h-298v-111h239v-171h-239v-112h298v-171h-478v736h478z" />
    <glyph glyph-name="Edieresis" unicode="&#xcb;" horiz-adv-x="570" 
d="M181 806c-53 0 -93 41 -93 93c0 53 41 94 93 94s94 -42 94 -94c0 -51 -41 -93 -94 -93zM403 806c-53 0 -93 41 -93 93c0 53 40 94 93 94c52 0 94 -42 94 -94c0 -51 -41 -93 -94 -93zM531 736v-171h-298v-111h239v-171h-239v-112h298v-171h-478v736h478z" />
    <glyph glyph-name="Egrave" unicode="&#xc8;" horiz-adv-x="570" 
d="M203 1044l176 -162l-84 -86l-177 162zM531 736v-171h-298v-111h239v-171h-239v-112h298v-171h-478v736h478z" />
    <glyph glyph-name="Eogonek" unicode="&#x118;" horiz-adv-x="570" 
d="M532 -125l17 -101c-19 -9 -50 -17 -86 -17c-85 0 -131 39 -131 112c0 59 32 102 68 131h-347v736h478v-171h-298v-111h239v-171h-239v-112h298v-171c-35 -20 -66 -64 -66 -98c0 -23 12 -35 37 -35c10 0 22 4 30 8z" />
    <glyph glyph-name="uni1EBC" unicode="&#x1ebc;" horiz-adv-x="570" 
d="M240 861c-22 0 -38 -12 -55 -40l-106 54c33 77 77 120 141 120c25 0 48 -10 78 -26c16 -8 31 -15 46 -15c21 0 37 9 56 41l105 -54c-35 -84 -84 -121 -142 -121c-26 0 -50 8 -79 24c-20 12 -31 17 -44 17zM531 736v-171h-298v-111h239v-171h-239v-112h298v-171h-478v736
h478z" />
    <glyph glyph-name="F" unicode="F" horiz-adv-x="551" 
d="M529 736v-174h-296v-127h245v-174h-245v-261h-180v736h476z" />
    <glyph glyph-name="G" unicode="G" horiz-adv-x="766" 
d="M378 410h359c6 -26 9 -55 9 -86c0 -210 -167 -338 -352 -338c-225 0 -376 157 -376 373c0 233 153 390 376 390c168 0 280 -75 337 -213l-161 -69c-39 73 -96 108 -176 108c-113 0 -192 -79 -192 -216c0 -125 78 -206 191 -206c83 0 141 35 167 99h-182v158z" />
    <glyph glyph-name="H" unicode="H" horiz-adv-x="724" 
d="M491 448v288h180v-736h-180v274h-258v-274h-180v736h180v-288h258z" />
    <glyph glyph-name="I" unicode="I" horiz-adv-x="286" 
d="M233 736v-736h-180v736h180z" />
    <glyph glyph-name="IJ" unicode="&#x132;" horiz-adv-x="895" 
d="M233 736v-736h-180v736h180zM578 159c53 0 85 33 85 91v486h180v-482c0 -157 -85 -269 -265 -269c-179 0 -265 105 -265 263v41h180v-40c0 -58 32 -90 85 -90z" />
    <glyph glyph-name="Iacute" unicode="&#xcd;" horiz-adv-x="286" 
d="M316 958l-177 -162l-84 86l176 162zM233 736v-736h-180v736h180z" />
    <glyph glyph-name="Icircumflex" unicode="&#xce;" horiz-adv-x="286" 
d="M212 801l-68 78l-69 -78l-88 78l156 161l156 -161zM233 0h-180v736h180v-736z" />
    <glyph glyph-name="Idieresis" unicode="&#xcf;" horiz-adv-x="286" 
d="M-52 899c0 56 37 94 93 94c55 0 93 -38 93 -94c0 -55 -38 -93 -93 -93c-56 0 -93 38 -93 93zM152 899c0 56 38 94 93 94c56 0 94 -38 94 -94c0 -55 -38 -93 -94 -93c-55 0 -93 38 -93 93zM233 736v-736h-180v736h180z" />
    <glyph glyph-name="Igrave" unicode="&#xcc;" horiz-adv-x="286" 
d="M230 882l-84 -86l-177 162l85 86zM233 736v-736h-180v736h180z" />
    <glyph glyph-name="J" unicode="J" horiz-adv-x="604" 
d="M288 159c53 0 85 33 85 91v486h180v-482c0 -157 -85 -269 -265 -269c-179 0 -265 105 -265 263v41h180v-40c0 -58 32 -90 85 -90z" />
    <glyph glyph-name="K" unicode="K" horiz-adv-x="693" 
d="M465 736h222l-307 -367l305 -369h-232l-220 274v-274h-180v736h180v-278z" />
    <glyph glyph-name="L" unicode="L" horiz-adv-x="532" 
d="M233 736v-562h278v-174h-458v736h180z" />
    <glyph glyph-name="Lslash" unicode="&#x141;" horiz-adv-x="585" 
d="M286 340v-166h278v-174h-458v255l-38 -18l-57 121l95 44v334h180v-250l175 82l60 -117z" />
    <glyph glyph-name="M" unicode="M" horiz-adv-x="927" 
d="M622 736h161l128 -736h-177l-47 319l-15 108c-9 -35 -19 -69 -31 -104l-106 -316h-142l-108 316c-12 34 -21 69 -30 103l-15 -107l-47 -319h-178l128 736h161l159 -470z" />
    <glyph glyph-name="N" unicode="N" horiz-adv-x="751" 
d="M518 320v416h180v-736h-166l-299 415v-415h-180v736h166z" />
    <glyph glyph-name="Ntilde" unicode="&#xd1;" horiz-adv-x="751" 
d="M328 861c-22 0 -38 -12 -55 -40l-106 54c33 77 77 120 141 120c25 0 48 -10 78 -26c16 -8 31 -15 46 -15c21 0 37 9 56 41l105 -54c-35 -84 -84 -121 -142 -121c-26 0 -50 8 -79 24c-20 12 -31 17 -44 17zM518 320v416h180v-736h-166l-299 415v-415h-180v736h166z" />
    <glyph glyph-name="O" unicode="O" horiz-adv-x="792" 
d="M18 367c0 225 154 383 378 383s378 -158 378 -383c0 -224 -154 -381 -378 -381s-378 157 -378 381zM202 367c0 -128 80 -203 194 -203c115 0 195 75 195 204s-80 204 -195 204c-114 0 -194 -76 -194 -205z" />
    <glyph glyph-name="Oacute" unicode="&#xd3;" horiz-adv-x="792" 
d="M568 958l-177 -162l-84 86l176 162zM18 367c0 225 154 383 378 383s378 -158 378 -383c0 -224 -154 -381 -378 -381s-378 157 -378 381zM202 367c0 -128 80 -203 194 -203c115 0 195 75 195 204s-80 204 -195 204c-114 0 -194 -76 -194 -205z" />
    <glyph glyph-name="Ocircumflex" unicode="&#xd4;" horiz-adv-x="792" 
d="M484 801l-88 78l-88 -78l-86 79l174 153l173 -153zM396 750c224 0 378 -158 378 -383c0 -224 -154 -381 -378 -381s-378 157 -378 381c0 225 154 383 378 383zM396 164c115 0 195 75 195 204s-80 204 -195 204c-114 0 -194 -76 -194 -205c0 -128 80 -203 194 -203z" />
    <glyph glyph-name="Odieresis" unicode="&#xd6;" horiz-adv-x="792" 
d="M191 899c0 53 41 94 93 94s94 -42 94 -94c0 -51 -41 -93 -94 -93s-93 41 -93 93zM413 899c0 53 40 94 93 94c52 0 94 -42 94 -94c0 -51 -41 -93 -94 -93s-93 41 -93 93zM18 367c0 225 154 383 378 383s378 -158 378 -383c0 -224 -154 -381 -378 -381s-378 157 -378 381z
M202 367c0 -128 80 -203 194 -203c115 0 195 75 195 204s-80 204 -195 204c-114 0 -194 -76 -194 -205z" />
    <glyph glyph-name="Ograve" unicode="&#xd2;" horiz-adv-x="792" 
d="M482 882l-84 -86l-177 162l85 86zM18 367c0 225 154 383 378 383s378 -158 378 -383c0 -224 -154 -381 -378 -381s-378 157 -378 381zM202 367c0 -128 80 -203 194 -203c115 0 195 75 195 204s-80 204 -195 204c-114 0 -194 -76 -194 -205z" />
    <glyph glyph-name="Oslash" unicode="&#xd8;" horiz-adv-x="792" 
d="M742 674l-47 -61c50 -64 79 -149 79 -246c0 -224 -154 -381 -378 -381c-60 0 -115 11 -164 32l-43 -55l-136 99l45 58c-51 65 -80 150 -80 247c0 225 154 383 378 383c61 0 117 -12 166 -33l44 56zM202 367c0 -35 6 -65 17 -92l227 292c-16 3 -33 5 -50 5
c-114 0 -194 -76 -194 -205zM396 164c115 0 195 75 195 204c0 34 -6 65 -16 91l-226 -290c15 -3 31 -5 47 -5z" />
    <glyph glyph-name="Otilde" unicode="&#xd5;" horiz-adv-x="792" 
d="M466 820c-26 0 -50 8 -79 24c-20 12 -31 17 -44 17c-22 0 -38 -12 -55 -40l-106 54c33 77 77 120 141 120c25 0 48 -10 78 -26c16 -8 31 -15 46 -15c21 0 37 9 56 41l105 -54c-35 -84 -84 -121 -142 -121zM18 367c0 225 154 383 378 383s378 -158 378 -383
c0 -224 -154 -381 -378 -381s-378 157 -378 381zM202 367c0 -128 80 -203 194 -203c115 0 195 75 195 204s-80 204 -195 204c-114 0 -194 -76 -194 -205z" />
    <glyph glyph-name="OE" unicode="&#x152;" horiz-adv-x="1088" 
d="M1049 736v-174h-296v-107h237v-174h-237v-107h296v-174h-468v66c-56 -49 -128 -80 -209 -80c-210 0 -354 157 -354 381c0 226 144 383 354 383c81 0 153 -31 209 -80v66h468zM390 164c113 0 191 75 191 204s-78 205 -191 205c-111 0 -188 -77 -188 -206
c0 -128 77 -203 188 -203z" />
    <glyph glyph-name="P" unicode="P" horiz-adv-x="622" 
d="M53 736h271c170 0 284 -99 284 -274s-114 -274 -285 -274h-90v-188h-180v736zM233 362h81c72 0 112 35 112 100c0 66 -40 100 -111 100h-82v-200z" />
    <glyph glyph-name="Thorn" unicode="&#xde;" horiz-adv-x="622" 
d="M233 642h90c171 0 285 -99 285 -274s-114 -274 -285 -274h-90v-94h-180v736h180v-94zM233 268h81c72 0 112 35 112 100c0 66 -40 100 -112 100h-81v-200z" />
    <glyph glyph-name="Q" unicode="Q" horiz-adv-x="792" 
d="M774 367c0 -116 -42 -215 -113 -282l84 -139h-181l-36 60c-41 -13 -85 -20 -132 -20c-224 0 -378 157 -378 381c0 225 154 383 378 383s378 -158 378 -383zM396 164c12 0 24 1 35 2l-101 167h181l50 -83c19 31 30 71 30 118c0 129 -80 204 -195 204
c-114 0 -194 -76 -194 -205c0 -128 80 -203 194 -203z" />
    <glyph glyph-name="R" unicode="R" horiz-adv-x="639" 
d="M618 0h-196l-105 208h-84v-208h-180v736h272c160 0 285 -95 285 -264c0 -103 -46 -179 -118 -222zM316 562h-83v-180h83c72 0 112 31 112 90s-40 90 -112 90z" />
    <glyph glyph-name="S" unicode="S" horiz-adv-x="622" 
d="M319 -19c-134 0 -238 59 -296 172l136 88c39 -60 102 -96 170 -96c55 0 83 24 83 59c0 34 -21 56 -121 79c-186 42 -247 120 -247 237c0 132 105 234 277 234c130 0 220 -57 270 -137l-136 -97c-36 46 -95 65 -146 65c-52 0 -84 -22 -84 -56c0 -33 23 -52 117 -74
c181 -42 258 -111 258 -243c0 -134 -107 -231 -281 -231z" />
    <glyph glyph-name="Scaron" unicode="&#x160;" horiz-adv-x="622" 
d="M399 1033l86 -80l-173 -152l-174 152l86 80l88 -78zM342 455c181 -42 258 -111 258 -243c0 -134 -107 -231 -281 -231c-134 0 -238 59 -296 172l136 88c39 -60 102 -96 170 -96c55 0 83 24 83 59c0 34 -21 56 -121 79c-186 42 -247 120 -247 237c0 132 105 234 277 234
c130 0 220 -57 270 -137l-136 -97c-36 46 -95 65 -146 65c-52 0 -84 -22 -84 -56c0 -33 23 -52 117 -74z" />
    <glyph glyph-name="uni1E9E" unicode="&#x1e9e;" horiz-adv-x="770" 
d="M716 596l-136 -178c112 -52 164 -123 164 -222c0 -121 -86 -214 -238 -214c-89 0 -184 36 -232 111l96 110c29 -42 72 -68 115 -68c51 0 80 30 80 69c0 50 -38 77 -127 110l-105 39l145 191c-29 20 -67 32 -110 32c-89 0 -143 -50 -143 -160v-416h-180v421
c0 209 122 329 336 329c134 0 254 -60 335 -154z" />
    <glyph glyph-name="T" unicode="T" horiz-adv-x="628" 
d="M10 736h608v-174h-214v-562h-182v562h-212v174z" />
    <glyph glyph-name="U" unicode="U" horiz-adv-x="712" 
d="M356 -14c-206 0 -306 111 -306 332v418h180v-430c0 -91 42 -146 126 -146s126 55 126 146v430h180v-418c0 -221 -100 -332 -306 -332z" />
    <glyph glyph-name="Uacute" unicode="&#xda;" horiz-adv-x="712" 
d="M530 958l-177 -162l-84 86l176 162zM356 -14c-206 0 -306 111 -306 332v418h180v-430c0 -91 42 -146 126 -146s126 55 126 146v430h180v-418c0 -221 -100 -332 -306 -332z" />
    <glyph glyph-name="Ucircumflex" unicode="&#xdb;" horiz-adv-x="712" 
d="M445 801l-88 78l-88 -78l-86 79l174 153l173 -153zM482 306v430h180v-418c0 -221 -100 -332 -306 -332s-306 111 -306 332v418h180v-430c0 -91 42 -146 126 -146s126 55 126 146z" />
    <glyph glyph-name="Udieresis" unicode="&#xdc;" horiz-adv-x="712" 
d="M153 899c0 53 41 94 93 94s94 -42 94 -94c0 -51 -41 -93 -94 -93s-93 41 -93 93zM375 899c0 53 40 94 93 94c52 0 94 -42 94 -94c0 -51 -41 -93 -94 -93s-93 41 -93 93zM356 -14c-206 0 -306 111 -306 332v418h180v-430c0 -91 42 -146 126 -146s126 55 126 146v430h180
v-418c0 -221 -100 -332 -306 -332z" />
    <glyph glyph-name="Ugrave" unicode="&#xd9;" horiz-adv-x="712" 
d="M444 882l-84 -86l-177 162l85 86zM356 -14c-206 0 -306 111 -306 332v418h180v-430c0 -91 42 -146 126 -146s126 55 126 146v430h180v-418c0 -221 -100 -332 -306 -332z" />
    <glyph glyph-name="V" unicode="V" horiz-adv-x="696" 
d="M350 244l160 492h180l-245 -736h-194l-246 736h185z" />
    <glyph glyph-name="W" unicode="W" horiz-adv-x="1080" 
d="M769 262l122 474h181l-204 -736h-194l-134 449l-135 -449h-194l-204 736h182l122 -474l143 474h172z" />
    <glyph glyph-name="Wacute" unicode="&#x1e82;" horiz-adv-x="1080" 
d="M629 1044l85 -86l-177 -162l-84 86zM769 262l122 474h181l-204 -736h-194l-134 449l-135 -449h-194l-204 736h182l122 -474l143 474h172z" />
    <glyph glyph-name="Wcircumflex" unicode="&#x174;" horiz-adv-x="1080" 
d="M629 801l-88 78l-88 -78l-86 79l174 153l173 -153zM769 262l122 474h181l-204 -736h-194l-134 449l-135 -449h-194l-204 736h182l122 -474l143 474h172z" />
    <glyph glyph-name="Wdieresis" unicode="&#x1e84;" horiz-adv-x="1080" 
d="M430 806c-53 0 -93 41 -93 93c0 53 41 94 93 94s94 -42 94 -94c0 -51 -41 -93 -94 -93zM652 806c-53 0 -93 41 -93 93c0 53 40 94 93 94c52 0 94 -42 94 -94c0 -51 -41 -93 -94 -93zM769 262l122 474h181l-204 -736h-194l-134 449l-135 -449h-194l-204 736h182l122 -474
l143 474h172z" />
    <glyph glyph-name="Wgrave" unicode="&#x1e80;" horiz-adv-x="1080" 
d="M452 1044l176 -162l-84 -86l-177 162zM769 262l122 474h181l-204 -736h-194l-134 449l-135 -449h-194l-204 736h182l122 -474l143 474h172z" />
    <glyph glyph-name="X" unicode="X" horiz-adv-x="739" 
d="M486 370l247 -370h-223l-140 216l-140 -216h-224l248 372l-242 364h216l143 -222l143 222h215z" />
    <glyph glyph-name="Y" unicode="Y" horiz-adv-x="683" 
d="M489 736h190l-251 -489v-247h-180v245l-252 491h198l148 -291z" />
    <glyph glyph-name="Yacute" unicode="&#xdd;" horiz-adv-x="683" 
d="M425 1044l85 -86l-177 -162l-84 86zM489 736h190l-251 -489v-247h-180v245l-252 491h198l148 -291z" />
    <glyph glyph-name="Ycircumflex" unicode="&#x176;" horiz-adv-x="683" 
d="M426 801l-88 78l-88 -78l-86 79l174 153l173 -153zM489 736h190l-251 -489v-247h-180v245l-252 491h198l148 -291z" />
    <glyph glyph-name="Ydieresis" unicode="&#x178;" horiz-adv-x="683" 
d="M226 806c-53 0 -93 41 -93 93c0 53 41 94 93 94s94 -42 94 -94c0 -51 -41 -93 -94 -93zM448 806c-53 0 -93 41 -93 93c0 53 40 94 93 94c52 0 94 -42 94 -94c0 -51 -41 -93 -94 -93zM489 736h190l-251 -489v-247h-180v245l-252 491h198l148 -291z" />
    <glyph glyph-name="Ygrave" unicode="&#x1ef2;" horiz-adv-x="683" 
d="M248 1044l176 -162l-84 -86l-177 162zM489 736h190l-251 -489v-247h-180v245l-252 491h198l148 -291z" />
    <glyph glyph-name="Z" unicode="Z" horiz-adv-x="634" 
d="M601 610l-320 -436h325v-174h-568v127l323 435h-315v174h555v-126z" />
    <glyph glyph-name="Zcaron" unicode="&#x17d;" horiz-adv-x="634" 
d="M411 1033l86 -80l-173 -152l-174 152l86 80l88 -78zM601 610l-320 -436h325v-174h-568v127l323 435h-315v174h555v-126z" />
    <glyph glyph-name="Iacute_J.loclNLD" horiz-adv-x="890" 
d="M316 958l-177 -162l-84 86l176 162zM922 958l-177 -162l-84 86l176 162zM233 736v-736h-180v736h180zM574 159c53 0 85 33 85 91v486h180v-482c0 -157 -85 -269 -265 -269c-179 0 -265 105 -265 263v41h180v-40c0 -58 32 -90 85 -90z" />
    <glyph glyph-name="J.alt" horiz-adv-x="383" 
d="M39 -15h-30v174h40c101 0 111 50 111 156v421h180v-476c0 -169 -76 -275 -301 -275z" />
    <glyph glyph-name="a" unicode="a" horiz-adv-x="557" 
d="M284 544c151 0 231 -87 231 -221v-323h-152l-11 33c-33 -30 -80 -47 -142 -47c-111 0 -191 73 -191 177c0 113 90 177 194 177c49 0 90 -11 122 -31v24c0 36 -26 64 -79 64c-39 0 -92 -8 -147 -35l-51 126c64 32 143 56 226 56zM272 107c39 0 65 23 65 56
c0 32 -26 56 -65 56c-40 0 -65 -24 -65 -56c0 -33 25 -56 65 -56z" />
    <glyph glyph-name="aacute" unicode="&#xe1;" horiz-adv-x="557" 
d="M375 837l84 -85l-177 -163l-83 86zM284 544c151 0 231 -87 231 -221v-323h-152l-11 33c-33 -30 -80 -47 -142 -47c-111 0 -191 73 -191 177c0 113 90 177 194 177c49 0 90 -11 122 -31v24c0 36 -26 64 -79 64c-39 0 -92 -8 -147 -35l-51 126c64 32 143 56 226 56z
M272 107c39 0 65 23 65 56c0 32 -26 56 -65 56c-40 0 -65 -24 -65 -56c0 -33 25 -56 65 -56z" />
    <glyph glyph-name="acircumflex" unicode="&#xe2;" horiz-adv-x="557" 
d="M375 594l-88 78l-88 -78l-85 80l173 153l173 -153zM284 544c151 0 231 -87 231 -221v-323h-152l-11 33c-33 -30 -80 -47 -142 -47c-111 0 -191 73 -191 177c0 113 90 177 194 177c49 0 90 -11 122 -31v24c0 36 -26 64 -79 64c-39 0 -92 -8 -147 -35l-51 126
c64 32 143 56 226 56zM272 107c39 0 65 23 65 56c0 32 -26 56 -65 56c-40 0 -65 -24 -65 -56c0 -33 25 -56 65 -56z" />
    <glyph glyph-name="adieresis" unicode="&#xe4;" horiz-adv-x="557" 
d="M176 600c-53 0 -93 40 -93 93c0 52 41 94 93 94s94 -43 94 -94c0 -52 -42 -93 -94 -93zM398 600c-54 0 -93 40 -93 93c0 52 39 94 93 94c52 0 94 -43 94 -94c0 -52 -42 -93 -94 -93zM284 544c151 0 231 -87 231 -221v-323h-152l-11 33c-33 -30 -80 -47 -142 -47
c-111 0 -191 73 -191 177c0 113 90 177 194 177c49 0 90 -11 122 -31v24c0 36 -26 64 -79 64c-39 0 -92 -8 -147 -35l-51 126c64 32 143 56 226 56zM272 107c39 0 65 23 65 56c0 32 -26 56 -65 56c-40 0 -65 -24 -65 -56c0 -33 25 -56 65 -56z" />
    <glyph glyph-name="agrave" unicode="&#xe0;" horiz-adv-x="557" 
d="M197 837l176 -162l-83 -86l-177 163zM284 544c151 0 231 -87 231 -221v-323h-152l-11 33c-33 -30 -80 -47 -142 -47c-111 0 -191 73 -191 177c0 113 90 177 194 177c49 0 90 -11 122 -31v24c0 36 -26 64 -79 64c-39 0 -92 -8 -147 -35l-51 126c64 32 143 56 226 56z
M272 107c39 0 65 23 65 56c0 32 -26 56 -65 56c-40 0 -65 -24 -65 -56c0 -33 25 -56 65 -56z" />
    <glyph glyph-name="aogonek" unicode="&#x105;" horiz-adv-x="557" 
d="M516 -125l17 -101c-19 -9 -50 -17 -86 -17c-85 0 -131 39 -131 112c0 59 32 102 68 131h-21l-11 33c-33 -30 -80 -47 -142 -47c-111 0 -191 73 -191 177c0 113 90 177 194 177c49 0 90 -11 122 -31v24c0 36 -26 64 -79 64c-39 0 -92 -8 -147 -35l-51 126
c64 32 143 56 226 56c151 0 231 -87 231 -221v-323c-35 -20 -66 -64 -66 -98c0 -23 12 -35 37 -35c10 0 22 4 30 8zM272 107c39 0 65 23 65 56c0 32 -26 56 -65 56c-40 0 -65 -24 -65 -56c0 -33 25 -56 65 -56z" />
    <glyph glyph-name="aring" unicode="&#xe5;" horiz-adv-x="557" 
d="M287 605c-73 0 -132 56 -132 129c0 74 59 131 132 131c74 0 133 -57 133 -131c0 -73 -59 -129 -133 -129zM287 769c-20 0 -34 -14 -34 -34c0 -21 14 -34 34 -34c21 0 34 13 34 34c0 20 -13 34 -34 34zM284 544c151 0 231 -87 231 -221v-323h-152l-11 33
c-33 -30 -80 -47 -142 -47c-111 0 -191 73 -191 177c0 113 90 177 194 177c49 0 90 -11 122 -31v24c0 36 -26 64 -79 64c-39 0 -92 -8 -147 -35l-51 126c64 32 143 56 226 56zM272 107c39 0 65 23 65 56c0 32 -26 56 -65 56c-40 0 -65 -24 -65 -56c0 -33 25 -56 65 -56z" />
    <glyph glyph-name="atilde" unicode="&#xe3;" horiz-adv-x="557" 
d="M234 654c-21 0 -38 -12 -55 -39l-105 53c32 77 77 120 140 120c26 0 49 -10 78 -25c16 -9 31 -15 46 -15c21 0 38 9 56 40l105 -53c-34 -85 -83 -122 -142 -122c-26 0 -50 9 -78 24c-20 12 -31 17 -45 17zM284 544c151 0 231 -87 231 -221v-323h-152l-11 33
c-33 -30 -80 -47 -142 -47c-111 0 -191 73 -191 177c0 113 90 177 194 177c49 0 90 -11 122 -31v24c0 36 -26 64 -79 64c-39 0 -92 -8 -147 -35l-51 126c64 32 143 56 226 56zM272 107c39 0 65 23 65 56c0 32 -26 56 -65 56c-40 0 -65 -24 -65 -56c0 -33 25 -56 65 -56z" />
    <glyph glyph-name="ae" unicode="&#xe6;" horiz-adv-x="875" 
d="M855 271c0 -27 -2 -52 -4 -66h-341c11 -51 49 -79 108 -79c56 0 89 24 112 62l118 -63c-40 -86 -129 -139 -235 -139c-85 0 -154 30 -200 84c-44 -59 -101 -85 -187 -85c-128 0 -207 73 -207 178c0 113 90 177 194 177c49 0 90 -11 121 -32v25c0 36 -26 64 -79 64
c-37 0 -86 -8 -138 -35l-52 126c63 32 138 56 210 56c74 0 130 -20 168 -56c42 36 96 56 160 56c158 0 252 -122 252 -273zM605 406c-46 0 -87 -28 -96 -84h188c-7 55 -43 84 -92 84zM274 107c39 0 64 23 64 56c0 32 -25 56 -64 56c-41 0 -65 -24 -65 -56
c0 -33 24 -56 65 -56z" />
    <glyph glyph-name="b" unicode="b" horiz-adv-x="618" 
d="M353 544c142 0 245 -117 245 -279s-101 -279 -243 -279c-63 0 -116 22 -156 64l-15 -50h-134v736h180v-225c34 22 76 33 123 33zM319 158c54 0 97 45 97 107s-43 106 -97 106c-55 0 -98 -44 -98 -106s43 -107 98 -107z" />
    <glyph glyph-name="c" unicode="c" horiz-adv-x="553" 
d="M293 -14c-163 0 -273 117 -273 280c0 160 110 278 273 278c122 0 215 -64 253 -165l-161 -72c-18 39 -43 62 -90 62c-54 0 -96 -40 -96 -103c0 -65 42 -104 96 -104c47 0 72 23 90 60l161 -72c-38 -98 -132 -164 -253 -164z" />
    <glyph glyph-name="ccedilla" unicode="&#xe7;" horiz-adv-x="553" 
d="M295 162c47 0 72 23 90 60l161 -72c-35 -91 -120 -155 -229 -163l-3 -15c57 -12 90 -48 90 -100c0 -70 -50 -113 -135 -113c-40 0 -78 11 -114 29l31 81c27 -12 56 -20 82 -20c24 0 37 9 37 22c0 12 -10 21 -38 21h-70l23 103c-122 29 -200 134 -200 271
c0 160 110 278 273 278c122 0 215 -64 253 -165l-161 -72c-18 39 -43 62 -90 62c-54 0 -96 -40 -96 -103c0 -65 42 -104 96 -104z" />
    <glyph glyph-name="d" unicode="d" horiz-adv-x="618" 
d="M388 511v225h180v-736h-134l-15 50c-40 -42 -93 -64 -156 -64c-142 0 -243 117 -243 279s103 279 245 279c47 0 89 -11 123 -33zM299 158c55 0 98 45 98 107s-43 106 -98 106c-54 0 -97 -44 -97 -106s43 -107 97 -107z" />
    <glyph glyph-name="eth" unicode="&#xf0;" horiz-adv-x="611" 
d="M462 685l-45 -35c123 -98 162 -230 162 -331c0 -220 -117 -333 -288 -333c-156 0 -262 98 -262 240c0 148 106 238 235 238c63 0 115 -19 152 -52c-20 54 -55 100 -111 138l-101 -81l-72 89l58 48c-36 12 -77 23 -122 33l60 129l18 -3c63 -12 117 -29 163 -50l77 62z
M300 137c56 0 97 35 97 89s-41 88 -97 88s-97 -34 -97 -88s41 -89 97 -89z" />
    <glyph glyph-name="e" unicode="e" horiz-adv-x="574" 
d="M555 267c0 -23 -2 -43 -4 -54h-370c9 -57 52 -87 119 -87c60 0 94 26 118 62l119 -63c-45 -83 -135 -135 -250 -135c-161 0 -267 107 -267 275c0 161 106 279 267 279c165 0 268 -126 268 -277zM289 406c-55 0 -93 -28 -106 -74h210c-12 45 -46 74 -104 74z" />
    <glyph glyph-name="eacute" unicode="&#xe9;" horiz-adv-x="574" 
d="M376 837l84 -85l-177 -163l-83 86zM555 267c0 -23 -2 -43 -4 -54h-370c9 -57 52 -87 119 -87c60 0 94 26 118 62l119 -63c-45 -83 -135 -135 -250 -135c-161 0 -267 107 -267 275c0 161 106 279 267 279c165 0 268 -126 268 -277zM289 406c-55 0 -93 -28 -106 -74h210
c-12 45 -46 74 -104 74z" />
    <glyph glyph-name="ecircumflex" unicode="&#xea;" horiz-adv-x="574" 
d="M375 594l-88 78l-88 -78l-85 80l173 153l173 -153zM555 267c0 -23 -2 -43 -4 -54h-370c9 -57 52 -87 119 -87c60 0 94 26 118 62l119 -63c-45 -83 -135 -135 -250 -135c-161 0 -267 107 -267 275c0 161 106 279 267 279c165 0 268 -126 268 -277zM289 406
c-55 0 -93 -28 -106 -74h210c-12 45 -46 74 -104 74z" />
    <glyph glyph-name="edieresis" unicode="&#xeb;" horiz-adv-x="574" 
d="M177 600c-53 0 -93 40 -93 93c0 52 41 94 93 94s94 -43 94 -94c0 -52 -42 -93 -94 -93zM399 600c-54 0 -93 40 -93 93c0 52 39 94 93 94c52 0 94 -43 94 -94c0 -52 -42 -93 -94 -93zM555 267c0 -23 -2 -43 -4 -54h-370c9 -57 52 -87 119 -87c60 0 94 26 118 62l119 -63
c-45 -83 -135 -135 -250 -135c-161 0 -267 107 -267 275c0 161 106 279 267 279c165 0 268 -126 268 -277zM289 406c-55 0 -93 -28 -106 -74h210c-12 45 -46 74 -104 74z" />
    <glyph glyph-name="egrave" unicode="&#xe8;" horiz-adv-x="574" 
d="M198 837l176 -162l-83 -86l-177 163zM555 267c0 -23 -2 -43 -4 -54h-370c9 -57 52 -87 119 -87c60 0 94 26 118 62l119 -63c-45 -83 -135 -135 -250 -135c-161 0 -267 107 -267 275c0 161 106 279 267 279c165 0 268 -126 268 -277zM289 406c-55 0 -93 -28 -106 -74h210
c-12 45 -46 74 -104 74z" />
    <glyph glyph-name="eogonek" unicode="&#x119;" horiz-adv-x="574" 
d="M555 267c0 -23 -2 -43 -4 -54h-370c9 -57 52 -87 119 -87c60 0 94 26 118 62l119 -63c-33 -61 -91 -106 -165 -125h6c-35 -20 -66 -64 -66 -98c0 -23 12 -35 37 -35c10 0 22 4 30 8l17 -101c-19 -9 -50 -17 -86 -17c-85 0 -131 39 -131 112c0 54 28 95 60 124
c-134 20 -219 121 -219 272c0 161 106 279 267 279c165 0 268 -126 268 -277zM289 406c-55 0 -93 -28 -106 -74h210c-12 45 -46 74 -104 74z" />
    <glyph glyph-name="uni1EBD" unicode="&#x1ebd;" horiz-adv-x="574" 
d="M235 654c-21 0 -38 -12 -55 -39l-105 53c32 77 77 120 140 120c26 0 49 -10 78 -25c16 -9 31 -15 46 -15c21 0 38 9 56 40l105 -53c-34 -85 -83 -122 -142 -122c-26 0 -50 9 -78 24c-20 12 -31 17 -45 17zM555 267c0 -23 -2 -43 -4 -54h-370c9 -57 52 -87 119 -87
c60 0 94 26 118 62l119 -63c-45 -83 -135 -135 -250 -135c-161 0 -267 107 -267 275c0 161 106 279 267 279c165 0 268 -126 268 -277zM289 406c-55 0 -93 -28 -106 -74h210c-12 45 -46 74 -104 74z" />
    <glyph glyph-name="f" unicode="f" horiz-adv-x="377" 
d="M321 609c-39 0 -54 -21 -54 -66v-21h90v-165h-90v-357h-180v357h-68v165h68v52c0 124 75 201 191 201c42 0 75 -7 90 -10v-163c-11 3 -25 7 -47 7z" />
    <glyph glyph-name="g" unicode="g" horiz-adv-x="621" 
d="M418 471l19 59h133v-450c0 -185 -100 -292 -281 -292c-85 0 -186 35 -234 138l-9 20l126 63c36 -54 65 -74 119 -74c58 0 99 35 99 104v27c-34 -26 -77 -40 -126 -40c-140 0 -243 108 -243 259c0 149 100 259 240 259c65 0 119 -27 157 -73zM301 184c56 0 98 44 98 101
c0 58 -42 101 -98 101c-55 0 -98 -44 -98 -101s43 -101 98 -101z" />
    <glyph glyph-name="h" unicode="h" horiz-adv-x="600" 
d="M385 544c142 0 172 -106 172 -218v-326h-180v303c0 53 -16 65 -47 65c-32 0 -67 -16 -100 -42v-326h-180v736h180v-243c45 30 98 51 155 51z" />
    <glyph glyph-name="i" unicode="i" horiz-adv-x="285" 
d="M40 698c0 62 40 104 102 104c63 0 103 -42 103 -104c0 -61 -40 -102 -103 -102c-62 0 -102 41 -102 102zM232 530v-530h-180v530h180z" />
    <glyph glyph-name="dotlessi" unicode="&#x131;" horiz-adv-x="285" 
d="M232 530v-530h-180v530h180z" />
    <glyph glyph-name="iacute" unicode="&#xed;" horiz-adv-x="285" 
d="M315 752l-177 -163l-83 86l176 162zM232 530v-530h-180v530h180z" />
    <glyph glyph-name="icircumflex" unicode="&#xee;" horiz-adv-x="285" 
d="M211 594l-68 77l-68 -77l-88 79l156 160l156 -160zM232 0h-180v530h180v-530z" />
    <glyph glyph-name="idieresis" unicode="&#xef;" horiz-adv-x="285" 
d="M-53 693c0 55 38 94 93 94c56 0 94 -39 94 -94s-38 -93 -94 -93c-55 0 -93 38 -93 93zM152 693c0 55 38 94 93 94c56 0 94 -39 94 -94s-38 -93 -94 -93c-55 0 -93 38 -93 93zM232 530v-530h-180v530h180z" />
    <glyph glyph-name="igrave" unicode="&#xec;" horiz-adv-x="285" 
d="M229 675l-83 -86l-177 163l84 85zM232 530v-530h-180v530h180z" />
    <glyph glyph-name="ij" unicode="&#x133;" horiz-adv-x="578" 
d="M40 698c0 62 40 104 102 104c63 0 103 -42 103 -104c0 -61 -40 -102 -103 -102c-62 0 -102 41 -102 102zM333 698c0 62 40 104 102 104c63 0 103 -42 103 -104c0 -61 -40 -102 -103 -102c-62 0 -102 41 -102 102zM232 530v-530h-180v530h180zM346 530h180v-588
c0 -91 -53 -174 -183 -174c-38 0 -66 8 -72 11v152c8 -2 17 -3 35 -3c25 0 40 21 40 56v546z" />
    <glyph glyph-name="j" unicode="j" horiz-adv-x="293" 
d="M48 698c0 62 40 104 102 104c63 0 103 -42 103 -104c0 -61 -40 -102 -103 -102c-62 0 -102 41 -102 102zM61 530h180v-588c0 -91 -53 -174 -183 -174c-38 0 -66 8 -72 11v152c8 -2 17 -3 35 -3c25 0 40 21 40 56v546z" />
    <glyph glyph-name="uni0237" unicode="&#x237;" horiz-adv-x="271" 
d="M51 530h180v-588c0 -91 -53 -174 -183 -174c-38 0 -65 8 -72 11v152c9 -2 17 -3 31 -3c29 0 44 21 44 56v546z" />
    <glyph glyph-name="k" unicode="k" horiz-adv-x="578" 
d="M366 282l222 -282h-207l-151 192v-192h-180v736h180v-382l154 176h198z" />
    <glyph glyph-name="l" unicode="l" horiz-adv-x="303" 
d="M279 170v-171c-13 -3 -41 -4 -58 -4c-90 0 -171 45 -171 175v566h180v-502c0 -57 18 -64 49 -64z" />
    <glyph glyph-name="lslash" unicode="&#x142;" horiz-adv-x="384" 
d="M276 362v-128c0 -57 19 -64 50 -64v-171c-13 -3 -42 -4 -59 -4c-89 0 -170 45 -170 175v84l-28 -17l-65 107l93 56v336h179v-228l45 27l69 -104z" />
    <glyph glyph-name="m" unicode="m" horiz-adv-x="905" 
d="M698 544c136 0 164 -106 164 -218v-326h-180v303c0 53 -17 65 -43 65c-31 0 -62 -15 -93 -42v-326h-180v303c0 53 -17 65 -43 65c-31 0 -62 -15 -93 -42v-326h-180v530h133l19 -57c49 40 111 71 180 71c70 0 112 -28 135 -71c49 40 112 71 181 71z" />
    <glyph glyph-name="n" unicode="n" horiz-adv-x="599" 
d="M385 544c142 0 172 -106 172 -218v-326h-180v303c0 53 -16 65 -47 65c-32 0 -67 -16 -100 -42v-326h-180v530h133l19 -57c50 40 114 71 183 71z" />
    <glyph glyph-name="ntilde" unicode="&#xf1;" horiz-adv-x="599" 
d="M251 654c-21 0 -38 -12 -55 -39l-105 53c32 77 77 120 140 120c26 0 49 -10 78 -25c16 -9 31 -15 46 -15c21 0 38 9 56 40l105 -53c-34 -85 -83 -122 -142 -122c-26 0 -50 9 -78 24c-20 12 -31 17 -45 17zM385 544c142 0 172 -106 172 -218v-326h-180v303
c0 53 -16 65 -47 65c-32 0 -67 -16 -100 -42v-326h-180v530h133l19 -57c50 40 114 71 183 71z" />
    <glyph glyph-name="o" unicode="o" horiz-adv-x="604" 
d="M302 -14c-168 0 -281 116 -281 279c0 161 113 279 281 279c167 0 282 -118 282 -279c0 -163 -115 -279 -282 -279zM302 160c57 0 100 43 100 105c0 63 -43 104 -100 104c-58 0 -99 -41 -99 -103c0 -63 41 -106 99 -106z" />
    <glyph glyph-name="oacute" unicode="&#xf3;" horiz-adv-x="604" 
d="M474 752l-177 -163l-83 86l176 162zM302 -14c-168 0 -281 116 -281 279c0 161 113 279 281 279c167 0 282 -118 282 -279c0 -163 -115 -279 -282 -279zM302 160c57 0 100 43 100 105c0 63 -43 104 -100 104c-58 0 -99 -41 -99 -103c0 -63 41 -106 99 -106z" />
    <glyph glyph-name="ocircumflex" unicode="&#xf4;" horiz-adv-x="604" 
d="M389 594l-88 78l-88 -78l-85 80l173 153l173 -153zM302 544c167 0 282 -118 282 -279c0 -163 -115 -279 -282 -279c-168 0 -281 116 -281 279c0 161 113 279 281 279zM302 160c57 0 100 43 100 105c0 63 -43 104 -100 104c-58 0 -99 -41 -99 -103c0 -63 41 -106 99 -106z
" />
    <glyph glyph-name="odieresis" unicode="&#xf6;" horiz-adv-x="604" 
d="M98 693c0 52 41 94 93 94s94 -43 94 -94c0 -52 -42 -93 -94 -93c-53 0 -93 40 -93 93zM320 693c0 52 39 94 93 94c52 0 94 -43 94 -94c0 -52 -42 -93 -94 -93c-54 0 -93 40 -93 93zM302 -14c-168 0 -281 116 -281 279c0 161 113 279 281 279c167 0 282 -118 282 -279
c0 -163 -115 -279 -282 -279zM302 160c57 0 100 43 100 105c0 63 -43 104 -100 104c-58 0 -99 -41 -99 -103c0 -63 41 -106 99 -106z" />
    <glyph glyph-name="ograve" unicode="&#xf2;" horiz-adv-x="604" 
d="M388 675l-83 -86l-177 163l84 85zM302 -14c-168 0 -281 116 -281 279c0 161 113 279 281 279c167 0 282 -118 282 -279c0 -163 -115 -279 -282 -279zM302 160c57 0 100 43 100 105c0 63 -43 104 -100 104c-58 0 -99 -41 -99 -103c0 -63 41 -106 99 -106z" />
    <glyph glyph-name="oslash" unicode="&#xf8;" horiz-adv-x="603" 
d="M557 500l-39 -50c42 -48 65 -112 65 -185c0 -163 -115 -279 -282 -279c-45 0 -86 8 -122 24l-37 -48l-94 70l36 47c-41 48 -64 112 -64 186c0 161 113 279 281 279c46 0 87 -9 124 -25l40 52zM177 262c0 -19 3 -36 10 -51l137 177c-8 1 -15 2 -23 2
c-72 0 -124 -51 -124 -128zM301 139c72 0 125 50 125 122c0 21 -4 39 -10 56l-136 -176c7 -1 14 -2 21 -2z" />
    <glyph glyph-name="otilde" unicode="&#xf5;" horiz-adv-x="604" 
d="M372 613c-26 0 -50 9 -78 24c-20 12 -31 17 -45 17c-21 0 -38 -12 -55 -39l-105 53c32 77 77 120 140 120c26 0 49 -10 78 -25c16 -9 31 -15 46 -15c21 0 38 9 56 40l105 -53c-34 -85 -83 -122 -142 -122zM302 -14c-168 0 -281 116 -281 279c0 161 113 279 281 279
c167 0 282 -118 282 -279c0 -163 -115 -279 -282 -279zM302 160c57 0 100 43 100 105c0 63 -43 104 -100 104c-58 0 -99 -41 -99 -103c0 -63 41 -106 99 -106z" />
    <glyph glyph-name="oe" unicode="&#x153;" horiz-adv-x="941" 
d="M925 267c0 -26 -2 -50 -4 -62h-365c17 -52 60 -79 120 -79c57 0 91 26 115 62l118 -63c-44 -86 -135 -139 -248 -139c-81 0 -148 28 -195 79c-45 -50 -108 -79 -184 -79c-156 0 -262 116 -262 279c0 161 106 279 262 279c76 0 141 -30 186 -81c46 51 113 81 193 81
c163 0 264 -126 264 -277zM662 406c-47 0 -90 -24 -107 -81h210c-11 52 -49 81 -103 81zM299 160c56 0 98 43 98 105c0 63 -42 104 -98 104c-57 0 -97 -41 -97 -103c0 -63 40 -106 97 -106z" />
    <glyph glyph-name="p" unicode="p" horiz-adv-x="618" 
d="M355 544c142 0 243 -118 243 -279c0 -162 -103 -279 -245 -279c-47 0 -89 11 -123 33v-217h-180v728h134l16 -50c39 41 92 64 155 64zM319 158c54 0 97 45 97 107c0 61 -43 106 -97 106c-55 0 -98 -44 -98 -106s43 -107 98 -107z" />
    <glyph glyph-name="thorn" unicode="&#xfe;" horiz-adv-x="642" 
d="M365 544c150 0 257 -118 257 -279c0 -162 -109 -279 -259 -279c-56 0 -104 13 -143 39v-223h-180v934h180v-236c40 29 89 44 145 44zM331 140c63 0 109 48 109 125c0 72 -46 125 -109 125c-74 0 -111 -53 -111 -125c0 -77 37 -125 111 -125z" />
    <glyph glyph-name="q" unicode="q" horiz-adv-x="618" 
d="M418 480l16 50h134v-728h-180v217c-34 -22 -76 -33 -123 -33c-142 0 -245 117 -245 279c0 161 101 279 243 279c63 0 116 -23 155 -64zM299 158c55 0 98 45 98 107s-43 106 -98 106c-54 0 -97 -45 -97 -106c0 -62 43 -107 97 -107z" />
    <glyph glyph-name="r" unicode="r" horiz-adv-x="407" 
d="M336 544c23 0 42 -4 54 -11v-164h-36c-53 0 -95 -10 -124 -31v-338h-180v530h133l17 -54c34 33 84 68 136 68z" />
    <glyph glyph-name="s" unicode="s" horiz-adv-x="496" 
d="M254 -18c-89 0 -162 29 -230 108l93 101c52 -51 100 -69 150 -69c25 0 45 11 45 25c0 20 -19 28 -112 51c-116 29 -165 83 -165 169c0 99 82 181 217 181c107 0 177 -45 228 -101l-104 -94c-36 31 -84 51 -138 51c-29 0 -49 -8 -49 -24s18 -24 97 -43
c133 -32 188 -84 188 -179c0 -104 -89 -176 -220 -176z" />
    <glyph glyph-name="scaron" unicode="&#x161;" horiz-adv-x="496" 
d="M340 827l85 -80l-173 -153l-173 153l85 80l88 -79zM286 337c133 -32 188 -84 188 -179c0 -104 -89 -176 -220 -176c-89 0 -162 29 -230 108l93 101c52 -51 100 -69 150 -69c25 0 45 11 45 25c0 20 -19 28 -112 51c-116 29 -165 83 -165 169c0 99 82 181 217 181
c107 0 177 -45 228 -101l-104 -94c-36 31 -84 51 -138 51c-29 0 -49 -8 -49 -24s18 -24 97 -43z" />
    <glyph glyph-name="germandbls" unicode="&#xdf;" horiz-adv-x="672" 
d="M458 -19c-79 0 -152 29 -212 107l92 100c28 -50 54 -69 87 -69s52 19 52 47c0 20 -11 45 -73 88s-86 83 -86 123c0 28 10 54 45 93c26 29 37 48 37 71c0 37 -28 62 -81 62c-59 0 -96 -36 -96 -99v-504h-180v504c0 162 102 268 284 268c150 0 257 -81 257 -184
c0 -49 -19 -82 -57 -125c-23 -25 -33 -42 -33 -60c0 -21 8 -31 53 -65c80 -60 112 -108 112 -181c0 -103 -79 -176 -201 -176z" />
    <glyph glyph-name="t" unicode="t" horiz-adv-x="447" 
d="M401 530v-166h-120v-128c0 -53 25 -72 65 -72c22 0 42 4 55 9v-168c-28 -9 -58 -14 -95 -14c-129 0 -205 56 -205 194v179h-83v166h81l37 130h145v-130h120z" />
    <glyph glyph-name="u" unicode="u" horiz-adv-x="600" 
d="M369 201v329h180v-530h-132l-19 56c-46 -39 -103 -70 -163 -70c-155 0 -193 98 -193 217v327h180v-304c0 -53 23 -64 55 -64c31 0 60 11 92 39z" />
    <glyph glyph-name="uacute" unicode="&#xfa;" horiz-adv-x="600" 
d="M385 837l84 -85l-177 -163l-83 86zM369 201v329h180v-530h-132l-19 56c-46 -39 -103 -70 -163 -70c-155 0 -193 98 -193 217v327h180v-304c0 -53 23 -64 55 -64c31 0 60 11 92 39z" />
    <glyph glyph-name="ucircumflex" unicode="&#xfb;" horiz-adv-x="600" 
d="M384 594l-88 78l-88 -78l-85 80l173 153l173 -153zM369 201v329h180v-530h-132l-19 56c-46 -39 -103 -70 -163 -70c-155 0 -193 98 -193 217v327h180v-304c0 -53 23 -64 55 -64c31 0 60 11 92 39z" />
    <glyph glyph-name="udieresis" unicode="&#xfc;" horiz-adv-x="600" 
d="M186 600c-53 0 -93 40 -93 93c0 52 41 94 93 94s94 -43 94 -94c0 -52 -42 -93 -94 -93zM408 600c-54 0 -93 40 -93 93c0 52 39 94 93 94c52 0 94 -43 94 -94c0 -52 -42 -93 -94 -93zM369 201v329h180v-530h-132l-19 56c-46 -39 -103 -70 -163 -70
c-155 0 -193 98 -193 217v327h180v-304c0 -53 23 -64 55 -64c31 0 60 11 92 39z" />
    <glyph glyph-name="ugrave" unicode="&#xf9;" horiz-adv-x="600" 
d="M207 837l176 -162l-83 -86l-177 163zM369 201v329h180v-530h-132l-19 56c-46 -39 -103 -70 -163 -70c-155 0 -193 98 -193 217v327h180v-304c0 -53 23 -64 55 -64c31 0 60 11 92 39z" />
    <glyph glyph-name="v" unicode="v" horiz-adv-x="570" 
d="M290 219l97 311h177l-187 -530h-174l-196 530h182z" />
    <glyph glyph-name="w" unicode="w" horiz-adv-x="838" 
d="M585 239l80 291h167l-156 -530h-164l-89 254l-89 -254h-172l-156 530h175l80 -291l95 291h134z" />
    <glyph glyph-name="wacute" unicode="&#x1e83;" horiz-adv-x="838" 
d="M512 837l84 -85l-177 -163l-83 86zM585 239l80 291h167l-156 -530h-164l-89 254l-89 -254h-172l-156 530h175l80 -291l95 291h134z" />
    <glyph glyph-name="wcircumflex" unicode="&#x175;" horiz-adv-x="838" 
d="M511 594l-88 78l-88 -78l-85 80l173 153l173 -153zM585 239l80 291h167l-156 -530h-164l-89 254l-89 -254h-172l-156 530h175l80 -291l95 291h134z" />
    <glyph glyph-name="wdieresis" unicode="&#x1e85;" horiz-adv-x="838" 
d="M313 600c-53 0 -93 40 -93 93c0 52 41 94 93 94s94 -43 94 -94c0 -52 -42 -93 -94 -93zM535 600c-54 0 -93 40 -93 93c0 52 39 94 93 94c52 0 94 -43 94 -94c0 -52 -42 -93 -94 -93zM585 239l80 291h167l-156 -530h-164l-89 254l-89 -254h-172l-156 530h175l80 -291
l95 291h134z" />
    <glyph glyph-name="wgrave" unicode="&#x1e81;" horiz-adv-x="838" 
d="M334 837l176 -162l-83 -86l-177 163zM585 239l80 291h167l-156 -530h-164l-89 254l-89 -254h-172l-156 530h175l80 -291l95 291h134z" />
    <glyph glyph-name="x" unicode="x" horiz-adv-x="589" 
d="M395 268l187 -268h-197l-90 145l-91 -145h-197l187 268l-183 262h197l87 -139l86 139h197z" />
    <glyph glyph-name="y" unicode="y" horiz-adv-x="616" 
d="M309 244l121 286h181l-308 -728h-181l97 230l-213 498h181z" />
    <glyph glyph-name="yacute" unicode="&#xfd;" horiz-adv-x="616" 
d="M397 837l84 -85l-177 -163l-83 86zM309 244l121 286h181l-308 -728h-181l97 230l-213 498h181z" />
    <glyph glyph-name="ycircumflex" unicode="&#x177;" horiz-adv-x="616" 
d="M396 594l-88 78l-88 -78l-85 80l173 153l173 -153zM309 244l121 286h181l-308 -728h-181l97 230l-213 498h181z" />
    <glyph glyph-name="ydieresis" unicode="&#xff;" horiz-adv-x="616" 
d="M198 600c-53 0 -93 40 -93 93c0 52 41 94 93 94s94 -43 94 -94c0 -52 -42 -93 -94 -93zM420 600c-54 0 -93 40 -93 93c0 52 39 94 93 94c52 0 94 -43 94 -94c0 -52 -42 -93 -94 -93zM309 244l121 286h181l-308 -728h-181l97 230l-213 498h181z" />
    <glyph glyph-name="ygrave" unicode="&#x1ef3;" horiz-adv-x="616" 
d="M219 837l176 -162l-83 -86l-177 163zM309 244l121 286h181l-308 -728h-181l97 230l-213 498h181z" />
    <glyph glyph-name="z" unicode="z" horiz-adv-x="531" 
d="M487 392l-224 -234h228v-158h-451v139l223 233h-218v158h442v-138z" />
    <glyph glyph-name="zcaron" unicode="&#x17e;" horiz-adv-x="531" 
d="M354 827l85 -80l-173 -153l-173 153l85 80l88 -79zM487 392l-224 -234h228v-158h-451v139l223 233h-218v158h442v-138z" />
    <glyph glyph-name="iacute_j.loclNLD" horiz-adv-x="556" 
d="M315 752l-177 -163l-83 86l176 162zM598 752l-177 -163l-83 86l176 162zM232 530v-530h-180v530h180zM336 530h180v-588c0 -91 -53 -174 -183 -174c-38 0 -65 8 -72 11v152c9 -2 17 -3 31 -3c29 0 44 21 44 56v546z" />
    <glyph glyph-name="fi" unicode="&#xfb01;" horiz-adv-x="662" 
d="M519 596c-62 0 -102 41 -102 102c0 62 40 104 102 104c63 0 103 -42 103 -104c0 -61 -40 -102 -103 -102zM87 522v52c0 124 75 201 191 201c42 0 75 -7 90 -10v-163c-11 3 -25 7 -47 7c-39 0 -54 -21 -54 -66v-21h90v-165h-90v-357h-180v357h-68v165h68zM609 0h-180v530
h180v-530z" />
    <glyph glyph-name="fl" unicode="&#xfb02;" horiz-adv-x="686" 
d="M87 522v52c0 124 75 201 191 201c42 0 75 -7 90 -10v-163c-11 3 -25 7 -47 7c-39 0 -54 -21 -54 -66v-21h90v-165h-90v-357h-180v357h-68v165h68zM613 736v-502c0 -57 18 -64 49 -64v-171c-13 -3 -41 -4 -58 -4c-90 0 -171 45 -171 175v566h180z" />
    <glyph glyph-name="ordfeminine" unicode="&#xaa;" horiz-adv-x="402" 
d="M203 748c118 0 178 -64 178 -167v-236h-115l-7 24c-21 -21 -51 -34 -91 -34c-87 0 -151 55 -151 131c0 85 70 131 147 131c35 0 61 -11 81 -26v20c0 27 -20 47 -58 47c-28 0 -63 -6 -103 -27l-38 96c47 24 101 41 157 41zM187 426c32 0 55 17 55 40c0 22 -22 40 -55 40
c-28 0 -51 -18 -51 -40c0 -23 23 -40 51 -40z" />
    <glyph glyph-name="ordmasculine" unicode="&#xba;" horiz-adv-x="447" 
d="M223 332c-124 0 -209 87 -209 208c0 119 85 207 209 207c125 0 210 -88 210 -207c0 -121 -85 -208 -210 -208zM223 465c41 0 70 31 70 75s-29 74 -70 74c-40 0 -69 -30 -69 -74s29 -75 69 -75z" />
    <glyph glyph-name="uni0394" unicode="&#x394;" horiz-adv-x="868" 
d="M433 756l426 -756h-635l-1 -1v1h-214zM435 412l-124 -241h247z" />
    <glyph glyph-name="uni03A9" unicode="&#x3a9;" horiz-adv-x="811" 
d="M791 370c0 -88 -37 -163 -94 -219h85l-1 -151h-332l1 154c93 21 158 99 158 216c0 119 -83 202 -202 202s-203 -83 -203 -202c0 -117 65 -195 158 -216l1 -154h-332l-1 151h85c-57 56 -94 131 -94 219c0 223 157 380 386 380c228 0 385 -157 385 -380z" />
    <glyph glyph-name="alpha" unicode="&#x3b1;" horiz-adv-x="698" 
d="M625 143c13 0 35 6 49 13v-155c-34 -10 -56 -15 -78 -15c-37 0 -97 13 -136 63c-54 -40 -117 -63 -184 -63c-159 0 -256 109 -256 279c0 172 110 279 255 279c106 0 174 -63 222 -152c5 25 7 51 7 78v60h162v-42c0 -111 -33 -221 -88 -310c7 -24 21 -35 47 -35zM203 265
c0 -63 26 -111 88 -111c40 0 79 18 112 48c-36 123 -76 174 -126 174c-49 0 -74 -49 -74 -111z" />
    <glyph glyph-name="beta" unicode="&#x3b2;" horiz-adv-x="633" 
d="M509 382c68 -38 104 -102 104 -170c0 -131 -110 -226 -264 -226c-45 0 -87 12 -122 32v-216h-180v684c0 169 110 264 273 264c159 0 265 -98 265 -217c0 -67 -26 -118 -76 -151zM331 154c43 0 97 19 97 78c0 47 -47 73 -102 73h-39v146h48c37 0 67 21 67 58
c0 45 -38 65 -82 65c-63 0 -93 -43 -93 -98v-265c18 -45 63 -57 104 -57z" />
    <glyph glyph-name="gamma" unicode="&#x3b3;" horiz-adv-x="602" 
d="M584 529v-26c0 -164 -83 -383 -204 -497c14 -72 22 -136 22 -204h-202c0 206 -55 360 -160 640l-33 88h215l21 -65c31 -93 57 -171 78 -240c34 67 54 154 54 260v44h209z" />
    <glyph glyph-name="delta" unicode="&#x3b4;" horiz-adv-x="598" 
d="M377 502c153 -101 200 -167 200 -272c0 -140 -111 -244 -272 -244c-171 0 -279 108 -279 248c0 98 47 178 134 231c-34 36 -50 74 -50 125c0 104 88 160 205 160c57 0 105 -10 132 -22v-152c-32 12 -68 22 -108 22c-29 0 -46 -6 -46 -24c0 -17 28 -36 84 -72zM304 161
c56 0 88 34 88 83c0 38 -16 64 -94 117c-54 -27 -87 -68 -87 -114c0 -51 32 -86 93 -86z" />
    <glyph glyph-name="epsilon" unicode="&#x3b5;" horiz-adv-x="520" 
d="M397 195l109 -95c-67 -81 -143 -114 -239 -114c-142 0 -230 77 -230 174c0 41 23 78 64 104c-40 27 -63 64 -63 104c0 97 88 175 227 175c95 0 170 -33 238 -115l-110 -95c-58 51 -81 61 -129 61c-26 0 -56 -8 -56 -36c0 -26 34 -39 76 -39c14 0 32 2 68 8v-123
c-32 5 -52 5 -70 5c-50 0 -75 -19 -75 -41c0 -24 26 -33 58 -33c49 0 73 10 132 60z" />
    <glyph glyph-name="eta" unicode="&#x3b7;" horiz-adv-x="580" 
d="M373 544c144 0 174 -106 174 -218v-524h-180v501c0 53 -16 65 -48 65c-31 0 -66 -15 -99 -41v-327h-180v530h133l19 -57c49 40 112 71 181 71z" />
    <glyph glyph-name="theta" unicode="&#x3b8;" horiz-adv-x="618" 
d="M309 750c166 0 276 -144 276 -382c0 -240 -110 -382 -276 -382s-276 142 -276 382c0 238 110 382 276 382zM309 582c-64 0 -92 -57 -103 -131h206c-11 74 -40 131 -103 131zM309 156c63 0 92 56 103 129h-206c11 -73 40 -129 103 -129z" />
    <glyph glyph-name="lambda" unicode="&#x3bb;" horiz-adv-x="659" 
d="M602 142c11 0 32 4 47 8v-146c-32 -12 -60 -18 -100 -18c-53 0 -115 34 -148 115l-77 190l-127 -295h-185l220 518l-17 42c-10 24 -29 38 -57 38c-15 0 -29 -2 -57 -8v146c29 12 83 19 103 19c72 0 131 -33 164 -115l188 -459c8 -20 21 -35 46 -35z" />
    <glyph glyph-name="uni03BC" unicode="&#x3bc;" horiz-adv-x="600" 
d="M369 201v329h180v-530h-132l-19 56c-46 -39 -103 -70 -163 -70h-13v-184h-180v728h180v-304c0 -53 23 -64 55 -64c31 0 60 11 92 39z" />
    <glyph glyph-name="pi" unicode="&#x3c0;" horiz-adv-x="728" 
d="M700 530v-166h-110v-128c0 -53 18 -72 49 -72c21 0 41 4 55 9v-168c-24 -9 -49 -14 -80 -14c-128 0 -204 56 -204 194v179h-116v-364h-180v364h-95v166h681z" />
    <glyph glyph-name="rho" unicode="&#x3c1;" horiz-adv-x="643" 
d="M332 544c165 0 293 -123 293 -279c0 -162 -109 -279 -260 -279c-58 0 -108 14 -146 42v-226h-180v427c0 208 129 315 293 315zM332 150c63 0 111 50 111 115s-48 115 -111 115s-112 -50 -112 -115s49 -115 112 -115z" />
    <glyph glyph-name="sigma" unicode="&#x3c3;" horiz-adv-x="636" 
d="M318 544h305v-166h-90c32 -39 50 -87 50 -137c0 -149 -115 -255 -282 -255c-168 0 -281 116 -281 279c0 161 113 279 298 279zM301 160c57 0 100 46 100 105s-43 104 -100 104c-56 0 -99 -44 -99 -103c0 -60 43 -106 99 -106z" />
    <glyph glyph-name="tau" unicode="&#x3c4;" horiz-adv-x="429" 
d="M400 530v-166h-110v-128c0 -53 19 -72 49 -72c22 0 42 4 55 9v-168c-24 -9 -49 -14 -79 -14c-129 0 -205 56 -205 194v179h-93v166h383z" />
    <glyph glyph-name="phi" unicode="&#x3c6;" horiz-adv-x="721" 
d="M701 277c0 -168 -98 -276 -254 -290v-185h-172v186c-160 14 -255 135 -255 281c0 106 36 187 129 283l126 -101c-62 -61 -83 -109 -83 -171c0 -74 29 -121 83 -135v171c0 163 77 227 200 227c147 0 226 -125 226 -266zM447 303v-159c60 13 84 63 84 134
c0 68 -17 112 -48 112c-28 0 -36 -34 -36 -87z" />
    <glyph glyph-name="omega" unicode="&#x3c9;" horiz-adv-x="802" 
d="M520 530h184c68 -118 84 -161 84 -269c0 -163 -95 -275 -224 -275c-71 0 -126 33 -163 88c-37 -55 -92 -88 -163 -88c-128 0 -223 114 -223 273c0 110 16 153 83 271h184c-65 -115 -85 -164 -85 -260c0 -69 21 -118 66 -118c46 0 59 58 59 139c0 19 -2 85 -11 127h180
c-8 -42 -11 -108 -11 -127c0 -81 13 -139 60 -139c45 0 65 50 65 117c0 97 -19 146 -85 261z" />
    <glyph glyph-name="uni03D5" unicode="&#x3d5;" horiz-adv-x="716" 
d="M697 265c0 -158 -99 -265 -249 -278v-185h-180v185c-150 13 -248 120 -248 278s98 265 248 278v141h180v-141c150 -13 249 -120 249 -278zM448 385v-240c49 12 79 57 79 120c0 62 -30 107 -79 120zM190 265c0 -63 30 -107 78 -120v240c-48 -13 -78 -58 -78 -120z" />
    <glyph glyph-name="zero" unicode="0" horiz-adv-x="618" 
d="M309 -14c-167 0 -277 142 -277 380c0 239 110 384 277 384s278 -145 278 -384c0 -238 -111 -380 -278 -380zM309 162c74 0 94 94 94 204c0 100 -20 206 -94 206c-75 0 -94 -106 -94 -206c0 -110 20 -204 94 -204z" />
    <glyph glyph-name="one" unicode="1" horiz-adv-x="402" 
d="M191 736h142v-736h-180v494c-35 -17 -81 -28 -133 -28v168c75 0 153 40 171 102z" />
    <glyph glyph-name="two" unicode="2" horiz-adv-x="569" 
d="M379 262l-84 -88h230v-174h-484v151l191 194c93 94 113 131 113 171c0 37 -24 60 -59 60c-41 0 -85 -28 -136 -95l-127 97c57 93 143 172 271 172c146 0 228 -96 228 -211c0 -95 -31 -163 -143 -277z" />
    <glyph glyph-name="three" unicode="3" horiz-adv-x="589" 
d="M443 389c75 -33 116 -95 116 -179c0 -124 -96 -224 -261 -224c-124 0 -211 45 -284 136l114 106c42 -45 90 -68 150 -68c63 0 99 29 99 71c0 48 -47 74 -123 74c-17 0 -36 -1 -58 -5v156c22 -3 38 -5 52 -5c65 0 101 24 101 66c0 37 -28 59 -74 59
c-49 0 -94 -26 -135 -77l-116 117c80 96 160 134 269 134c150 0 235 -86 235 -200c0 -70 -30 -126 -85 -161z" />
    <glyph glyph-name="four" unicode="4" horiz-adv-x="648" 
d="M531 344h95v-174h-95v-170h-181v170h-315v104l148 462h177l-126 -392h112l56 178h129v-178z" />
    <glyph glyph-name="five" unicode="5" horiz-adv-x="588" 
d="M347 483c120 0 215 -90 215 -239c0 -162 -109 -258 -268 -258c-110 0 -206 47 -257 124l157 94c25 -34 57 -51 97 -51c56 0 88 32 88 83c0 46 -34 78 -86 78c-38 0 -68 -14 -95 -47l-148 33v436h474v-175h-301v-113c34 24 74 35 124 35z" />
    <glyph glyph-name="six" unicode="6" horiz-adv-x="617" 
d="M380 468c120 0 209 -93 209 -227c0 -146 -96 -255 -265 -255c-172 0 -290 125 -290 361c0 261 121 403 314 403c89 0 173 -36 233 -93l-100 -122c-39 31 -82 48 -129 48c-70 0 -127 -43 -135 -184c41 46 96 69 163 69zM321 152c54 0 94 29 94 83s-40 84 -94 84
c-53 0 -94 -30 -94 -84c0 -55 41 -83 94 -83z" />
    <glyph glyph-name="seven" unicode="7" horiz-adv-x="549" 
d="M33 562v174h485v-152l-270 -584h-198l268 562h-285z" />
    <glyph glyph-name="eight" unicode="8" horiz-adv-x="602" 
d="M466 381c69 -43 103 -108 103 -171c0 -132 -92 -224 -268 -224c-175 0 -268 92 -268 224c0 64 35 129 104 171c-61 42 -90 104 -90 159c0 110 81 210 255 210c172 0 253 -100 253 -210c0 -55 -28 -117 -89 -159zM301 583c-45 0 -73 -23 -73 -56c0 -36 28 -60 73 -60
s73 24 73 60c0 33 -28 56 -73 56zM301 153c54 0 86 28 86 73c0 46 -32 77 -86 77c-53 0 -86 -31 -86 -77c0 -45 33 -73 86 -73z" />
    <glyph glyph-name="nine" unicode="9" horiz-adv-x="617" 
d="M294 750c173 0 291 -125 291 -361c0 -261 -121 -403 -314 -403c-89 0 -173 36 -234 93l101 122c38 -31 82 -48 128 -48c70 0 127 42 135 183c-40 -45 -95 -68 -162 -68c-121 0 -209 93 -209 227c0 146 96 255 264 255zM297 417c54 0 94 30 94 84c0 55 -40 83 -94 83
s-93 -29 -93 -83s39 -84 93 -84z" />
    <glyph glyph-name="uni2780" unicode="&#x2780;" horiz-adv-x="845" 
d="M423 -46c-219 0 -391 175 -391 401c0 227 172 402 391 402c218 0 390 -175 390 -402c0 -226 -172 -401 -390 -401zM423 65c158 0 279 128 279 290c0 163 -121 291 -279 291c-159 0 -281 -128 -281 -291c0 -162 122 -290 281 -290zM492 136h-121v279
c-23 -11 -63 -18 -95 -18v113c51 0 111 25 122 63h94v-437z" />
    <glyph glyph-name="uni2781" unicode="&#x2781;" horiz-adv-x="845" 
d="M423 -46c-219 0 -391 175 -391 401c0 227 172 402 391 402c218 0 390 -175 390 -402c0 -226 -172 -401 -390 -401zM423 65c158 0 279 128 279 290c0 163 -121 291 -279 291c-159 0 -281 -128 -281 -291c0 -162 122 -290 281 -290zM575 154h-311v97l117 115
c47 48 68 75 68 93c0 17 -14 24 -30 24c-24 0 -51 -22 -81 -55l-86 66c36 54 88 106 173 106c91 0 147 -63 147 -130c0 -59 -37 -101 -91 -156l-43 -43h137v-117z" />
    <glyph glyph-name="uni2782" unicode="&#x2782;" horiz-adv-x="845" 
d="M423 -46c-219 0 -391 175 -391 401c0 227 172 402 391 402c218 0 390 -175 390 -402c0 -226 -172 -401 -390 -401zM423 65c158 0 279 128 279 290c0 163 -121 291 -279 291c-159 0 -281 -128 -281 -291c0 -162 122 -290 281 -290zM415 128c-67 0 -122 27 -164 88l76 71
c41 -34 53 -43 88 -43c20 0 46 11 46 34c0 16 -18 28 -61 28c-10 0 -25 -1 -50 -2v101c27 -2 35 -2 44 -2c31 0 54 12 54 36c0 18 -15 28 -38 28c-31 0 -56 -14 -89 -48l-77 78c60 65 105 86 168 86c99 0 157 -52 157 -118c0 -40 -16 -72 -45 -94c38 -23 60 -58 60 -99
c0 -81 -70 -144 -169 -144z" />
    <glyph glyph-name="uni2783" unicode="&#x2783;" horiz-adv-x="845" 
d="M423 -46c-219 0 -391 175 -391 401c0 227 172 402 391 402c218 0 390 -175 390 -402c0 -226 -172 -401 -390 -401zM423 65c158 0 279 128 279 290c0 163 -121 291 -279 291c-159 0 -281 -128 -281 -291c0 -162 122 -290 281 -290zM557 151h-121v75h-214v73l99 288h118
l-86 -244h83l32 112h89v-112h58v-117h-58v-75z" />
    <glyph glyph-name="uni2784" unicode="&#x2784;" horiz-adv-x="845" 
d="M423 -46c-219 0 -391 175 -391 401c0 227 172 402 391 402c218 0 390 -175 390 -402c0 -226 -172 -401 -390 -401zM423 65c158 0 279 128 279 290c0 163 -121 291 -279 291c-159 0 -281 -128 -281 -291c0 -162 122 -290 281 -290zM427 119c-45 0 -107 14 -155 81l96 64
c17 -15 37 -23 61 -23c28 0 46 13 46 35c0 19 -16 33 -46 33c-21 0 -41 -8 -61 -23l-98 17v265h303v-117h-195v-52c19 13 45 19 77 19c87 0 140 -63 140 -139c0 -99 -73 -160 -168 -160z" />
    <glyph glyph-name="uni2785" unicode="&#x2785;" horiz-adv-x="845" 
d="M423 -46c-219 0 -391 175 -391 401c0 227 172 402 391 402c218 0 390 -175 390 -402c0 -226 -172 -401 -390 -401zM423 65c158 0 279 128 279 290c0 163 -121 291 -279 291c-159 0 -281 -128 -281 -291c0 -162 122 -290 281 -290zM424 128c-101 0 -183 82 -183 205
c0 158 76 251 200 251c53 0 109 -22 155 -64l-68 -80c-37 25 -56 33 -89 33c-39 0 -73 -25 -86 -91c26 22 57 34 97 34c77 0 142 -54 142 -129c0 -93 -62 -159 -168 -159zM424 237c30 0 53 14 53 41s-23 41 -53 41c-31 0 -55 -14 -55 -41s24 -41 55 -41z" />
    <glyph glyph-name="uni2786" unicode="&#x2786;" horiz-adv-x="845" 
d="M423 -46c-219 0 -391 175 -391 401c0 227 172 402 391 402c218 0 390 -175 390 -402c0 -226 -172 -401 -390 -401zM423 65c158 0 279 128 279 290c0 163 -121 291 -279 291c-159 0 -281 -128 -281 -291c0 -162 122 -290 281 -290zM409 136h-132l167 319h-178v117h321v-95
z" />
    <glyph glyph-name="uni2787" unicode="&#x2787;" horiz-adv-x="845" 
d="M423 -46c-219 0 -391 175 -391 401c0 227 172 402 391 402c218 0 390 -175 390 -402c0 -226 -172 -401 -390 -401zM423 65c158 0 279 128 279 290c0 163 -121 291 -279 291c-159 0 -281 -128 -281 -291c0 -162 122 -290 281 -290zM423 127c-112 0 -171 62 -171 130
c0 36 20 77 68 103c-44 25 -61 61 -61 92c0 67 52 132 164 132c113 0 165 -65 165 -132c0 -31 -18 -67 -63 -91c49 -27 70 -68 70 -105c0 -66 -59 -129 -172 -129zM423 407c27 0 42 16 42 35s-15 33 -42 33s-42 -14 -42 -33s15 -35 42 -35zM423 236c31 0 50 15 50 36
c0 22 -19 39 -50 39s-49 -17 -49 -39c0 -21 18 -36 49 -36z" />
    <glyph glyph-name="uni2788" unicode="&#x2788;" horiz-adv-x="845" 
d="M422 -46c-219 0 -390 175 -390 401c0 227 171 402 390 402s391 -175 391 -402c0 -226 -172 -401 -391 -401zM422 65c159 0 280 128 280 290c0 163 -121 291 -280 291s-280 -128 -280 -291c0 -162 121 -290 280 -290zM404 127c-53 0 -110 22 -155 64l67 80
c37 -25 57 -33 90 -33c39 0 73 25 85 91c-25 -22 -56 -34 -96 -34c-77 0 -142 54 -142 129c0 93 61 159 168 159c100 0 182 -82 182 -205c0 -158 -75 -251 -199 -251zM421 392c31 0 54 14 54 41s-23 41 -54 41s-54 -14 -54 -41s23 -41 54 -41z" />
    <glyph glyph-name="uni278A" unicode="&#x278a;" horiz-adv-x="800" 
d="M401 -21c-206 0 -367 165 -367 376c0 212 161 377 367 377c205 0 365 -165 365 -377c0 -211 -160 -376 -365 -376zM352 415v-279h121v437h-94c-11 -38 -71 -63 -122 -63v-113c32 0 72 7 95 18z" />
    <glyph glyph-name="uni278B" unicode="&#x278b;" horiz-adv-x="800" 
d="M34 355c0 212 161 377 367 377c205 0 365 -165 365 -377c0 -211 -160 -376 -365 -376c-206 0 -367 165 -367 376zM550 146v117h-138l43 43c54 55 91 97 91 156c0 67 -55 130 -147 130c-84 0 -136 -52 -172 -106l86 -66c30 33 57 55 81 55c16 0 29 -7 29 -24
c0 -18 -20 -45 -67 -93l-117 -115v-97h311z" />
    <glyph glyph-name="uni278C" unicode="&#x278c;" horiz-adv-x="800" 
d="M34 355c0 212 161 377 367 377c205 0 365 -165 365 -377c0 -211 -160 -376 -365 -376c-206 0 -367 165 -367 376zM556 272c0 41 -21 76 -60 99c29 22 45 54 45 94c0 66 -58 118 -157 118c-63 0 -107 -21 -168 -86l77 -78c33 34 59 48 90 48c22 0 37 -10 37 -28
c0 -24 -23 -36 -54 -36c-8 0 -17 0 -44 2v-101c25 1 41 2 51 2c42 0 61 -12 61 -28c0 -23 -27 -34 -47 -34c-35 0 -47 9 -87 43l-77 -71c42 -61 97 -88 164 -88c99 0 169 63 169 144z" />
    <glyph glyph-name="uni278D" unicode="&#x278d;" horiz-adv-x="800" 
d="M34 355c0 212 161 377 367 377c205 0 365 -165 365 -377c0 -211 -160 -376 -365 -376c-206 0 -367 165 -367 376zM530 225h59v117h-59v111h-88l-32 -111h-83l86 243h-118l-99 -287v-73h213v-76h121v76z" />
    <glyph glyph-name="uni278E" unicode="&#x278e;" horiz-adv-x="800" 
d="M401 -21c-206 0 -367 165 -367 376c0 212 161 377 367 377c205 0 365 -165 365 -377c0 -211 -160 -376 -365 -376zM403 127c95 0 168 61 168 160c0 76 -53 139 -140 139c-32 0 -58 -6 -78 -19v52h196v117h-304v-265l99 -17c19 15 39 23 61 23c29 0 45 -14 45 -33
c0 -22 -17 -35 -46 -35c-23 0 -44 8 -61 23l-96 -64c48 -67 111 -81 156 -81z" />
    <glyph glyph-name="uni278F" unicode="&#x278f;" horiz-adv-x="800" 
d="M766 356c0 -212 -160 -377 -366 -377c-205 0 -366 165 -366 377c0 211 161 376 366 376c206 0 366 -165 366 -376zM221 333c0 -123 82 -205 183 -205c107 0 168 66 168 159c0 75 -65 129 -142 129c-40 0 -71 -12 -97 -34c13 66 49 91 84 91s54 -8 92 -33l67 80
c-46 42 -102 64 -155 64c-124 0 -200 -93 -200 -251zM349 278c0 27 24 41 55 41s53 -14 53 -41s-22 -41 -53 -41s-55 14 -55 41z" />
    <glyph glyph-name="uni2790" unicode="&#x2790;" horiz-adv-x="800" 
d="M34 355c0 212 161 377 367 377c205 0 365 -165 365 -377c0 -211 -160 -376 -365 -376c-206 0 -367 165 -367 376zM387 136l179 341v95h-321v-117h178l-167 -319h131z" />
    <glyph glyph-name="uni2791" unicode="&#x2791;" horiz-adv-x="800" 
d="M401 -21c-206 0 -367 165 -367 376c0 212 161 377 367 377c205 0 365 -165 365 -377c0 -211 -160 -376 -365 -376zM399 127c113 0 172 63 172 129c0 37 -21 78 -70 105c45 24 63 60 63 91c0 67 -52 132 -165 132c-112 0 -164 -65 -164 -132c0 -31 17 -67 61 -92
c-47 -26 -68 -67 -68 -103c0 -68 59 -130 171 -130zM399 407c-27 0 -42 16 -42 35s15 33 42 33s42 -14 42 -33s-15 -35 -42 -35zM399 236c-31 0 -49 15 -49 36c0 22 18 39 49 39s50 -17 50 -39c0 -21 -19 -36 -50 -36z" />
    <glyph glyph-name="uni2792" unicode="&#x2792;" horiz-adv-x="800" 
d="M34 356c0 211 161 376 366 376c206 0 366 -165 366 -376c0 -212 -160 -377 -366 -377c-205 0 -366 165 -366 377zM579 379c0 122 -82 205 -182 205c-107 0 -169 -67 -169 -160c0 -74 65 -128 142 -128c41 0 71 12 98 33c-14 -65 -47 -90 -86 -90c-34 0 -52 8 -90 33
l-68 -81c46 -41 102 -63 155 -63c125 0 200 92 200 251zM451 434c0 -27 -24 -42 -54 -42c-31 0 -54 15 -54 42s23 41 54 41c30 0 54 -14 54 -41z" />
    <glyph glyph-name="zero.tf" horiz-adv-x="615" 
d="M308 -14c-167 0 -278 142 -278 380c0 239 111 384 278 384s277 -145 277 -384c0 -238 -110 -380 -277 -380zM308 162c73 0 94 94 94 204c0 100 -20 206 -94 206c-75 0 -95 -106 -95 -206c0 -110 20 -204 95 -204z" />
    <glyph glyph-name="one.tf" horiz-adv-x="615" 
d="M424 736v-562h154v-174h-503v174h169v325c-43 -19 -103 -33 -166 -33v168c86 0 182 40 202 102h144z" />
    <glyph glyph-name="two.tf" horiz-adv-x="615" 
d="M410 275l-93 -101h234v-174h-487v151l200 214c77 83 101 131 101 164c0 30 -17 47 -51 47c-41 0 -95 -34 -141 -95l-126 97c75 106 164 172 288 172c131 0 214 -83 214 -203c0 -100 -57 -184 -139 -272z" />
    <glyph glyph-name="three.tf" horiz-adv-x="615" 
d="M448 390c75 -34 117 -96 117 -181c0 -124 -106 -223 -262 -223c-105 0 -188 40 -260 136l115 106c67 -53 88 -67 143 -67c41 0 82 27 82 77c0 38 -41 66 -107 66c-14 0 -37 -1 -74 -4v156c38 -3 52 -3 63 -3c53 0 91 22 91 66c0 36 -28 56 -68 56c-52 0 -90 -21 -142 -76
l-116 117c94 102 163 134 259 134c156 0 245 -85 245 -198c0 -71 -30 -127 -86 -162z" />
    <glyph glyph-name="four.tf" horiz-adv-x="615" 
d="M522 333h85v-174h-85v-159h-180v159h-318v115l147 462h177l-128 -403h126l47 149h129v-149z" />
    <glyph glyph-name="five.tf" horiz-adv-x="615" 
d="M347 483c140 0 228 -100 228 -225c0 -171 -115 -272 -263 -272c-77 0 -175 24 -252 130l147 96c31 -28 65 -41 102 -41c53 0 83 31 83 80c0 39 -39 63 -82 63c-39 0 -67 -14 -99 -39l-148 25v436h474v-175h-301v-103c29 15 67 25 111 25z" />
    <glyph glyph-name="six.tf" horiz-adv-x="615" 
d="M335 468c147 0 247 -93 247 -217c0 -155 -98 -265 -265 -265c-161 0 -288 119 -288 347c0 270 120 417 310 417c87 0 167 -29 243 -94l-101 -122c-60 37 -92 49 -146 49c-69 0 -125 -48 -143 -181c39 42 90 66 143 66zM314 152c54 0 94 30 94 85c0 53 -40 82 -94 82
c-53 0 -94 -29 -94 -82c0 -56 41 -85 94 -85z" />
    <glyph glyph-name="seven.tf" horiz-adv-x="615" 
d="M50 562v174h528v-152l-308 -584h-202l298 562h-316z" />
    <glyph glyph-name="eight.tf" horiz-adv-x="615" 
d="M472 381c69 -42 103 -108 103 -171c0 -116 -92 -224 -267 -224c-176 0 -268 108 -268 224c0 64 34 129 103 171c-61 42 -89 104 -89 159c0 109 79 210 254 210c174 0 253 -101 253 -210c0 -55 -28 -117 -89 -159zM308 583c-46 0 -74 -22 -74 -55c0 -37 28 -61 74 -61
s73 24 73 61c0 33 -27 55 -73 55zM308 153c53 0 86 28 86 71c0 48 -33 79 -86 79c-54 0 -86 -31 -86 -79c0 -43 32 -71 86 -71z" />
    <glyph glyph-name="nine.tf" horiz-adv-x="615" 
d="M298 750c161 0 289 -119 289 -347c0 -270 -120 -417 -310 -417c-87 0 -167 29 -243 94l100 122c61 -37 92 -49 146 -49c69 0 126 47 144 180c-40 -41 -90 -65 -143 -65c-147 0 -247 93 -247 217c0 155 98 265 264 265zM301 417c54 0 94 29 94 82c0 56 -40 85 -94 85
s-93 -30 -93 -85c0 -53 39 -82 93 -82z" />
    <glyph glyph-name="uni2080" unicode="&#x2080;" horiz-adv-x="412" 
d="M207 -146c-111 0 -185 88 -185 235s74 237 185 237c110 0 183 -90 183 -237s-73 -235 -183 -235zM207 202c-46 0 -57 -57 -57 -113c0 -59 11 -112 57 -112c44 0 55 53 55 112c0 56 -10 113 -55 113z" />
    <glyph glyph-name="uni2081" unicode="&#x2081;" horiz-adv-x="274" 
d="M136 316h103v-452h-126v292c-25 -13 -60 -22 -98 -22v118c52 0 110 25 121 64z" />
    <glyph glyph-name="uni2082" unicode="&#x2082;" horiz-adv-x="394" 
d="M262 30l-43 -44h142v-122h-322v102l120 119c49 50 70 77 70 96c0 16 -14 24 -30 24c-24 0 -52 -24 -84 -57l-89 67c37 57 92 111 179 111c95 0 152 -65 152 -133c0 -62 -39 -106 -95 -163z" />
    <glyph glyph-name="uni2083" unicode="&#x2083;" horiz-adv-x="392" 
d="M308 107c39 -24 60 -61 60 -102c0 -84 -72 -150 -174 -150c-70 0 -126 28 -171 91l80 74c43 -36 55 -44 90 -44c21 0 48 11 48 34c0 17 -19 29 -62 29c-10 0 -27 -1 -53 -3v106c28 -2 37 -2 46 -2c31 0 55 12 55 37c0 18 -16 28 -38 28c-32 0 -58 -14 -92 -50l-81 82
c63 68 109 89 175 89c102 0 162 -54 162 -123c0 -40 -16 -74 -45 -96z" />
    <glyph glyph-name="uni2084" unicode="&#x2084;" horiz-adv-x="431" 
d="M360 64h60v-122h-60v-78h-126v78h-219v77l104 297h123l-89 -252h80l37 115h90v-115z" />
    <glyph glyph-name="uni2085" unicode="&#x2085;" horiz-adv-x="400" 
d="M223 162c94 0 149 -64 149 -143c0 -104 -75 -167 -174 -167c-45 0 -111 14 -161 84l100 66c18 -15 39 -23 62 -23c30 0 47 13 47 35c0 20 -16 34 -46 34c-22 0 -42 -8 -62 -23l-103 17v274h314v-121h-202v-52c19 11 45 19 76 19z" />
    <glyph glyph-name="uni2086" unicode="&#x2086;" horiz-adv-x="408" 
d="M236 153c84 0 152 -56 152 -134c0 -96 -64 -165 -175 -165c-104 0 -189 85 -189 213c0 164 78 259 207 259c55 0 113 -22 161 -65l-71 -83c-39 25 -58 33 -91 33c-40 0 -75 -24 -89 -93c26 22 58 35 95 35zM213 -32c32 0 55 14 55 42s-23 42 -55 42
c-31 0 -55 -14 -55 -42s24 -42 55 -42z" />
    <glyph glyph-name="uni2087" unicode="&#x2087;" horiz-adv-x="379" 
d="M18 195v121h353v-101l-206 -351h-137l193 331h-203z" />
    <glyph glyph-name="uni2088" unicode="&#x2088;" horiz-adv-x="397" 
d="M312 96c44 -26 64 -66 64 -101c0 -73 -61 -141 -178 -141c-116 0 -177 68 -177 142c0 35 19 74 63 100c-40 26 -56 63 -56 94c0 70 54 137 170 137c118 0 171 -67 171 -137c0 -31 -17 -68 -57 -94zM198 213c-27 0 -42 -14 -42 -33c0 -20 15 -35 42 -35c28 0 43 15 43 35
c0 19 -15 33 -43 33zM198 -32c32 0 51 15 51 36c0 22 -19 40 -51 40c-31 0 -50 -18 -50 -40c0 -21 19 -36 50 -36z" />
    <glyph glyph-name="uni2089" unicode="&#x2089;" horiz-adv-x="408" 
d="M195 326c103 0 189 -85 189 -212c0 -163 -79 -260 -206 -260c-56 0 -114 22 -162 65l71 84c39 -25 58 -33 91 -33c41 0 75 24 90 93c-26 -23 -58 -36 -92 -36c-89 0 -155 57 -155 134c0 97 63 165 174 165zM194 128c31 0 56 15 56 42c0 29 -25 42 -56 42s-54 -14 -54 -42
c0 -27 23 -42 54 -42z" />
    <glyph glyph-name="zero.dnom" horiz-adv-x="412" 
d="M207 -10c-111 0 -185 88 -185 235s74 237 185 237c110 0 183 -90 183 -237s-73 -235 -183 -235zM207 338c-46 0 -57 -57 -57 -113c0 -59 11 -112 57 -112c44 0 55 53 55 112c0 56 -10 113 -55 113z" />
    <glyph glyph-name="one.dnom" horiz-adv-x="274" 
d="M136 452h103v-452h-126v292c-25 -13 -60 -22 -98 -22v118c52 0 110 25 121 64z" />
    <glyph glyph-name="two.dnom" horiz-adv-x="394" 
d="M262 166l-43 -44h142v-122h-322v102l120 119c49 50 70 77 70 96c0 16 -14 24 -30 24c-24 0 -52 -24 -84 -57l-89 67c37 57 92 111 179 111c95 0 152 -65 152 -133c0 -62 -39 -106 -95 -163z" />
    <glyph glyph-name="three.dnom" horiz-adv-x="392" 
d="M308 243c39 -24 60 -61 60 -102c0 -84 -72 -150 -174 -150c-70 0 -126 28 -171 91l80 74c43 -36 55 -44 90 -44c21 0 48 11 48 34c0 17 -19 29 -62 29c-10 0 -27 -1 -53 -3v106c28 -2 37 -2 46 -2c31 0 55 12 55 37c0 18 -16 28 -38 28c-32 0 -58 -14 -92 -50l-81 82
c63 68 109 89 175 89c102 0 162 -54 162 -123c0 -40 -16 -74 -45 -96z" />
    <glyph glyph-name="four.dnom" horiz-adv-x="431" 
d="M360 200h60v-122h-60v-78h-126v78h-219v77l104 297h123l-89 -252h80l37 115h90v-115z" />
    <glyph glyph-name="five.dnom" horiz-adv-x="400" 
d="M223 298c94 0 149 -64 149 -143c0 -104 -75 -167 -174 -167c-45 0 -111 14 -161 84l100 66c18 -15 39 -23 62 -23c30 0 47 13 47 35c0 20 -16 34 -46 34c-22 0 -42 -8 -62 -23l-103 17v274h314v-121h-202v-52c19 11 45 19 76 19z" />
    <glyph glyph-name="six.dnom" horiz-adv-x="408" 
d="M236 289c84 0 152 -56 152 -134c0 -96 -64 -165 -175 -165c-104 0 -189 85 -189 213c0 164 78 259 207 259c55 0 113 -22 161 -65l-71 -83c-39 25 -58 33 -91 33c-40 0 -75 -24 -89 -93c26 22 58 35 95 35zM213 104c32 0 55 14 55 42s-23 42 -55 42
c-31 0 -55 -14 -55 -42s24 -42 55 -42z" />
    <glyph glyph-name="seven.dnom" horiz-adv-x="379" 
d="M18 331v121h353v-101l-206 -351h-137l193 331h-203z" />
    <glyph glyph-name="eight.dnom" horiz-adv-x="397" 
d="M312 232c44 -26 64 -66 64 -101c0 -73 -61 -141 -178 -141c-116 0 -177 68 -177 142c0 35 19 74 63 100c-40 26 -56 63 -56 94c0 70 54 137 170 137c118 0 171 -67 171 -137c0 -31 -17 -68 -57 -94zM198 349c-27 0 -42 -14 -42 -33c0 -20 15 -35 42 -35c28 0 43 15 43 35
c0 19 -15 33 -43 33zM198 104c32 0 51 15 51 36c0 22 -19 40 -51 40c-31 0 -50 -18 -50 -40c0 -21 19 -36 50 -36z" />
    <glyph glyph-name="nine.dnom" horiz-adv-x="408" 
d="M195 462c103 0 189 -85 189 -212c0 -163 -79 -260 -206 -260c-56 0 -114 22 -162 65l71 84c39 -25 58 -33 91 -33c41 0 75 24 90 93c-26 -23 -58 -36 -92 -36c-89 0 -155 57 -155 134c0 97 63 165 174 165zM194 264c31 0 56 15 56 42c0 29 -25 42 -56 42s-54 -14 -54 -42
c0 -27 23 -42 54 -42z" />
    <glyph glyph-name="zero.numr" horiz-adv-x="412" 
d="M207 275c-111 0 -185 88 -185 235s74 237 185 237c110 0 183 -90 183 -237s-73 -235 -183 -235zM207 623c-46 0 -57 -57 -57 -113c0 -59 11 -112 57 -112c44 0 55 53 55 112c0 56 -10 113 -55 113z" />
    <glyph glyph-name="one.numr" horiz-adv-x="274" 
d="M136 737h103v-452h-126v292c-25 -13 -60 -22 -98 -22v117c52 0 110 26 121 65z" />
    <glyph glyph-name="two.numr" horiz-adv-x="394" 
d="M262 450l-43 -43h142v-122h-322v102l120 118c50 49 70 77 70 96c0 16 -14 24 -30 24c-24 0 -52 -24 -84 -57l-89 67c37 57 92 111 179 111c95 0 152 -65 152 -133c0 -62 -39 -106 -95 -163z" />
    <glyph glyph-name="three.numr" horiz-adv-x="392" 
d="M308 528c39 -25 60 -61 60 -102c0 -85 -72 -150 -174 -150c-70 0 -126 27 -171 91l80 74c43 -36 55 -44 90 -44c21 0 48 11 48 34c0 17 -19 29 -62 29c-10 0 -27 -1 -53 -3v106c28 -2 37 -2 46 -2c31 0 55 12 55 37c0 18 -16 28 -38 28c-32 0 -58 -14 -92 -50l-81 81
c63 69 109 90 175 90c102 0 162 -54 162 -123c0 -41 -15 -74 -45 -96z" />
    <glyph glyph-name="four.numr" horiz-adv-x="431" 
d="M360 485h60v-122h-60v-78h-126v78h-219v77l104 297h123l-89 -252h80l37 115h90v-115z" />
    <glyph glyph-name="five.numr" horiz-adv-x="400" 
d="M223 583c94 0 149 -64 149 -144c0 -103 -75 -166 -174 -166c-45 0 -111 14 -161 84l100 66c18 -15 39 -23 62 -23c30 0 47 13 47 35c0 20 -16 34 -46 34c-22 0 -42 -8 -62 -23l-103 17v274h314v-122h-202v-51c19 11 45 19 76 19z" />
    <glyph glyph-name="six.numr" horiz-adv-x="408" 
d="M236 574c84 0 152 -56 152 -134c0 -96 -64 -165 -175 -165c-104 0 -189 85 -189 213c0 163 78 259 207 259c55 0 113 -22 161 -65l-71 -84c-39 26 -58 34 -91 34c-40 0 -75 -24 -89 -93c26 22 58 35 95 35zM213 389c32 0 55 14 55 42s-23 42 -55 42
c-31 0 -55 -14 -55 -42s24 -42 55 -42z" />
    <glyph glyph-name="seven.numr" horiz-adv-x="379" 
d="M18 615v122h353v-101l-206 -351h-137l192 330h-202z" />
    <glyph glyph-name="eight.numr" horiz-adv-x="397" 
d="M313 516c43 -26 63 -65 63 -100c0 -73 -61 -141 -178 -141c-116 0 -177 68 -177 142c0 34 19 73 64 99c-41 26 -57 63 -57 95c0 70 54 137 170 137c118 0 171 -67 171 -137c0 -32 -16 -69 -56 -95zM198 634c-27 0 -42 -14 -42 -33c0 -20 15 -36 42 -36c28 0 43 16 43 36
c0 19 -15 33 -43 33zM198 389c32 0 51 15 51 36c0 22 -19 39 -51 39c-31 0 -50 -17 -50 -39c0 -21 19 -36 50 -36z" />
    <glyph glyph-name="nine.numr" horiz-adv-x="408" 
d="M195 747c103 0 189 -85 189 -212c0 -164 -79 -260 -206 -260c-56 0 -114 22 -162 65l71 84c39 -25 58 -33 91 -33c41 0 75 24 90 92c-26 -22 -58 -35 -92 -35c-89 0 -155 57 -155 134c0 97 63 165 174 165zM194 549c31 0 56 14 56 42c0 29 -25 42 -56 42s-54 -14 -54 -42
s23 -42 54 -42z" />
    <glyph glyph-name="uni2070" unicode="&#x2070;" horiz-adv-x="412" 
d="M207 362c-111 0 -185 88 -185 235s74 237 185 237c110 0 183 -90 183 -237s-73 -235 -183 -235zM207 710c-46 0 -57 -57 -57 -113c0 -59 11 -112 57 -112c44 0 55 53 55 112c0 56 -10 113 -55 113z" />
    <glyph glyph-name="uni00B9" unicode="&#xb9;" horiz-adv-x="274" 
d="M136 824h103v-452h-126v292c-25 -13 -60 -22 -98 -22v117c52 0 110 26 121 65z" />
    <glyph glyph-name="uni00B2" unicode="&#xb2;" horiz-adv-x="394" 
d="M262 537l-43 -43h142v-122h-322v102l120 118c50 49 70 77 70 96c0 16 -14 24 -30 24c-24 0 -52 -24 -84 -57l-89 67c37 57 92 111 179 111c95 0 152 -65 152 -133c0 -62 -39 -106 -95 -163z" />
    <glyph glyph-name="uni00B3" unicode="&#xb3;" horiz-adv-x="392" 
d="M308 615c39 -25 60 -61 60 -102c0 -85 -72 -150 -174 -150c-70 0 -126 27 -171 91l80 74c43 -36 55 -44 90 -44c21 0 48 11 48 34c0 17 -19 29 -62 29c-10 0 -27 -1 -53 -3v106c28 -2 37 -2 46 -2c31 0 55 12 55 37c0 18 -16 28 -38 28c-32 0 -58 -14 -92 -50l-81 81
c63 69 109 90 175 90c102 0 162 -54 162 -123c0 -41 -15 -74 -45 -96z" />
    <glyph glyph-name="uni2074" unicode="&#x2074;" horiz-adv-x="431" 
d="M360 572h60v-122h-60v-78h-126v78h-219v77l104 297h123l-89 -252h80l37 115h90v-115z" />
    <glyph glyph-name="uni2075" unicode="&#x2075;" horiz-adv-x="400" 
d="M223 670c94 0 149 -64 149 -144c0 -103 -75 -166 -174 -166c-45 0 -111 14 -161 84l100 66c18 -15 39 -23 62 -23c30 0 47 13 47 35c0 20 -16 34 -46 34c-22 0 -42 -8 -62 -23l-103 17v274h314v-122h-202v-51c19 11 45 19 76 19z" />
    <glyph glyph-name="uni2076" unicode="&#x2076;" horiz-adv-x="408" 
d="M236 661c84 0 152 -56 152 -134c0 -96 -64 -165 -175 -165c-104 0 -189 85 -189 213c0 163 78 259 207 259c55 0 113 -22 161 -65l-71 -84c-39 26 -58 34 -91 34c-40 0 -75 -24 -89 -93c26 22 58 35 95 35zM213 476c32 0 55 14 55 42s-23 42 -55 42
c-31 0 -55 -14 -55 -42s24 -42 55 -42z" />
    <glyph glyph-name="uni2077" unicode="&#x2077;" horiz-adv-x="379" 
d="M18 702v122h353v-101l-206 -351h-137l192 330h-202z" />
    <glyph glyph-name="uni2078" unicode="&#x2078;" horiz-adv-x="397" 
d="M313 603c43 -26 63 -65 63 -100c0 -73 -61 -141 -178 -141c-116 0 -177 68 -177 142c0 34 19 73 64 99c-41 26 -57 63 -57 95c0 70 54 137 170 137c118 0 171 -67 171 -137c0 -32 -16 -69 -56 -95zM198 721c-27 0 -42 -14 -42 -33c0 -20 15 -36 42 -36c28 0 43 16 43 36
c0 19 -15 33 -43 33zM198 476c32 0 51 15 51 36c0 22 -19 39 -51 39c-31 0 -50 -17 -50 -39c0 -21 19 -36 50 -36z" />
    <glyph glyph-name="uni2079" unicode="&#x2079;" horiz-adv-x="408" 
d="M195 834c103 0 189 -85 189 -212c0 -164 -79 -260 -206 -260c-56 0 -114 22 -162 65l71 84c39 -25 58 -33 91 -33c41 0 75 24 90 92c-26 -22 -58 -35 -92 -35c-89 0 -155 57 -155 134c0 97 63 165 174 165zM194 636c31 0 56 14 56 42c0 29 -25 42 -56 42s-54 -14 -54 -42
s23 -42 54 -42z" />
    <glyph glyph-name="fraction" unicode="&#x2044;" horiz-adv-x="315" 
d="M445 711l-458 -774l-117 59l456 773z" />
    <glyph glyph-name="onehalf" unicode="&#xbd;" horiz-adv-x="981" 
d="M155 -4l456 773l119 -58l-457 -774zM239 737v-452h-126v292c-25 -13 -60 -22 -98 -22v117c51 0 110 26 121 65h103zM849 166l-43 -44h142v-122h-322v102l121 119c49 50 69 77 69 96c0 16 -14 24 -30 24c-24 0 -52 -24 -84 -57l-89 67c37 57 92 111 179 111
c95 0 152 -65 152 -133c0 -62 -39 -106 -95 -163z" />
    <glyph glyph-name="onequarter" unicode="&#xbc;" horiz-adv-x="1013" 
d="M155 -4l456 773l119 -58l-457 -774zM239 737v-452h-126v292c-25 -13 -60 -22 -98 -22v117c51 0 110 26 121 65h103zM942 200h60v-122h-60v-78h-126v78h-218v77l103 297h123l-88 -252h79l37 115h90v-115z" />
    <glyph glyph-name="threequarters" unicode="&#xbe;" horiz-adv-x="1046" 
d="M246 -4l457 773l119 -58l-458 -774zM368 426c0 -85 -72 -150 -174 -150c-70 0 -126 27 -171 91l80 74c43 -36 55 -44 90 -44c21 0 48 11 48 34c0 17 -19 29 -62 29c-10 0 -27 -1 -53 -3v106c28 -2 37 -2 46 -2c31 0 55 12 55 37c0 18 -16 28 -38 28
c-32 0 -58 -14 -92 -50l-81 81c63 69 109 90 175 90c102 0 162 -54 162 -123c0 -41 -15 -74 -45 -96c39 -25 60 -61 60 -102zM975 200h60v-122h-60v-78h-126v78h-218v77l103 297h123l-89 -252h80l37 115h90v-115z" />
    <glyph glyph-name="uni2160" unicode="&#x2160;" horiz-adv-x="515" 
d="M478 701v-169h-130v-363h130v-169h-441v169h131v363h-131v169h441z" />
    <glyph glyph-name="uni2161" unicode="&#x2161;" horiz-adv-x="818" 
d="M781 701v-169h-129v-363h129v-169h-744v169h130v363h-130v169h744zM347 169h125v363h-125v-363z" />
    <glyph glyph-name="uni2162" unicode="&#x2162;" horiz-adv-x="1121" 
d="M1084 701v-169h-130v-363h130v-169h-1047v169h131v363h-131v169h1047zM347 532v-363h125v363h-125zM652 169h122v363h-122v-363z" />
    <glyph glyph-name="uni2163" unicode="&#x2163;" horiz-adv-x="1087" 
d="M1059 701v-169h-91l-102 -363h193v-169h-1022v169h131v363h-131v169h1022zM423 532h-76v-363h178zM605 532l91 -323l91 323h-182z" />
    <glyph glyph-name="uni2164" unicode="&#x2164;" horiz-adv-x="782" 
d="M755 701v-169h-91l-102 -363h193v-169h-728v169h193l-102 363h-91v169h728zM300 532l91 -321l91 321h-182z" />
    <glyph glyph-name="uni2165" unicode="&#x2165;" horiz-adv-x="1087" 
d="M1050 701v-169h-131v-363h131v-169h-1023v169h194l-103 363h-91v169h1023zM391 209l91 323h-182zM562 169h178v363h-76z" />
    <glyph glyph-name="uni2166" unicode="&#x2166;" horiz-adv-x="1392" 
d="M1354 701v-169h-130v-363h130v-169h-1327v169h194l-103 363h-91v169h1327zM392 210l90 322h-181zM665 532l-103 -363h178v363h-75zM920 169h124v363h-124v-363z" />
    <glyph glyph-name="uni2167" unicode="&#x2167;" horiz-adv-x="1699" 
d="M1662 701v-169h-130v-362h130v-170h-1635v170h195l-103 362h-92v169h1635zM393 208l91 324h-182zM666 532l-102 -362h178v362h-76zM922 532v-362h125v362h-125zM1228 170h123v362h-123v-362z" />
    <glyph glyph-name="uni2168" unicode="&#x2168;" horiz-adv-x="1054" 
d="M1024 532h-101l-135 -181l135 -182h101v-169h-987v169h131v363h-131v169h987v-169zM440 532h-93v-363h93l135 182zM617 532l65 -101l64 101h-129zM682 270l-65 -101h129z" />
    <glyph glyph-name="uni2169" unicode="&#x2169;" horiz-adv-x="767" 
d="M731 532h-108l-136 -181l143 -190h101v-169h-701v169h101l143 190l-136 181h-108v169h701v-169zM381 430l66 102h-132zM381 271l-71 -110h142z" />
    <glyph glyph-name="uni216C" unicode="&#x216c;" horiz-adv-x="689" 
d="M485 169v147h179v-316h-627v169h109v363h-109v169h420v-169h-131v-363h159z" />
    <glyph glyph-name="uni216D" unicode="&#x216d;" horiz-adv-x="778" 
d="M389 541c-108 0 -186 -80 -186 -190c0 -104 77 -191 186 -191c81 0 147 42 170 118h178v-278h-173v78c-45 -59 -106 -92 -194 -92c-202 0 -350 158 -350 364c0 213 148 365 350 365c84 0 146 -26 194 -72v58h173v-285h-178c-23 73 -89 125 -170 125z" />
    <glyph glyph-name="uni216E" unicode="&#x216e;" horiz-adv-x="786" 
d="M429 701c193 0 337 -134 337 -352c0 -226 -144 -349 -338 -349h-391v169h112v364h-112v168h392zM328 169h96c89 0 159 57 159 180c0 116 -69 184 -158 184h-97v-364z" />
    <glyph glyph-name="uni216F" unicode="&#x216f;" horiz-adv-x="1012" 
d="M861 531l61 -361h78v-170h-314v170h59l-29 180l-10 76c-10 -32 -21 -63 -26 -79l-113 -336h-122l-113 336c-5 16 -15 46 -26 78l-9 -76l-30 -179h60v-170h-315v170h78l62 361h-112v170h329l138 -376l137 376h335v-170h-118z" />
    <glyph glyph-name="period" unicode="." horiz-adv-x="311" 
d="M155 -13c-66 0 -120 54 -120 120c0 65 54 120 120 120c67 0 121 -55 121 -120c0 -66 -54 -120 -121 -120z" />
    <glyph glyph-name="comma" unicode="," horiz-adv-x="318" 
d="M290 86c0 -89 -48 -174 -169 -264l-91 86c55 47 77 90 77 130c0 37 -25 63 -69 85c20 83 80 105 130 105c61 0 122 -53 122 -142z" />
    <glyph glyph-name="colon" unicode=":" horiz-adv-x="311" 
d="M155 322c-66 0 -120 54 -120 120c0 65 54 120 120 120c67 0 121 -55 121 -120c0 -66 -54 -120 -121 -120zM155 -13c-66 0 -120 54 -120 120c0 65 54 120 120 120c67 0 121 -55 121 -120c0 -66 -54 -120 -121 -120z" />
    <glyph glyph-name="semicolon" unicode=";" horiz-adv-x="317" 
d="M161 322c-65 0 -119 54 -119 120c0 65 54 120 119 120c68 0 121 -55 121 -120c0 -66 -53 -120 -121 -120zM290 86c0 -89 -49 -174 -170 -264l-91 86c55 47 77 90 77 130c0 37 -24 63 -69 85c20 83 81 105 130 105c62 0 123 -53 123 -142z" />
    <glyph glyph-name="ellipsis" unicode="&#x2026;" horiz-adv-x="879" 
d="M157 -13c-65 0 -120 54 -120 120c0 65 55 120 120 120c67 0 121 -55 121 -120c0 -66 -54 -120 -121 -120zM439 -13c-66 0 -120 54 -120 120c0 65 54 120 120 120c67 0 120 -55 120 -120c0 -66 -53 -120 -120 -120zM723 -13c-66 0 -120 54 -120 120c0 65 54 120 120 120
c67 0 121 -55 121 -120c0 -66 -54 -120 -121 -120z" />
    <glyph glyph-name="exclam" unicode="!" horiz-adv-x="307" 
d="M65 423l-10 350h196l-10 -350l-14 -179h-148zM153 -8c-61 0 -109 48 -109 109s48 110 109 110s110 -49 110 -110s-49 -109 -110 -109z" />
    <glyph glyph-name="exclamdown" unicode="&#xa1;" horiz-adv-x="307" 
d="M154 573c61 0 109 -47 109 -109c0 -60 -48 -109 -109 -109s-110 49 -110 109c0 62 49 109 110 109zM242 143l10 -350h-196l10 350l14 179h148z" />
    <glyph glyph-name="question" unicode="?" horiz-adv-x="589" 
d="M366 302l-99 -64l-89 134l76 53c87 61 112 83 112 124c0 28 -22 50 -54 50c-34 0 -66 -13 -133 -70l-42 -36l-109 132l27 28c73 73 160 121 258 121c148 0 236 -95 236 -213c0 -113 -56 -177 -183 -259zM294 -8c-61 0 -109 48 -109 109s48 109 109 109
c59 0 110 -48 110 -109s-49 -109 -110 -109z" />
    <glyph glyph-name="questiondown" unicode="&#xbf;" horiz-adv-x="565" 
d="M296 562c60 0 109 -48 109 -109c0 -62 -49 -109 -109 -109s-110 47 -110 109c0 61 48 109 110 109zM224 252l98 63l89 -133l-76 -54c-86 -60 -112 -82 -112 -123c0 -29 22 -50 55 -50s66 12 132 70l42 35l110 -131l-28 -28c-72 -74 -160 -121 -258 -121
c-148 0 -236 95 -236 212c0 114 56 178 184 260z" />
    <glyph glyph-name="periodcentered" unicode="&#xb7;" horiz-adv-x="296" 
d="M148 176c-66 0 -120 54 -120 120c0 65 54 120 120 120c67 0 120 -55 120 -120c0 -66 -53 -120 -120 -120z" />
    <glyph glyph-name="bullet" unicode="&#x2022;" horiz-adv-x="395" 
d="M198 136c-92 0 -168 75 -168 168s76 168 168 168c91 0 167 -75 167 -168s-76 -168 -167 -168z" />
    <glyph glyph-name="asterisk" unicode="*" horiz-adv-x="470" 
d="M336 611l112 12v-119l-116 12l79 -102l-112 -59l-58 106l-58 -109l-116 59l83 106l-128 -13v119l122 -13l-80 102l115 59l61 -113l59 111l112 -58z" />
    <glyph glyph-name="numbersign" unicode="#" horiz-adv-x="757" 
d="M723 547v-140h-140l-21 -117h111v-140h-137l-32 -174h-151l32 174h-101l-32 -174h-151l32 174h-98v140h124l21 117h-95v140h121l32 173h151l-32 -173h101l32 173h151l-32 -173h114zM310 290h101l21 117h-101z" />
    <glyph glyph-name="slash" unicode="/" horiz-adv-x="552" 
d="M565 746l-426 -873l-152 71l426 872z" />
    <glyph glyph-name="backslash" unicode="\" horiz-adv-x="552" 
d="M565 -56l-152 -71l-426 873l152 70z" />
    <glyph glyph-name="parenleft" unicode="(" horiz-adv-x="381" 
d="M206 360c0 -165 62 -288 166 -392l-116 -110c-127 113 -222 276 -222 502c0 227 95 390 222 502l116 -109c-104 -105 -166 -227 -166 -393z" />
    <glyph glyph-name="parenright" unicode=")" horiz-adv-x="381" 
d="M174 360c0 166 -62 288 -165 393l116 109c126 -112 221 -275 221 -502c0 -226 -95 -389 -221 -502l-116 110c103 104 165 227 165 392z" />
    <glyph glyph-name="braceleft" unicode="{" horiz-adv-x="362" 
d="M287 3h45l4 -167c-33 -7 -55 -8 -76 -8c-168 0 -216 85 -216 163c0 96 101 171 101 233c0 21 -12 36 -39 47l-60 25v124l60 25c27 11 39 26 39 47c0 62 -101 137 -101 233c0 78 48 163 216 163c21 0 43 -1 76 -8l-4 -167h-45c-40 0 -57 -15 -57 -38
c0 -65 77 -134 77 -209c0 -42 -18 -80 -46 -108c28 -28 46 -66 46 -108c0 -75 -77 -144 -77 -209c0 -23 17 -38 57 -38z" />
    <glyph glyph-name="braceright" unicode="}" horiz-adv-x="362" 
d="M316 296l-60 -25c-26 -11 -38 -26 -38 -47c0 -62 100 -137 100 -233c0 -78 -48 -163 -216 -163c-21 0 -43 1 -75 8l3 167h46c39 0 57 15 57 38c0 65 -78 134 -78 209c0 42 18 80 47 108c-29 28 -47 66 -47 108c0 75 78 144 78 209c0 23 -18 38 -57 38h-46l-3 167
c32 7 54 8 75 8c168 0 216 -85 216 -163c0 -96 -100 -171 -100 -233c0 -21 12 -36 38 -47l60 -25v-124z" />
    <glyph glyph-name="bracketleft" unicode="[" horiz-adv-x="370" 
d="M345 834v-173h-115v-672h115v-172h-295v1017h295z" />
    <glyph glyph-name="bracketright" unicode="]" horiz-adv-x="368" 
d="M317 834v-1017h-294v172h114v672h-114v173h294z" />
    <glyph glyph-name="hyphen" unicode="-" horiz-adv-x="400" 
d="M372 387v-163h-344v163h344z" />
    <glyph glyph-name="uni00AD" unicode="&#xad;" horiz-adv-x="400" 
d="M372 387v-163h-344v163h344z" />
    <glyph glyph-name="endash" unicode="&#x2013;" horiz-adv-x="621" 
d="M596 386v-161h-571v161h571z" />
    <glyph glyph-name="emdash" unicode="&#x2014;" horiz-adv-x="1048" 
d="M1023 386v-161h-998v161h998z" />
    <glyph glyph-name="underscore" unicode="_" horiz-adv-x="604" 
d="M580 22v-148h-556v148h556z" />
    <glyph glyph-name="quotesinglbase" unicode="&#x201a;" horiz-adv-x="297" 
d="M105 -197l-78 82c55 51 74 94 74 128c0 39 -18 55 -68 84c16 52 63 93 121 93c65 0 126 -54 126 -141c0 -75 -49 -171 -175 -246z" />
    <glyph glyph-name="quotedblbase" unicode="&#x201e;" horiz-adv-x="575" 
d="M100 -196l-78 82c56 51 75 94 75 128c0 39 -19 55 -68 84c15 52 63 93 120 93c65 0 126 -54 126 -141c0 -75 -48 -171 -175 -246zM379 -196l-78 82c56 51 75 94 75 128c0 39 -19 55 -68 84c15 52 63 93 120 93c65 0 126 -54 126 -141c0 -75 -48 -171 -175 -246z" />
    <glyph glyph-name="quotedblleft" unicode="&#x201c;" horiz-adv-x="576" 
d="M143 386c-65 0 -126 54 -126 141c0 75 49 171 175 246l78 -82c-55 -51 -75 -94 -75 -128c0 -39 19 -55 68 -84c-15 -52 -62 -93 -120 -93zM422 386c-65 0 -126 54 -126 141c0 75 49 171 175 246l78 -82c-55 -51 -75 -94 -75 -128c0 -39 19 -55 68 -84
c-15 -52 -62 -93 -120 -93z" />
    <glyph glyph-name="quotedblright" unicode="&#x201d;" horiz-adv-x="576" 
d="M105 378l-78 82c55 51 74 94 74 128c0 39 -18 55 -68 84c16 52 63 93 121 93c65 0 126 -54 126 -141c0 -75 -49 -171 -175 -246zM384 378l-78 82c55 51 74 94 74 128c0 39 -18 55 -68 84c16 52 63 93 121 93c65 0 126 -54 126 -141c0 -75 -49 -171 -175 -246z" />
    <glyph glyph-name="quoteleft" unicode="&#x2018;" horiz-adv-x="297" 
d="M147 386c-65 0 -126 54 -126 141c0 75 49 171 175 246l78 -82c-55 -51 -75 -94 -75 -128c0 -39 19 -55 68 -84c-15 -52 -62 -93 -120 -93z" />
    <glyph glyph-name="quoteright" unicode="&#x2019;" horiz-adv-x="297" 
d="M101 378l-78 82c55 51 74 94 74 128c0 39 -18 55 -68 84c16 52 63 93 121 93c65 0 126 -54 126 -141c0 -75 -49 -171 -175 -246z" />
    <glyph glyph-name="guillemotleft" unicode="&#xab;" horiz-adv-x="655" 
d="M24 330l163 228h188l-162 -228l160 -226h-187zM278 330l163 228h189l-163 -228l161 -226h-188z" />
    <glyph glyph-name="guillemotright" unicode="&#xbb;" horiz-adv-x="656" 
d="M26 558h188l163 -228l-162 -226h-188l161 226zM280 558h189l163 -228l-162 -226h-188l161 226z" />
    <glyph glyph-name="guilsinglleft" unicode="&#x2039;" horiz-adv-x="402" 
d="M29 330l163 228h189l-163 -228l161 -226h-188z" />
    <glyph glyph-name="guilsinglright" unicode="&#x203a;" horiz-adv-x="402" 
d="M21 558h189l162 -228l-161 -226h-188l161 226z" />
    <glyph glyph-name="quotedbl" unicode="&#x22;" horiz-adv-x="468" 
d="M204 381h-143l-42 194v169h185v-363zM431 381h-142l-43 194v169h185v-363z" />
    <glyph glyph-name="quotesingle" unicode="'" horiz-adv-x="240" 
d="M208 381h-143l-42 194v169h185v-363z" />
    <glyph glyph-name="uni3000" unicode="&#x3000;" horiz-adv-x="1000" 
 />
    <glyph glyph-name="uni205F" unicode="&#x205f;" horiz-adv-x="222" 
 />
    <glyph glyph-name="uni2001" unicode="&#x2001;" horiz-adv-x="1000" 
 />
    <glyph glyph-name="uni2003" unicode="&#x2003;" horiz-adv-x="1000" 
 />
    <glyph glyph-name="uni2000" unicode="&#x2000;" horiz-adv-x="500" 
 />
    <glyph glyph-name="uni2002" unicode="&#x2002;" horiz-adv-x="500" 
 />
    <glyph glyph-name="uni2007" unicode="&#x2007;" horiz-adv-x="615" 
 />
    <glyph glyph-name="uni2005" unicode="&#x2005;" horiz-adv-x="250" 
 />
    <glyph glyph-name="uni200A" unicode="&#x200a;" horiz-adv-x="143" 
 />
    <glyph glyph-name="uni202F" unicode="&#x202f;" horiz-adv-x="208" 
 />
    <glyph glyph-name="uni2008" unicode="&#x2008;" horiz-adv-x="311" 
 />
    <glyph glyph-name="uni2006" unicode="&#x2006;" horiz-adv-x="167" 
 />
    <glyph glyph-name="uni00A0" unicode="&#xa0;" horiz-adv-x="260" 
 />
    <glyph glyph-name="uni2009" unicode="&#x2009;" horiz-adv-x="200" 
 />
    <glyph glyph-name="uni2004" unicode="&#x2004;" horiz-adv-x="333" 
 />
    <glyph glyph-name="uni200B" unicode="&#x200b;" 
 />
    <glyph glyph-name="uni200C" unicode="&#x200c;" 
 />
    <glyph glyph-name=".null" horiz-adv-x="462" 
 />
    <glyph glyph-name=".null" horiz-adv-x="462" 
 />
    <glyph glyph-name="cent" unicode="&#xa2;" horiz-adv-x="558" 
d="M295 259c51 0 74 26 94 63l158 -73c-30 -79 -93 -134 -178 -155v-104h-167v108c-112 35 -182 137 -182 266c0 128 71 230 182 266v113h167v-109c85 -20 148 -75 178 -156l-158 -72c-20 39 -42 64 -94 64c-57 0 -96 -42 -96 -105c0 -65 40 -106 96 -106z" />
    <glyph glyph-name="currency" unicode="&#xa4;" horiz-adv-x="618" 
d="M538 335c0 -33 -6 -63 -18 -91l78 -78l-115 -115l-75 75c-30 -13 -63 -21 -99 -21c-35 0 -68 8 -98 22l-76 -76l-115 115l78 79c-12 27 -18 58 -18 90s6 62 18 90l-78 78l115 116l76 -76c30 14 63 22 98 22c36 0 69 -8 99 -21l75 75l115 -116l-78 -78
c12 -27 18 -58 18 -90zM244 335c0 -38 27 -66 65 -66c37 0 65 28 65 66c0 37 -28 66 -65 66c-38 0 -65 -29 -65 -66z" />
    <glyph glyph-name="dollar" unicode="$" horiz-adv-x="614" 
d="M582 204c0 -104 -73 -185 -187 -212v-130h-163v128c-89 17 -157 64 -200 152l135 87c50 -70 104 -83 154 -83c40 0 73 14 73 43c0 32 -28 58 -144 84c-141 30 -200 103 -200 216c0 103 67 188 182 216v113h163v-111c83 -18 145 -64 182 -124l-135 -98
c-34 44 -90 61 -139 61c-44 0 -72 -19 -72 -48c0 -27 21 -45 107 -64c169 -39 244 -104 244 -230z" />
    <glyph glyph-name="Euro" unicode="&#x20ac;" horiz-adv-x="707" 
d="M566 207l124 -121c-84 -73 -157 -100 -264 -100c-139 0 -262 87 -312 223h-85v125h60v17v16h-60v126h85c51 135 173 222 312 222c106 0 178 -27 262 -100l-124 -119c-52 39 -84 52 -136 52c-54 0 -93 -21 -118 -55h178l-34 -126h-183v-16v-17h174l-34 -125h-102
c26 -35 65 -56 119 -56s85 13 138 54z" />
    <glyph glyph-name="sterling" unicode="&#xa3;" horiz-adv-x="598" 
d="M303 174h263v-174h-496l-33 113l48 29c44 25 69 71 73 115h-109v151h55c-14 29 -25 64 -25 109c0 105 89 198 231 198c107 0 188 -34 247 -116l-123 -112c-34 41 -77 54 -121 54c-33 0 -61 -20 -61 -56c0 -27 10 -51 23 -77h182v-151h-134c-1 -28 -9 -56 -20 -83z" />
    <glyph glyph-name="yen" unicode="&#xa5;" horiz-adv-x="642" 
d="M455 701h174l-150 -298h99v-144h-171v-39h171v-144h-171v-76h-180v76h-170v144h170v39h-170v144h100l-144 298h174l131 -291z" />
    <glyph glyph-name="uni27D1" unicode="&#x27d1;" horiz-adv-x="195" 
d="M2 442c0 54 43 97 95 97c54 0 96 -43 96 -97c0 -51 -42 -94 -96 -94c-52 0 -95 43 -95 94z" />
    <glyph glyph-name="congruent" unicode="&#x2245;" horiz-adv-x="648" 
d="M467 746l149 -76c-49 -96 -93 -150 -184 -150c-92 0 -130 53 -187 53c-30 0 -47 -21 -71 -60l-148 77c49 95 93 150 183 150c92 0 131 -53 188 -53c29 0 46 21 70 59zM574 267h-528v171h528v-171zM574 22h-528v171h528v-171z" />
    <glyph glyph-name="forall" unicode="&#x2200;" horiz-adv-x="697" 
d="M473 605l46 151h171l-248 -756h-166l-269 756h171l51 -151h244zM357 228l67 219h-141z" />
    <glyph glyph-name="uni208B" unicode="&#x208b;" horiz-adv-x="353" 
d="M303 41h-254v110h254v-110z" />
    <glyph glyph-name="uni207B" unicode="&#x207b;" horiz-adv-x="353" 
d="M303 559h-254v110h254v-110z" />
    <glyph glyph-name="plus" unicode="+" horiz-adv-x="585" 
d="M380 454h179v-174h-179v-183h-178v183h-176v174h176v185h178v-185z" />
    <glyph glyph-name="minus" unicode="&#x2212;" horiz-adv-x="461" 
d="M433 455v-174h-405v174h405z" />
    <glyph glyph-name="multiply" unicode="&#xd7;" horiz-adv-x="605" 
d="M449 638l123 -123l-146 -146l146 -147l-123 -123l-146 147l-147 -147l-123 123l147 147l-147 146l123 123l147 -146z" />
    <glyph glyph-name="divide" unicode="&#xf7;" horiz-adv-x="612" 
d="M303 483c-76 0 -127 43 -127 105c0 65 51 110 127 110c75 0 126 -45 126 -110c0 -62 -51 -105 -126 -105zM590 456v-176h-568v176h568zM303 39c-76 0 -127 43 -127 107s51 107 127 107c75 0 126 -43 126 -107s-51 -107 -126 -107z" />
    <glyph glyph-name="equal" unicode="=" horiz-adv-x="579" 
d="M553 358h-527v171h527v-171zM553 114h-527v171h527v-171z" />
    <glyph glyph-name="notequal" unicode="&#x2260;" horiz-adv-x="578" 
d="M553 531v-171h-170l-28 -73h198v-172h-264l-46 -120l-148 57l24 63h-94v172h159l28 73h-187v171h252l44 117l151 -56l-23 -61h104z" />
    <glyph glyph-name="greater" unicode="&#x3e;" horiz-adv-x="555" 
d="M20 508l82 134l427 -260v-102l-427 -260l-82 134l286 177z" />
    <glyph glyph-name="less" unicode="&#x3c;" horiz-adv-x="555" 
d="M452 644l83 -136l-285 -176l285 -176l-83 -136l-426 260v104z" />
    <glyph glyph-name="greaterequal" unicode="&#x2265;" horiz-adv-x="571" 
d="M23 582l70 158l445 -197v-130l-445 -197l-70 159l275 104zM538 5h-498v173h498v-173z" />
    <glyph glyph-name="lessequal" unicode="&#x2264;" horiz-adv-x="571" 
d="M478 740l70 -158l-276 -103l276 -104l-70 -159l-445 197v130zM531 5h-498v173h498v-173z" />
    <glyph glyph-name="plusminus" unicode="&#xb1;" horiz-adv-x="585" 
d="M374 695v-152h185v-176h-185v-142h-176v142h-172v176h172v152h176zM559 -3h-533v176h533v-176z" />
    <glyph glyph-name="approxequal" unicode="&#x2248;" horiz-adv-x="656" 
d="M474 563l149 -76c-49 -96 -93 -150 -184 -150s-130 53 -187 53c-29 0 -47 -21 -71 -60l-148 77c49 95 93 150 184 150s130 -53 187 -53c29 0 46 21 70 59zM474 285l149 -76c-49 -96 -93 -151 -184 -151s-130 53 -187 53c-29 0 -47 -20 -71 -59l-148 77
c49 95 93 150 184 150s130 -53 187 -53c29 0 46 21 70 59z" />
    <glyph glyph-name="asciitilde" unicode="~" horiz-adv-x="624" 
d="M139 217l-136 69c50 97 99 162 202 162c93 0 133 -68 199 -68c35 0 60 28 84 79l134 -68c-46 -99 -97 -162 -202 -162c-92 0 -132 67 -198 67c-35 0 -56 -25 -83 -79z" />
    <glyph glyph-name="logicalnot" unicode="&#xac;" horiz-adv-x="604" 
d="M24 456h546v-344h-178v166h-368v178z" />
    <glyph glyph-name="asciicircum" unicode="^" horiz-adv-x="534" 
d="M267 626l265 -234l-96 -106l-169 145l-169 -145l-96 106z" />
    <glyph glyph-name="infinity" unicode="&#x221e;" horiz-adv-x="931" 
d="M677 562c139 0 232 -96 232 -226s-93 -226 -232 -226c-90 0 -156 52 -213 112c-55 -60 -120 -112 -210 -112c-139 0 -233 96 -233 226s94 226 233 226c90 0 156 -52 213 -112c55 60 120 112 210 112zM254 273c41 0 76 25 111 61c-36 37 -71 63 -111 63
c-41 0 -67 -25 -67 -61c0 -37 26 -63 67 -63zM677 273c41 0 66 26 66 63c0 36 -25 61 -66 61s-77 -25 -111 -60c35 -37 71 -64 111 -64z" />
    <glyph glyph-name="emptyset" unicode="&#x2205;" horiz-adv-x="885" 
d="M756 753l112 -124l-88 -77c31 -55 48 -118 48 -185c0 -210 -172 -381 -386 -381c-85 0 -163 27 -227 73l-83 -73l-115 123l86 75c-30 55 -47 117 -47 183c0 212 173 383 386 383c85 0 163 -27 227 -73zM240 367c0 -20 3 -39 8 -57l279 243c-26 12 -55 19 -85 19
c-111 0 -202 -91 -202 -205zM645 368c0 20 -3 40 -9 59l-279 -244c26 -12 55 -19 85 -19c112 0 203 91 203 204z" />
    <glyph glyph-name="logicaland" unicode="&#x2227;" horiz-adv-x="703" 
d="M411 607l274 -542l-159 -76l-174 341l-174 -340l-160 75l275 542h118z" />
    <glyph glyph-name="logicalor" unicode="&#x2228;" horiz-adv-x="703" 
d="M352 275l174 341l159 -76l-274 -542h-118l-275 542l160 76z" />
    <glyph glyph-name="intersection" unicode="&#x2229;" horiz-adv-x="582" 
d="M192 10h-144v273c0 141 65 265 243 265s243 -124 243 -265v-273h-144v273c0 78 -39 117 -99 117s-99 -39 -99 -117v-273z" />
    <glyph glyph-name="uni222A" unicode="&#x222a;" horiz-adv-x="581" 
d="M47 273v273h144v-273c0 -79 39 -117 99 -117s99 38 99 117v273h144v-273c0 -142 -65 -265 -243 -265c-177 0 -243 123 -243 265z" />
    <glyph glyph-name="integral" unicode="&#x222b;" horiz-adv-x="414" 
d="M296 696v-793c0 -123 -73 -198 -189 -198c-32 0 -61 7 -92 20v163c23 -13 41 -17 61 -17c34 0 43 25 43 56v793c0 124 72 198 188 198c32 0 62 -6 93 -19v-163c-23 13 -42 16 -62 16c-33 0 -42 -25 -42 -56z" />
    <glyph glyph-name="product" unicode="&#x220f;" horiz-adv-x="720" 
d="M669 736v-736h-180v557h-258v-557h-180v736h618z" />
    <glyph glyph-name="summation" unicode="&#x2211;" horiz-adv-x="642" 
d="M40 736h574v-174h-326l173 -194l-173 -194h326v-174h-574v155l201 213l-201 214v154z" />
    <glyph glyph-name="radical" unicode="&#x221a;" horiz-adv-x="875" 
d="M634 978h319v-174h-192l-311 -928h-213l-228 674h185l149 -448l272 820h3z" />
    <glyph glyph-name="partialdiff" unicode="&#x2202;" horiz-adv-x="636" 
d="M280 750c197 0 333 -154 333 -407c0 -203 -127 -357 -313 -357c-160 0 -264 100 -264 256c0 131 106 232 235 232c76 0 137 -27 181 -72c-16 127 -93 181 -170 181c-66 0 -111 -14 -184 -58l-64 140c87 57 159 85 246 85zM305 154c62 0 112 39 136 105
c-27 33 -72 65 -136 65c-53 0 -99 -30 -99 -86c0 -55 48 -84 99 -84z" />
    <glyph glyph-name="uni00B5" unicode="&#xb5;" horiz-adv-x="600" 
d="M369 201v329h180v-530h-132l-19 56c-46 -39 -103 -70 -163 -70h-13v-184h-180v728h180v-304c0 -53 23 -64 55 -64c31 0 60 11 92 39z" />
    <glyph glyph-name="percent" unicode="%" horiz-adv-x="869" 
d="M206 371c-104 0 -190 84 -190 185c0 103 86 185 190 185c106 0 191 -82 191 -185c0 -101 -86 -185 -191 -185zM776 653l-584 -676l-107 80l584 676zM206 505c31 0 52 21 52 51s-21 51 -52 51s-52 -21 -52 -51s21 -51 52 -51zM663 -22c-105 0 -191 84 -191 185
c0 103 86 185 191 185s190 -82 190 -185c0 -101 -85 -185 -190 -185zM663 112c31 0 52 21 52 51s-21 51 -52 51c-32 0 -52 -21 -52 -51s20 -51 52 -51z" />
    <glyph glyph-name="perthousand" unicode="&#x2030;" horiz-adv-x="1247" 
d="M206 371c-104 0 -190 84 -190 185c0 103 86 185 190 185c106 0 191 -82 191 -185c0 -101 -86 -185 -191 -185zM776 653l-584 -676l-115 88l584 676zM206 497c36 0 60 24 60 59s-24 59 -60 59s-60 -24 -60 -59s24 -59 60 -59zM643 -22c-105 0 -191 84 -191 185
c0 103 86 185 191 185s190 -82 190 -185c0 -101 -85 -185 -190 -185zM1045 -22c-105 0 -191 84 -191 185c0 103 86 185 191 185s190 -82 190 -185c0 -101 -85 -185 -190 -185zM643 104c35 0 60 24 60 59s-25 59 -60 59c-36 0 -60 -24 -60 -59s24 -59 60 -59zM1045 104
c35 0 60 24 60 59s-25 59 -60 59c-36 0 -60 -24 -60 -59s24 -59 60 -59z" />
    <glyph glyph-name="uni208A" unicode="&#x208a;" horiz-adv-x="358" 
d="M234 147h88v-102h-88v-89h-110v89h-88v102h88v89h110v-89z" />
    <glyph glyph-name="uni207A" unicode="&#x207a;" horiz-adv-x="357" 
d="M234 665h88v-102h-88v-89h-110v89h-88v102h88v89h110v-89z" />
    <glyph glyph-name="uni2204" unicode="&#x2204;" horiz-adv-x="595" 
d="M323 736h223v-736h-332l-19 -130l-88 12l18 118h-75v158h98l21 139h-119v142h140l20 139h-160v158h184l19 130l88 -11zM366 578h-66l-21 -139h87v139zM366 297h-108l-20 -139h128v139z" />
    <glyph glyph-name="thereexists" unicode="&#x2203;" horiz-adv-x="584" 
d="M43 562v174h488v-736h-488v174h308v107h-308v174h308v107h-308z" />
    <glyph glyph-name="uni2208" unicode="&#x2208;" horiz-adv-x="670" 
d="M619 412h-287c-71 0 -116 -32 -133 -84h420v-112h-421c17 -53 61 -86 134 -86h287v-120h-287c-163 0 -281 80 -281 261s118 261 281 261h287v-120z" />
    <glyph glyph-name="uni2209" unicode="&#x2209;" horiz-adv-x="670" 
d="M619 532v-120h-119l-31 -84h150v-112h-191l-32 -86h223v-120h-268l-48 -130l-95 36l38 102c-117 25 -195 106 -195 253c0 181 118 261 281 261h104l46 123l95 -36l-32 -87h74zM199 328h162l31 84h-60c-71 0 -116 -32 -133 -84zM289 134l30 82h-121c13 -42 44 -71 91 -82z
" />
    <glyph glyph-name="propersubset" unicode="&#x2282;" horiz-adv-x="670" 
d="M51 271c0 181 118 261 281 261h287v-144h-287c-90 0 -134 -47 -134 -117s44 -117 134 -117h287v-144h-287c-163 0 -281 80 -281 261z" />
    <glyph glyph-name="propersuperset" unicode="&#x2283;" horiz-adv-x="670" 
d="M619 271c0 -181 -118 -261 -281 -261h-287v144h287c90 0 134 47 134 117s-44 117 -134 117h-287v144h287c163 0 281 -80 281 -261z" />
    <glyph glyph-name="uni2284" unicode="&#x2284;" horiz-adv-x="670" 
d="M619 532v-144h-141l-81 -234h222v-144h-271l-45 -130l-95 32l37 107c-116 25 -194 105 -194 252c0 181 118 261 281 261h89l45 131l95 -32l-34 -99h92zM292 158l80 230h-40c-90 0 -134 -47 -134 -117c0 -59 31 -101 94 -113z" />
    <glyph glyph-name="uni2285" unicode="&#x2285;" horiz-adv-x="670" 
d="M462 624l-37 -107c116 -25 194 -105 194 -252c0 -181 -118 -261 -281 -261h-89l-45 -131l-95 31l34 100h-92v144h142l80 234h-222v144h271l45 130zM298 148h40c90 0 134 47 134 117c0 59 -31 101 -94 113z" />
    <glyph glyph-name="uni2286" unicode="&#x2286;" horiz-adv-x="679" 
d="M51 391c0 181 118 261 281 261h287v-144h-287c-90 0 -134 -47 -134 -117s44 -117 134 -117h287v-144h-287c-163 0 -281 80 -281 261zM628 -116h-558v126h558v-126z" />
    <glyph glyph-name="uni2287" unicode="&#x2287;" horiz-adv-x="674" 
d="M628 391c0 -181 -118 -261 -281 -261h-287v144h287c90 0 134 47 134 117s-44 117 -134 117h-287v144h287c163 0 281 -80 281 -261zM609 10v-126h-558v126h558z" />
    <glyph glyph-name="uni2288" unicode="&#x2288;" horiz-adv-x="679" 
d="M377 10h251v-126h-280l-23 -100l-96 22l18 78h-177v126h206l28 121c-148 9 -253 90 -253 260c0 181 118 261 281 261h92l24 105l96 -22l-19 -83h94v-144h-127l-54 -234h181v-144h-214zM332 274h5l54 234h-59c-90 0 -134 -47 -134 -117s44 -117 134 -117z" />
    <glyph glyph-name="uni2289" unicode="&#x2289;" horiz-adv-x="679" 
d="M347 130h-48l-28 -120h338v-126h-367l-23 -100l-96 22l18 78h-90v126h119l28 120h-138v144h171l54 234h-225v144h258l24 105l96 -22l-20 -89c125 -21 210 -101 210 -255c0 -181 -118 -261 -281 -261zM385 505l-53 -231h15c90 0 134 47 134 117c0 59 -32 102 -96 114z" />
    <glyph glyph-name="uni228A" unicode="&#x228a;" horiz-adv-x="679" 
d="M619 130h-287c-163 0 -281 80 -281 261s118 261 281 261h287v-144h-287c-90 0 -134 -47 -134 -117s44 -117 134 -117h287v-144zM426 10h202v-126h-252l-40 -100l-96 35l26 65h-196v126h246l40 99l96 -35z" />
    <glyph glyph-name="uni228B" unicode="&#x228b;" horiz-adv-x="674" 
d="M628 391c0 -181 -118 -261 -281 -261h-287v144h287c90 0 134 47 134 117s-44 117 -134 117h-287v144h287c163 0 281 -80 281 -261zM354 109l96 -35l-26 -64h185v-126h-235l-40 -100l-96 35l26 65h-213v126h263z" />
    <glyph glyph-name="arrowup" unicode="&#x2191;" horiz-adv-x="574" 
d="M307 889l250 -432h-160v-517h-180v517h-159z" />
    <glyph glyph-name="uni2197" unicode="&#x2197;" horiz-adv-x="785" 
d="M283 592l482 129l-129 -482l-113 113l-365 -366l-127 128l365 365z" />
    <glyph glyph-name="arrowright" unicode="&#x2192;" horiz-adv-x="1040" 
d="M593 584l432 -250l-432 -250v160h-517v180h517v160z" />
    <glyph glyph-name="uni2198" unicode="&#x2198;" horiz-adv-x="786" 
d="M628 721l127 -127l-366 -366l113 -113l-482 -129l129 482l113 -113z" />
    <glyph glyph-name="arrowdown" unicode="&#x2193;" horiz-adv-x="574" 
d="M370 771v-517h160l-250 -432l-250 432h160v517h180z" />
    <glyph glyph-name="uni2199" unicode="&#x2199;" horiz-adv-x="786" 
d="M637 468l129 -481l-482 129l112 112l-365 366l127 127l366 -365z" />
    <glyph glyph-name="arrowleft" unicode="&#x2190;" horiz-adv-x="1004" 
d="M449 424h517v-180h-517v-160l-432 250l432 250v-160z" />
    <glyph glyph-name="uni2196" unicode="&#x2196;" horiz-adv-x="786" 
d="M391 479l366 -366l-128 -127l-365 365l-113 -112l-129 481l482 -129z" />
    <glyph glyph-name="uni21C4" unicode="&#x21c4;" horiz-adv-x="1181" 
d="M1164 524l-421 -242v153h-641v180h641v152zM18 73l420 243v-153h642v-180h-642v-153z" />
    <glyph glyph-name="uni21C5" unicode="&#x21c5;" horiz-adv-x="1012" 
d="M281 863l242 -421h-153v-641h-180v641h-152zM822 779v-641h153l-243 -421l-243 421h153v641h180z" />
    <glyph glyph-name="arrowdblboth" unicode="&#x21d4;" horiz-adv-x="902" 
d="M578 455l79 75l227 -265l-227 -265l-79 75l44 50h-342l44 -50l-78 -75l-227 265l227 265l78 -75l-47 -54h348zM158 265l33 -38h521l33 38l-30 34h-527z" />
    <glyph glyph-name="lozenge" unicode="&#x25ca;" horiz-adv-x="656" 
d="M232 736h192l212 -363v-12l-212 -361h-192l-212 361v12zM202 368l126 -208l125 208l-125 208z" />
    <glyph glyph-name="at" unicode="@" horiz-adv-x="938" 
d="M584 583h102l-40 -203c-3 -20 -7 -43 -7 -59c0 -18 10 -26 29 -26c40 0 86 34 86 123c0 143 -110 246 -268 246c-175 0 -299 -127 -299 -306c0 -172 126 -295 301 -295c93 0 150 31 219 87l93 -112c-76 -83 -190 -126 -306 -126c-277 0 -473 179 -473 444
c0 272 212 460 464 460c251 0 432 -183 432 -382c0 -222 -154 -286 -274 -286c-49 0 -91 18 -117 53c-34 -32 -76 -52 -127 -52c-93 0 -166 72 -166 178c0 150 106 264 231 264c45 0 80 -14 104 -38zM434 291c47 0 74 61 74 115c0 28 -8 51 -34 51c-50 0 -76 -67 -76 -113
c0 -31 10 -53 36 -53z" />
    <glyph glyph-name="ampersand" unicode="&#x26;" horiz-adv-x="696" 
d="M343 474h335v-158h-85v-31c0 -248 -171 -299 -279 -299c-181 0 -280 107 -280 241c0 68 41 136 112 178c-50 36 -78 92 -78 161c0 99 78 211 241 211c63 0 142 -16 229 -110l-127 -115c-41 40 -65 51 -100 51c-39 0 -67 -25 -67 -62c0 -39 36 -67 99 -67zM413 294v22h-98
c-57 0 -99 -27 -99 -78c0 -50 42 -77 99 -77c73 0 98 50 98 133z" />
    <glyph glyph-name="paragraph" unicode="&#xb6;" horiz-adv-x="771" 
d="M340 782h398v-110l-74 -42v-486c0 -174 -93 -293 -275 -293c-92 0 -198 34 -261 160l-5 11l137 80c40 -72 76 -90 124 -90c65 0 100 37 100 105v499h-100v-436h-69c-153 0 -279 126 -279 296c0 198 139 306 304 306z" />
    <glyph glyph-name="section" unicode="&#xa7;" horiz-adv-x="610" 
d="M502 210c51 -38 76 -88 76 -159c0 -129 -111 -219 -268 -219c-128 0 -224 49 -278 159l135 88c49 -72 102 -85 153 -85c38 0 70 13 70 41c0 31 -29 54 -144 80c-138 31 -195 94 -195 206c0 53 25 102 71 138c-48 38 -70 92 -70 161c0 125 99 224 264 224
c125 0 210 -54 258 -131l-134 -97c-33 43 -89 60 -137 60c-42 0 -71 -17 -71 -47c0 -27 22 -44 106 -63c166 -39 241 -95 241 -220c0 -53 -29 -101 -77 -136zM216 348c0 -34 23 -47 121 -71c10 -2 20 -5 29 -7c24 6 41 24 41 46c0 35 -29 54 -145 84c-28 -7 -46 -28 -46 -52
z" />
    <glyph glyph-name="copyright" unicode="&#xa9;" horiz-adv-x="720" 
d="M360 122c-190 0 -339 155 -339 338c0 189 153 342 339 342c185 0 339 -153 339 -342c0 -183 -151 -338 -339 -338zM360 235c124 0 222 99 222 225c0 131 -99 229 -222 229c-125 0 -223 -98 -223 -229c0 -126 98 -225 223 -225zM364 288c-105 0 -176 70 -176 174
c0 103 70 174 176 174c72 0 129 -28 161 -114l-98 -41c-15 34 -33 47 -63 47c-38 0 -60 -23 -60 -66c0 -44 22 -66 60 -66c28 0 48 13 63 47l98 -40c-32 -87 -89 -115 -161 -115z" />
    <glyph glyph-name="registered" unicode="&#xae;" horiz-adv-x="720" 
d="M360 802c185 0 339 -153 339 -342c0 -183 -151 -338 -339 -338c-190 0 -339 155 -339 338c0 189 153 342 339 342zM360 235c124 0 222 99 222 225c0 131 -99 229 -222 229c-125 0 -223 -98 -223 -229c0 -126 98 -225 223 -225zM508 513c0 -47 -19 -81 -50 -102l52 -107
h-116l-41 82h-14v-82h-102v336h127c80 0 144 -41 144 -127zM406 513c0 21 -14 32 -43 32h-24v-64h24c29 0 43 10 43 32z" />
    <glyph glyph-name="trademark" unicode="&#x2122;" horiz-adv-x="940" 
d="M397 736v-142h-110v-284h-147v284h-114v142h371zM738 736h122l69 -426h-138l-16 140l-4 84l-11 -51l-42 -171h-112l-43 171l-11 53l-5 -86l-15 -140h-138l69 426h123l75 -189h2z" />
    <glyph glyph-name="degree" unicode="&#xb0;" horiz-adv-x="416" 
d="M208 359c-103 0 -187 81 -187 181c0 101 84 182 187 182s187 -81 187 -182s-84 -181 -187 -181zM208 477c35 0 63 27 63 63c0 34 -28 62 -63 62c-36 0 -64 -28 -64 -62c0 -36 28 -63 64 -63z" />
    <glyph glyph-name="bar" unicode="|" horiz-adv-x="272" 
d="M221 834v-1032h-163v1032h163z" />
    <glyph glyph-name="brokenbar" unicode="&#xa6;" horiz-adv-x="278" 
d="M221 834v-462h-163v462h163zM221 264v-462h-163v462h163z" />
    <glyph glyph-name="uniFFE3" unicode="&#xffe3;" horiz-adv-x="339" 
d="M337 978v-174h-335v174h335z" />
    <glyph glyph-name="uni0308" unicode="&#x308;" 
d="M-410 693c0 52 41 94 93 94s94 -43 94 -94c0 -52 -42 -93 -94 -93c-53 0 -93 40 -93 93zM-188 693c0 52 39 94 93 94c52 0 94 -43 94 -94c0 -52 -42 -93 -94 -93c-54 0 -93 40 -93 93z" />
    <glyph glyph-name="uni0307" unicode="&#x307;" 
d="M-193 674c0 53 43 97 95 97c54 0 96 -44 96 -97c0 -52 -42 -95 -96 -95c-52 0 -95 43 -95 95z" />
    <glyph glyph-name="gravecomb" unicode="&#x300;" 
d="M-2 675l-83 -86l-177 163l84 85z" />
    <glyph glyph-name="acutecomb" unicode="&#x301;" 
d="M-2 752l-177 -163l-83 86l176 162z" />
    <glyph glyph-name="uni030B" unicode="&#x30b;" 
d="M-181 816l-96 -210l-109 47l94 207zM-2 816l-96 -210l-109 47l94 207z" />
    <glyph glyph-name="uni0302" unicode="&#x302;" 
d="M-175 827l173 -153l-85 -80l-88 78l-88 -78l-85 80z" />
    <glyph glyph-name="uni030C" unicode="&#x30c;" 
d="M-175 748l88 79l85 -80l-173 -153l-173 153l85 80z" />
    <glyph glyph-name="uni0306" unicode="&#x306;" 
d="M-171 626c-99 0 -167 64 -168 172h120c1 -45 17 -64 48 -64c32 0 49 19 49 64h121c-2 -108 -68 -172 -170 -172z" />
    <glyph glyph-name="uni030A" unicode="&#x30a;" 
d="M-135 605c-73 0 -132 56 -132 129c0 74 59 131 132 131c74 0 133 -57 133 -131c0 -73 -59 -129 -133 -129zM-135 701c21 0 34 13 34 34c0 20 -13 34 -34 34c-20 0 -34 -14 -34 -34c0 -21 14 -34 34 -34z" />
    <glyph glyph-name="tildecomb" unicode="&#x303;" 
d="M-144 613c-26 0 -50 9 -78 24c-20 12 -31 17 -45 17c-21 0 -38 -12 -55 -39l-105 53c32 77 77 120 140 120c26 0 49 -10 78 -25c16 -9 31 -15 46 -15c21 0 38 9 56 40l105 -53c-34 -85 -83 -122 -142 -122z" />
    <glyph glyph-name="uni0304" unicode="&#x304;" 
d="M-2 774v-150h-335v150h335z" />
    <glyph glyph-name="uni0305" unicode="&#x305;" 
d="M495 978v-174h-630v174h630z" />
    <glyph glyph-name="dotbelowcomb" unicode="&#x323;" 
d="M-193 -154c0 54 43 97 95 97c54 0 96 -43 96 -97c0 -51 -42 -94 -96 -94c-52 0 -95 43 -95 94z" />
    <glyph glyph-name="uni0326" unicode="&#x326;" 
d="M-168 -309l-11 49c51 16 70 45 70 81c0 41 -32 71 -64 85c18 36 49 55 81 55c51 0 90 -41 90 -95c0 -81 -67 -153 -166 -175z" />
    <glyph glyph-name="uni0327" unicode="&#x327;" 
d="M-85 0l-6 -28c57 -12 90 -48 90 -100c0 -70 -50 -113 -135 -113c-40 0 -78 11 -114 29l31 81c27 -12 56 -20 82 -20c24 0 37 9 37 22c0 12 -10 21 -38 21h-70l24 108h99z" />
    <glyph glyph-name="uni0328" unicode="&#x328;" 
d="M-95 -243c-85 0 -131 39 -131 112c0 62 36 107 74 136l125 -5c-35 -20 -66 -64 -66 -98c0 -23 12 -35 37 -35c10 0 22 4 30 8l17 -101c-19 -9 -50 -17 -86 -17z" />
    <glyph glyph-name="dieresis" unicode="&#xa8;" horiz-adv-x="412" 
d="M2 693c0 52 41 94 93 94c51 0 93 -43 93 -94c0 -52 -41 -93 -93 -93c-53 0 -93 40 -93 93zM224 693c0 52 39 94 93 94c51 0 93 -43 93 -94c0 -52 -41 -93 -93 -93c-54 0 -93 40 -93 93z" />
    <glyph glyph-name="dotaccent" unicode="&#x2d9;" horiz-adv-x="195" 
d="M2 674c0 53 43 97 95 97c54 0 96 -44 96 -97c0 -52 -42 -95 -96 -95c-52 0 -95 43 -95 95z" />
    <glyph glyph-name="grave" unicode="`" horiz-adv-x="264" 
d="M262 675l-83 -86l-177 163l84 85z" />
    <glyph glyph-name="acute" unicode="&#xb4;" horiz-adv-x="264" 
d="M262 752l-177 -163l-83 86l176 162z" />
    <glyph glyph-name="hungarumlaut" unicode="&#x2dd;" horiz-adv-x="388" 
d="M207 816l-96 -210l-109 47l94 207zM386 816l-96 -210l-109 47l94 207z" />
    <glyph glyph-name="circumflex" unicode="&#x2c6;" horiz-adv-x="350" 
d="M175 827l173 -153l-85 -80l-88 79l-88 -79l-85 80z" />
    <glyph glyph-name="caron" unicode="&#x2c7;" horiz-adv-x="350" 
d="M175 749l88 78l85 -80l-173 -153l-173 153l85 80z" />
    <glyph glyph-name="breve" unicode="&#x2d8;" horiz-adv-x="341" 
d="M170 626c-99 0 -167 64 -168 172h120c0 -45 17 -64 48 -64s49 19 49 64h120c-1 -108 -67 -172 -169 -172z" />
    <glyph glyph-name="ring" unicode="&#x2da;" horiz-adv-x="269" 
d="M134 605c-73 0 -132 56 -132 129c0 74 59 131 132 131c74 0 133 -57 133 -131c0 -73 -59 -129 -133 -129zM134 701c21 0 34 13 34 34c0 20 -13 34 -34 34c-20 0 -34 -14 -34 -34c0 -21 14 -34 34 -34z" />
    <glyph glyph-name="tilde" unicode="&#x2dc;" horiz-adv-x="429" 
d="M285 613c-26 0 -50 9 -79 24c-19 12 -31 17 -44 17c-21 0 -38 -12 -55 -39l-105 53c32 77 77 120 140 120c25 0 48 -10 78 -25c16 -9 31 -15 46 -15c21 0 37 9 56 40l105 -53c-34 -85 -84 -122 -142 -122z" />
    <glyph glyph-name="macron" unicode="&#xaf;" horiz-adv-x="338" 
d="M337 774v-150h-335v150h335z" />
    <glyph glyph-name="cedilla" unicode="&#xb8;" horiz-adv-x="252" 
d="M167 0l-6 -28c56 -12 90 -48 90 -100c0 -70 -50 -113 -135 -113c-40 0 -78 11 -114 29l31 81c27 -12 56 -20 82 -20c24 0 37 9 37 22c0 12 -10 21 -38 21h-71l25 108h99z" />
    <glyph glyph-name="ogonek" unicode="&#x2db;" horiz-adv-x="234" 
d="M139 -243c-85 0 -131 39 -131 112c0 62 36 107 74 136l125 -5c-35 -20 -66 -64 -66 -98c0 -23 12 -35 37 -35c10 0 22 4 30 8l17 -101c-19 -9 -50 -17 -86 -17z" />
    <glyph glyph-name="caron.alt" horiz-adv-x="134" 
d="M2 766h130v-56l-22 -174h-108v230z" />
    <glyph glyph-name="uni0308.case" 
d="M-546 899c0 53 41 94 93 94s94 -42 94 -94c0 -51 -41 -93 -94 -93s-93 41 -93 93zM-324 899c0 53 40 94 93 94c52 0 94 -42 94 -94c0 -51 -41 -93 -94 -93s-93 41 -93 93z" />
    <glyph glyph-name="gravecomb.case" 
d="M-255 882l-84 -86l-177 162l85 86z" />
    <glyph glyph-name="acutecomb.case" 
d="M-169 958l-177 -162l-84 86l176 162z" />
    <glyph glyph-name="uni0302.case" 
d="M-342 1033l173 -153l-85 -79l-88 78l-88 -78l-86 79z" />
    <glyph glyph-name="uni030C.case" 
d="M-310 955l87 78l86 -80l-173 -152l-174 152l86 80z" />
    <glyph glyph-name="uni030A.case" 
d="M-342 812c-73 0 -132 55 -132 129s59 130 132 130c74 0 133 -56 133 -130s-59 -129 -133 -129zM-342 907c21 0 34 14 34 34c0 21 -13 35 -34 35c-20 0 -34 -14 -34 -35c0 -20 14 -34 34 -34z" />
    <glyph glyph-name="tildecomb.case" 
d="M-271 820c-26 0 -50 8 -79 24c-20 12 -31 17 -44 17c-22 0 -38 -12 -55 -40l-106 54c33 77 77 120 141 120c25 0 48 -10 78 -26c16 -8 31 -15 46 -15c21 0 37 9 56 41l105 -54c-35 -84 -84 -121 -142 -121z" />
    <glyph glyph-name="uni0308.nrw.case" 
d="M-338 899c0 56 37 94 93 94c55 0 93 -38 93 -94c0 -55 -38 -93 -93 -93c-56 0 -93 38 -93 93zM-134 899c0 56 38 94 93 94c56 0 94 -38 94 -94c0 -55 -38 -93 -94 -93c-55 0 -93 38 -93 93z" />
    <glyph glyph-name="uni0302.nrw.case" 
d="M-143 1040l156 -161l-87 -78l-68 78l-69 -78l-88 78z" />
    <glyph glyph-name="dieresis.nrw" horiz-adv-x="396" 
d="M2 693c0 55 38 94 93 94c56 0 94 -39 94 -94s-38 -93 -94 -93c-55 0 -93 38 -93 93zM207 693c0 55 38 94 93 94c56 0 94 -39 94 -94s-38 -93 -94 -93c-55 0 -93 38 -93 93z" />
    <glyph glyph-name="circumflex.nrw" horiz-adv-x="316" 
d="M158 833l156 -160l-88 -79l-68 77l-68 -77l-88 79z" />
    <glyph glyph-name="breve.nrw" horiz-adv-x="305" 
d="M152 610c-88 0 -148 52 -150 157h120c1 -29 9 -49 30 -49s30 20 31 49h121c-3 -105 -61 -157 -152 -157z" />
    <glyph glyph-name="tilde.nrw" horiz-adv-x="322" 
d="M96 795c25 0 40 -8 66 -26c17 -12 25 -16 34 -16c14 0 22 14 22 48l103 -44c0 -92 -49 -136 -95 -136c-25 0 -40 7 -66 25c-17 13 -25 17 -33 17c-15 0 -22 -14 -23 -48l-102 44c0 92 46 136 94 136z" />
    <glyph glyph-name="macron.nrw" horiz-adv-x="279" 
d="M277 774v-150h-275v150h275z" />
    </font>
</defs>
</svg>
